<svg width="30" height="29" viewBox="0 0 30 29" fill="none" xmlns="http://www.w3.org/2000/svg">
<path d="M0 8.21411C0 3.79583 3.58172 0.214111 8 0.214111H20C24.4183 0.214111 28 3.79583 28 8.21411V20.2141C28 24.6324 24.4183 28.2141 20 28.2141H8C3.58172 28.2141 0 24.6324 0 20.2141V8.21411Z" fill="#FCF2F0"/>
<path d="M14.2054 16.3517L26.8572 3.69891L26.8572 3.69889C27.1105 3.44555 27.4541 3.30322 27.8124 3.30322C28.1707 3.30322 28.5143 3.44555 28.7677 3.6989C29.021 3.95224 29.1633 4.29585 29.1633 4.65414C29.1633 5.01242 29.021 5.35603 28.7677 5.60938L15.1608 19.2162L15.1606 19.2164L14.2054 16.3517ZM14.2054 16.3517L9.20756 11.3529L9.20752 11.3529C8.95418 11.0995 8.61057 10.9572 8.25228 10.9572C7.894 10.9572 7.55039 11.0995 7.29704 11.3529C7.04369 11.6062 6.90137 11.9498 6.90137 12.3081C6.90137 12.6664 7.04369 13.01 7.29704 13.2633L13.2499 19.2162L13.2501 19.2164L13.6037 18.8629L14.2054 16.3517Z" fill="#EC9685" stroke="#EC9685"/>
</svg>
