<svg width="20" height="21" viewBox="0 0 20 21" fill="none" xmlns="http://www.w3.org/2000/svg">
<path d="M17.5 6.29199C16.5058 6.29096 15.5525 5.89554 14.8495 5.1925C14.1465 4.48946 13.751 3.53624 13.75 2.54199C13.75 2.37623 13.6842 2.21726 13.5669 2.10005C13.4497 1.98284 13.2908 1.91699 13.125 1.91699H10C9.83424 1.91699 9.67527 1.98284 9.55806 2.10005C9.44085 2.21726 9.375 2.37623 9.375 2.54199V12.8545C9.37487 13.1341 9.29972 13.4085 9.15739 13.6492C9.01506 13.8898 8.81076 14.0879 8.5658 14.2227C8.32084 14.3575 8.0442 14.4241 7.76474 14.4155C7.48527 14.407 7.21322 14.3236 6.97695 14.1741C6.74069 14.0246 6.54888 13.8144 6.42152 13.5655C6.29416 13.3166 6.23592 13.0381 6.25288 12.759C6.26983 12.4799 6.36137 12.2105 6.51793 11.9789C6.67449 11.7472 6.89034 11.5618 7.14297 11.442C7.24983 11.3913 7.34011 11.3113 7.40331 11.2113C7.46651 11.1113 7.50004 10.9954 7.5 10.8771V7.54199C7.50004 7.45063 7.48005 7.36037 7.44144 7.27758C7.40283 7.19478 7.34653 7.12145 7.27652 7.06276C7.2065 7.00406 7.12447 6.96143 7.03621 6.93787C6.94794 6.91431 6.85558 6.91038 6.76562 6.92637C3.97734 7.42324 1.875 9.97168 1.875 12.8545C1.875 14.4292 2.50056 15.9394 3.61405 17.0529C4.72755 18.1664 6.23778 18.792 7.8125 18.792C9.38722 18.792 10.8974 18.1664 12.0109 17.0529C13.1244 15.9394 13.75 14.4292 13.75 12.8545V9.75215C14.9075 10.3561 16.1944 10.67 17.5 10.667C17.6658 10.667 17.8247 10.6011 17.9419 10.4839C18.0592 10.3667 18.125 10.2078 18.125 10.042V6.91699C18.125 6.75123 18.0592 6.59226 17.9419 6.47505C17.8247 6.35784 17.6658 6.29199 17.5 6.29199ZM16.875 9.38887C15.6536 9.28064 14.4841 8.84473 13.4898 8.12715C13.3964 8.05996 13.2862 8.01988 13.1714 8.01133C13.0566 8.00278 12.9417 8.02609 12.8394 8.07869C12.737 8.1313 12.6511 8.21114 12.5912 8.30944C12.5314 8.40773 12.4998 8.52065 12.5 8.63574V12.8545C12.5 14.0977 12.0061 15.29 11.1271 16.1691C10.248 17.0481 9.0557 17.542 7.8125 17.542C6.5693 17.542 5.37701 17.0481 4.49794 16.1691C3.61886 15.29 3.125 14.0977 3.125 12.8545C3.125 10.8311 4.425 9.01621 6.25 8.35449V10.5162C5.84598 10.7862 5.51878 11.1562 5.30031 11.5902C5.08184 12.0242 4.97954 12.5075 5.00339 12.9928C5.02724 13.4781 5.17641 13.949 5.43638 14.3595C5.69635 14.77 6.05825 15.1062 6.48679 15.3352C6.91533 15.5642 7.3959 15.6783 7.88166 15.6664C8.36742 15.6544 8.8418 15.5169 9.25857 15.267C9.67533 15.0172 10.0203 14.6636 10.2597 14.2408C10.4992 13.818 10.625 13.3404 10.625 12.8545V3.16699H12.5391C12.6796 4.26784 13.1816 5.29088 13.9664 6.07561C14.7511 6.86035 15.7742 7.36237 16.875 7.50293V9.38887Z" fill="#14141A"/>
</svg>
