<svg width="20" height="21" viewBox="0 0 20 21" fill="none" xmlns="http://www.w3.org/2000/svg">
<path d="M12.8469 10.1467L9.09688 7.64668C9.00273 7.58387 8.89329 7.5478 8.78024 7.54232C8.6672 7.53684 8.55479 7.56217 8.45501 7.61558C8.35523 7.669 8.27183 7.74851 8.21371 7.84563C8.15559 7.94274 8.12493 8.05382 8.125 8.167V13.167C8.12493 13.2802 8.15559 13.3912 8.21371 13.4884C8.27183 13.5855 8.35523 13.665 8.45501 13.7184C8.55479 13.7718 8.6672 13.7971 8.78024 13.7917C8.89329 13.7862 9.00273 13.7501 9.09688 13.6873L12.8469 11.1873C12.9326 11.1303 13.0029 11.0529 13.0515 10.9621C13.1002 10.8714 13.1256 10.77 13.1256 10.667C13.1256 10.564 13.1002 10.4626 13.0515 10.3719C13.0029 10.2811 12.9326 10.2037 12.8469 10.1467ZM9.375 11.999V9.33887L11.3734 10.667L9.375 11.999ZM18.307 6.09824C18.2334 5.81023 18.0924 5.54386 17.8955 5.32108C17.6987 5.09831 17.4517 4.92553 17.175 4.817C14.4969 3.78262 10.2344 3.792 10 3.792C9.76562 3.792 5.50312 3.78262 2.825 4.817C2.54825 4.92553 2.30128 5.09831 2.10445 5.32108C1.90762 5.54386 1.76658 5.81023 1.69297 6.09824C1.49063 6.87793 1.25 8.30293 1.25 10.667C1.25 13.0311 1.49063 14.4561 1.69297 15.2357C1.76647 15.5239 1.90746 15.7904 2.1043 16.0133C2.30113 16.2363 2.54816 16.4092 2.825 16.5178C5.39062 17.5076 9.40625 17.542 9.94844 17.542H10.0516C10.5938 17.542 14.6117 17.5076 17.175 16.5178C17.4518 16.4092 17.6989 16.2363 17.8957 16.0133C18.0925 15.7904 18.2335 15.5239 18.307 15.2357C18.5094 14.4545 18.75 13.0311 18.75 10.667C18.75 8.30293 18.5094 6.87793 18.307 6.09824ZM17.0969 14.9264C17.0731 15.0222 17.0269 15.1111 16.9621 15.1856C16.8973 15.2602 16.8158 15.3183 16.7242 15.3553C14.2516 16.31 10.0461 16.2928 10.0055 16.2928H10C9.95781 16.2928 5.75547 16.3084 3.28125 15.3553C3.18966 15.3183 3.10814 15.2602 3.04337 15.1856C2.97859 15.1111 2.9324 15.0222 2.90859 14.9264C2.71875 14.2131 2.5 12.899 2.5 10.667C2.5 8.43496 2.71875 7.1209 2.90313 6.41153C2.92649 6.31511 2.97248 6.22563 3.03728 6.15051C3.10208 6.07538 3.18383 6.01676 3.27578 5.9795C5.66016 5.0584 9.65547 5.042 9.98281 5.042H10.0039C10.0461 5.042 14.2523 5.02793 16.7227 5.9795C16.8142 6.01646 16.8958 6.0746 16.9605 6.14915C17.0253 6.22371 17.0715 6.31255 17.0953 6.4084C17.2812 7.1209 17.5 8.43496 17.5 10.667C17.5 12.899 17.2812 14.2131 17.0969 14.9225V14.9264Z" fill="#14141A"/>
</svg>
