<svg width="20" height="21" viewBox="0 0 20 21" fill="none" xmlns="http://www.w3.org/2000/svg">
<path d="M10 6.91699C9.25832 6.91699 8.5333 7.13693 7.91661 7.54898C7.29993 7.96104 6.81928 8.54671 6.53545 9.23193C6.25162 9.91715 6.17736 10.6712 6.32206 11.3986C6.46675 12.126 6.8239 12.7942 7.34835 13.3186C7.8728 13.8431 8.54098 14.2002 9.26841 14.3449C9.99584 14.4896 10.7498 14.4154 11.4351 14.1315C12.1203 13.8477 12.706 13.3671 13.118 12.7504C13.5301 12.1337 13.75 11.4087 13.75 10.667C13.749 9.67275 13.3535 8.71952 12.6505 8.01648C11.9475 7.31345 10.9942 6.91803 10 6.91699ZM10 13.167C9.50555 13.167 9.0222 13.0204 8.61107 12.7457C8.19995 12.471 7.87952 12.0805 7.6903 11.6237C7.50108 11.1669 7.45157 10.6642 7.54804 10.1793C7.6445 9.69431 7.8826 9.24886 8.23223 8.89923C8.58186 8.54959 9.02732 8.31149 9.51227 8.21503C9.99723 8.11857 10.4999 8.16807 10.9567 8.35729C11.4135 8.54651 11.804 8.86694 12.0787 9.27807C12.3534 9.68919 12.5 10.1725 12.5 10.667C12.5 11.33 12.2366 11.9659 11.7678 12.4348C11.2989 12.9036 10.663 13.167 10 13.167ZM13.75 2.54199H6.25C5.09006 2.54323 3.97798 3.00457 3.15778 3.82477C2.33758 4.64497 1.87624 5.75705 1.875 6.91699V14.417C1.87624 15.5769 2.33758 16.689 3.15778 17.5092C3.97798 18.3294 5.09006 18.7908 6.25 18.792H13.75C14.9099 18.7908 16.022 18.3294 16.8422 17.5092C17.6624 16.689 18.1238 15.5769 18.125 14.417V6.91699C18.1238 5.75705 17.6624 4.64497 16.8422 3.82477C16.022 3.00457 14.9099 2.54323 13.75 2.54199ZM16.875 14.417C16.875 15.2458 16.5458 16.0406 15.9597 16.6267C15.3737 17.2128 14.5788 17.542 13.75 17.542H6.25C5.4212 17.542 4.62634 17.2128 4.04029 16.6267C3.45424 16.0406 3.125 15.2458 3.125 14.417V6.91699C3.125 6.08819 3.45424 5.29333 4.04029 4.70728C4.62634 4.12123 5.4212 3.79199 6.25 3.79199H13.75C14.5788 3.79199 15.3737 4.12123 15.9597 4.70728C16.5458 5.29333 16.875 6.08819 16.875 6.91699V14.417ZM15 6.60449C15 6.78991 14.945 6.97117 14.842 7.12534C14.739 7.27951 14.5926 7.39967 14.4213 7.47063C14.25 7.54159 14.0615 7.56015 13.8796 7.52398C13.6977 7.4878 13.5307 7.39852 13.3996 7.26741C13.2685 7.13629 13.1792 6.96925 13.143 6.78739C13.1068 6.60553 13.1254 6.41703 13.1964 6.24573C13.2673 6.07442 13.3875 5.928 13.5417 5.82499C13.6958 5.72198 13.8771 5.66699 14.0625 5.66699C14.3111 5.66699 14.5496 5.76576 14.7254 5.94158C14.9012 6.11739 15 6.35585 15 6.60449Z" fill="#14141A"/>
</svg>
