<svg width="20" height="21" viewBox="0 0 20 21" fill="none" xmlns="http://www.w3.org/2000/svg">
<path d="M10 2.54199C8.39303 2.54199 6.82214 3.01852 5.486 3.9113C4.14985 4.80409 3.10844 6.07304 2.49348 7.55769C1.87852 9.04234 1.71762 10.676 2.03112 12.2521C2.34463 13.8282 3.11846 15.2759 4.25476 16.4122C5.39106 17.5485 6.8388 18.3224 8.4149 18.6359C9.99099 18.9494 11.6247 18.7885 13.1093 18.1735C14.594 17.5586 15.8629 16.5171 16.7557 15.181C17.6485 13.8449 18.125 12.274 18.125 10.667C18.1227 8.51281 17.266 6.4475 15.7427 4.92426C14.2195 3.40102 12.1542 2.54427 10 2.54199ZM10.625 17.5131V12.542H12.5C12.6658 12.542 12.8247 12.4761 12.9419 12.3589C13.0592 12.2417 13.125 12.0828 13.125 11.917C13.125 11.7512 13.0592 11.5923 12.9419 11.475C12.8247 11.3578 12.6658 11.292 12.5 11.292H10.625V9.41699C10.625 9.08547 10.7567 8.76753 10.9911 8.53311C11.2255 8.29869 11.5435 8.16699 11.875 8.16699H13.125C13.2908 8.16699 13.4497 8.10114 13.5669 7.98393C13.6842 7.86672 13.75 7.70775 13.75 7.54199C13.75 7.37623 13.6842 7.21726 13.5669 7.10005C13.4497 6.98284 13.2908 6.91699 13.125 6.91699H11.875C11.212 6.91699 10.5761 7.18038 10.1072 7.64923C9.6384 8.11807 9.375 8.75395 9.375 9.41699V11.292H7.5C7.33424 11.292 7.17527 11.3578 7.05806 11.475C6.94085 11.5923 6.875 11.7512 6.875 11.917C6.875 12.0828 6.94085 12.2417 7.05806 12.3589C7.17527 12.4761 7.33424 12.542 7.5 12.542H9.375V17.5131C7.61312 17.3522 5.98107 16.5184 4.81831 15.1849C3.65556 13.8515 3.05162 12.1211 3.13212 10.3537C3.21263 8.58636 3.97137 6.91805 5.25053 5.69583C6.52969 4.4736 8.2308 3.79155 10 3.79155C11.7692 3.79155 13.4703 4.4736 14.7495 5.69583C16.0286 6.91805 16.7874 8.58636 16.8679 10.3537C16.9484 12.1211 16.3444 13.8515 15.1817 15.1849C14.0189 16.5184 12.3869 17.3522 10.625 17.5131Z" fill="#14141A"/>
</svg>
