<svg width="16" height="17" viewBox="0 0 16 17" fill="none" xmlns="http://www.w3.org/2000/svg">
<path d="M14.6431 7.84538L11.8306 10.2723L12.6875 13.9016C12.7347 14.0987 12.7226 14.3053 12.6525 14.4954C12.5824 14.6855 12.4575 14.8505 12.2937 14.9697C12.1298 15.0889 11.9343 15.1569 11.7319 15.165C11.5294 15.1731 11.3291 15.121 11.1562 15.0154L7.99996 13.0729L4.84184 15.0154C4.66898 15.1204 4.4689 15.172 4.2668 15.1636C4.06469 15.1552 3.8696 15.0871 3.70609 14.968C3.54257 14.849 3.41795 14.6842 3.3479 14.4944C3.27786 14.3046 3.26553 14.0984 3.31246 13.9016L4.17246 10.2723L1.35996 7.84538C1.20702 7.7132 1.09641 7.53889 1.04195 7.34422C0.987486 7.14956 0.99158 6.94316 1.05372 6.7508C1.11586 6.55844 1.23329 6.38866 1.39135 6.26265C1.54941 6.13663 1.7411 6.05998 1.94246 6.04226L5.62996 5.74476L7.05246 2.30226C7.12946 2.11464 7.26051 1.95416 7.42894 1.84122C7.59738 1.72827 7.7956 1.66797 7.9984 1.66797C8.2012 1.66797 8.39942 1.72827 8.56785 1.84122C8.73629 1.95416 8.86734 2.11464 8.94434 2.30226L10.3662 5.74476L14.0537 6.04226C14.2555 6.05932 14.4477 6.13555 14.6064 6.26139C14.765 6.38722 14.883 6.55708 14.9455 6.74967C15.008 6.94226 15.0123 7.14901 14.9579 7.34404C14.9034 7.53906 14.7926 7.71368 14.6393 7.84601L14.6431 7.84538Z" fill="#FAAF00"/>
</svg>
