<svg width="531" height="425" viewBox="0 0 531 425" fill="none" xmlns="http://www.w3.org/2000/svg">
<g clip-path="url(#clip0_185_906)">
<path d="M89.1146 424.838C89.1146 424.838 81.4645 406.007 104.414 391.885L89.1146 424.838Z" fill="#F0F0F0"/>
<path d="M79.7063 424.495C79.7063 424.495 77.3728 411.074 59.3109 411.189L79.7063 424.495Z" fill="#F0F0F0"/>
<path d="M345.257 424.838C345.257 424.838 337.606 406.007 360.556 391.885L345.257 424.838Z" fill="#F0F0F0"/>
<path d="M335.848 424.495C335.848 424.495 333.515 411.074 315.453 411.189L335.848 424.495Z" fill="#F0F0F0"/>
<path d="M338.955 302.915C375.68 302.915 405.452 273.143 405.452 236.418C405.452 199.693 375.68 169.921 338.955 169.921C302.23 169.921 272.458 199.693 272.458 236.418C272.458 273.143 302.23 302.915 338.955 302.915Z" fill="#F0F0F0"/>
<path d="M339.138 236.417H339.321L342.609 424.947H335.667L339.138 236.417Z" fill="#F0F0F0"/>
<path d="M481.723 335.94C508.509 335.94 530.224 314.225 530.224 287.439C530.224 260.653 508.509 238.938 481.723 238.938C454.937 238.938 433.222 260.653 433.222 287.439C433.222 314.225 454.937 335.94 481.723 335.94Z" fill="#F0F0F0"/>
<path d="M481.856 287.439H481.989L484.388 424.947H479.324L481.856 287.439Z" fill="#F0F0F0"/>
<path d="M213.148 287.932C214.078 287.826 214.972 287.517 215.769 287.027C216.565 286.537 217.245 285.879 217.76 285.098C218.274 284.317 218.612 283.433 218.748 282.508C218.884 281.583 218.815 280.639 218.547 279.743L236.984 266.445L225.941 262.251L210.126 275.522C208.651 276.072 207.429 277.144 206.691 278.536C205.954 279.927 205.752 281.54 206.125 283.07C206.497 284.599 207.418 285.939 208.713 286.836C210.007 287.732 211.585 288.122 213.148 287.932Z" fill="#FFB6B6"/>
<path d="M199.632 418.37L193.778 418.37L190.993 395.79H199.634L199.632 418.37Z" fill="#FFB6B6"/>
<path d="M201.125 424.045L182.249 424.044V423.806C182.249 421.857 183.023 419.988 184.401 418.61C185.779 417.233 187.647 416.459 189.596 416.458L201.125 416.459L201.125 424.045Z" fill="#2F2E41"/>
<path d="M154.917 418.37L149.063 418.37L146.278 395.79H154.918L154.917 418.37Z" fill="#FFB6B6"/>
<path d="M156.41 424.045L137.533 424.044V423.806C137.534 421.857 138.308 419.988 139.686 418.61C141.063 417.233 142.932 416.459 144.881 416.458L156.41 416.459L156.41 424.045Z" fill="#2F2E41"/>
<path d="M159.438 292.806L147.032 360.653L142.693 414.543L156.781 413.85L164.801 361.518L184.734 315.953L190.667 413.724L203.636 413.766L210.614 290.092L159.438 292.806Z" fill="#2F2E41"/>
<path d="M212.202 215.149L194.813 208.229L174.864 210.512L157.952 219.861C157.952 219.861 163.125 284.741 155.626 299.959C155.626 299.959 161.635 308.282 186.115 306.25C186.115 306.25 209.962 303.236 210.553 295.416C211.144 287.597 211.269 273.379 211.269 273.379L219.546 244.855L212.202 215.149Z" fill="#4B4BFA"/>
<path d="M164.749 221.11L157.952 219.861C157.952 219.861 150.719 223.032 150.793 232.482C150.867 241.933 138.015 273.615 153.391 274.944C168.768 276.272 164.749 252.476 164.749 252.476V221.11Z" fill="#4B4BFA"/>
<path d="M206.687 219.174L212.202 215.148C212.202 215.148 220.623 217.051 223.738 223.829C223.738 223.829 258.269 248.874 248.771 258.372C239.273 267.87 219.911 279.56 219.911 279.56L212.743 271.443L230.528 255.331L215.938 242.039L206.687 219.174Z" fill="#4B4BFA"/>
<path d="M197.868 190.241C197.866 194.026 196.361 197.655 193.684 200.33C191.007 203.005 187.377 204.508 183.592 204.508C179.807 204.508 176.177 203.005 173.5 200.33C170.823 197.655 169.318 194.026 169.316 190.241V189.693C169.462 185.959 171.067 182.431 173.785 179.867C176.503 177.303 180.119 175.906 183.855 175.978C187.591 176.05 191.151 177.584 193.769 180.25C196.387 182.917 197.855 186.504 197.858 190.241H197.868Z" fill="#FFB6B6"/>
<path d="M185.762 187.94C186.675 187.79 187.665 187.648 188.484 188.068C190.263 188.977 189.853 191.556 190.825 193.259C191.209 193.935 191.83 194.486 192.085 195.217C192.341 195.947 192.184 196.861 192.586 197.566C193.167 198.585 194.741 198.735 195.775 198.128C196.753 197.451 197.462 196.451 197.777 195.305C198.12 194.333 198.409 193.259 199.238 192.623C199.54 192.452 199.81 192.23 200.038 191.969C200.21 191.623 200.276 191.235 200.228 190.851C200.228 188.382 199.845 186.468 200.404 184.075C201.299 180.217 202.117 178.31 199.282 175.45C197.831 174.004 195.963 173.048 193.941 172.717C192.115 172.418 189.426 174.968 187.578 174.909C182.876 174.723 178.909 170.368 174.426 171.775C172.466 172.391 170.767 173.641 169.597 175.329C167.405 178.559 167.602 179.808 167.92 183.662C167.915 183.955 168.001 184.242 168.165 184.484C168.329 184.681 168.596 184.787 168.757 184.988C168.93 185.254 168.995 185.575 168.939 185.887C168.89 186.515 168.744 187.131 168.505 187.713C168.444 187.811 168.407 187.921 168.396 188.035C168.384 188.149 168.399 188.264 168.439 188.371C168.529 188.493 168.658 188.581 168.804 188.619C170.631 189.277 172.603 188.009 174.558 188.042C176.512 188.075 178.368 189.383 180.385 189.098C182.164 188.824 183.968 188.236 185.762 187.94Z" fill="#2F2E41"/>
<path d="M185.667 267.307C185.546 267.354 185.419 267.387 185.29 267.405L169.437 269.618C169.054 269.673 168.663 269.595 168.329 269.399C167.996 269.202 167.739 268.897 167.601 268.535L153.956 233.029C153.867 232.799 153.829 232.553 153.845 232.307C153.86 232.061 153.928 231.821 154.045 231.604C154.161 231.387 154.323 231.198 154.519 231.049C154.715 230.9 154.941 230.795 155.182 230.742L170.09 227.415C170.205 227.389 170.316 227.348 170.42 227.294L184.92 219.713C185.032 219.654 185.151 219.608 185.273 219.576L201.23 215.322C201.639 215.212 202.074 215.258 202.451 215.45C202.828 215.642 203.12 215.967 203.271 216.363L215.169 247.322C215.273 247.592 215.308 247.884 215.268 248.17C215.229 248.457 215.117 248.729 214.944 248.96L210.829 254.486C210.636 254.746 210.372 254.946 210.069 255.062L201.077 258.518C201.012 258.542 200.95 258.572 200.89 258.606L185.905 267.194C185.829 267.238 185.75 267.276 185.667 267.307Z" fill="white"/>
<path d="M193.043 220.055L191.017 220.595L185.647 222.028L185.637 222.03L178.285 225.874L175.557 227.301L175.556 227.301L171.458 229.443L171.346 229.469L167.089 230.418L165.032 230.878L156.641 232.75L169.813 267.027L178.46 265.821L180.58 265.524L185.099 264.893L185.152 264.886L199.673 256.563L208.508 253.168L212.541 247.751L201.075 217.914L193.043 220.055Z" fill="#E4E4E4"/>
<path d="M202.964 222.83L159.28 239.618L160.028 241.565L203.712 224.777L202.964 222.83Z" fill="white"/>
<path d="M205.457 229.319L161.773 246.107L162.522 248.054L206.206 231.265L205.457 229.319Z" fill="white"/>
<path d="M210.495 242.426L166.811 259.214L167.559 261.16L211.243 244.372L210.495 242.426Z" fill="white"/>
<path d="M193.043 220.055L206.121 254.085L204.174 254.833L191.016 220.596L193.043 220.055Z" fill="white"/>
<path d="M178.286 225.874L175.6 233.347L174.669 235.938L172.497 241.986L172.031 243.278L171.565 244.578L170.952 246.283L166.55 258.535L165.405 255.557L168.995 245.566L169.807 243.304L169.926 242.974L170.886 240.299L172.098 236.927L173.03 234.334L175.556 227.302L175.557 227.301L178.286 225.874Z" fill="white"/>
<path d="M167.089 230.418L180.58 265.524L178.46 265.821L165.031 230.878L167.089 230.418Z" fill="white"/>
<path d="M164.201 264.034C167.631 264.034 170.412 261.254 170.412 257.824C170.412 254.394 167.631 251.614 164.201 251.614C160.772 251.614 157.991 254.394 157.991 257.824C157.991 261.254 160.772 264.034 164.201 264.034Z" fill="#FFB6B6"/>
<path d="M420.64 220.774C481.59 220.774 531 171.364 531 110.414C531 49.4632 481.59 0.0532227 420.64 0.0532227C359.689 0.0532227 310.279 49.4632 310.279 110.414C310.279 171.364 359.689 220.774 420.64 220.774Z" fill="#E4E4E4"/>
<path opacity="0.1" d="M502.126 36.7017C512.42 60.7815 513.817 87.7372 506.066 112.752C498.315 137.767 481.922 159.21 459.817 173.251C437.711 187.292 411.333 193.015 385.396 189.397C359.459 185.78 335.653 173.057 318.233 153.504C324.522 168.216 333.933 181.384 345.816 192.098C357.699 202.811 371.77 210.812 387.052 215.548C402.335 220.284 418.464 221.64 434.323 219.524C450.181 217.407 465.39 211.867 478.896 203.289C492.401 194.711 503.88 183.299 512.537 169.844C521.195 156.39 526.823 141.213 529.033 125.367C531.242 109.521 529.981 93.3841 525.335 78.0741C520.689 62.7642 512.77 48.6473 502.126 36.7017Z" fill="black"/>
<path d="M420.336 110.414H420.033L414.575 423.304H426.097L420.336 110.414Z" fill="#E4E4E4"/>
<path d="M500.886 424.638H0.599864C0.44077 424.638 0.288192 424.575 0.175696 424.462C0.0631993 424.35 0 424.197 0 424.038C0 423.879 0.0631993 423.727 0.175696 423.614C0.288192 423.502 0.44077 423.438 0.599864 423.438H500.886C501.045 423.438 501.198 423.502 501.311 423.614C501.423 423.727 501.486 423.879 501.486 424.038C501.486 424.197 501.423 424.35 501.311 424.462C501.198 424.575 501.045 424.638 500.886 424.638Z" fill="#CACACA"/>
</g>
<defs>
<clipPath id="clip0_185_906">
<rect width="531" height="424.894" fill="white" transform="translate(0 0.0532227)"/>
</clipPath>
</defs>
</svg>
