<svg width="225" height="190" viewBox="0 0 225 190" fill="none" xmlns="http://www.w3.org/2000/svg">
<path d="M0.833252 16.9111C0.833252 8.35073 7.77284 1.41113 16.3333 1.41113H208.333C216.894 1.41113 223.833 8.35072 223.833 16.9111V173.711C223.833 182.272 216.894 189.211 208.333 189.211H16.3333C7.77284 189.211 0.833252 182.272 0.833252 173.711V16.9111Z" fill="#FAFAFA"/>
<path d="M0.833252 16.9111C0.833252 8.35073 7.77284 1.41113 16.3333 1.41113H208.333C216.894 1.41113 223.833 8.35072 223.833 16.9111V173.711C223.833 182.272 216.894 189.211 208.333 189.211H16.3333C7.77284 189.211 0.833252 182.272 0.833252 173.711V16.9111Z" stroke="#F0F0F0"/>
<g clip-path="url(#clip0_51_170)">
<path opacity="0.1" d="M72.7355 84.1877H55.6599C55.0552 84.1877 54.5649 84.678 54.5649 85.2827V88.9168C54.5649 89.5215 55.0552 90.0117 55.6599 90.0117H72.7355C73.3402 90.0117 73.8304 89.5215 73.8304 88.9168V85.2827C73.8304 84.678 73.3402 84.1877 72.7355 84.1877Z" fill="#4B4BFA"/>
<path opacity="0.1" d="M92.8968 90.0132H75.8213C75.2165 90.0132 74.7263 90.5034 74.7263 91.1081V94.7422C74.7263 95.347 75.2165 95.8372 75.8213 95.8372H92.8968C93.5016 95.8372 93.9918 95.347 93.9918 94.7422V91.1081C93.9918 90.5034 93.5016 90.0132 92.8968 90.0132Z" fill="#4B4BFA"/>
<path opacity="0.1" d="M113.06 95.8372H95.9844C95.3796 95.8372 94.8894 96.3274 94.8894 96.9321V100.566C94.8894 101.171 95.3796 101.661 95.9844 101.661H113.06C113.665 101.661 114.155 101.171 114.155 100.566V96.9321C114.155 96.3274 113.665 95.8372 113.06 95.8372Z" fill="#4B4BFA"/>
<path opacity="0.1" d="M72.7355 75.4517H55.6599C55.0552 75.4517 54.5649 75.9419 54.5649 76.5466V80.1807C54.5649 80.7854 55.0552 81.2757 55.6599 81.2757H72.7355C73.3402 81.2757 73.8304 80.7854 73.8304 80.1807V76.5466C73.8304 75.9419 73.3402 75.4517 72.7355 75.4517Z" fill="#4B4BFA"/>
<path opacity="0.1" d="M92.8968 81.2756H75.8213C75.2165 81.2756 74.7263 81.7659 74.7263 82.3706V86.0047C74.7263 86.6094 75.2165 87.0996 75.8213 87.0996H92.8968C93.5016 87.0996 93.9918 86.6094 93.9918 86.0047V82.3706C93.9918 81.7659 93.5016 81.2756 92.8968 81.2756Z" fill="#4B4BFA"/>
<path opacity="0.1" d="M113.06 87.1011H95.9844C95.3796 87.1011 94.8894 87.5913 94.8894 88.196V91.8301C94.8894 92.4348 95.3796 92.9251 95.9844 92.9251H113.06C113.665 92.9251 114.155 92.4348 114.155 91.8301V88.196C114.155 87.5913 113.665 87.1011 113.06 87.1011Z" fill="#4B4BFA"/>
<path opacity="0.1" d="M135.461 84.1877H118.386C117.781 84.1877 117.291 84.678 117.291 85.2827V88.9168C117.291 89.5215 117.781 90.0117 118.386 90.0117H135.461C136.066 90.0117 136.556 89.5215 136.556 88.9168V85.2827C136.556 84.678 136.066 84.1877 135.461 84.1877Z" fill="#4B4BFA"/>
<path opacity="0.1" d="M155.623 90.0132H138.547C137.942 90.0132 137.452 90.5034 137.452 91.1081V94.7422C137.452 95.347 137.942 95.8372 138.547 95.8372H155.623C156.227 95.8372 156.718 95.347 156.718 94.7422V91.1081C156.718 90.5034 156.227 90.0132 155.623 90.0132Z" fill="#4B4BFA"/>
<path opacity="0.1" d="M175.786 95.8372H158.71C158.105 95.8372 157.615 96.3274 157.615 96.9321V100.566C157.615 101.171 158.105 101.661 158.71 101.661H175.786C176.39 101.661 176.88 101.171 176.88 100.566V96.9321C176.88 96.3274 176.39 95.8372 175.786 95.8372Z" fill="#4B4BFA"/>
<path opacity="0.1" d="M135.461 75.4517H118.386C117.781 75.4517 117.291 75.9419 117.291 76.5466V80.1807C117.291 80.7854 117.781 81.2757 118.386 81.2757H135.461C136.066 81.2757 136.556 80.7854 136.556 80.1807V76.5466C136.556 75.9419 136.066 75.4517 135.461 75.4517Z" fill="#4B4BFA"/>
<path opacity="0.1" d="M155.623 81.2756H138.547C137.942 81.2756 137.452 81.7659 137.452 82.3706V86.0047C137.452 86.6094 137.942 87.0996 138.547 87.0996H155.623C156.227 87.0996 156.718 86.6094 156.718 86.0047V82.3706C156.718 81.7659 156.227 81.2756 155.623 81.2756Z" fill="#4B4BFA"/>
<path opacity="0.1" d="M175.786 87.1011H158.71C158.105 87.1011 157.615 87.5913 157.615 88.196V91.8301C157.615 92.4348 158.105 92.9251 158.71 92.9251H175.786C176.39 92.9251 176.88 92.4348 176.88 91.8301V88.196C176.88 87.5913 176.39 87.1011 175.786 87.1011Z" fill="#4B4BFA"/>
<path opacity="0.1" d="M72.7355 63.8022H55.6599C55.0552 63.8022 54.5649 64.2925 54.5649 64.8972V68.5313C54.5649 69.136 55.0552 69.6262 55.6599 69.6262H72.7355C73.3402 69.6262 73.8304 69.136 73.8304 68.5313V64.8972C73.8304 64.2925 73.3402 63.8022 72.7355 63.8022Z" fill="#4B4BFA"/>
<path opacity="0.1" d="M92.8968 69.6262H75.8213C75.2165 69.6262 74.7263 70.1164 74.7263 70.7212V74.3553C74.7263 74.96 75.2165 75.4502 75.8213 75.4502H92.8968C93.5016 75.4502 93.9918 74.96 93.9918 74.3553V70.7212C93.9918 70.1164 93.5016 69.6262 92.8968 69.6262Z" fill="#4B4BFA"/>
<path opacity="0.1" d="M113.06 75.4517H95.9844C95.3796 75.4517 94.8894 75.9419 94.8894 76.5466V80.1807C94.8894 80.7854 95.3796 81.2757 95.9844 81.2757H113.06C113.665 81.2757 114.155 80.7854 114.155 80.1807V76.5466C114.155 75.9419 113.665 75.4517 113.06 75.4517Z" fill="#4B4BFA"/>
<path opacity="0.1" d="M72.7355 55.0647H55.6599C55.0552 55.0647 54.5649 55.5549 54.5649 56.1596V59.7938C54.5649 60.3985 55.0552 60.8887 55.6599 60.8887H72.7355C73.3402 60.8887 73.8304 60.3985 73.8304 59.7938V56.1596C73.8304 55.5549 73.3402 55.0647 72.7355 55.0647Z" fill="#4B4BFA"/>
<path opacity="0.1" d="M92.8968 60.8901H75.8213C75.2165 60.8901 74.7263 61.3804 74.7263 61.9851V65.6192C74.7263 66.2239 75.2165 66.7141 75.8213 66.7141H92.8968C93.5016 66.7141 93.9918 66.2239 93.9918 65.6192V61.9851C93.9918 61.3804 93.5016 60.8901 92.8968 60.8901Z" fill="#4B4BFA"/>
<path opacity="0.1" d="M113.06 66.7141H95.9844C95.3796 66.7141 94.8894 67.2043 94.8894 67.8091V71.4432C94.8894 72.0479 95.3796 72.5381 95.9844 72.5381H113.06C113.665 72.5381 114.155 72.0479 114.155 71.4432V67.8091C114.155 67.2043 113.665 66.7141 113.06 66.7141Z" fill="#4B4BFA"/>
<path opacity="0.1" d="M135.461 63.8022H118.386C117.781 63.8022 117.291 64.2925 117.291 64.8972V68.5313C117.291 69.136 117.781 69.6262 118.386 69.6262H135.461C136.066 69.6262 136.556 69.136 136.556 68.5313V64.8972C136.556 64.2925 136.066 63.8022 135.461 63.8022Z" fill="#4B4BFA"/>
<path opacity="0.1" d="M155.623 69.6262H138.547C137.942 69.6262 137.452 70.1164 137.452 70.7212V74.3553C137.452 74.96 137.942 75.4502 138.547 75.4502H155.623C156.227 75.4502 156.718 74.96 156.718 74.3553V70.7212C156.718 70.1164 156.227 69.6262 155.623 69.6262Z" fill="#4B4BFA"/>
<path opacity="0.1" d="M175.786 75.4517H158.71C158.105 75.4517 157.615 75.9419 157.615 76.5466V80.1807C157.615 80.7854 158.105 81.2757 158.71 81.2757H175.786C176.39 81.2757 176.88 80.7854 176.88 80.1807V76.5466C176.88 75.9419 176.39 75.4517 175.786 75.4517Z" fill="#4B4BFA"/>
<path opacity="0.1" d="M135.461 55.0647H118.386C117.781 55.0647 117.291 55.5549 117.291 56.1596V59.7938C117.291 60.3985 117.781 60.8887 118.386 60.8887H135.461C136.066 60.8887 136.556 60.3985 136.556 59.7938V56.1596C136.556 55.5549 136.066 55.0647 135.461 55.0647Z" fill="#4B4BFA"/>
<path opacity="0.1" d="M155.623 60.8901H138.547C137.942 60.8901 137.452 61.3804 137.452 61.9851V65.6192C137.452 66.2239 137.942 66.7141 138.547 66.7141H155.623C156.227 66.7141 156.718 66.2239 156.718 65.6192V61.9851C156.718 61.3804 156.227 60.8901 155.623 60.8901Z" fill="#4B4BFA"/>
<path opacity="0.1" d="M175.786 66.7141H158.71C158.105 66.7141 157.615 67.2043 157.615 67.8091V71.4432C157.615 72.0479 158.105 72.5381 158.71 72.5381H175.786C176.39 72.5381 176.88 72.0479 176.88 71.4432V67.8091C176.88 67.2043 176.39 66.7141 175.786 66.7141Z" fill="#4B4BFA"/>
<path opacity="0.1" d="M112.333 151.311C156.853 151.311 192.944 144.746 192.944 136.648C192.944 128.55 156.853 121.985 112.333 121.985C67.8132 121.985 31.7227 128.55 31.7227 136.648C31.7227 144.746 67.8132 151.311 112.333 151.311Z" fill="#4B4BFA"/>
<path d="M67.0912 86.6162L60.3123 128.174L90.9649 124.932L89.6386 121.395L65.6912 123.385L71.2912 86.5425L67.0912 86.6162Z" fill="#3F3D56"/>
<path d="M59.1333 39.4584L100.396 39.311L112.333 129.648L70.9228 135.248L59.1333 39.4584Z" fill="#3F3D56"/>
<path d="M63.6279 42.9216H96.9332L108.575 126.922L74.2385 131.637L63.6279 42.9216Z" fill="white"/>
<path d="M95.038 123.143C95.2472 123.544 95.4035 123.977 95.6761 124.338C96.4719 125.402 97.9824 125.569 99.1157 126.263C99.1724 126.292 99.2191 126.337 99.2498 126.393C99.3013 126.515 99.1864 126.643 99.0759 126.72C98.2167 127.322 97.0893 127.336 96.0386 127.328C95.6855 127.341 95.3322 127.307 94.9879 127.228C94.4323 127.081 93.9563 126.693 93.4081 126.536C93.1238 126.465 92.8329 126.424 92.5401 126.413L91.3891 126.335C91.0827 126.331 90.7793 126.274 90.4917 126.169C90.3484 126.114 90.2213 126.023 90.1223 125.906C90.0234 125.789 89.9557 125.649 89.9258 125.498C89.8933 125.253 89.998 125.016 90.0599 124.777C90.2072 124.212 90.1616 123.528 90.6022 123.142C90.7838 123.003 90.9919 122.902 91.2138 122.847C92.0147 122.577 92.8324 122.359 93.6616 122.196C94.3439 122.061 94.7359 122.562 95.038 123.143Z" fill="#3F3D56"/>
<path d="M82.0195 126.331C82.049 126.644 82.0578 127.004 81.8308 127.224C81.6895 127.341 81.5188 127.417 81.3372 127.445C80.2481 127.698 79.0338 127.716 78.0862 127.123C77.9876 127.067 77.9006 126.993 77.8298 126.904C77.7508 126.783 77.706 126.643 77.7001 126.499C77.6662 126.082 77.7944 125.67 77.9109 125.268C78.1863 124.313 78.3956 123.341 78.5372 122.358C78.549 122.277 81.318 122.8 81.5022 123.074C81.7336 123.413 81.7351 124.226 81.797 124.63C81.8903 125.194 81.9645 125.761 82.0195 126.331Z" fill="#3F3D56"/>
<path d="M92.3265 87.9823L93.0634 94.8335C93.2107 96.2335 93.3655 97.6409 93.2638 99.0453C93.1459 100.666 92.692 102.287 92.8836 103.894C92.9587 104.519 93.1297 105.132 93.1547 105.761C93.1594 106.179 93.1382 106.598 93.0914 107.014C92.7583 111.171 93.812 115.296 94.4015 119.423C94.4963 119.933 94.5171 120.453 94.4634 120.968C94.3867 121.491 94.2335 122.178 94.6991 122.425L90.3253 124.011C89.7667 123.311 90.1366 122.222 90.0305 121.333C89.9333 120.533 89.4941 119.82 89.2598 119.049C89.0476 118.356 89.0034 117.627 88.9341 116.908C88.5524 112.992 87.3808 109.178 87.1067 105.254C87.0979 104.875 87.0485 104.498 86.9594 104.13C86.812 103.642 86.5172 103.216 86.3021 102.758C85.972 102.069 85.8099 101.315 85.6507 100.569L84.7149 96.1849C83.7688 97.5937 83.8071 99.427 83.62 101.116C83.3577 103.474 82.7711 105.792 82.2937 108.12C82.1827 108.621 82.0996 109.128 82.0446 109.638C81.9208 111.004 82.1669 112.384 82.0358 113.748C81.8884 115.33 81.2238 116.872 81.3844 118.454C81.4728 119.329 81.8088 120.157 82.0358 121.006C82.2627 121.855 82.3747 122.786 82.0284 123.595C80.818 123.151 79.5178 123.007 78.2396 123.177C76.8351 121.74 76.5861 119.736 76.4903 117.724C76.3945 115.713 76.6259 113.698 76.3754 111.706C76.3017 111.116 76.1867 110.542 76.1676 109.954C76.1057 108.069 77.012 106.305 77.4629 104.473C77.8688 102.824 77.9075 101.106 77.5764 99.4402C77.3554 98.3394 76.9751 97.271 76.8396 96.1554C76.6554 94.5918 76.9678 93.0165 77.2817 91.472C77.4924 90.4301 77.7017 89.3882 77.9404 88.3522C78.1968 87.2396 78.5019 86.1034 79.1871 85.1927C80.2836 83.7352 82.2303 83.0882 84.0503 83.2297C85.8703 83.3712 87.5695 84.1994 89.0726 85.231C90.2573 86.0227 91.3489 86.9457 92.3265 87.9823Z" fill="#192534"/>
<path d="M87.437 61.7478C87.3543 61.8806 87.2969 62.0275 87.2675 62.1811C87.2306 62.4832 87.4148 62.7602 87.5622 63.024C87.751 63.3629 87.8961 63.7244 87.994 64.0998C88.0642 64.3321 88.0857 64.5764 88.0574 64.8175C88.0214 64.9985 87.9567 65.1727 87.8658 65.3333C87.5814 65.8815 87.1599 66.3884 86.5866 66.6169C86.1427 66.7803 85.6586 66.7999 85.2028 66.6729C84.7502 66.5447 84.3223 66.3415 83.937 66.0716C83.6122 65.8658 83.3201 65.6124 83.0704 65.32C82.832 65.0003 82.6313 64.6541 82.4721 64.2884C82.1656 63.6474 81.8546 62.9621 81.9106 62.2592C81.9136 62.1954 81.9255 62.1324 81.946 62.072C81.9939 61.9628 82.0607 61.8631 82.1435 61.7773C82.7722 61.0322 83.0946 60.0762 83.0454 59.1025L85.1925 59.5903C85.6656 59.6979 86.1386 59.8055 86.6058 59.9396C86.989 60.0501 87.5784 60.2034 87.8275 60.5453C88.0765 60.8872 87.6064 61.4354 87.437 61.7478Z" fill="#FBBEBE"/>
<path d="M86.2873 61.3823C88.4425 61.3823 90.1896 59.6351 90.1896 57.48C90.1896 55.3248 88.4425 53.5776 86.2873 53.5776C84.1321 53.5776 82.385 55.3248 82.385 57.48C82.385 59.6351 84.1321 61.3823 86.2873 61.3823Z" fill="#FBBEBE"/>
<path d="M85.6595 65.3524C85.8246 64.9914 86.1812 64.763 86.5069 64.536C86.8326 64.3091 87.1627 64.0187 87.226 63.6253C87.2299 63.5363 87.252 63.449 87.2909 63.3688C87.4161 63.1802 87.7138 63.2745 87.8921 63.4131C88.3254 63.7505 88.6201 64.2295 88.9075 64.6966C89.2793 65.2647 89.5975 65.8661 89.858 66.4931C90.2721 67.5851 90.3222 68.7773 90.3679 69.9429C90.4092 71.004 90.449 72.0813 90.1911 73.1099C90.029 73.7613 89.749 74.3935 89.7328 75.064C89.6841 77.5 88.8382 79.8284 88.7793 82.2644C88.7749 82.9688 88.8103 83.6729 88.8854 84.3733L89.0239 85.9545C86.8812 85.8317 84.7443 85.6436 82.6134 85.3901C82.5515 84.6621 82.3437 83.9562 82.1536 83.2518C81.3752 80.3719 80.8762 77.4237 80.6637 74.448C80.5502 72.8682 80.4338 71.2943 80.2585 69.7204C80.1008 68.2895 79.7913 66.8497 79.977 65.4217C80.0742 64.7726 80.2783 64.1442 80.5812 63.5619C80.6769 63.3299 80.8415 63.1329 81.0528 62.9975C81.1583 62.9465 81.2704 62.9103 81.3858 62.8899C81.7199 62.8222 82.059 62.7823 82.3997 62.7705C82.483 62.7635 82.5668 62.7715 82.6473 62.7941C82.7909 62.8657 82.9088 62.98 82.9848 63.1213C83.6414 64.1084 84.5706 64.8835 85.6595 65.3524Z" fill="#F2F2F2"/>
<path d="M83.8499 65.04C84.124 65.432 84.7046 65.5248 84.9581 65.9242C85.0435 66.0911 85.1083 66.2678 85.1511 66.4503C85.3059 66.944 85.6183 67.3729 85.8084 67.8547C86.0825 68.5474 86.0899 69.3137 86.0928 70.0579C86.1197 70.6507 86.0742 71.2446 85.9572 71.8263C85.8688 72.1903 85.7244 72.5366 85.6183 72.8962C85.4381 73.5077 85.3711 74.147 85.4208 74.7825C85.4208 74.9198 85.4575 75.0546 85.5269 75.1731C85.6269 75.2914 85.7573 75.3801 85.9042 75.4295C86.336 75.6196 86.7884 75.8141 87.26 75.7699C87.3567 75.7669 87.4504 75.7356 87.5296 75.68C87.5843 75.6302 87.6292 75.5708 87.6623 75.5046L87.957 75.0065C88.2237 74.5512 88.5023 74.0413 88.3991 73.5211C88.3242 73.2526 88.2116 72.996 88.0646 72.7592C87.8762 72.3747 87.7157 71.9773 87.5842 71.5699C87.1141 70.2185 86.6381 68.848 86.532 67.4215C86.4696 66.8786 86.53 66.3286 86.7088 65.8122C86.8472 65.4944 87.0212 65.1933 87.2275 64.9147C87.1809 64.8521 87.1163 64.8052 87.0423 64.7802C86.9683 64.7552 86.8885 64.7533 86.8134 64.7747C86.6652 64.8205 86.5216 64.8803 86.3846 64.9531C85.9513 65.1358 85.4709 65.0695 85.0332 64.9442C84.8623 64.8941 84.5911 64.7232 84.4143 64.735C84.3539 64.7423 83.8602 65.0577 83.8499 65.04Z" fill="#4B4BFA"/>
<path d="M87.2998 65.0238C87.2114 64.9531 87.0743 64.8882 86.9962 64.9708C86.97 65.0065 86.951 65.0471 86.9402 65.0901C86.8636 65.2965 86.6381 65.3981 86.4333 65.4777C86.2284 65.5573 86.0074 65.6015 85.8836 65.4497C85.8445 65.3906 85.8253 65.3206 85.8288 65.2498C85.8322 65.1791 85.8581 65.1113 85.9028 65.0562C85.9934 64.947 86.1027 64.8547 86.2255 64.7836C86.9034 64.3051 87.3651 63.5786 87.5105 62.7617C87.7006 62.9128 87.8265 63.1303 87.8628 63.3703C87.9114 63.6047 87.9173 63.8463 87.9659 64.0807C88.0381 64.4167 88.1988 64.7306 88.2356 65.071C88.2548 65.2522 88.2356 65.435 88.2356 65.6162C88.2422 65.7935 88.2629 65.9699 88.2975 66.1438C87.9526 65.7784 87.7095 65.3495 87.2998 65.0238Z" fill="#F2F2F2"/>
<path d="M84.3171 64.0234C84.1697 63.8834 84.0223 63.7508 83.875 63.6078C83.2283 62.9766 82.74 62.2015 82.4499 61.3457C82.2613 61.4931 82.0535 61.6876 82.0491 61.9352C82.0659 62.1104 82.1335 62.2768 82.2436 62.4141C82.8009 63.2917 83.1688 64.276 83.3238 65.304C83.4034 65.1796 83.5137 65.0778 83.644 65.0084C83.7744 64.939 83.9204 64.9043 84.068 64.9076C84.3009 64.9076 85.3457 65.5265 85.4209 65.3703C85.5314 65.1257 84.4939 64.1899 84.3171 64.0234Z" fill="#F2F2F2"/>
<path d="M87.6078 62.8502C88.9941 64.2302 90.6911 65.2576 92.5564 65.8462C92.7419 65.8866 92.9139 65.9739 93.056 66.0997C93.1622 66.2323 93.2336 66.3893 93.2638 66.5565C93.6234 67.9624 93.7442 69.4169 93.8636 70.8626C93.8949 71.1017 93.8899 71.3442 93.8489 71.5818C93.7619 71.9679 93.4878 72.2803 93.2181 72.5706C92.3722 73.4769 91.407 74.4245 91.264 75.6565C91.2531 75.894 91.225 76.1304 91.18 76.3639C91.1063 76.638 90.9428 76.8797 90.8425 77.1464C90.3503 78.4595 91.463 80.0496 90.7851 81.2727C91.152 81.9778 91.4038 82.737 91.5308 83.5216C91.5535 83.819 91.6216 84.1112 91.7326 84.3881C91.9345 84.8096 92.3501 85.0778 92.6773 85.4197C93.675 86.4424 93.7973 88.0075 93.8562 89.4355C93.8931 90.2401 93.8813 91.1641 93.2668 91.6917C92.9116 91.9997 92.4268 92.0999 91.9625 92.1765C91.3451 92.2797 90.6731 92.3534 90.1263 92.0483C89.7343 91.8302 89.4676 91.4485 89.2126 91.0801C88.7293 90.3772 88.2444 89.6757 87.7861 88.955C87.0611 87.8188 86.3773 86.5205 86.5865 85.1883C86.5276 86.5515 86.2402 87.9249 85.5712 89.1127C84.9021 90.3005 83.8249 91.2923 82.5177 91.6843C81.2105 92.0763 79.6823 91.7993 78.7082 90.8443C78.3902 90.5169 78.1172 90.1487 77.8962 89.7494C77.3417 88.7998 76.9371 87.7703 76.6966 86.6974C76.6333 86.4188 76.5861 86.1079 76.7261 85.8588C76.7924 85.7409 76.8941 85.6481 76.9634 85.5317C77.1962 85.1353 76.9722 84.6357 76.7468 84.2319C76.4034 84.2643 76.1573 83.8605 76.1882 83.5157C76.2192 83.1708 76.4255 82.8717 76.5714 82.5578C76.9988 81.6323 76.9044 80.555 76.6981 79.5574C76.4918 78.5597 76.1838 77.5679 76.2074 76.5496C76.2324 75.4723 75.4573 74.5026 74.8663 73.6022C74.5362 73.0953 74.1516 72.6237 73.8642 72.0917C73.2651 70.9721 73.1266 69.663 73.4781 68.4428C73.6845 67.8163 73.9551 67.2128 74.2857 66.642L74.772 65.7298C74.8626 65.5118 75.0031 65.3182 75.1823 65.1646C75.3615 65.011 75.5743 64.9017 75.8036 64.8456L79.168 63.5193C79.5982 63.3723 80.0067 63.1681 80.3823 62.9121C80.7935 62.6026 81.1 62.1753 81.492 61.8452C81.5491 61.7851 81.6177 61.7372 81.6936 61.704C81.7695 61.6709 81.8513 61.6532 81.9341 61.6521C82.2495 61.6801 82.3615 62.078 82.3939 62.3889C82.4676 63.0845 82.9834 63.674 83.1588 64.3504C84.1078 68.0862 86.1164 71.5317 86.6676 75.3456C87.2865 73.8586 87.9055 72.3687 88.6983 70.9687C88.8234 70.7677 88.9285 70.555 89.0122 70.3336C89.1074 70.0142 89.1429 69.6799 89.1169 69.3477C89.0771 68.3883 88.8221 67.451 88.5701 66.5241C88.243 65.2626 87.9482 64.0999 87.6078 62.8502Z" fill="#3F3D56"/>
<path d="M94.0198 74.2653C94.0846 74.8931 94.148 75.5223 94.2644 76.1428C94.4 76.8604 94.6063 77.5619 94.8111 78.2634C94.9112 78.6577 95.0545 79.0397 95.2385 79.4025C95.3052 79.5079 95.3582 79.6213 95.3962 79.74C95.4684 80.0348 95.3033 80.3295 95.2326 80.6242C95.0204 81.5084 95.657 82.4914 95.2562 83.3063C95.1353 83.5539 94.9246 83.7588 94.845 84.024C94.7522 84.3291 94.845 84.6548 94.8936 84.9701C95.0189 85.8543 94.7168 86.7533 94.4191 87.6036L93.9122 89.039C93.4494 88.1783 92.9823 87.3089 92.3427 86.5705C92.1143 86.3053 91.8652 86.0592 91.6545 85.7792C91.3403 85.3392 91.092 84.8556 90.9176 84.3438C90.4677 83.1278 90.2107 81.8489 90.1558 80.5535C90.1192 80.1852 90.1619 79.8134 90.281 79.463C90.3785 79.2603 90.4878 79.0635 90.6082 78.8735C91.0031 78.1617 91.0842 77.3188 91.0768 76.5053C91.0694 75.6918 90.9825 74.8754 91.0768 74.0663C91.1538 73.3908 91.3535 72.7351 91.6663 72.1314C91.8508 71.7405 92.1249 71.3986 92.4665 71.1337C92.7214 70.9429 93.0323 70.8418 93.3507 70.8463C93.8326 70.8743 93.7221 71.2884 93.7633 71.6878L94.0198 74.2653Z" fill="#3F3D56"/>
<path d="M72.3434 72.2597C72.0427 73.1439 71.7716 74.036 71.5299 74.9359C71.2941 75.8201 71.0834 76.7093 70.8977 77.6033C70.8023 77.9964 70.749 78.3985 70.7385 78.8029C70.7574 79.2737 70.8381 79.7399 70.9787 80.1896C71.9278 83.61 73.6579 86.7652 75.6061 89.7317C76.1628 89.0374 76.824 88.4339 77.5661 87.9427C77.6268 87.9067 77.6775 87.856 77.7135 87.7953C77.7321 87.738 77.7376 87.6772 77.7294 87.6175C77.7213 87.5578 77.6997 87.5007 77.6663 87.4505C77.1284 86.3482 76.2766 85.377 76.0084 84.1789C75.8964 83.6808 75.892 83.162 75.7653 82.6669C75.6017 82.0258 75.2362 81.4393 75.1522 80.782C75.0623 80.0658 75.2996 79.2848 74.9636 78.6496C75.6488 78.3829 76.0453 77.677 76.3356 77.0006C76.6458 76.3086 76.8676 75.5802 76.9958 74.8328C77.1976 73.3998 76.9171 71.9404 76.1985 70.6844C75.8475 70.0578 75.3971 69.4924 74.8648 69.0103C74.6895 68.8526 74.2754 68.4002 74.0204 68.4046C73.68 68.4119 73.5709 68.9631 73.4737 69.2107C73.0802 70.2216 72.6912 71.234 72.3434 72.2597Z" fill="#3F3D56"/>
<path d="M78.4472 88.7547C78.4914 88.7871 78.5415 88.8313 78.5297 88.8844C78.5179 88.9374 78.4752 88.9507 78.4369 88.9728C78.2376 89.1141 78.0889 89.3155 78.0125 89.5475C77.7676 90.0995 77.554 90.6648 77.3729 91.2408C77.0431 90.7467 76.6552 90.294 76.2175 89.8924C75.8815 89.5829 75.5057 89.2896 75.3259 88.8711C75.3259 88.8593 76.0981 88.289 76.1689 88.2271C76.3855 88.0341 76.6581 87.4991 76.8821 87.3812C77.1356 87.2486 77.3773 87.7688 77.5703 87.9781C77.8359 88.2656 78.1297 88.5258 78.4472 88.7547Z" fill="#FBBEBE"/>
<path d="M90.4313 56.8701C90.421 56.677 90.396 56.4634 90.2486 56.3381C90.1193 56.2486 89.9635 56.2055 89.8065 56.2158C88.9473 56.1878 88.0587 56.3322 87.2482 56.0434C86.7147 55.8532 86.2593 55.4878 85.7391 55.2608C85.2189 55.0339 84.5528 54.9735 84.1328 55.3551C83.8145 55.6499 83.7276 56.1023 83.617 56.5194C83.3737 57.4398 82.9405 58.2992 82.3452 59.0423C81.9459 58.9185 81.66 58.5619 81.4758 58.1876C80.8494 56.9114 81.1575 55.3876 81.6025 54.0347C81.7499 53.5808 81.9135 53.1314 82.077 52.6834L82.4366 51.693C82.9086 51.6467 83.347 51.4285 83.6686 51.08L83.8233 51.4558C84.223 51.4414 84.6087 51.3051 84.9286 51.0652C85.0524 51.2981 85.3707 51.36 85.6286 51.2848C85.8865 51.2097 86.109 51.0653 86.3655 50.9901C87.0507 50.769 87.7817 51.1095 88.5008 51.1478C88.8051 51.1404 89.1096 51.1492 89.413 51.1743C90.2619 51.3114 90.8617 52.1101 91.121 52.9295C91.2935 53.4747 91.4364 54.1453 91.9743 54.3383C91.9861 54.5446 91.6206 54.5844 91.5897 54.7804C91.586 54.8458 91.6014 54.9108 91.6339 54.9676L92.1276 56.0271C91.8916 56.0864 91.6433 56.0741 91.4143 55.9918C91.1918 56.5149 90.4535 57.2695 90.4313 56.8701Z" fill="#192534"/>
<path d="M115.448 59.1762C115.699 59.9842 115.895 60.8078 116.038 61.6416C116.144 62.2665 116.206 62.9606 115.848 63.4823C117.212 61.4294 118.637 59.3147 120.711 57.9899C120.289 57.532 119.968 56.9905 119.768 56.4005C119.569 55.8104 119.496 55.1851 119.554 54.565C119.566 54.4412 117.852 55.0882 117.721 55.1619C117.12 55.4964 116.568 55.912 115.982 56.2701C115.678 56.4543 114.414 56.8905 114.402 57.1543C114.402 57.3237 114.905 57.8425 114.999 58.0208C115.184 58.3913 115.334 58.778 115.448 59.1762Z" fill="#FBBEBE"/>
<path d="M121.79 136.601C121.453 136.363 121.058 136.222 120.647 136.191C120.236 136.159 119.824 136.24 119.456 136.424C118.788 136.769 118.339 137.422 117.731 137.864C116.688 138.621 115.31 138.682 114.088 139.091C113.764 139.2 113.419 139.362 113.282 139.681C113.236 139.815 113.218 139.956 113.228 140.097C113.239 140.239 113.278 140.376 113.343 140.502C113.547 140.957 113.905 141.326 114.354 141.544C114.902 141.806 115.533 141.818 116.14 141.825L121.416 141.887C123.037 141.906 124.668 141.925 126.279 142.127C126.655 142.174 127.061 142.226 127.393 142.042C127.932 141.747 127.994 141.001 127.953 140.387C127.844 138.83 127.496 137.299 126.921 135.848C126.858 135.687 126.774 135.504 126.596 135.475C126.469 135.469 126.345 135.509 126.245 135.587C124.756 136.471 122.872 136.971 121.289 136.263" fill="white"/>
<path d="M124.431 102.942C123.841 106.365 124.226 109.883 124.889 113.292C125.011 113.97 125.172 114.641 125.371 115.302C125.608 116.053 125.928 116.775 126.151 117.531C126.716 119.447 126.637 121.496 126.553 123.495L126.167 132.595C126.134 133.359 126.105 134.14 126.335 134.868C126.428 135.162 126.541 135.531 126.307 135.73C126.215 135.796 126.108 135.837 125.996 135.849C124.941 136.044 123.852 135.88 122.901 135.385L122.796 126.192C122.764 123.358 122.73 120.513 122.294 117.714C121.948 115.489 121.346 113.293 121.307 111.041C121.265 108.683 121.843 106.356 122.432 104.071C122.559 103.581 123.022 103.223 123.402 102.892C123.535 102.761 123.696 102.663 123.874 102.606C124.051 102.557 124.322 102.793 124.431 102.942Z" fill="#3F3D56"/>
<path opacity="0.1" d="M124.431 102.942C123.841 106.365 124.226 109.883 124.889 113.292C125.011 113.97 125.172 114.641 125.371 115.302C125.608 116.053 125.928 116.775 126.151 117.531C126.716 119.447 126.637 121.496 126.553 123.495L126.167 132.595C126.134 133.359 126.105 134.14 126.335 134.868C126.428 135.162 126.541 135.531 126.307 135.73C126.215 135.796 126.108 135.837 125.996 135.849C124.941 136.044 123.852 135.88 122.901 135.385L122.796 126.192C122.764 123.358 122.73 120.513 122.294 117.714C121.948 115.489 121.346 113.293 121.307 111.041C121.265 108.683 121.843 106.356 122.432 104.071C122.559 103.581 123.022 103.223 123.402 102.892C123.535 102.761 123.696 102.663 123.874 102.606C124.051 102.557 124.322 102.793 124.431 102.942Z" fill="black"/>
<path d="M113.365 92.2429C113.147 93.1404 113.61 94.0703 113.558 94.9928C113.529 95.5514 113.309 96.1084 113.411 96.6566C113.512 97.2048 113.904 97.6175 114.114 98.12C114.266 98.5397 114.347 98.9821 114.352 99.4286C114.413 100.531 114.364 101.639 114.323 102.737C114.254 104.579 114.202 106.432 114.445 108.257C114.657 109.839 115.087 111.384 115.723 112.848C115.916 113.246 116.075 113.66 116.199 114.084C116.28 114.48 116.334 114.881 116.361 115.284C116.501 116.595 116.853 117.875 117.403 119.073C117.779 119.894 118.434 120.547 118.642 121.417C118.84 122.252 118.707 123.131 118.85 123.976C118.955 124.602 119.21 125.195 119.351 125.813C119.535 126.614 119.531 127.443 119.624 128.26C119.889 130.618 120.96 132.976 120.321 135.263C120.193 135.723 119.994 136.19 120.083 136.658C120.128 136.888 120.24 137.115 120.19 137.344C120.148 137.538 119.998 137.688 119.921 137.873C119.774 138.217 119.93 138.627 120.193 138.894C120.472 139.143 120.798 139.335 121.15 139.46C122.237 139.924 123.361 140.396 124.54 140.385C124.683 140.393 124.826 140.367 124.957 140.309C125.169 140.198 125.274 139.958 125.364 139.737L125.968 138.243C126.042 138.061 126.115 137.849 126.014 137.681C125.943 137.589 125.857 137.509 125.76 137.445C125.272 137.034 125.383 136.266 125.513 135.649C125.844 134.063 126.027 132.45 126.061 130.83C126.126 127.6 125.594 124.388 125.063 121.201C124.879 120.094 124.693 118.98 124.326 117.919C123.959 116.858 123.418 115.837 123.507 114.734C123.601 113.544 123.292 112.295 123.507 111.121C123.722 109.946 124.062 108.797 124.282 107.624C124.566 106.101 124.637 104.55 124.724 103.005C124.761 102.375 124.808 101.723 125.103 101.163C125.275 100.836 125.526 100.556 125.719 100.239C126.217 99.4154 126.297 98.3941 126.773 97.557C126.998 97.1606 127.309 96.8113 127.474 96.3869C127.59 96.0522 127.651 95.7008 127.654 95.3465C127.701 94.4571 127.651 93.5653 127.506 92.6865C124.998 91.41 122.216 90.7645 119.401 90.8061C118.324 90.8238 117.235 90.9328 116.224 91.3057C115.26 91.6638 114.382 92.1663 113.365 92.2429Z" fill="#3F3D56"/>
<path d="M119.407 138.932C118.974 139.471 119.003 140.242 118.726 140.877C118.39 141.648 117.641 142.142 116.931 142.591L112.51 145.391C112.268 145.539 112.009 145.72 111.921 145.994C111.879 146.169 111.886 146.352 111.943 146.523C112.048 146.893 112.245 147.23 112.515 147.504C112.785 147.778 113.119 147.98 113.487 148.091C113.878 148.184 114.28 148.225 114.682 148.213L116.67 148.24C117.276 148.264 117.882 148.24 118.484 148.169C119.035 148.09 119.572 147.932 120.12 147.832C121.118 147.65 122.143 147.667 123.143 147.491C123.754 147.371 124.359 147.215 124.952 147.024C125.674 146.807 126.41 146.582 127.029 146.153C127.199 146.049 127.337 145.9 127.428 145.723C127.533 145.48 127.475 145.201 127.416 144.943L126.467 140.773C126.414 140.425 126.287 140.093 126.096 139.799C125.885 139.519 125.506 139.333 125.178 139.452C125.042 139.514 124.914 139.591 124.796 139.682C124.31 140.002 123.686 140.055 123.112 139.955C122.74 139.889 122.25 139.787 121.95 139.541C121.723 139.354 121.656 139.063 121.463 138.851C121.327 138.712 121.164 138.603 120.984 138.531C120.804 138.459 120.611 138.426 120.417 138.434C120.223 138.441 120.033 138.49 119.859 138.576C119.685 138.661 119.531 138.783 119.407 138.932Z" fill="white"/>
<path d="M116.541 58.6015C119.481 58.6015 121.865 56.2177 121.865 53.2771C121.865 50.3365 119.481 47.9526 116.541 47.9526C113.6 47.9526 111.216 50.3365 111.216 53.2771C111.216 56.2177 113.6 58.6015 116.541 58.6015Z" fill="#FBBEBE"/>
<path d="M112.433 53.5896C112.943 53.3037 112.943 52.4799 113.465 52.2058C113.987 51.9317 114.579 52.4077 114.913 52.8881C115.401 53.5917 115.74 54.3876 115.908 55.2269C115.955 55.4656 116 55.7264 116.179 55.893C116.359 56.0595 116.595 56.0801 116.825 56.1037C117.498 56.1705 118.172 56.2314 118.847 56.2864C119.598 56.3469 120.391 56.3955 121.073 56.0727C121.343 55.9524 121.574 55.7608 121.743 55.5186C121.878 55.2861 121.974 55.0333 122.028 54.77C122.381 53.4304 122.736 52.0746 122.765 50.6894C122.777 50.1176 122.727 49.5252 122.451 49.0241C122.291 48.7294 122.055 48.473 121.989 48.1487C121.922 47.8245 122.136 47.4119 122.472 47.4473C122.168 47.4598 121.866 47.4023 121.588 47.2793C121.321 47.1319 121.124 46.8151 121.218 46.5262C120.469 46.622 119.924 45.8822 119.34 45.4033C119.246 45.3092 119.117 45.2563 118.984 45.2559C118.881 45.2815 118.782 45.3196 118.689 45.3694C118.394 45.4725 118.086 45.2765 117.784 45.1911C116.974 44.9641 115.944 45.5123 115.342 44.9229C115.4 45.2986 114.939 45.5506 114.558 45.5433C114.178 45.5359 113.786 45.3959 113.427 45.5226C113.479 45.6179 113.509 45.7235 113.516 45.8318C113.522 45.9402 113.505 46.0487 113.464 46.1495C113.424 46.2503 113.362 46.341 113.283 46.415C113.203 46.4891 113.108 46.5446 113.005 46.5778L113.183 46.9669C113 47.0036 112.83 47.0909 112.693 47.219C112.556 47.3472 112.458 47.5109 112.41 47.6919C112.214 48.4656 112.262 49.565 112.309 50.3607C112.333 50.71 112.673 53.4584 112.433 53.5896Z" fill="#192534"/>
<path d="M116.977 60.14C114.302 63.1478 113.621 67.3817 113.051 71.368L112.211 77.2539C111.993 78.7807 111.769 80.3074 111.579 81.8386C111.446 82.8864 111.322 83.9504 111.467 84.9967C111.58 85.8219 111.856 86.6177 112.086 87.412C112.684 89.4954 112.982 91.6536 112.97 93.8211C113.148 93.2965 113.766 93.0843 114.308 92.9664C118.859 91.9791 123.606 92.4861 127.845 94.412C128.59 92.3268 128.45 90.0455 128.657 87.8409C128.952 84.6975 129.967 81.6514 130.268 78.5139C130.379 77.3453 130.392 76.1708 130.404 74.9963C130.413 74.1342 130.421 73.2632 130.242 72.4188C130.041 71.4845 129.618 70.6135 129.181 69.7662C127.971 67.4106 126.626 65.1266 125.154 62.9253C124.414 61.8171 123.641 60.731 122.836 59.667C122.429 59.1276 122.013 58.5942 121.588 58.0666C121.177 57.5552 120.999 57.1116 120.346 57.4182C119.112 57.9958 117.874 59.1306 116.977 60.14Z" fill="#4B4BFA"/>
<path d="M118.509 85.1752C117.857 85.1988 117.203 85.1781 116.554 85.1133C116.072 85.0661 115.58 84.9954 115.11 85.1133C114.905 85.1647 114.714 85.2586 114.548 85.3888C114.487 85.4435 114.442 85.5149 114.421 85.5943C114.4 85.6737 114.402 85.7576 114.427 85.8358C114.453 85.914 114.5 85.9831 114.565 86.0346C114.629 86.086 114.706 86.1177 114.788 86.1257L115.292 86.1699C115.612 86.1979 115.945 86.2303 116.194 86.4646C116.296 86.5567 116.361 86.683 116.377 86.8198C116.408 87.1632 116.11 87.3503 115.843 87.4933C115.464 87.6713 115.114 87.9047 114.803 88.1859C114.56 88.4208 114.407 88.7338 114.371 89.0701C114.37 89.1001 114.377 89.1298 114.391 89.1563C114.405 89.1829 114.426 89.2052 114.451 89.2212C114.476 89.2372 114.506 89.2462 114.535 89.2474C114.565 89.2485 114.595 89.2418 114.622 89.2278C115.211 88.933 115.596 88.0592 116.243 88.205C115.654 88.3914 115.15 88.779 114.819 89.3C114.738 89.4244 114.7 89.5727 114.713 89.7209C114.727 89.8691 114.79 90.0086 114.892 90.1166C114.994 90.2246 115.13 90.2948 115.277 90.3159C115.425 90.337 115.575 90.3077 115.703 90.2328C115.799 90.1768 115.892 90.1153 115.98 90.0486C116.419 89.6938 116.811 89.2859 117.149 88.8343C116.678 89.829 116.2 90.9933 116.742 91.9821C116.769 92.0365 116.812 92.0819 116.864 92.1127C116.916 92.1436 116.976 92.1586 117.037 92.156C117.208 92.1383 117.258 91.9777 117.286 91.8362C117.375 91.3808 117.397 90.9004 117.621 90.4952C118.139 89.5549 119.419 89.4636 120.393 89.0053C121.561 88.4629 122.362 87.2958 122.684 86.049C122.797 85.6855 122.817 85.2993 122.742 84.9261C122.525 84.0876 121.491 83.8945 120.826 84.2998C120.011 84.817 119.538 85.1427 118.509 85.1752Z" fill="#FBBEBE"/>
<path opacity="0.1" d="M117.475 68.68C118.506 70.2731 120.297 71.1705 121.833 72.2891C122.207 72.5331 122.534 72.8437 122.796 73.2057C123.184 73.804 123.238 74.5644 123.159 75.2688C123.059 76.1987 122.759 77.0933 122.463 77.9804L121.819 79.9036C121.411 81.1238 120.99 82.3691 120.213 83.3947C120.014 83.6556 119.783 83.9341 119.791 84.2613C119.809 84.4503 119.874 84.6318 119.98 84.7888C120.229 85.1944 120.556 85.5459 120.943 85.8223C121.33 86.0988 121.769 86.2946 122.233 86.3981C122.511 86.4688 122.803 86.4688 123.081 86.3981C123.479 86.2802 123.778 85.956 124.055 85.6495C125.381 84.1861 126.707 82.7021 127.665 80.9853C128.601 79.3097 129.161 77.4484 129.677 75.6048C129.889 74.9262 130.037 74.229 130.119 73.5225C130.228 72.1962 129.88 70.8699 129.311 69.6718C128.743 68.4737 127.96 67.3891 127.154 66.3354C126.393 65.3004 125.548 64.3303 124.627 63.4352C123.023 61.9364 121.062 61.0552 118.916 61.9055C117.401 62.5067 116.834 63.7608 116.698 65.3672C116.583 66.527 116.857 67.6921 117.475 68.68Z" fill="black"/>
<path d="M118.011 68.2763C119.043 69.8693 120.835 70.7668 122.369 71.8853C122.742 72.1317 123.068 72.4444 123.328 72.8079C123.716 73.4062 123.77 74.1651 123.691 74.871C123.589 75.8009 123.292 76.6954 122.994 77.5826L122.35 79.4984C121.942 80.7186 121.52 81.9624 120.744 82.9895C120.546 83.2504 120.315 83.5274 120.324 83.8561C120.34 84.0448 120.405 84.2261 120.512 84.3822C120.76 84.7879 121.088 85.1396 121.474 85.4163C121.861 85.693 122.3 85.8891 122.764 85.9929C123.042 86.0636 123.334 86.0636 123.613 85.9929C124.011 85.8765 124.308 85.5508 124.587 85.2458C125.913 83.7809 127.24 82.2984 128.197 80.5815C129.133 78.906 129.693 77.0447 130.209 75.1996C130.422 74.5216 130.57 73.8249 130.651 73.1188C130.76 71.7925 130.412 70.4662 129.845 69.2666C129.278 68.067 128.494 66.9839 127.688 65.9302C126.924 64.9006 126.077 63.936 125.154 63.0462C123.552 61.5489 121.591 60.6662 119.445 61.518C117.929 62.1192 117.363 63.3719 117.226 64.9796C117.118 66.135 117.394 67.2938 118.011 68.2763Z" fill="#4B4BFA"/>
<path d="M150.597 121.136C150.599 121.52 150.559 121.904 150.48 122.28C150.465 122.35 150.449 122.427 150.432 122.487C150.014 124.166 148.833 125.393 147.425 125.472C147.377 125.472 147.33 125.472 147.277 125.472C145.787 125.472 144.527 124.186 144.112 122.417C144.1 122.369 144.09 122.322 144.079 122.269C144 121.893 143.96 121.51 143.961 121.126C143.961 118.728 145.445 116.786 147.277 116.786C149.109 116.786 150.597 118.743 150.597 121.136Z" fill="#3F3D56"/>
<path opacity="0.1" d="M150.597 121.136C150.599 121.52 150.559 121.904 150.48 122.279C150.465 122.35 150.449 122.427 150.432 122.487C150.382 122.487 150.334 122.487 150.285 122.487C149.92 122.468 149.557 122.418 149.2 122.34C148.884 122.438 148.561 122.512 148.234 122.561C147.983 122.599 147.73 122.622 147.476 122.632H147.22C146.916 122.632 146.613 122.612 146.312 122.571C145.825 122.506 145.347 122.388 144.887 122.218C144.635 122.302 144.378 122.37 144.118 122.424C144.106 122.377 144.096 122.33 144.085 122.277C144.006 121.901 143.966 121.517 143.967 121.133C143.967 118.735 145.451 116.793 147.283 116.793C149.115 116.793 150.597 118.743 150.597 121.136Z" fill="black"/>
<path d="M157.671 113.051C157.672 111.996 157.425 110.955 156.949 110.014L153.049 111.227L156.473 109.214C155.899 108.384 155.145 107.695 154.269 107.195C153.393 106.696 152.415 106.4 151.409 106.328C151.249 106.085 151.073 105.853 150.883 105.633L145.283 107.376L149.877 104.675C148.998 104 147.967 103.553 146.874 103.372C145.781 103.191 144.66 103.283 143.611 103.638C142.562 103.993 141.617 104.602 140.859 105.41C140.101 106.217 139.554 107.199 139.266 108.269L144.063 113.791L138.859 110.027C137.541 110.962 136.603 112.339 136.215 113.908C135.827 115.477 136.016 117.133 136.747 118.574C137.478 120.016 138.703 121.146 140.198 121.76C141.692 122.374 143.358 122.431 144.891 121.92C146.278 122.43 147.793 122.471 149.206 122.039C150.191 122.256 151.212 122.249 152.194 122.019C153.176 121.789 154.094 121.342 154.88 120.711C155.667 120.08 156.301 119.28 156.738 118.371C157.174 117.462 157.402 116.466 157.403 115.458C157.403 115.31 157.403 115.163 157.388 115.016C157.579 114.378 157.674 113.716 157.671 113.051Z" fill="#4B4BFA"/>
<path opacity="0.1" d="M157.555 114.301C155.495 113.911 153.384 113.884 151.315 114.221C148.973 114.609 146.58 115.461 144.29 114.839C142.946 114.473 141.785 113.628 140.472 113.157C139.205 112.715 137.84 112.634 136.53 112.922C136.03 114.116 135.885 115.43 136.112 116.704C136.339 117.979 136.928 119.162 137.809 120.111C138.69 121.06 139.826 121.735 141.081 122.056C142.335 122.377 143.655 122.329 144.884 121.92C146.271 122.43 147.786 122.472 149.199 122.039C150.184 122.256 151.205 122.249 152.187 122.019C153.169 121.79 154.086 121.342 154.873 120.711C155.659 120.08 156.294 119.28 156.731 118.371C157.167 117.462 157.394 116.466 157.395 115.458C157.395 115.31 157.395 115.163 157.381 115.016C157.452 114.781 157.51 114.542 157.555 114.301Z" fill="black"/>
</g>
<defs>
<clipPath id="clip0_51_170">
<rect width="161.221" height="112" fill="white" transform="translate(31.7227 39.311)"/>
</clipPath>
</defs>
</svg>
