<svg width="225" height="190" viewBox="0 0 225 190" fill="none" xmlns="http://www.w3.org/2000/svg">
<path d="M0.833252 16.9111C0.833252 8.35073 7.77284 1.41113 16.3333 1.41113H208.333C216.894 1.41113 223.833 8.35072 223.833 16.9111V173.711C223.833 182.272 216.894 189.211 208.333 189.211H16.3333C7.77284 189.211 0.833252 182.272 0.833252 173.711V16.9111Z" fill="#FAFAFA"/>
<path d="M0.833252 16.9111C0.833252 8.35073 7.77284 1.41113 16.3333 1.41113H208.333C216.894 1.41113 223.833 8.35072 223.833 16.9111V173.711C223.833 182.272 216.894 189.211 208.333 189.211H16.3333C7.77284 189.211 0.833252 182.272 0.833252 173.711V16.9111Z" stroke="#F0F0F0"/>
<g clip-path="url(#clip0_51_446)">
<path d="M163.132 70.2235C162.054 68.2772 160.857 66.3987 159.548 64.5987C158.631 63.3358 157.663 62.1151 156.642 60.9365H156.639C154.792 58.8029 152.784 56.8149 150.631 54.9899C150.191 54.6158 149.744 54.2493 149.292 53.8905C145.208 50.6415 140.679 47.9951 135.843 46.0322L135.886 53.0984L136.349 133.649H96.244L93.9885 53.2504L94.1565 46.2971C74.4943 54.5666 60.6885 74.0097 60.6885 96.6785C60.6848 101.357 61.2818 106.018 62.4647 110.544C62.9643 112.458 63.5692 114.343 64.2766 116.19C64.532 116.86 64.8014 117.524 65.0849 118.183C65.2215 118.503 65.3607 118.821 65.505 119.138C65.6901 119.552 65.883 119.964 66.0809 120.372C66.2341 120.692 66.3916 121.01 66.5533 121.327C66.7615 121.742 66.9764 122.153 67.1982 122.561C67.3693 122.882 67.5455 123.2 67.7243 123.517C70.6084 128.618 74.2913 133.224 78.6329 137.16C79.8702 138.283 81.1578 139.347 82.4956 140.353C91.9612 147.465 103.481 151.311 115.321 151.311C127.161 151.311 138.681 147.465 148.147 140.353C148.874 139.806 149.587 139.241 150.285 138.658C150.749 138.273 151.205 137.88 151.653 137.48C151.772 137.374 151.891 137.268 152.008 137.16C156.011 133.532 159.456 129.332 162.231 124.696C163.25 122.997 164.174 121.242 164.999 119.441C165.218 118.966 165.429 118.486 165.634 118.003C166.576 115.786 167.369 113.508 168.006 111.185C168.105 110.827 168.2 110.467 168.291 110.105V110.104C168.306 110.041 168.323 109.978 168.338 109.915C168.433 109.534 168.524 109.151 168.61 108.768V108.767C168.891 107.532 169.128 106.283 169.322 105.018C169.346 104.856 169.37 104.694 169.393 104.532C169.402 104.473 169.411 104.414 169.417 104.355V104.354C169.555 103.377 169.667 102.393 169.753 101.402C169.886 99.8452 169.953 98.2708 169.954 96.6785C169.968 87.4234 167.62 78.3177 163.132 70.2235Z" fill="#F2F2F2"/>
<path d="M157.767 129.657C161.001 125.288 162.245 119.134 159.729 114.315C157.37 119.735 153.17 124.146 147.872 126.767C145.825 127.771 143.444 128.674 142.496 130.747C141.907 132.038 142.019 133.561 142.493 134.898C142.967 136.235 143.773 137.425 144.571 138.598L144.613 138.949C149.634 136.867 154.534 134.026 157.767 129.657Z" fill="#E6E6E6"/>
<path d="M159.622 114.353C159.477 118.85 157.919 123.187 155.169 126.748C154.59 127.525 153.893 128.206 153.103 128.766C152.315 129.287 151.402 129.587 150.459 129.636C149.581 129.699 148.675 129.661 147.828 129.937C147.396 130.084 147 130.321 146.666 130.632C146.333 130.943 146.068 131.321 145.891 131.742C145.422 132.777 145.352 133.92 145.324 135.04C145.292 136.284 145.278 137.576 144.692 138.706C144.621 138.843 144.837 138.945 144.908 138.808C145.929 136.842 145.266 134.542 145.874 132.475C146.158 131.51 146.734 130.625 147.697 130.239C148.539 129.9 149.473 129.938 150.363 129.882C151.284 129.848 152.182 129.589 152.979 129.128C153.796 128.611 154.518 127.957 155.116 127.197C156.488 125.507 157.586 123.612 158.369 121.58C159.276 119.267 159.78 116.816 159.861 114.333C159.866 114.179 159.627 114.201 159.622 114.353Z" fill="white"/>
<path d="M156.122 125.654C156.782 126.034 157.556 126.167 158.305 126.03C159.054 125.892 159.73 125.493 160.212 124.903C160.309 124.783 160.128 124.627 160.031 124.747C159.583 125.297 158.953 125.669 158.255 125.795C157.557 125.922 156.837 125.795 156.224 125.437C156.091 125.36 155.989 125.577 156.122 125.654Z" fill="white"/>
<path d="M150.909 129.662C150.491 128.162 150.654 126.56 151.365 125.174C151.435 125.037 151.219 124.935 151.148 125.072C150.411 126.515 150.245 128.183 150.683 129.743C150.725 129.892 150.95 129.81 150.909 129.662Z" fill="white"/>
<path d="M158.958 119.278C158.672 119.184 158.414 119.021 158.207 118.803C158 118.584 157.85 118.318 157.771 118.027C157.731 117.878 157.506 117.96 157.545 118.108C157.634 118.428 157.8 118.722 158.028 118.964C158.257 119.206 158.541 119.388 158.856 119.495C158.885 119.507 158.917 119.509 158.947 119.498C158.977 119.487 159.001 119.466 159.015 119.438C159.029 119.409 159.03 119.376 159.02 119.346C159.009 119.316 158.987 119.292 158.958 119.278Z" fill="white"/>
<path d="M141.729 110.48C141.751 110.574 141.774 110.668 141.795 110.763C142.088 112.026 142.278 113.311 142.364 114.605C142.372 114.705 142.379 114.806 142.384 114.906C142.556 118.025 142.148 121.15 141.18 124.12C140.794 125.302 140.318 126.452 139.757 127.562C138.982 129.094 138.02 130.693 137.804 132.343C137.779 132.515 137.765 132.689 137.762 132.862L144.18 138.973C144.202 138.98 144.222 138.988 144.244 138.994L144.489 139.25C144.522 139.195 144.555 139.137 144.588 139.082C144.607 139.05 144.625 139.016 144.644 138.984C144.656 138.963 144.669 138.941 144.681 138.922C144.685 138.915 144.689 138.908 144.692 138.902C144.704 138.883 144.714 138.864 144.725 138.847C144.91 138.523 145.093 138.198 145.275 137.871C145.276 137.869 145.276 137.869 145.276 137.866C146.65 135.37 147.829 132.737 148.57 130.008C148.592 129.926 148.616 129.843 148.635 129.758C148.962 128.526 149.188 127.27 149.311 126.001C149.376 125.306 149.405 124.609 149.4 123.911C149.381 122.108 149.08 120.319 148.506 118.61C147.361 115.203 145.139 112.2 141.972 110.6C141.891 110.559 141.811 110.519 141.729 110.48Z" fill="#E6E6E6"/>
<path d="M141.666 110.575C144.257 114.253 145.624 118.654 145.573 123.153C145.579 124.122 145.432 125.085 145.138 126.008C144.822 126.898 144.274 127.687 143.551 128.294C142.887 128.873 142.142 129.388 141.631 130.118C141.375 130.496 141.201 130.924 141.122 131.373C141.043 131.822 141.06 132.283 141.171 132.726C141.42 133.835 142.053 134.789 142.704 135.701C143.427 136.713 144.194 137.753 144.407 139.008C144.432 139.16 144.667 139.112 144.641 138.96C144.272 136.775 142.358 135.338 141.599 133.321C141.245 132.38 141.172 131.327 141.708 130.438C142.177 129.661 142.946 129.129 143.622 128.548C144.337 127.967 144.898 127.22 145.258 126.372C145.598 125.466 145.781 124.51 145.8 123.543C145.878 121.368 145.614 119.193 145.016 117.1C144.348 114.707 143.275 112.446 141.844 110.415C141.755 110.289 141.578 110.45 141.666 110.575Z" fill="white"/>
<path d="M145.675 121.705C146.431 121.611 147.129 121.252 147.644 120.691C148.16 120.13 148.459 119.404 148.488 118.643C148.494 118.489 148.255 118.473 148.249 118.627C148.223 119.336 147.944 120.012 147.463 120.534C146.982 121.055 146.331 121.387 145.626 121.471C145.473 121.489 145.522 121.723 145.675 121.705Z" fill="white"/>
<path d="M143.926 128.044C142.689 127.098 141.854 125.721 141.588 124.186C141.562 124.034 141.327 124.083 141.353 124.235C141.633 125.831 142.505 127.263 143.794 128.245C143.917 128.338 144.048 128.137 143.926 128.044Z" fill="white"/>
<path d="M144.101 114.907C143.816 115.004 143.511 115.029 143.214 114.98C142.918 114.93 142.638 114.807 142.4 114.623C142.278 114.528 142.147 114.729 142.268 114.823C142.532 115.026 142.841 115.161 143.169 115.216C143.497 115.272 143.834 115.246 144.15 115.142C144.18 115.134 144.207 115.115 144.224 115.089C144.241 115.063 144.248 115.031 144.243 115C144.236 114.969 144.217 114.942 144.191 114.924C144.164 114.907 144.132 114.901 144.101 114.907Z" fill="white"/>
<path d="M57.2631 105.186C54.3952 100.568 53.6559 94.3334 56.5545 89.7351C58.4653 95.3289 62.2931 100.067 67.3607 103.11C69.3193 104.276 71.6192 105.37 72.395 107.514C72.8778 108.848 72.6421 110.357 72.0611 111.651C71.48 112.945 70.5799 114.065 69.6897 115.169L69.6192 115.516C64.7838 113.033 60.131 109.804 57.2631 105.186Z" fill="#E6E6E6"/>
<path d="M56.6582 89.7824C56.4371 94.2762 57.6376 98.7254 60.0892 102.498C60.6026 103.32 61.2422 104.055 61.9846 104.677C62.7273 105.26 63.6126 105.634 64.5485 105.759C65.4187 105.893 66.3244 105.929 67.1469 106.272C67.5653 106.454 67.9405 106.723 68.2479 107.06C68.5553 107.397 68.788 107.796 68.9307 108.229C69.3143 109.3 69.2903 110.444 69.2279 111.563C69.1586 112.805 69.067 114.093 69.5597 115.268C69.6194 115.41 69.3952 115.494 69.3356 115.352C68.4784 113.309 69.3256 111.071 68.8876 108.961C68.6831 107.976 68.1808 107.048 67.2523 106.584C66.4405 106.179 65.5065 106.14 64.6242 106.012C63.7095 105.904 62.8352 105.573 62.0779 105.048C61.3062 104.466 60.6393 103.756 60.1057 102.95C58.8755 101.154 57.9353 99.1755 57.3196 97.0874C56.6038 94.7081 56.3001 92.2239 56.4219 89.7422C56.4295 89.5887 56.6657 89.6298 56.6582 89.7824Z" fill="white"/>
<path d="M59.2285 101.33C58.5397 101.655 57.7576 101.725 57.022 101.527C56.2864 101.329 55.6451 100.876 55.2127 100.249C55.1256 100.122 55.3192 99.9803 55.4064 100.108C55.808 100.692 56.4054 101.114 57.0908 101.297C57.7761 101.48 58.5044 101.412 59.144 101.105C59.283 101.039 59.3668 101.263 59.2285 101.33Z" fill="white"/>
<path d="M64.0984 105.749C64.6368 104.287 64.6047 102.677 64.0084 101.238C63.9492 101.096 64.1734 101.011 64.2326 101.154C64.8503 102.652 64.8803 104.328 64.3167 105.847C64.2629 105.992 64.0449 105.893 64.0984 105.749Z" fill="white"/>
<path d="M56.9194 94.7448C57.2121 94.6744 57.4828 94.5324 57.7071 94.3316C57.9315 94.1308 58.1024 93.8774 58.2046 93.5941C58.2565 93.4488 58.4745 93.5484 58.4228 93.6929C58.3085 94.0053 58.1194 94.2849 57.872 94.5073C57.6247 94.7298 57.3266 94.8883 57.0039 94.9689C56.9741 94.9791 56.9416 94.9775 56.9129 94.9646C56.8843 94.9516 56.8616 94.9282 56.8496 94.8991C56.8385 94.8694 56.8397 94.8365 56.8527 94.8076C56.8658 94.7787 56.8898 94.7561 56.9194 94.7448Z" fill="white"/>
<path d="M74.8069 87.3757C74.777 87.4674 74.7472 87.5591 74.7185 87.6525C74.3234 88.8875 74.0293 90.1526 73.8391 91.4352C73.8228 91.5342 73.8078 91.6347 73.7944 91.7339C73.3691 94.8289 73.5221 97.9761 74.2456 101.015C74.5346 102.224 74.9152 103.41 75.3841 104.561C76.0317 106.151 76.8604 107.824 76.9425 109.486C76.953 109.659 76.9528 109.833 76.9418 110.006L70.048 115.575C70.026 115.58 70.0052 115.586 69.9831 115.591L69.718 115.826C69.6896 115.769 69.6615 115.708 69.6332 115.65C69.6166 115.617 69.6016 115.582 69.585 115.549C69.5744 115.526 69.5639 115.504 69.5531 115.484C69.5496 115.476 69.5461 115.469 69.5438 115.463C69.533 115.443 69.525 115.423 69.5155 115.405C69.3573 115.068 69.2011 114.728 69.0471 114.388C69.0458 114.386 69.0458 114.386 69.0461 114.383C67.879 111.783 66.9186 109.063 66.4017 106.283C66.3862 106.2 66.3693 106.115 66.357 106.029C66.1309 104.774 66.0078 103.504 65.9887 102.23C65.9805 101.532 66.0077 100.834 66.0701 100.139C66.2347 98.3435 66.6807 96.585 67.3917 94.9281C68.8097 91.6252 71.2682 88.8126 74.5548 87.4754C74.6389 87.4413 74.7215 87.4083 74.8069 87.3757Z" fill="#E6E6E6"/>
<path d="M74.862 87.4757C71.9799 90.9307 70.2597 95.2059 69.9458 99.6942C69.861 100.659 69.9289 101.632 70.147 102.575C70.3891 103.488 70.8712 104.319 71.5431 104.982C72.1572 105.613 72.8585 106.188 73.3085 106.957C73.533 107.354 73.671 107.794 73.7135 108.249C73.7559 108.703 73.7018 109.161 73.5548 109.593C73.2165 110.679 72.5082 111.578 71.785 112.434C70.982 113.384 70.1329 114.358 69.8193 115.592C69.7813 115.741 69.5515 115.674 69.5894 115.524C70.135 113.377 72.1591 112.1 73.0796 110.152C73.5092 109.243 73.6673 108.198 73.2051 107.269C72.8009 106.457 72.0783 105.864 71.451 105.23C70.786 104.593 70.2872 103.802 69.9982 102.928C69.7328 101.998 69.6275 101.03 69.6869 100.065C69.786 97.8901 70.2264 95.7445 70.992 93.7066C71.8529 91.3758 73.1062 89.2096 74.6975 87.3014C74.7961 87.1834 74.9599 87.3584 74.862 87.4757Z" fill="white"/>
<path d="M69.9617 98.2431C69.2158 98.0882 68.5492 97.6732 68.0811 97.0722C67.6129 96.4713 67.3737 95.7234 67.406 94.9623C67.4076 94.9313 67.4212 94.9021 67.4439 94.8809C67.4666 94.8597 67.4966 94.8481 67.5277 94.8486C67.5587 94.8492 67.5884 94.8617 67.6104 94.8837C67.6324 94.9056 67.645 94.9352 67.6456 94.9663C67.6142 95.675 67.8371 96.3715 68.2742 96.9303C68.7113 97.489 69.3337 97.8731 70.0291 98.0132C70.1802 98.0438 70.1119 98.2735 69.9617 98.2431Z" fill="white"/>
<path d="M71.1895 104.704C72.4991 103.861 73.4431 102.556 73.8331 101.048C73.8717 100.899 74.1015 100.966 74.063 101.116C73.6542 102.684 72.6691 104.04 71.3043 104.914C71.1742 104.997 71.0601 104.786 71.1895 104.704Z" fill="white"/>
<path d="M72.0828 91.5953C72.3589 91.7154 72.6605 91.765 72.9605 91.7397C73.2606 91.7144 73.5496 91.615 73.8017 91.4504C73.9307 91.3656 74.0447 91.5764 73.9165 91.6607C73.6372 91.8412 73.3178 91.9506 72.9864 91.9793C72.655 92.008 72.3216 91.9551 72.0153 91.8252C71.9854 91.8154 71.9604 91.7946 71.9453 91.7669C71.9302 91.7393 71.9262 91.707 71.9341 91.6766C71.9432 91.6462 71.9639 91.6206 71.9918 91.6054C72.0196 91.5902 72.0523 91.5866 72.0828 91.5953Z" fill="white"/>
<path d="M110.5 58.051C114.692 58.051 118.09 54.6527 118.09 50.4608C118.09 46.2688 114.692 42.8706 110.5 42.8706C106.308 42.8706 102.91 46.2688 102.91 50.4608C102.91 54.6527 106.308 58.051 110.5 58.051Z" fill="#FF6584"/>
<path d="M133.74 50.0647C133.056 49.3422 132.334 48.6568 131.576 48.0114C130.098 46.7575 128.461 45.6912 126.636 45.0196C125.949 44.7659 125.239 44.579 124.516 44.4616C124.43 44.4475 124.344 44.4335 124.257 44.422C124.251 44.4214 124.244 44.4214 124.238 44.422C124.225 44.4182 124.211 44.4156 124.197 44.4143C124.02 44.3913 123.842 44.3735 123.663 44.3607C122.701 44.2967 121.734 44.3837 120.798 44.6186C120.255 44.7556 119.725 44.9402 119.215 45.1703C118.703 45.4207 118.207 45.7017 117.73 46.0117C117.473 46.1676 117.209 46.3103 116.938 46.4395C116.147 46.8143 115.31 47.0822 114.448 47.2363C113.866 47.3407 113.277 47.3988 112.686 47.41C112.173 47.4202 111.689 47.4381 111.202 47.6232C110.683 47.8183 110.217 48.1321 109.84 48.5397C109.464 48.9472 109.188 49.4371 109.035 49.9702C109.023 50.0175 109.027 50.0675 109.045 50.1127C109.063 50.158 109.096 50.1962 109.137 50.2217C109.269 50.3162 109.397 50.4235 109.536 50.5077C109.659 50.5638 109.79 50.5996 109.924 50.6137C110.144 50.6597 110.364 50.7044 110.584 50.7478C111.395 50.9087 112.209 51.0513 113.027 51.1756C114.671 51.4246 116.325 51.5999 117.989 51.7017C117.999 51.7031 118.009 51.704 118.02 51.7042C119.899 51.8176 121.782 51.836 123.663 51.7591C123.948 51.7476 124.232 51.7336 124.516 51.717C125.703 51.6506 126.886 51.5459 128.066 51.4029C129.158 51.2701 130.245 51.1053 131.329 50.9087C132.103 50.7682 132.873 50.6116 133.641 50.4388C133.679 50.4278 133.712 50.4073 133.739 50.3794C133.766 50.3515 133.786 50.317 133.796 50.2794C133.806 50.2418 133.806 50.2023 133.796 50.1647C133.786 50.127 133.767 50.0926 133.74 50.0647Z" fill="#E6E6E6"/>
<path d="M117.963 60.1855C116.864 59.01 115.654 57.9443 114.348 57.0035C113.915 56.6996 113.47 56.4135 113.011 56.1518C112.449 55.8273 111.866 55.5419 111.265 55.2975C111.13 55.2426 110.995 55.1902 110.86 55.1404C110.091 54.8556 109.293 54.6553 108.481 54.5429C108.474 54.5416 108.468 54.5429 108.462 54.5416C108.449 54.539 108.435 54.5365 108.422 54.5339C108.028 54.4829 107.632 54.4585 107.235 54.4611C106.95 54.4611 106.664 54.4765 106.38 54.5045C105.922 54.5497 105.468 54.6282 105.022 54.7395C104.801 54.7944 104.581 54.8582 104.365 54.931C104.051 55.0346 103.742 55.1548 103.44 55.2911C103.435 55.2937 103.431 55.295 103.426 55.2975C102.919 55.5455 102.427 55.8244 101.955 56.1326C101.944 56.139 101.933 56.1454 101.923 56.1518C101.386 56.473 100.817 56.7391 100.227 56.946C99.72 57.1233 99.2 57.2608 98.6716 57.3572C98.0898 57.4618 97.5006 57.5195 96.9095 57.5295C96.3962 57.5398 95.9122 57.5576 95.427 57.7441C94.9076 57.9391 94.4411 58.2529 94.0646 58.6604C93.6881 59.0679 93.4122 59.5579 93.2588 60.091C93.247 60.1384 93.2505 60.1882 93.2689 60.2335C93.2872 60.2787 93.3195 60.3169 93.361 60.3426C93.4925 60.4371 93.6215 60.543 93.7594 60.6273C93.882 60.6838 94.0132 60.7196 94.1475 60.7333C94.3672 60.7793 94.5868 60.8252 94.8077 60.8687C95.6186 61.0295 96.4332 61.1717 97.2517 61.2951C98.3741 61.465 99.5012 61.6008 100.633 61.7025C101.169 61.7523 101.706 61.7931 102.243 61.8251C103.621 61.9081 105 61.9404 106.38 61.9221C106.665 61.9183 106.95 61.9119 107.235 61.903C108.925 61.8532 110.611 61.7263 112.291 61.5224C114.164 61.2958 116.025 60.9741 117.865 60.5584C117.902 60.5475 117.936 60.5271 117.963 60.4993C117.99 60.4715 118.009 60.4372 118.019 60.3997C118.029 60.3622 118.029 60.3228 118.019 60.2852C118.01 60.2477 117.99 60.2134 117.963 60.1855Z" fill="#E6E6E6"/>
<path d="M99.044 39.8151L105.731 132.22L92.3572 133.407V40.9907C93.9508 39.746 96.2383 39.5512 99.044 39.8151Z" fill="#CCCCCC"/>
<path d="M132.051 39.8151L125.364 132.22L138.738 133.407V40.9907C137.144 39.746 134.857 39.5512 132.051 39.8151Z" fill="#CCCCCC"/>
<path d="M139.053 41.0309C138.638 40.0135 137.755 39.311 136.735 39.311H94.2178C92.7992 39.311 91.6461 40.6722 91.6461 42.3469V134.19C91.6337 135.039 91.9514 135.861 92.5323 136.481C92.8362 136.8 93.221 137.031 93.6457 137.149C93.832 137.2 94.0245 137.226 94.2178 137.225H136.735C136.928 137.226 137.121 137.2 137.307 137.149C138.451 136.841 139.307 135.632 139.307 134.19V42.3469C139.308 41.8959 139.222 41.449 139.053 41.0309ZM138.454 134.19C138.454 135.308 137.683 136.218 136.735 136.218H94.2178C93.4325 136.218 92.7672 135.593 92.5642 134.741C92.5208 134.561 92.499 134.375 92.4991 134.19V42.3469C92.4991 41.2284 93.2703 40.3195 94.2178 40.3195H136.735C136.909 40.3193 137.082 40.3505 137.246 40.4114C137.944 40.6677 138.454 41.4379 138.454 42.3469V134.19Z" fill="#CCCCCC"/>
<path d="M138.88 67.228H92.0728V68.0817H138.88V67.228Z" fill="#CCCCCC"/>
<path d="M138.88 49.6067H92.0728V50.4603H138.88V49.6067Z" fill="#CCCCCC"/>
<path d="M138.88 81.4551H92.0728V82.3087H138.88V81.4551Z" fill="#CCCCCC"/>
<path d="M107.262 39.6941H106.409V93.5483H107.262V39.6941Z" fill="#CCCCCC"/>
<path d="M124.544 39.6941H123.691V93.5483H124.544V39.6941Z" fill="#CCCCCC"/>
<path d="M144.215 131.891H88.16C87.1417 131.892 86.1655 132.297 85.4454 133.017C84.7254 133.737 84.3203 134.713 84.3191 135.732C84.3186 136.221 84.4127 136.706 84.5962 137.16C84.8813 137.873 85.3732 138.483 86.0084 138.913C86.6435 139.343 87.3929 139.573 88.16 139.574H144.215C144.886 139.574 145.544 139.398 146.126 139.064C146.708 138.73 147.192 138.25 147.53 137.671C147.626 137.508 147.71 137.337 147.78 137.16C147.964 136.706 148.058 136.221 148.057 135.732C148.056 134.713 147.651 133.737 146.93 133.017C146.21 132.297 145.234 131.892 144.215 131.891Z" fill="#CCCCCC"/>
<path d="M138.88 91.5566H92.3572V94.4021H138.88V91.5566Z" fill="#CCCCCC"/>
<path d="M115.192 90.7029H116.046C116.461 90.7029 116.859 90.8678 117.152 91.1613C117.446 91.4548 117.611 91.8528 117.611 92.2679H113.627C113.627 92.0624 113.667 91.8588 113.746 91.669C113.825 91.4791 113.94 91.3066 114.085 91.1613C114.231 91.0159 114.403 90.9007 114.593 90.822C114.783 90.7434 114.986 90.7029 115.192 90.7029Z" fill="#CCCCCC"/>
<path d="M116.44 99.5813C121.309 99.5813 125.256 95.6339 125.256 90.7645C125.256 85.8952 121.309 81.9478 116.44 81.9478C111.57 81.9478 107.623 85.8952 107.623 90.7645C107.623 95.6339 111.57 99.5813 116.44 99.5813Z" fill="#FFB8B8"/>
<path d="M106.604 82.2827C106.671 81.2702 107.34 80.2342 109.468 79.6928C109.468 79.6928 113.118 75.0243 118.08 77.4725C118.08 77.4725 120.485 77.0587 122.268 79.5541C122.268 79.5541 124.036 78.5113 124.782 80.3597C124.782 80.3597 126.856 84.1301 126.093 87.9759C125.329 91.8218 124.938 92.3017 124.938 92.3017C124.938 92.3017 125.912 84.3467 120.306 84.8983C114.701 85.4499 110.189 83.4788 108.919 87.7946C107.865 91.3782 107.998 93.2394 107.998 93.2394C107.998 93.2394 104.473 89.6644 105.672 86.8493C106.285 85.4095 106.501 83.8442 106.604 82.2827Z" fill="#2F2E41"/>
<path d="M92.4631 138.948H141.231C140.905 135.228 140.692 121.008 140.692 120.072C140.692 115.944 137.314 111.44 137.314 111.44L136.105 110.771L126.009 107.621L123.396 104.227C123.122 103.871 122.77 103.583 122.366 103.385C121.962 103.188 121.518 103.087 121.069 103.091L112.815 103.153C112.088 103.158 111.39 103.435 110.857 103.929L105.746 108.67L98.2498 112.25L98.2371 112.237L98.1588 112.295L97.0462 113.097L96.3306 113.614C96.3306 113.614 94.4533 115.866 92.9529 122.621C92.7272 123.637 92.5687 136.79 92.4631 138.948Z" fill="#4B4BFA"/>
<path d="M152.519 137.16C152.401 137.268 152.283 137.374 152.164 137.48C151.714 137.879 151.259 138.272 150.796 138.658C150.098 139.24 149.385 139.805 148.657 140.353H83.0064C81.6695 139.349 80.382 138.285 79.1438 137.16H152.519Z" fill="#CCCCCC"/>
<path d="M128.454 137.927H104.321L104.831 135.5H127.944L128.454 137.927Z" fill="#2F2E41"/>
<path d="M150.288 127.456H144.008C143.867 127.455 143.726 127.486 143.598 127.546C143.469 127.605 143.355 127.692 143.264 127.801C143.176 127.784 143.087 127.775 142.998 127.775C142.803 127.775 142.609 127.813 142.428 127.888C142.247 127.963 142.083 128.072 141.944 128.211C141.806 128.349 141.696 128.513 141.621 128.694C141.546 128.875 141.507 129.069 141.507 129.265C141.507 129.46 141.546 129.654 141.621 129.835C141.696 130.016 141.806 130.18 141.944 130.318C142.083 130.457 142.247 130.566 142.428 130.641C142.609 130.716 142.803 130.754 142.998 130.754C143.223 130.754 143.445 130.702 143.647 130.603L143.752 131.891L144.168 136.978C144.188 137.041 144.214 137.102 144.247 137.16C144.331 137.315 144.455 137.444 144.607 137.534C144.758 137.624 144.931 137.671 145.106 137.671H149.19C149.366 137.671 149.539 137.623 149.69 137.534C149.842 137.444 149.966 137.315 150.051 137.16C150.083 137.102 150.109 137.041 150.129 136.978L151.227 128.726C151.272 128.579 151.282 128.424 151.256 128.273C151.23 128.121 151.169 127.978 151.078 127.854C150.987 127.731 150.868 127.63 150.73 127.561C150.593 127.492 150.442 127.456 150.288 127.456ZM142.998 130.329C142.716 130.329 142.446 130.216 142.247 130.017C142.047 129.817 141.935 129.547 141.935 129.265C141.935 128.982 142.047 128.712 142.247 128.512C142.446 128.313 142.716 128.201 142.998 128.2C143.017 128.2 143.035 128.205 143.054 128.207C143.012 128.378 143.018 128.558 143.07 128.726L143.519 130.187C143.361 130.279 143.181 130.328 142.998 130.329Z" fill="#3F3D56"/>
<path d="M136.104 100.458H96.3514C96.0099 100.459 95.6825 100.594 95.441 100.836C95.1995 101.077 95.0635 101.405 95.063 101.746V128.572C95.0633 128.913 95.1992 129.241 95.4407 129.482C95.6823 129.724 96.0098 129.86 96.3514 129.86H136.104C136.446 129.86 136.773 129.724 137.015 129.482C137.256 129.241 137.392 128.913 137.393 128.572V101.746C137.392 101.405 137.256 101.077 137.015 100.836C136.773 100.594 136.446 100.459 136.104 100.458Z" fill="#3F3D56"/>
<path d="M120.705 121.952H111.405C111.273 121.953 111.147 122.005 111.054 122.098C110.961 122.191 110.909 122.318 110.909 122.449V137.14H121.201V122.449C121.201 122.384 121.189 122.319 121.164 122.259C121.139 122.199 121.102 122.144 121.056 122.098C121.01 122.052 120.955 122.015 120.895 121.99C120.834 121.965 120.77 121.952 120.705 121.952ZM116.086 130.3C115.795 130.298 115.517 130.182 115.311 129.976C115.105 129.771 114.989 129.492 114.988 129.201V127.507C114.988 127.216 115.104 126.937 115.31 126.731C115.516 126.526 115.795 126.41 116.086 126.41C116.377 126.41 116.656 126.526 116.862 126.731C117.068 126.937 117.184 127.216 117.184 127.507V129.201C117.183 129.492 117.067 129.771 116.861 129.976C116.655 130.182 116.377 130.298 116.086 130.3Z" fill="#2F2E41"/>
<path d="M110.878 136.67V138.087C110.878 138.161 110.907 138.231 110.959 138.283C111.011 138.335 111.081 138.364 111.155 138.364H120.956C121.03 138.364 121.1 138.335 121.152 138.283C121.204 138.231 121.233 138.161 121.233 138.087V136.67H110.878Z" fill="#3F3D56"/>
<path d="M135.259 128.291C135.606 128.291 135.886 128.01 135.886 127.664C135.886 127.317 135.606 127.036 135.259 127.036C134.912 127.036 134.631 127.317 134.631 127.664C134.631 128.01 134.912 128.291 135.259 128.291Z" fill="#2F2E41"/>
<path d="M101.37 126.753C101.341 126.753 101.312 126.759 101.286 126.77C101.259 126.781 101.235 126.797 101.214 126.818C101.194 126.838 101.178 126.862 101.167 126.889C101.156 126.916 101.15 126.944 101.15 126.973V128.103C101.15 128.161 101.174 128.217 101.215 128.258C101.256 128.299 101.312 128.322 101.37 128.322C101.428 128.322 101.484 128.299 101.525 128.258C101.566 128.217 101.589 128.161 101.589 128.103V126.973C101.589 126.944 101.584 126.916 101.573 126.889C101.562 126.862 101.545 126.838 101.525 126.818C101.505 126.797 101.48 126.781 101.454 126.77C101.427 126.759 101.399 126.753 101.37 126.753Z" fill="#2F2E41"/>
<path d="M102.562 126.753C102.533 126.753 102.505 126.759 102.478 126.77C102.451 126.781 102.427 126.797 102.407 126.818C102.386 126.838 102.37 126.862 102.359 126.889C102.348 126.916 102.343 126.944 102.343 126.973V128.103C102.343 128.161 102.366 128.217 102.407 128.258C102.448 128.3 102.504 128.323 102.562 128.323C102.62 128.323 102.676 128.3 102.717 128.258C102.759 128.217 102.782 128.161 102.782 128.103V126.973C102.782 126.944 102.776 126.916 102.765 126.889C102.754 126.862 102.738 126.838 102.717 126.818C102.697 126.797 102.673 126.781 102.646 126.77C102.62 126.759 102.591 126.753 102.562 126.753Z" fill="#2F2E41"/>
<path d="M103.755 126.753C103.726 126.753 103.698 126.759 103.671 126.77C103.644 126.781 103.62 126.797 103.6 126.818C103.579 126.838 103.563 126.862 103.552 126.889C103.541 126.916 103.535 126.944 103.535 126.973V128.103C103.536 128.161 103.559 128.217 103.6 128.258C103.641 128.299 103.697 128.322 103.755 128.322C103.813 128.322 103.869 128.299 103.91 128.258C103.951 128.217 103.975 128.161 103.975 128.103V126.973C103.975 126.944 103.969 126.916 103.958 126.889C103.947 126.862 103.931 126.838 103.91 126.818C103.89 126.797 103.866 126.781 103.839 126.77C103.812 126.759 103.784 126.753 103.755 126.753Z" fill="#2F2E41"/>
<path d="M104.948 126.753C104.919 126.753 104.89 126.759 104.864 126.77C104.837 126.781 104.813 126.797 104.792 126.818C104.772 126.838 104.756 126.862 104.745 126.889C104.734 126.916 104.728 126.944 104.728 126.973V128.103C104.728 128.161 104.751 128.217 104.793 128.258C104.834 128.299 104.89 128.322 104.948 128.322C105.006 128.322 105.062 128.299 105.103 128.258C105.144 128.217 105.167 128.161 105.167 128.103V126.973C105.167 126.944 105.162 126.916 105.151 126.889C105.14 126.862 105.123 126.838 105.103 126.818C105.083 126.797 105.058 126.781 105.032 126.77C105.005 126.759 104.976 126.753 104.948 126.753Z" fill="#2F2E41"/>
<path d="M105.899 137.288C107.733 137.288 109.219 135.801 109.219 133.968C109.219 132.134 107.733 130.648 105.899 130.648C104.065 130.648 102.579 132.134 102.579 133.968C102.579 135.801 104.065 137.288 105.899 137.288Z" fill="#FFB8B8"/>
<path d="M129.093 137.927C130.926 137.927 132.413 136.44 132.413 134.607C132.413 132.773 130.926 131.287 129.093 131.287C127.259 131.287 125.773 132.773 125.773 134.607C125.773 136.44 127.259 137.927 129.093 137.927Z" fill="#FFB8B8"/>
<path d="M163.361 94.5334C163.033 93.9908 162.644 93.4115 162.035 93.2343C161.33 93.0291 160.606 93.4367 159.991 93.8389C158.154 95.0418 156.385 96.3454 154.692 97.7438L154.694 97.7648C156.012 97.6739 157.106 101.179 158.424 101.088C159.377 101.023 160.586 97.3517 161.428 96.9011C161.747 96.7301 162.058 96.5017 162.42 96.4858C162.87 96.4661 163.262 96.7801 163.57 97.1082C165.393 99.049 165.92 102.017 167.965 103.722C166.676 100.542 165.136 97.4698 163.361 94.5334Z" fill="#3F3D56"/>
<path d="M166.869 99.2476C167.83 100.984 168.85 102.686 169.928 104.354V104.355C169.922 104.414 169.913 104.473 169.904 104.531C169.774 104.332 169.645 104.132 169.517 103.931C168.549 102.413 167.629 100.866 166.758 99.2897C166.344 98.5402 165.941 97.7847 165.547 97.0232C165.243 96.4333 164.946 95.8399 164.655 95.2432C164.572 95.0721 164.491 94.901 164.411 94.7286C164.222 94.3251 164.035 93.919 163.836 93.5207C163.609 93.0661 163.332 92.5911 162.914 92.2859C162.724 92.1411 162.497 92.0534 162.259 92.033C161.924 92.0351 161.596 92.1292 161.31 92.305C159.15 93.4404 157.134 94.8307 155.305 96.446C153.474 98.055 151.837 99.8725 150.427 101.861C150.384 101.923 150.282 101.864 150.325 101.801C150.498 101.559 150.671 101.32 150.85 101.082C153.066 98.1362 155.782 95.6026 158.875 93.5973C159.395 93.2602 159.925 92.9388 160.465 92.6332C160.737 92.4787 161.01 92.3267 161.289 92.1837C161.555 92.0275 161.854 91.9349 162.162 91.913C163.222 91.8964 163.771 93.0967 164.148 93.9037C164.265 94.1578 164.385 94.4115 164.507 94.6648C164.965 95.6224 165.441 96.5725 165.935 97.5148C166.239 98.0958 166.55 98.6734 166.869 99.2476Z" fill="#3F3D56"/>
<path d="M155.201 95.8534C155.139 95.7847 155.078 95.7161 155.016 95.6475C154.528 95.1071 154.003 94.573 153.332 94.2632C153.012 94.1108 152.663 94.0299 152.309 94.0259C151.943 94.036 151.583 94.1146 151.246 94.2577C151.086 94.3216 150.93 94.3942 150.776 94.4714C150.6 94.5601 150.427 94.6546 150.254 94.7499C149.931 94.9287 149.612 95.1153 149.298 95.3098C148.671 95.6969 148.065 96.1135 147.478 96.5596C147.173 96.791 146.875 97.0299 146.584 97.2765C146.312 97.5055 146.046 97.7406 145.786 97.9819C145.73 98.0333 145.647 97.9502 145.703 97.8988C145.771 97.8349 145.841 97.7714 145.91 97.7086C146.106 97.5314 146.305 97.3575 146.508 97.1871C146.877 96.8757 147.255 96.5764 147.643 96.289C148.247 95.842 148.871 95.4253 149.516 95.0389C149.839 94.8459 150.166 94.6611 150.497 94.4844C150.597 94.431 150.698 94.3789 150.8 94.3295C151.033 94.2123 151.274 94.1141 151.522 94.0357C151.873 93.9221 152.245 93.8856 152.612 93.9287C152.966 93.9802 153.307 94.0982 153.617 94.2765C154.276 94.6448 154.787 95.2142 155.284 95.7698C155.334 95.8263 155.252 95.9098 155.201 95.8534Z" fill="#3F3D56"/>
<path d="M150.38 98.4533C150.212 98.4616 150.047 98.4142 149.909 98.3185C149.545 98.0423 149.554 97.3789 149.938 96.2903C150.043 95.9953 150.207 95.725 150.42 95.4958C150.633 95.2667 150.891 95.0837 151.178 94.9582C151.446 94.8381 151.737 94.7752 152.031 94.7735C152.325 94.7717 152.617 94.8312 152.887 94.948C152.934 94.9685 152.98 94.9905 153.026 95.014C153.338 95.189 153.631 95.3968 153.9 95.6339C154.128 95.8319 154.371 96.0116 154.627 96.1714L154.713 96.2216L154.632 96.2787C152.563 97.7349 151.161 98.4533 150.38 98.4533Z" fill="#3F3D56"/>
<path d="M158.334 89.787C157.654 89.7869 156.995 89.5508 156.469 89.1189C155.944 88.687 155.584 88.0862 155.452 87.4189C154.884 87.5341 154.362 87.8151 153.953 88.2266C153.544 88.638 153.266 89.1615 153.154 89.7308C153.042 90.3002 153.101 90.8899 153.324 91.4257C153.547 91.9614 153.923 92.4191 154.406 92.741C154.889 93.0629 155.456 93.2346 156.036 93.2344C156.617 93.2342 157.184 93.0622 157.666 92.74C158.149 92.4177 158.525 91.9598 158.748 91.4239C158.97 90.888 159.029 90.2982 158.917 89.7289C158.725 89.7676 158.53 89.787 158.334 89.787Z" fill="#3F3D56"/>
<path opacity="0.74" d="M79.7174 94.5115C82.1379 94.5115 84.1001 92.5493 84.1001 90.1288C84.1001 87.7083 82.1379 85.7461 79.7174 85.7461C77.2969 85.7461 75.3347 87.7083 75.3347 90.1288C75.3347 92.5493 77.2969 94.5115 79.7174 94.5115Z" fill="#3F3D56"/>
<path opacity="0.74" d="M84.1002 94.5115C86.5207 94.5115 88.4829 92.5493 88.4829 90.1288C88.4829 87.7083 86.5207 85.7461 84.1002 85.7461C81.6797 85.7461 79.7175 87.7083 79.7175 90.1288C79.7175 92.5493 81.6797 94.5115 84.1002 94.5115Z" fill="#4B4BFA"/>
<path opacity="0.74" d="M81.9459 91.0185C84.3664 91.0185 86.3286 89.0563 86.3286 86.6359C86.3286 84.2154 84.3664 82.2532 81.9459 82.2532C79.5254 82.2532 77.5632 84.2154 77.5632 86.6359C77.5632 89.0563 79.5254 91.0185 81.9459 91.0185Z" fill="#FF6584"/>
<path d="M93.4061 85.3801L82.1487 88.9167L82.2252 89.1604L93.4826 85.6238L93.4061 85.3801Z" fill="#3F3D56"/>
<path d="M93.4778 85.9717C93.7599 85.9717 93.9886 85.7431 93.9886 85.461C93.9886 85.1789 93.7599 84.9502 93.4778 84.9502C93.1957 84.9502 92.967 85.1789 92.967 85.461C92.967 85.7431 93.1957 85.9717 93.4778 85.9717Z" fill="#3F3D56"/>
<path d="M166.56 108.444C167.308 108.971 168.027 109.509 168.849 109.915C168.834 109.977 168.817 110.041 168.802 110.104C168.701 110.057 168.603 110.007 168.505 109.956C167.671 109.519 166.953 108.925 166.17 108.409C165.782 108.141 165.359 107.929 164.911 107.779C164.445 107.639 163.958 107.581 163.472 107.61C161.446 107.71 159.709 108.919 157.826 109.528C156.904 109.827 155.923 109.986 154.962 109.799C154 109.611 153.146 109.1 152.297 108.638C151.459 108.181 150.546 107.721 149.568 107.721C148.771 107.722 147.934 108.042 147.507 108.746C147.494 108.768 147.473 108.783 147.449 108.788C147.425 108.794 147.399 108.791 147.378 108.778C147.356 108.765 147.341 108.745 147.334 108.721C147.327 108.697 147.33 108.671 147.342 108.649C147.438 108.489 147.555 108.342 147.691 108.214C148.248 107.687 149.066 107.479 149.818 107.54C150.791 107.619 151.679 108.079 152.52 108.541C153.413 109.031 154.327 109.559 155.359 109.666C156.378 109.773 157.387 109.506 158.331 109.147C160.161 108.452 161.967 107.292 164.002 107.421C164.962 107.482 165.785 107.899 166.56 108.444Z" fill="#3F3D56"/>
<path d="M86.4671 71.5145V71.7737C86.3813 71.7568 86.294 71.7482 86.2066 71.7482H84.8709V74.6161C84.8707 75.0407 84.7019 75.4479 84.4017 75.7481C84.1014 76.0484 83.6943 76.2171 83.2697 76.2174H81.2956V76.6592C81.2956 76.8363 81.3307 77.0116 81.399 77.1751H81.1258C81.0687 77.0091 81.0397 76.8347 81.0402 76.6592V76.2174H79.9548V75.962H81.0402V73.0941C81.0405 72.6695 81.2092 72.2623 81.5095 71.9621C81.8097 71.6618 82.2169 71.4931 82.6415 71.4928H84.6156V71.0459H84.8709V71.4928H86.2066C86.2939 71.4929 86.381 71.5002 86.4671 71.5145Z" fill="#4B4BFA"/>
<path d="M83.2697 69.4497H79.7045C79.2799 69.45 78.8728 69.6187 78.5725 69.919C78.2723 70.2192 78.1035 70.6264 78.1033 71.051V74.6161C78.1035 75.0407 78.2723 75.4478 78.5725 75.7481C78.8728 76.0483 79.2799 76.2171 79.7045 76.2173H83.2697C83.6943 76.2171 84.1014 76.0483 84.4016 75.7481C84.7019 75.4478 84.8706 75.0407 84.8709 74.6161V71.0459C84.8694 70.6221 84.7 70.2162 84.3999 69.9171C84.0998 69.6179 83.6934 69.4499 83.2697 69.4497ZM84.6155 74.6161C84.615 74.9729 84.4731 75.3149 84.2208 75.5672C83.9685 75.8195 83.6265 75.9615 83.2697 75.9619H79.7045C79.3477 75.9615 79.0057 75.8195 78.7534 75.5672C78.5011 75.3149 78.3591 74.9729 78.3587 74.6161V71.051C78.3591 70.6942 78.5011 70.3521 78.7534 70.0998C79.0057 69.8475 79.3477 69.7056 79.7045 69.7051H83.2697C83.6256 69.7055 83.9669 69.8467 84.2191 70.0979C84.4712 70.3491 84.6138 70.6899 84.6155 71.0458V74.6161Z" fill="#3F3D56"/>
<path d="M81.04 75.9619V76.2172H81.2954V75.9619H81.04ZM81.04 75.9619V76.2172H81.2954V75.9619H81.04ZM86.4669 71.5144C86.3808 71.5 86.2937 71.4928 86.2064 71.4927H82.6413C82.2167 71.4929 81.8096 71.6617 81.5093 71.9619C81.2091 72.2622 81.0403 72.6693 81.04 73.0939V76.6591C81.0396 76.8346 81.0685 77.0089 81.1256 77.1749C81.2334 77.4914 81.4375 77.7662 81.7093 77.9608C81.9811 78.1555 82.307 78.2602 82.6413 78.2603H86.2064C86.631 78.26 87.0382 78.0913 87.3384 77.791C87.6386 77.4908 87.8074 77.0837 87.8077 76.6591V73.0939C87.8076 72.7145 87.6727 72.3474 87.4272 72.0581C87.1816 71.7688 86.8413 71.5761 86.4669 71.5144ZM87.5523 76.6591C87.5518 77.0159 87.4099 77.3579 87.1576 77.6102C86.9053 77.8625 86.5632 78.0044 86.2064 78.0049H82.6413C82.2845 78.0044 81.9425 77.8624 81.6902 77.6102C81.4379 77.3579 81.2959 77.0158 81.2954 76.6591V73.0939C81.2959 72.7371 81.4379 72.3951 81.6902 72.1428C81.9424 71.8905 82.2845 71.7485 82.6413 71.7481H86.2064C86.5633 71.7482 86.9056 71.89 87.1579 72.1424C87.4103 72.3948 87.5522 72.737 87.5523 73.0939V76.6591ZM81.04 75.9619V76.2172H81.2954V75.9619H81.04Z" fill="#3F3D56"/>
<path d="M78.5181 109.25H63.374C63.2686 109.25 63.1675 109.291 63.0928 109.366C63.0181 109.44 62.976 109.541 62.9756 109.647V110.544C63.4752 112.458 64.0801 114.343 64.7875 116.19H78.5181C78.5703 116.19 78.622 116.179 78.6702 116.159C78.7184 116.139 78.7622 116.11 78.799 116.073C78.8359 116.036 78.8652 115.993 78.8851 115.944C78.9051 115.896 78.9153 115.845 78.9152 115.792V109.647C78.9151 109.541 78.8733 109.44 78.7988 109.366C78.7244 109.291 78.6234 109.25 78.5181 109.25Z" fill="#4B4BFA"/>
<path d="M77.0751 118.183H65.5957C65.7323 118.503 65.8715 118.821 66.0158 119.138H77.0751C77.6983 119.147 77.6919 118.174 77.0751 118.183Z" fill="#E4E4E4"/>
<path d="M77.0752 120.372H66.5918C66.745 120.692 66.9025 121.011 67.0642 121.327H77.0752C77.6984 121.336 77.692 120.364 77.0752 120.372Z" fill="#E4E4E4"/>
<path d="M77.0751 122.561H67.709C67.8801 122.882 68.0563 123.2 68.2351 123.516H77.0751C77.6982 123.525 77.6919 122.552 77.0751 122.561Z" fill="#E4E4E4"/>
<path d="M155.586 63.7002H155.514C155.74 63.7004 155.963 63.7532 156.166 63.8545H155.835C155.478 63.8549 155.136 63.9968 154.884 64.2491C154.631 64.5014 154.489 64.8435 154.489 65.2003V68.7655C154.489 69.1223 154.631 69.4644 154.884 69.7167C155.136 69.969 155.478 70.1109 155.835 70.1114H156.046C155.876 70.1779 155.696 70.2122 155.514 70.2124H155.586C155.977 70.212 156.351 70.0566 156.628 69.7804C156.904 69.5041 157.059 69.1296 157.06 68.7389V65.1737C157.059 64.783 156.904 64.4085 156.628 64.1323C156.351 63.856 155.977 63.7006 155.586 63.7002Z" fill="#3F3D56"/>
<path opacity="0.21" d="M155.586 63.7002H155.514C155.74 63.7004 155.963 63.7532 156.166 63.8545H155.835C155.478 63.8549 155.136 63.9968 154.884 64.2491C154.631 64.5014 154.489 64.8435 154.489 65.2003V68.7655C154.489 69.1223 154.631 69.4644 154.884 69.7167C155.136 69.969 155.478 70.1109 155.835 70.1114H156.046C155.876 70.1779 155.696 70.2122 155.514 70.2124H155.586C155.977 70.212 156.351 70.0566 156.628 69.7804C156.904 69.5041 157.059 69.1296 157.06 68.7389V65.1737C157.059 64.783 156.904 64.4085 156.628 64.1323C156.351 63.856 155.977 63.7006 155.586 63.7002Z" fill="black"/>
<path d="M146.137 63.7002H146.064C146.291 63.7004 146.514 63.7532 146.717 63.8545H146.386C146.029 63.8549 145.687 63.9968 145.434 64.2491C145.182 64.5014 145.04 64.8435 145.04 65.2003V68.7655C145.04 69.1223 145.182 69.4644 145.434 69.7167C145.687 69.969 146.029 70.1109 146.386 70.1114H146.597C146.427 70.1779 146.247 70.2122 146.064 70.2124H146.137C146.528 70.212 146.902 70.0566 147.178 69.7804C147.455 69.5041 147.61 69.1296 147.611 68.7389V65.1737C147.61 64.783 147.455 64.4085 147.178 64.1323C146.902 63.856 146.528 63.7006 146.137 63.7002Z" fill="#4B4BFA"/>
<path opacity="0.21" d="M146.137 63.7002H146.064C146.291 63.7004 146.514 63.7532 146.717 63.8545H146.386C146.029 63.8549 145.687 63.9968 145.434 64.2491C145.182 64.5014 145.04 64.8435 145.04 65.2003V68.7655C145.04 69.1223 145.182 69.4644 145.434 69.7167C145.687 69.969 146.029 70.1109 146.386 70.1114H146.597C146.427 70.1779 146.247 70.2122 146.064 70.2124H146.137C146.528 70.212 146.902 70.0566 147.178 69.7804C147.455 69.5041 147.61 69.1296 147.611 68.7389V65.1737C147.61 64.783 147.455 64.4085 147.178 64.1323C146.902 63.856 146.528 63.7006 146.137 63.7002Z" fill="black"/>
<path d="M146.4 70.1226C146.043 70.1222 145.701 69.9803 145.449 69.728C145.196 69.4757 145.054 69.1336 145.054 68.7768V65.2115C145.054 64.8547 145.196 64.5126 145.449 64.2603C145.701 64.008 146.043 63.8661 146.4 63.8657H146.731C146.528 63.7645 146.305 63.7116 146.079 63.7114H142.513C142.123 63.7119 141.748 63.8673 141.472 64.1435C141.196 64.4197 141.04 64.7943 141.04 65.1849V68.7502C141.04 69.1408 141.196 69.5154 141.472 69.7916C141.748 70.0678 142.123 70.2232 142.513 70.2237H146.079C146.261 70.2234 146.441 70.1891 146.611 70.1226L146.4 70.1226Z" fill="#4B4BFA"/>
<path d="M155.849 70.1226C155.492 70.1222 155.15 69.9803 154.898 69.728C154.646 69.4757 154.504 69.1336 154.503 68.7768V65.2115C154.504 64.8547 154.646 64.5126 154.898 64.2603C155.15 64.008 155.492 63.8661 155.849 63.8657H156.18C155.978 63.7645 155.754 63.7116 155.528 63.7114H151.963C151.572 63.7119 151.197 63.8673 150.921 64.1435C150.645 64.4197 150.489 64.7943 150.489 65.1849V68.7502C150.489 69.1408 150.645 69.5154 150.921 69.7916C151.197 70.0678 151.572 70.2232 151.963 70.2237H155.528C155.71 70.2234 155.891 70.1891 156.06 70.1226L155.849 70.1226Z" fill="#3F3D56"/>
<path d="M160.059 64.5986C161.367 66.3987 162.564 68.2771 163.643 70.2234H161.411C161.021 70.2228 160.646 70.0674 160.37 69.7912C160.094 69.515 159.938 69.1405 159.938 68.7499V65.1847C159.938 64.9831 159.979 64.7836 160.059 64.5986Z" fill="#FF6584"/>
<path d="M155.583 72.094L154.334 70.2234L153.421 68.8558C153.368 68.7759 153.293 68.7128 153.206 68.6737C153.118 68.6346 153.021 68.6211 152.926 68.6349C152.831 68.6487 152.742 68.6891 152.669 68.7514C152.596 68.8138 152.542 68.8956 152.514 68.9873L152.129 70.2234L151.355 72.707C151.325 72.8059 151.325 72.9118 151.356 73.0106C151.388 73.1093 151.448 73.1962 151.53 73.2596C151.612 73.323 151.711 73.36 151.815 73.3655C151.918 73.371 152.021 73.3448 152.109 73.2905L152.383 73.1207C152.439 73.0866 152.502 73.0672 152.567 73.0643C152.631 73.0614 152.696 73.0752 152.754 73.1042C152.812 73.1332 152.862 73.1766 152.898 73.2302C152.935 73.2838 152.957 73.3459 152.963 73.4105L153.215 76.1559C153.226 76.282 153.285 76.3992 153.378 76.4846C153.472 76.5701 153.594 76.6177 153.72 76.6181C153.736 76.6181 153.751 76.6168 153.768 76.6156L154.153 76.5811C154.22 76.5751 154.284 76.556 154.343 76.5249C154.403 76.4938 154.455 76.4514 154.498 76.4C154.54 76.3487 154.573 76.2894 154.592 76.2256C154.612 76.1618 154.619 76.0947 154.613 76.0282L154.354 73.1935C154.348 73.1269 154.359 73.0598 154.387 72.9991C154.415 72.9384 154.458 72.8861 154.513 72.8475C154.568 72.8089 154.632 72.7854 154.698 72.7794C154.765 72.7733 154.832 72.7849 154.892 72.8129L154.949 72.8385C155.049 72.8848 155.162 72.897 155.27 72.8732C155.379 72.8493 155.476 72.7909 155.548 72.7066C155.62 72.6223 155.662 72.5168 155.668 72.4062C155.675 72.2957 155.645 72.186 155.583 72.094Z" fill="#CCCCCC"/>
</g>
<defs>
<clipPath id="clip0_51_446">
<rect width="115.241" height="112" fill="white" transform="translate(54.7126 39.311)"/>
</clipPath>
</defs>
</svg>
