<svg width="224" height="190" viewBox="0 0 224 190" fill="none" xmlns="http://www.w3.org/2000/svg">
<path d="M0.5 16.9111C0.5 8.35073 7.43959 1.41113 16 1.41113H208C216.56 1.41113 223.5 8.35072 223.5 16.9111V173.711C223.5 182.272 216.56 189.211 208 189.211H16C7.43959 189.211 0.5 182.272 0.5 173.711V16.9111Z" fill="#FAFAFA"/>
<path d="M0.5 16.9111C0.5 8.35073 7.43959 1.41113 16 1.41113H208C216.56 1.41113 223.5 8.35072 223.5 16.9111V173.711C223.5 182.272 216.56 189.211 208 189.211H16C7.43959 189.211 0.5 182.272 0.5 173.711V16.9111Z" stroke="#F0F0F0"/>
<g clip-path="url(#clip0_51_445)">
<path d="M101.308 146.915C101.823 146.947 102.108 146.307 101.718 145.934L101.68 145.78C101.685 145.768 101.69 145.755 101.695 145.743C102.216 144.501 103.981 144.51 104.497 145.753C104.956 146.857 105.539 147.963 105.683 149.13C105.747 149.646 105.718 150.171 105.604 150.676C106.678 148.33 107.243 145.768 107.243 143.192C107.243 142.545 107.208 141.897 107.135 141.252C107.076 140.724 106.994 140.199 106.887 139.679C106.313 136.867 105.068 134.19 103.273 131.953C102.409 131.481 101.69 130.744 101.255 129.86C101.099 129.541 100.976 129.198 100.918 128.849C101.017 128.862 101.289 127.366 101.215 127.274C101.352 127.066 101.597 126.963 101.746 126.76C102.49 125.752 103.514 125.928 104.049 127.298C105.191 127.875 105.202 128.831 104.501 129.75C104.055 130.335 103.994 131.127 103.603 131.753C103.643 131.805 103.685 131.855 103.725 131.906C104.463 132.853 105.102 133.871 105.64 134.94C105.488 133.752 105.712 132.32 106.095 131.398C106.531 130.346 107.348 129.461 108.067 128.552C108.931 127.46 110.703 127.937 110.855 129.321C110.857 129.334 110.858 129.347 110.86 129.361C110.753 129.421 110.648 129.485 110.546 129.553C109.963 129.938 110.164 130.842 110.855 130.949L110.871 130.952C110.832 131.336 110.766 131.718 110.67 132.093C111.592 135.662 109.6 136.962 106.755 137.02C106.693 137.052 106.631 137.085 106.569 137.115C106.857 137.927 107.087 138.759 107.258 139.603C107.411 140.348 107.517 141.102 107.577 141.859C107.651 142.814 107.644 143.773 107.564 144.727L107.568 144.693C107.773 143.643 108.343 142.662 109.171 141.983C110.404 140.97 112.145 140.597 113.475 139.783C114.116 139.391 114.936 139.898 114.824 140.64L114.819 140.675C114.621 140.756 114.428 140.849 114.241 140.954C114.134 141.014 114.029 141.078 113.927 141.146C113.344 141.532 113.546 142.436 114.237 142.542L114.252 142.545C114.264 142.546 114.273 142.548 114.284 142.55C113.945 143.356 113.471 144.105 112.879 144.751C112.302 147.866 109.823 148.162 107.172 147.255H107.171C106.881 148.517 106.457 149.75 105.913 150.926H101.421C101.405 150.876 101.39 150.824 101.376 150.774C101.791 150.8 102.21 150.776 102.619 150.7C102.285 150.291 101.952 149.879 101.619 149.47C101.611 149.462 101.604 149.454 101.598 149.446C101.429 149.237 101.258 149.029 101.089 148.82L101.089 148.819C101.078 148.177 101.156 147.536 101.308 146.915Z" fill="#F2F2F2"/>
<path d="M41.6401 151.014C41.6401 151.179 41.7723 151.311 41.9368 151.311H142.475C142.64 151.311 142.772 151.179 142.772 151.014C142.772 150.85 142.64 150.718 142.475 150.718H41.9368C41.7723 150.718 41.6401 150.85 41.6401 151.014Z" fill="#CCCCCC"/>
<path d="M177.442 151.245H125.95C123.239 151.245 121.033 149.039 121.033 146.328V44.2283C121.033 41.517 123.239 39.311 125.95 39.311H177.442C180.154 39.311 182.36 41.517 182.36 44.2283V146.328C182.36 149.039 180.154 151.245 177.442 151.245ZM125.95 39.8096C123.51 39.8096 121.532 41.7879 121.532 44.2282V146.328C121.532 148.768 123.51 150.746 125.95 150.746H177.442C179.883 150.746 181.861 148.768 181.861 146.328V76.8811C181.861 56.4071 165.264 39.8096 144.79 39.8096H125.95Z" fill="#E6E6E6"/>
<path d="M135.658 89.6981C138.963 89.6981 141.641 87.0194 141.641 83.715C141.641 80.4107 138.963 77.7319 135.658 77.7319C132.354 77.7319 129.675 80.4107 129.675 83.715C129.675 87.0194 132.354 89.6981 135.658 89.6981Z" fill="#E6E6E6"/>
<path d="M167.735 89.6981C171.039 89.6981 173.718 87.0194 173.718 83.715C173.718 80.4107 171.039 77.7319 167.735 77.7319C164.43 77.7319 161.751 80.4107 161.751 83.715C161.751 87.0194 164.43 89.6981 167.735 89.6981Z" fill="#E6E6E6"/>
<path d="M151.696 89.6981C155.001 89.6981 157.68 87.0194 157.68 83.715C157.68 80.4107 155.001 77.7319 151.696 77.7319C148.392 77.7319 145.713 80.4107 145.713 83.715C145.713 87.0194 148.392 89.6981 151.696 89.6981Z" fill="#E6E6E6"/>
<path d="M135.658 106.9C138.963 106.9 141.641 104.221 141.641 100.917C141.641 97.6123 138.963 94.9336 135.658 94.9336C132.354 94.9336 129.675 97.6123 129.675 100.917C129.675 104.221 132.354 106.9 135.658 106.9Z" fill="#E6E6E6"/>
<path d="M167.734 106.9C171.039 106.9 173.717 104.221 173.717 100.917C173.717 97.6123 171.039 94.9336 167.734 94.9336C164.43 94.9336 161.751 97.6123 161.751 100.917C161.751 104.221 164.43 106.9 167.734 106.9Z" fill="#E6E6E6"/>
<path d="M151.696 106.9C155.001 106.9 157.679 104.221 157.679 100.917C157.679 97.6123 155.001 94.9336 151.696 94.9336C148.392 94.9336 145.713 97.6123 145.713 100.917C145.713 104.221 148.392 106.9 151.696 106.9Z" fill="#E6E6E6"/>
<path d="M135.658 124.101C138.963 124.101 141.641 121.422 141.641 118.118C141.641 114.813 138.963 112.135 135.658 112.135C132.354 112.135 129.675 114.813 129.675 118.118C129.675 121.422 132.354 124.101 135.658 124.101Z" fill="#E6E6E6"/>
<path d="M167.612 141.273C170.916 141.273 173.595 138.594 173.595 135.29C173.595 131.986 170.916 129.307 167.612 129.307C164.308 129.307 161.629 131.986 161.629 135.29C161.629 138.594 164.308 141.273 167.612 141.273Z" fill="#E6E6E6"/>
<path d="M143.804 141.273C151.583 141.273 157.889 138.594 157.889 135.29C157.889 131.986 151.583 129.307 143.804 129.307C136.025 129.307 129.719 131.986 129.719 135.29C129.719 138.594 136.025 141.273 143.804 141.273Z" fill="#E6E6E6"/>
<path d="M167.734 124.101C171.039 124.101 173.717 121.422 173.717 118.118C173.717 114.813 171.039 112.135 167.734 112.135C164.43 112.135 161.751 114.813 161.751 118.118C161.751 121.422 164.43 124.101 167.734 124.101Z" fill="#E6E6E6"/>
<path d="M151.696 124.101C155.001 124.101 157.679 121.422 157.679 118.118C157.679 114.813 155.001 112.135 151.696 112.135C148.392 112.135 145.713 114.813 145.713 118.118C145.713 121.422 148.392 124.101 151.696 124.101Z" fill="#4B4BFA"/>
<path d="M152.872 46.2913H95.6501C93.9534 46.2913 92.5737 47.6709 92.5737 49.3677V70.3881C92.5737 72.0848 93.9534 73.4645 95.6501 73.4645H152.872C154.569 73.4645 155.948 72.0848 155.948 70.3881V49.3677C155.948 47.6709 154.569 46.2913 152.872 46.2913Z" fill="white"/>
<path d="M152.872 46.2913H95.6501C93.9534 46.2913 92.5737 47.6709 92.5737 49.3677V70.3881C92.5737 72.0848 93.9534 73.4645 95.6501 73.4645H152.872C154.569 73.4645 155.948 72.0848 155.948 70.3881V49.3677C155.948 47.6709 154.569 46.2913 152.872 46.2913ZM155.625 70.3881C155.625 71.9069 154.391 73.141 152.872 73.141H95.6501C94.1313 73.141 92.8972 71.9069 92.8972 70.3881V49.3677C92.8972 47.8489 94.1313 46.6148 95.6501 46.6148H152.872C154.391 46.6148 155.625 47.8489 155.625 49.3677V70.3881Z" fill="#3F3D56"/>
<path d="M149.689 59.0054H98.833C98.3511 59.0054 97.9604 59.396 97.9604 59.8779C97.9604 60.3598 98.3511 60.7504 98.833 60.7504H149.689C150.171 60.7504 150.562 60.3598 150.562 59.8779C150.562 59.396 150.171 59.0054 149.689 59.0054Z" fill="#4B4BFA"/>
<path d="M58.5805 84.289L58.0708 87.3241L62.5907 98.319L65.0158 97.0723L62.6554 86.7833L62.3162 82.8567L58.5805 84.289Z" fill="#A0616A"/>
<path d="M63.5697 67.2142C63.5697 67.2142 61.2033 66.0678 59.367 69.9412C57.5307 73.8145 57.7581 82.3098 57.7581 82.3098C57.7581 82.3098 57.0894 82.9465 57.5139 83.3923C57.9383 83.838 58.334 84.5455 57.9011 85.3609C57.6728 85.7907 57.1447 86.6315 58.0096 86.8704C58.8745 87.1092 62.9202 85.9808 62.9202 85.9808C62.9202 85.9808 64.433 85.3031 63.5735 84.8467C62.7139 84.3903 63.9245 81.6295 63.9245 81.6295L64.9248 73.6541L63.5697 67.2142Z" fill="#4B4BFA"/>
<path d="M65.4281 102.52C66.3779 102.228 66.7497 100.695 66.2585 99.095C65.7672 97.4952 64.5989 96.4348 63.6491 96.7265C62.6992 97.0182 62.3274 98.5515 62.8187 100.151C63.31 101.751 64.4782 102.811 65.4281 102.52Z" fill="#A0616A"/>
<path d="M87.8291 149.642L90.0942 149.034L88.8273 140.007L85.4841 140.904L87.8291 149.642Z" fill="#A0616A"/>
<path d="M95.5762 147.508C95.6786 147.608 95.8187 147.981 95.8558 148.119C95.9697 148.544 95.7179 148.98 95.2933 149.094L88.2781 150.977C87.9885 151.054 87.6906 150.882 87.6129 150.593L87.5345 150.301C87.5345 150.301 86.952 149.516 87.3761 148.242C87.3761 148.242 88.4915 148.851 89.4623 147.168L89.6634 146.354L93.0517 147.666L94.6735 147.438C95.0283 147.388 95.3197 147.257 95.5762 147.508Z" fill="#2F2E41"/>
<path d="M65.6252 149.59L67.9706 149.589L69.0863 140.543L65.6248 140.543L65.6252 149.59Z" fill="#A0616A"/>
<path d="M73.6608 149.537C73.7338 149.659 73.7724 150.056 73.7724 150.199C73.7724 150.639 73.416 150.995 72.9763 150.995H65.7131C65.4131 150.995 65.17 150.752 65.17 150.452V150.15C65.17 150.15 64.8107 149.241 65.5505 148.121C65.5505 148.121 66.4699 148.998 67.8437 147.624L68.2488 146.89L71.1815 149.035L72.807 149.235C73.1626 149.279 73.4779 149.228 73.6608 149.537Z" fill="#2F2E41"/>
<path d="M81.2339 95.7029L87.4012 122.286L90.3784 143.765L85.6998 144.403L72.7273 107.825L69.7501 144.403L64.4335 144.828C64.4335 144.828 60.1802 101.445 62.0942 96.1282L81.2339 95.7029Z" fill="#2F2E41"/>
<path d="M88.5751 64.269L90.703 62.0455L93.1466 50.4117L90.4402 50.0793L86.6075 59.9152L84.6804 63.3532L88.5751 64.269Z" fill="#A0616A"/>
<path d="M74.8491 75.5847C74.8491 75.5847 76.8406 79.2567 80.5369 77.0859C84.2332 74.9151 88.1424 66.3682 88.1424 66.3682C88.1424 66.3682 88.923 64.1956 89.7395 63.7646C90.1699 63.5375 91.2772 63.2926 90.6963 62.6088C90.1153 61.925 85.9373 60.4301 85.9373 60.4301C85.9373 60.4301 84.3052 60.14 84.7594 61.0007C85.2137 61.8614 83.7218 61.3282 83.8724 62.2392C84.023 63.1501 82.6603 63.464 82.6603 63.464L74.8491 75.5847Z" fill="#4B4BFA"/>
<path d="M93.9882 48.7683C94.4813 47.1691 94.1114 45.6354 93.1619 45.3425C92.2124 45.0497 91.0428 46.1088 90.5497 47.7079C90.0565 49.3071 90.4265 50.8409 91.376 51.1337C92.3255 51.4265 93.495 50.3675 93.9882 48.7683Z" fill="#A0616A"/>
<path d="M75.1135 62.8628H69.2909L69.0552 64.6986C69.0552 64.6986 61.7119 66.7181 61.8955 67.8196C62.0791 68.9211 63.1806 87.2794 63.1806 87.2794L62.2626 96.4586C62.2626 96.4586 78.7852 103.435 81.3554 95.1735L80.0703 85.6272C80.0703 85.6272 83.1912 69.2882 82.4569 68.5539C81.7225 67.8196 75.6643 64.8822 75.6643 64.8822L75.1135 62.8628Z" fill="#4B4BFA"/>
<path d="M71.7311 62.8856C74.6175 62.8856 76.9574 60.5457 76.9574 57.6593C76.9574 54.773 74.6175 52.4331 71.7311 52.4331C68.8448 52.4331 66.5049 54.773 66.5049 57.6593C66.5049 60.5457 68.8448 62.8856 71.7311 62.8856Z" fill="#A0616A"/>
<path d="M75.6018 55.5095C76.2695 55.4531 76.9373 55.3966 77.605 55.3402C77.3755 55.2349 77.1364 55.1222 76.9835 54.9212C76.8306 54.7203 76.799 54.4028 76.9837 54.2306C77.1996 54.0294 77.5571 54.136 77.793 54.3133C77.6631 53.635 77.2583 53.0134 76.6903 52.6205C75.9965 52.1406 74.2801 52.7129 73.4436 52.6027C72.4785 52.4755 72.3581 51.6527 71.393 51.5256C71.0292 51.4777 70.6199 51.4415 70.3338 51.6713C70.0166 51.9262 69.981 52.4081 69.7011 52.7034C69.3014 53.1252 68.6165 53.0008 68.0477 53.1194C67.2422 53.2875 66.6349 53.9939 66.3545 54.7675C66.074 55.5411 66.0637 56.3826 66.0565 57.2055C66.0485 58.1277 66.0456 59.1953 66.7126 59.8323C67.119 60.2203 68.2259 61.5517 68.3455 62.1007C68.4305 62.4906 71.8939 62.9655 72.6446 62.9439L75.2031 62.1007C75.4546 60.9935 75.0386 58.8032 74.4408 57.8379C74.6377 58.0979 75.5481 58.8808 75.6873 58.5858C75.8265 58.2908 75.7633 57.3663 75.9366 57.09C76.1553 56.7413 75.1916 55.5442 75.6018 55.5095Z" fill="#2F2E41"/>
</g>
<defs>
<clipPath id="clip0_51_445">
<rect width="140.719" height="112" fill="white" transform="translate(41.6401 39.311)"/>
</clipPath>
</defs>
</svg>
