<svg width="139" height="100" viewBox="0 0 139 100" fill="none" xmlns="http://www.w3.org/2000/svg">
<g clip-path="url(#clip0_37_157)">
<path d="M88.4352 74.9668V99.0727H28.0407C21.1596 99.0727 15.561 93.6656 15.561 87.0198C15.561 80.3739 21.1596 74.9668 28.0407 74.9668H88.4352Z" fill="#F2F2F2"/>
<path d="M89.9185 98.8875C89.9184 99.1333 89.8207 99.3691 89.6469 99.5429C89.473 99.7168 89.2373 99.8145 88.9914 99.8146H26.9649C23.5961 99.8146 20.3654 98.4764 17.9833 96.0943C15.6012 93.7122 14.2629 90.4814 14.2629 87.1126C14.2629 83.7439 15.6012 80.513 17.9833 78.131C20.3654 75.7489 23.5961 74.4106 26.9649 74.4106H88.9914C89.2373 74.4106 89.4731 74.5083 89.647 74.6822C89.8209 74.8561 89.9185 75.0919 89.9185 75.3378C89.9185 75.5837 89.8209 75.8195 89.647 75.9934C89.4731 76.1673 89.2373 76.2649 88.9914 76.2649H26.9649C24.0879 76.2649 21.3288 77.4078 19.2945 79.4422C17.2601 81.4765 16.1172 84.2356 16.1172 87.1126C16.1172 89.9896 17.2601 92.7488 19.2945 94.7831C21.3288 96.8174 24.0879 97.9603 26.9649 97.9603H88.9914C89.2373 97.9604 89.473 98.0581 89.6469 98.232C89.8207 98.4058 89.9184 98.6416 89.9185 98.8875Z" fill="#4B4BFA"/>
<path d="M88.4352 80.5298H23.5346C23.4854 80.5298 23.4382 80.5103 23.4034 80.4755C23.3687 80.4407 23.3491 80.3935 23.3491 80.3444C23.3491 80.2952 23.3687 80.248 23.4034 80.2132C23.4382 80.1785 23.4854 80.1589 23.5346 80.1589H88.4352C88.4844 80.1589 88.5315 80.1785 88.5663 80.2132C88.6011 80.248 88.6206 80.2952 88.6206 80.3444C88.6206 80.3935 88.6011 80.4407 88.5663 80.4755C88.5315 80.5103 88.4844 80.5298 88.4352 80.5298Z" fill="#CCCCCC"/>
<path d="M88.4352 84.9802H23.5346C23.4854 84.9802 23.4382 84.9607 23.4034 84.9259C23.3687 84.8911 23.3491 84.844 23.3491 84.7948C23.3491 84.7456 23.3687 84.6985 23.4034 84.6637C23.4382 84.6289 23.4854 84.6094 23.5346 84.6094H88.4352C88.4844 84.6094 88.5315 84.6289 88.5663 84.6637C88.6011 84.6985 88.6206 84.7456 88.6206 84.7948C88.6206 84.844 88.6011 84.8911 88.5663 84.9259C88.5315 84.9607 88.4844 84.9802 88.4352 84.9802Z" fill="#CCCCCC"/>
<path d="M88.4352 89.4304H23.5346C23.4854 89.4304 23.4382 89.4109 23.4034 89.3761C23.3687 89.3413 23.3491 89.2942 23.3491 89.245C23.3491 89.1958 23.3687 89.1487 23.4034 89.1139C23.4382 89.0791 23.4854 89.0596 23.5346 89.0596H88.4352C88.4844 89.0596 88.5315 89.0791 88.5663 89.1139C88.6011 89.1487 88.6206 89.1958 88.6206 89.245C88.6206 89.2942 88.6011 89.3413 88.5663 89.3761C88.5315 89.4109 88.4844 89.4304 88.4352 89.4304Z" fill="#CCCCCC"/>
<path d="M88.4352 93.8809H23.5346C23.4854 93.8809 23.4382 93.8613 23.4034 93.8266C23.3687 93.7918 23.3491 93.7446 23.3491 93.6954C23.3491 93.6463 23.3687 93.5991 23.4034 93.5643C23.4382 93.5295 23.4854 93.51 23.5346 93.51H88.4352C88.4844 93.51 88.5315 93.5295 88.5663 93.5643C88.6011 93.5991 88.6206 93.6463 88.6206 93.6954C88.6206 93.7446 88.6011 93.7918 88.5663 93.8266C88.5315 93.8613 88.4844 93.8809 88.4352 93.8809Z" fill="#CCCCCC"/>
<path d="M135.111 79.5045L119.987 98.2753L72.9586 60.3826C67.6004 56.0652 66.6335 48.3421 70.8032 43.1671C74.973 37.9922 82.725 37.2944 88.0832 41.6118L135.111 79.5045Z" fill="#F2F2F2"/>
<path d="M121.258 99.0617C121.104 99.253 120.88 99.3753 120.635 99.4016C120.391 99.4279 120.146 99.3561 119.954 99.2019L71.6556 60.2852C69.0324 58.1716 67.3563 55.1024 66.996 51.753C66.6357 48.4035 67.6207 45.0481 69.7343 42.4249C71.848 39.8017 74.9171 38.1256 78.2666 37.7653C81.616 37.405 84.9714 38.39 87.5946 40.5036L135.893 79.4203C135.988 79.4967 136.067 79.591 136.126 79.6979C136.184 79.8048 136.221 79.9221 136.234 80.0432C136.247 80.1643 136.236 80.2868 136.202 80.4037C136.167 80.5205 136.11 80.6295 136.034 80.7243C135.958 80.8192 135.863 80.898 135.756 80.9564C135.649 81.0148 135.532 81.0515 135.411 81.0645C135.29 81.0775 135.167 81.0665 135.051 81.0321C134.934 80.9978 134.825 80.9407 134.73 80.8643L86.4312 41.9475C85.322 41.0531 84.0475 40.3859 82.6804 39.9842C81.3133 39.5824 79.8804 39.4539 78.4637 39.606C77.0469 39.7582 75.674 40.1879 74.4234 40.8708C73.1728 41.5536 72.0689 42.4761 71.1749 43.5857C70.2809 44.6952 69.6143 45.97 69.213 47.3373C68.8118 48.7045 68.6839 50.1374 68.8366 51.5541C68.9893 52.9708 69.4195 54.3435 70.1029 55.5939C70.7862 56.8442 71.7092 57.9477 72.8191 58.8413L121.118 97.758C121.309 97.9123 121.432 98.1363 121.458 98.3808C121.484 98.6252 121.412 98.8701 121.258 99.0617Z" fill="#CCCCCC"/>
<path d="M131.621 83.8362L81.0842 43.1162C81.0653 43.1009 81.0495 43.0821 81.0378 43.0607C81.0262 43.0393 81.0188 43.0158 81.0162 42.9916C81.0136 42.9674 81.0158 42.9429 81.0227 42.9196C81.0295 42.8962 81.0409 42.8744 81.0562 42.8555C81.0715 42.8365 81.0903 42.8207 81.1117 42.8091C81.1331 42.7974 81.1565 42.79 81.1807 42.7874C81.2049 42.7848 81.2294 42.787 81.2528 42.7939C81.2762 42.8007 81.298 42.8121 81.3169 42.8274L131.854 83.5474C131.873 83.5627 131.889 83.5816 131.9 83.6029C131.912 83.6243 131.919 83.6478 131.922 83.672C131.925 83.6963 131.922 83.7208 131.916 83.7441C131.909 83.7675 131.897 83.7893 131.882 83.8083C131.867 83.8273 131.848 83.8431 131.826 83.8547C131.805 83.8664 131.782 83.8738 131.757 83.8764C131.733 83.8789 131.709 83.8767 131.685 83.8698C131.662 83.863 131.64 83.8515 131.621 83.8362Z" fill="#CCCCCC"/>
<path d="M128.829 87.3016L78.2918 46.5816C78.2536 46.5507 78.2292 46.506 78.224 46.4571C78.2187 46.4082 78.2331 46.3593 78.2639 46.321C78.2948 46.2828 78.3395 46.2583 78.3884 46.253C78.4372 46.2477 78.4862 46.2621 78.5245 46.2928L129.061 87.0129C129.08 87.0281 129.096 87.047 129.108 87.0684C129.12 87.0897 129.127 87.1132 129.13 87.1375C129.132 87.1617 129.13 87.1862 129.123 87.2096C129.116 87.233 129.105 87.2548 129.09 87.2738C129.074 87.2927 129.055 87.3085 129.034 87.3202C129.013 87.3319 128.989 87.3392 128.965 87.3418C128.941 87.3444 128.916 87.3422 128.893 87.3353C128.869 87.3284 128.848 87.317 128.829 87.3016Z" fill="#CCCCCC"/>
<path d="M126.037 90.7671L75.4998 50.0471C75.4615 50.0163 75.437 49.9714 75.4317 49.9226C75.4265 49.8737 75.4408 49.8247 75.4717 49.7864C75.5026 49.7481 75.5474 49.7236 75.5963 49.7183C75.6452 49.7131 75.6941 49.7275 75.7324 49.7583L126.269 90.4784C126.288 90.4936 126.304 90.5125 126.316 90.5339C126.327 90.5552 126.335 90.5787 126.337 90.6029C126.34 90.6271 126.338 90.6516 126.331 90.675C126.324 90.6983 126.313 90.7201 126.297 90.7391C126.282 90.758 126.263 90.7738 126.242 90.7855C126.22 90.7972 126.197 90.8045 126.173 90.8071C126.149 90.8097 126.124 90.8075 126.101 90.8007C126.077 90.7938 126.056 90.7824 126.037 90.7671Z" fill="#CCCCCC"/>
<path d="M123.244 94.2325L72.7075 53.5124C72.6886 53.4972 72.6728 53.4783 72.6611 53.4569C72.6494 53.4355 72.6421 53.4121 72.6395 53.3879C72.6369 53.3637 72.6391 53.3392 72.6459 53.3158C72.6528 53.2925 72.6642 53.2707 72.6795 53.2517C72.6948 53.2327 72.7136 53.217 72.735 53.2053C72.7564 53.1936 72.7798 53.1863 72.804 53.1837C72.8282 53.1811 72.8527 53.1833 72.8761 53.1901C72.8995 53.197 72.9212 53.2084 72.9402 53.2237L123.477 93.9437C123.496 93.9589 123.512 93.9778 123.524 93.9992C123.535 94.0205 123.543 94.044 123.545 94.0683C123.548 94.0925 123.546 94.117 123.539 94.1404C123.532 94.1638 123.521 94.1856 123.505 94.2046C123.49 94.2235 123.471 94.2393 123.45 94.251C123.428 94.2627 123.405 94.27 123.381 94.2726C123.356 94.2752 123.332 94.273 123.308 94.2661C123.285 94.2592 123.263 94.2478 123.244 94.2325Z" fill="#CCCCCC"/>
<path d="M138.295 100H0.70545C0.656271 100 0.609106 99.9805 0.574331 99.9457C0.539556 99.9109 0.52002 99.8638 0.52002 99.8146C0.52002 99.7654 0.539556 99.7182 0.574331 99.6835C0.609106 99.6487 0.656271 99.6292 0.70545 99.6292H138.295C138.344 99.6292 138.391 99.6487 138.426 99.6835C138.461 99.7182 138.48 99.7654 138.48 99.8146C138.48 99.8638 138.461 99.9109 138.426 99.9457C138.391 99.9805 138.344 100 138.295 100Z" fill="#CCCCCC"/>
<path d="M63.2105 72.4333L61.0907 72.4331L60.0825 64.2563L63.2113 64.2567L63.2105 72.4333Z" fill="#FFB8B8"/>
<path d="M59.5763 71.8274H63.6647V74.4015H57.0022C57.0022 74.0635 57.0688 73.7288 57.1981 73.4164C57.3275 73.1041 57.5171 72.8204 57.7561 72.5813C57.9952 72.3423 58.2789 72.1527 58.5912 72.0233C58.9036 71.894 59.2383 71.8274 59.5763 71.8274Z" fill="#2F2E41"/>
<path d="M41.5531 72.4333L39.4332 72.4331L38.425 64.2563L41.5538 64.2567L41.5531 72.4333Z" fill="#FFB8B8"/>
<path d="M37.9191 71.8274H42.0074V74.4015H35.345C35.345 74.0635 35.4116 73.7288 35.5409 73.4164C35.6703 73.1041 35.8599 72.8204 36.0989 72.5813C36.3379 72.3423 36.6217 72.1527 36.934 72.0233C37.2463 71.894 37.5811 71.8274 37.9191 71.8274Z" fill="#2F2E41"/>
<path d="M48.6338 11.7811V10.8539C48.6338 9.26788 49.2638 7.74681 50.3853 6.62532C51.5068 5.50383 53.0279 4.87378 54.6139 4.87378C56.1999 4.87378 57.721 5.50383 58.8425 6.62532C59.964 7.74681 60.5941 9.26788 60.5941 10.8539V11.7811C60.5941 12.9245 60.1398 14.0211 59.3313 14.8296C58.5228 15.6381 57.4262 16.0923 56.2828 16.0923H52.9451C52.3789 16.0923 51.8183 15.9808 51.2952 15.7642C50.7721 15.5475 50.2969 15.2299 49.8965 14.8296C49.4962 14.4293 49.1786 13.954 48.962 13.4309C48.7453 12.9079 48.6338 12.3472 48.6338 11.7811Z" fill="#2F2E41"/>
<path d="M54.6139 16.4112C57.1292 16.4112 59.1683 14.3722 59.1683 11.8569C59.1683 9.34155 57.1292 7.30249 54.6139 7.30249C52.0986 7.30249 50.0596 9.34155 50.0596 11.8569C50.0596 14.3722 52.0986 16.4112 54.6139 16.4112Z" fill="#FFB8B8"/>
<path d="M29.8411 27.5097C30.0259 27.3352 30.2468 27.2033 30.4881 27.1234C30.7294 27.0434 30.9853 27.0174 31.2377 27.047C31.4902 27.0767 31.7331 27.1613 31.9493 27.295C32.1655 27.4287 32.3498 27.6082 32.4891 27.8208L36.3933 27.0822L37.4207 29.3453L31.8927 30.3108C31.52 30.5212 31.0831 30.5876 30.6647 30.4975C30.2464 30.4073 29.8756 30.1668 29.6227 29.8215C29.3698 29.4762 29.2524 29.0502 29.2927 28.6241C29.3329 28.198 29.5281 27.8015 29.8411 27.5097Z" fill="#FFB8B8"/>
<path d="M51.1142 19.3567L44.7121 23.5742L33.9092 27.0239C33.766 27.0699 33.6432 27.1641 33.5617 27.2905C33.4801 27.4169 33.4449 27.5676 33.462 27.717L33.6976 29.7469C33.7081 29.8367 33.7372 29.9234 33.7831 30.0013C33.829 30.0792 33.8907 30.1467 33.9642 30.1994C34.0377 30.2521 34.1214 30.2889 34.2099 30.3073C34.2985 30.3258 34.3899 30.3255 34.4783 30.3066L44.6454 28.1273C45.1375 28.0224 45.6027 27.8176 46.0123 27.5255L53.2048 22.4082C53.4655 22.2216 53.6736 21.9708 53.8087 21.6801C53.9438 21.3894 54.0014 21.0686 53.9759 20.749C53.9495 20.429 53.8403 20.1214 53.6589 19.8564C53.4776 19.5914 53.2304 19.3782 52.9417 19.2377C52.6529 19.0972 52.3326 19.0343 52.0122 19.0552C51.6918 19.0761 51.3823 19.18 51.1142 19.3567Z" fill="#CCCCCC"/>
<path d="M61.1285 70.1129C60.9658 70.1129 60.8066 70.0656 60.6704 69.9766C60.5341 69.8877 60.4267 69.761 60.3613 69.612L50.6429 45.5986C50.6202 45.5465 50.5821 45.5026 50.5337 45.4728C50.4853 45.443 50.429 45.4288 50.3723 45.432C50.3155 45.4352 50.2612 45.4557 50.2164 45.4907C50.1717 45.5257 50.1388 45.5736 50.1221 45.6279L42.1934 69.0058C42.1599 69.1146 42.1045 69.2154 42.0307 69.302C41.9568 69.3886 41.866 69.4592 41.7639 69.5094C41.6617 69.5596 41.5504 69.5884 41.4367 69.594C41.323 69.5996 41.2093 69.5819 41.1028 69.5419L38.444 68.5449C38.2997 68.4912 38.1731 68.3986 38.0782 68.2774C37.9834 68.1561 37.9241 68.0109 37.9068 67.8579C36.7107 57.4382 47.1412 31.1372 47.2468 30.8728L47.276 30.7996L56.7843 32.9029L56.8041 32.9244C60.5976 37.0628 63.7157 63.1648 64.3023 68.3553C64.3241 68.5428 64.2815 68.7321 64.1813 68.8921C64.0812 69.0521 63.9295 69.1732 63.7513 69.2354L61.4045 70.0654C61.3159 70.0968 61.2225 70.1129 61.1285 70.1129Z" fill="#2F2E41"/>
<path d="M52.9361 33.7493C50.6324 33.7493 48.064 33.29 47.2735 31.3942L47.2553 31.3507L47.2799 31.3103C47.9039 30.2865 48.7286 28.5399 48.2853 28.212C47.4121 27.5664 46.9884 26.5042 47.026 25.055C47.1077 21.909 49.2512 19.1159 52.36 18.1046C53.2278 17.8269 54.1109 17.5996 55.0049 17.4237C55.6566 17.2922 56.3294 17.3066 56.9748 17.466C57.6203 17.6254 58.2225 17.9258 58.7381 18.3456C59.2601 18.7681 59.6822 19.301 59.9738 19.906C60.2654 20.511 60.4194 21.1731 60.4247 21.8448C60.4573 25.2068 59.9397 29.8893 57.2887 33.1041C57.1645 33.2533 56.9916 33.3538 56.8005 33.3881C55.5251 33.6188 54.2322 33.7396 52.9361 33.7493Z" fill="#CCCCCC"/>
<path d="M52.0792 33.6234C52.2045 33.1737 52.5023 32.7916 52.9078 32.5602C53.3133 32.3288 53.7937 32.2668 54.2447 32.3877C54.3368 32.4134 54.4265 32.4467 54.5132 32.4871L57.4776 29.7893L59.5392 31.1782L55.2999 34.9297C55.1085 35.2748 54.8071 35.546 54.4438 35.7001C54.0805 35.8542 53.676 35.8824 53.2948 35.7802C53.0728 35.7194 52.865 35.6152 52.6834 35.4736C52.5019 35.332 52.3502 35.1559 52.2372 34.9553C52.1241 34.7548 52.0519 34.5338 52.0248 34.3052C51.9977 34.0766 52.0162 33.8448 52.0792 33.6234Z" fill="#FFB8B8"/>
<path d="M57.008 33.6576C56.8156 33.6578 56.6292 33.5912 56.4803 33.4694L55.3113 32.5141C55.2138 32.4345 55.1357 32.3338 55.0826 32.2197C55.0296 32.1056 55.003 31.9809 55.005 31.8551C55.0069 31.7292 55.0373 31.6055 55.0939 31.493C55.1504 31.3806 55.2317 31.2824 55.3315 31.2059L60.2346 27.4454C60.2927 27.4006 60.3308 27.3347 60.3407 27.2619C60.3505 27.1892 60.3313 27.1156 60.2872 27.0569L57.2609 23.0561C56.9093 22.5928 56.7329 22.02 56.7631 21.4392C56.7932 20.8584 57.0278 20.307 57.4254 19.8826C57.8442 19.4303 58.4177 19.1519 59.0322 19.1028C59.6466 19.0537 60.257 19.2373 60.7424 19.6173L60.7615 19.6375L63.9216 24.1624C64.2633 24.4303 64.5385 24.7736 64.7256 25.1655C64.9127 25.5573 65.0067 25.9871 65.0002 26.4213C64.9938 26.8555 64.887 27.2823 64.6883 27.6684C64.4896 28.0545 64.2044 28.3895 63.8548 28.6471L57.5047 33.494C57.3609 33.6003 57.1868 33.6576 57.008 33.6576Z" fill="#CCCCCC"/>
<path d="M50.5798 10.5757V8.31603L54.614 6.55444L58.4606 8.31603V10.5757C58.4606 10.6741 58.4216 10.7684 58.352 10.838C58.2825 10.9075 58.1881 10.9466 58.0898 10.9466H50.9507C50.8523 10.9466 50.758 10.9075 50.6885 10.838C50.6189 10.7684 50.5798 10.6741 50.5798 10.5757Z" fill="#2F2E41"/>
<path d="M54.4287 5.17344C53.8356 3.2749 55.0813 1.0991 56.9229 0.34761C58.7645 -0.403878 60.9678 0.121435 62.5218 1.36301C64.0757 2.60458 65.0398 4.46422 65.5507 6.38653C66.0615 8.30885 66.1585 10.3134 66.2528 12.3002C68.5155 12.7158 70.0547 15.3995 69.2708 17.5624C68.487 19.7252 65.5858 20.7998 63.5822 19.6693C61.5786 18.5388 60.9983 15.5 62.4444 13.7107C63.1286 12.8641 63.5108 11.8134 63.5305 10.725C63.5501 9.63665 63.2061 8.57282 62.5529 7.70204C61.8997 6.83126 60.9747 6.20329 59.9243 5.9176C58.8739 5.63192 57.7582 5.70483 56.7539 6.12481C55.6388 6.59116 54.2396 5.3795 54.4287 5.17344Z" fill="#2F2E41"/>
<path d="M29.0048 18.7438C26.2958 18.726 23.6206 18.1401 21.1521 17.024C21.0052 16.9585 20.8805 16.8517 20.7932 16.7166C20.7059 16.5814 20.6597 16.4238 20.6604 16.263V9.50997C20.6607 9.28874 20.7486 9.07664 20.9051 8.92021C21.0615 8.76377 21.2736 8.67578 21.4948 8.67554H36.5147C36.7359 8.67579 36.948 8.76378 37.1045 8.92021C37.2609 9.07665 37.3489 9.28874 37.3491 9.50997V16.263C37.3498 16.4238 37.3037 16.5814 37.2164 16.7166C37.1291 16.8517 37.0043 16.9585 36.8574 17.024C34.389 18.1401 31.7138 18.726 29.0048 18.7438Z" fill="#4B4BFA"/>
<path d="M29.0027 13.273C28.8913 13.2731 28.7811 13.2509 28.6784 13.2078L16.7679 8.18272C16.6143 8.11792 16.4836 8.0086 16.3927 7.86886C16.3018 7.72911 16.2549 7.56534 16.258 7.39866C16.261 7.23199 16.3139 7.07005 16.4099 6.93372C16.5058 6.7974 16.6404 6.69294 16.7963 6.63382L28.707 2.1153C28.8988 2.04219 29.1109 2.04264 29.3024 2.11657L41.0536 6.63507C41.2085 6.69468 41.3422 6.79916 41.4375 6.93516C41.5328 7.07116 41.5853 7.23249 41.5883 7.39851C41.5914 7.56452 41.5449 7.72768 41.4547 7.86711C41.3645 8.00654 41.2348 8.11589 41.0821 8.18118L29.3309 13.2062C29.2271 13.2504 29.1155 13.2731 29.0027 13.273Z" fill="#4B4BFA"/>
<path d="M22.0511 17.4835C22.6655 17.4835 23.1636 16.9853 23.1636 16.3709C23.1636 15.7564 22.6655 15.2583 22.0511 15.2583C21.4366 15.2583 20.9385 15.7564 20.9385 16.3709C20.9385 16.9853 21.4366 17.4835 22.0511 17.4835Z" fill="#3F3D56"/>
<path opacity="0.2" d="M41.1228 7.46798L29.3715 12.493C29.2799 12.5322 29.1813 12.5525 29.0817 12.5527C28.982 12.553 28.8834 12.5331 28.7916 12.4944L16.881 7.46945C16.7314 7.40785 16.6066 7.29816 16.5264 7.15773C16.4738 7.24879 16.4413 7.34999 16.4309 7.45461C16.4205 7.55922 16.4324 7.66485 16.466 7.76448C16.4995 7.86411 16.5539 7.95547 16.6254 8.03248C16.697 8.1095 16.7841 8.17041 16.881 8.21117L28.7916 13.2361C28.8834 13.2748 28.982 13.2947 29.0817 13.2944C29.1813 13.2942 29.2799 13.2739 29.3715 13.2347L41.1228 8.2097C41.2192 8.16858 41.3058 8.10748 41.3768 8.03043C41.4479 7.95337 41.5018 7.86213 41.535 7.76271C41.5682 7.66329 41.5799 7.55796 41.5694 7.45368C41.5589 7.34939 41.5264 7.24852 41.4741 7.15771C41.3944 7.29703 41.2709 7.4061 41.1228 7.46798Z" fill="black"/>
<path d="M22.1447 16.3665C22.1938 16.3665 22.241 16.3469 22.2758 16.3122C22.3106 16.2774 22.3301 16.2302 22.3301 16.181V9.97627L28.4458 7.7483C28.495 7.74903 28.5424 7.7302 28.5777 7.69594C28.613 7.66169 28.6333 7.61481 28.634 7.56563C28.6347 7.51645 28.6159 7.469 28.5816 7.4337C28.5474 7.39841 28.5005 7.37817 28.4513 7.37744L22.3356 9.60541C22.2864 9.60428 22.2375 9.61315 22.1918 9.63148C22.1461 9.64982 22.1046 9.67723 22.0698 9.71207C22.0347 9.74649 22.0068 9.7876 21.9878 9.83298C21.9688 9.87836 21.9591 9.92708 21.9592 9.97627V16.181C21.9592 16.2302 21.9788 16.2774 22.0135 16.3122C22.0483 16.3469 22.0955 16.3665 22.1447 16.3665Z" fill="#3F3D56"/>
</g>
<defs>
<clipPath id="clip0_37_157">
<rect width="137.96" height="100" fill="white" transform="translate(0.52002)"/>
</clipPath>
</defs>
</svg>
