<svg width="224" height="190" viewBox="0 0 224 190" fill="none" xmlns="http://www.w3.org/2000/svg">
<path d="M0.5 16.9111C0.5 8.35073 7.43959 1.41113 16 1.41113H208C216.56 1.41113 223.5 8.35072 223.5 16.9111V173.711C223.5 182.272 216.56 189.211 208 189.211H16C7.43959 189.211 0.5 182.272 0.5 173.711V16.9111Z" fill="#FAFAFA"/>
<path d="M0.5 16.9111C0.5 8.35073 7.43959 1.41113 16 1.41113H208C216.56 1.41113 223.5 8.35072 223.5 16.9111V173.711C223.5 182.272 216.56 189.211 208 189.211H16C7.43959 189.211 0.5 182.272 0.5 173.711V16.9111Z" stroke="#F0F0F0"/>
<g clip-path="url(#clip0_52_282)">
<path d="M38.4924 140.827C38.4924 140.95 38.5912 141.049 38.7143 141.049H185.286C185.409 141.049 185.507 140.95 185.507 140.827C185.507 140.704 185.409 140.605 185.286 140.605H38.7143C38.5912 140.605 38.4924 140.704 38.4924 140.827Z" fill="#3F3D56"/>
<path d="M119.032 78.0654L120.546 68.6126L110.336 64.4539L108.824 78.8204L119.032 78.0654Z" fill="#A0616A"/>
<path d="M116.452 71.6512C122.202 71.6512 126.863 66.9901 126.863 61.2403C126.863 55.4905 122.202 50.8293 116.452 50.8293C110.703 50.8293 106.042 55.4905 106.042 61.2403C106.042 66.9901 110.703 71.6512 116.452 71.6512Z" fill="#A0616A"/>
<path d="M115.623 47.2445C115.925 47.4197 116.327 47.155 116.424 46.8195C116.521 46.484 116.407 46.1279 116.298 45.798C116.111 45.2443 115.923 44.6888 115.736 44.1352C115.338 42.9552 114.914 41.7343 114.053 40.8358C112.75 39.4806 110.681 39.1357 108.819 39.3855C106.427 39.7061 104.065 41.0017 102.954 43.1435C101.842 45.2854 102.315 48.2754 104.326 49.6119C101.461 52.8946 100.462 56.5556 100.621 60.9101C100.779 65.2647 105.523 69.2724 108.619 72.3407C109.311 71.9213 109.939 69.9584 109.559 69.2445C109.179 68.5305 109.723 67.7047 109.253 67.0486C108.783 66.3924 108.388 67.4382 108.865 66.7839C109.166 66.3719 107.993 65.4231 108.44 65.177C110.599 63.984 111.317 61.2923 112.674 59.2325C114.309 56.7476 117.108 55.0644 120.07 54.7847C121.702 54.63 123.426 54.9096 124.762 55.8566C126.099 56.8036 126.966 58.4961 126.656 60.1067C127.46 59.2902 127.859 58.0954 127.708 56.962C127.557 55.8286 126.859 54.7773 125.87 54.2013C126.47 52.2142 125.955 49.9288 124.561 48.3909C123.167 46.8531 117.507 47.1159 115.472 47.5204" fill="#2F2E41"/>
<path d="M115.306 54.8425C112.608 55.1333 110.66 57.4709 109.016 59.6276C108.069 60.871 107.076 62.2448 107.1 63.8088C107.124 65.3895 108.181 66.7447 108.686 68.2435C109.512 70.6929 108.707 73.6046 106.742 75.2823C108.685 75.6513 110.784 74.1955 111.119 72.2475C111.509 69.9808 109.79 67.7923 109.993 65.4995C110.172 63.4807 111.764 61.9261 113.116 60.4162C114.467 58.9062 115.738 56.9023 115.116 54.973" fill="#2F2E41"/>
<path d="M115.822 150.193C115.822 150.193 93.2667 152.43 91.589 149.82C89.9113 147.21 114.478 144.6 114.478 144.6L115.822 150.193Z" fill="#A0616A"/>
<path d="M101.441 108.374L100.975 110.847C102.244 112.721 102.365 114.7 101.627 116.762L127.352 116.948C127.076 114.162 126.772 111.175 127.831 108.437L101.441 108.374Z" fill="#A0616A"/>
<path d="M143.577 126.767L134.247 119.303C133.007 118.311 132.204 116.837 132.045 115.258L130.608 101.04L139.174 98.1846L141.239 112.262L146.386 123.959L143.578 126.767H143.577Z" fill="#A0616A"/>
<path d="M107.872 77.15L120.361 76.5908L133.596 82.8952L128.191 108.653L100.788 110.704L97.0603 82.1831L107.872 77.15Z" fill="#4B4BFA"/>
<path d="M127.831 114.588C129.708 117.062 130.494 123.018 131.292 128.942C131.292 128.942 96.6203 128.755 96.4338 128.755C96.2474 128.755 101.733 116.266 101.733 116.266L127.831 114.588Z" fill="#2F2E41"/>
<path d="M128.964 127.361L131.294 128.942C131.294 128.942 164.288 126.705 161.492 137.144C158.696 147.583 149.935 149.261 149.935 149.261L114.517 151.311L114.144 145.532C114.144 145.532 80.0317 153.175 76.8627 137.517C73.6938 121.858 96.4356 128.756 96.4356 128.756L128.964 127.361Z" fill="#2F2E41"/>
<path d="M115.041 139.754C115.041 139.754 115.822 135.653 121.415 137.33C127.007 139.008 130.176 141.245 130.176 141.245L116.754 144.6L115.041 139.754Z" fill="#A0616A"/>
<path d="M129.029 82.4628C129.029 82.4628 135.367 80.2259 137.791 87.4958C140.214 94.7658 139.655 100.731 139.655 100.731L130.334 103.713L129.029 82.4628Z" fill="#4B4BFA"/>
<path d="M85.5681 127.902L83.5344 124.319L87.9281 113.382L89.9935 99.303L98.559 102.159L97.1031 116.55C96.954 118.02 96.2065 119.392 95.0526 120.315L85.5681 127.904V127.902Z" fill="#A0616A"/>
<path d="M100.136 82.4628C100.136 82.4628 93.798 80.2259 91.3747 87.4958C88.9514 94.7658 89.5106 100.731 89.5106 100.731L98.831 103.713L100.136 82.4628Z" fill="#4B4BFA"/>
<path d="M146.272 128.413C148.743 128.413 150.746 125.45 150.746 121.795C150.746 118.14 148.743 115.177 146.272 115.177C143.801 115.177 141.798 118.14 141.798 121.795C141.798 125.45 143.801 128.413 146.272 128.413Z" fill="#A0616A"/>
<path d="M83.4523 129.531C85.9231 129.531 87.9261 126.568 87.9261 122.913C87.9261 119.259 85.9231 116.296 83.4523 116.296C80.9815 116.296 78.9785 119.259 78.9785 122.913C78.9785 126.568 80.9815 129.531 83.4523 129.531Z" fill="#A0616A"/>
<path d="M100.537 133.975L116.754 138.635L119.923 144.228L113.863 145.532" fill="#2F2E41"/>
</g>
<defs>
<clipPath id="clip0_52_282">
<rect width="147.015" height="112" fill="white" transform="translate(38.4924 39.311)"/>
</clipPath>
</defs>
</svg>
