<svg width="161" height="100" viewBox="0 0 161 100" fill="none" xmlns="http://www.w3.org/2000/svg">
<g clip-path="url(#clip0_37_120)">
<path d="M63.7324 79.9016H1.5901C1.42045 79.9014 1.25779 79.834 1.13783 79.714C1.01786 79.594 0.950383 79.4314 0.950195 79.2617V18.6836C0.950383 18.514 1.01786 18.3513 1.13783 18.2313C1.25779 18.1114 1.42045 18.0439 1.5901 18.0437H63.7324C63.9021 18.0439 64.0648 18.1114 64.1847 18.2313C64.3047 18.3513 64.3722 18.514 64.3724 18.6836V79.2617C64.3722 79.4314 64.3047 79.594 64.1847 79.714C64.0648 79.834 63.9021 79.9014 63.7324 79.9016Z" fill="#F0F0F0"/>
<path d="M56.9779 23.5896H8.34475C8.17511 23.5899 8.01249 23.6574 7.89254 23.7773C7.77259 23.8973 7.70509 24.0599 7.70483 24.2295V61.9131C7.70509 62.0827 7.77259 62.2453 7.89255 62.3653C8.0125 62.4852 8.17511 62.5527 8.34475 62.553H56.9779C57.1475 62.5527 57.3101 62.4852 57.4301 62.3653C57.55 62.2453 57.6175 62.0827 57.6178 61.9131V24.2295C57.6175 24.0599 57.55 23.8973 57.4301 23.7773C57.3101 23.6574 57.1475 23.5899 56.9779 23.5896Z" fill="white"/>
<path d="M54.205 69.9474H11.1177C11.0235 69.9473 10.9331 69.9098 10.8665 69.8432C10.7998 69.7766 10.7623 69.6862 10.7622 69.5919V67.6011C10.7623 67.5068 10.7998 67.4165 10.8665 67.3499C10.9331 67.2832 11.0235 67.2457 11.1177 67.2456H54.205C54.2992 67.2457 54.3896 67.2832 54.4562 67.3499C54.5229 67.4165 54.5604 67.5068 54.5605 67.6011V69.5919C54.5604 69.6862 54.5229 69.7766 54.4562 69.8432C54.3896 69.9098 54.2992 69.9473 54.205 69.9474Z" fill="white"/>
<path d="M39.2737 74.7822H11.1177C11.0235 74.7821 10.9331 74.7446 10.8665 74.6779C10.7998 74.6113 10.7623 74.5209 10.7622 74.4267V72.4358C10.7623 72.3416 10.7998 72.2512 10.8665 72.1846C10.9331 72.1179 11.0235 72.0804 11.1177 72.0803H39.2737C39.368 72.0804 39.4584 72.1179 39.525 72.1846C39.5916 72.2512 39.6291 72.3416 39.6292 72.4358V74.4267C39.6291 74.5209 39.5916 74.6113 39.525 74.6779C39.4583 74.7446 39.368 74.7821 39.2737 74.7822Z" fill="white"/>
<path d="M31.4599 49.1245C34.8749 49.1245 37.6433 46.3561 37.6433 42.9411C37.6433 39.526 34.8749 36.7576 31.4599 36.7576C28.0448 36.7576 25.2764 39.526 25.2764 42.9411C25.2764 46.3561 28.0448 49.1245 31.4599 49.1245Z" fill="#FFB8B8"/>
<path d="M40.5065 62.5527H26.7969L27.2448 52.4734L27.3515 52.3611L28.8901 50.7358H33.7861L35.6005 52.4934L35.7471 52.6356L39.6107 56.3386L40.5065 62.5527Z" fill="#4B4BFA"/>
<path d="M29.1544 62.553H18.7822C18.7567 60.2778 18.7424 58.9155 18.7424 58.9155L19.3425 58.55C19.3432 58.5492 19.3442 58.5487 19.3453 58.5486H19.3468L25.9563 54.5356L27.3442 52.2817L27.3514 52.3614L27.7595 57.1123C27.7595 57.1123 28.4335 59.2909 29.1544 62.553Z" fill="#2F2E41"/>
<path d="M46.5872 62.553H35.6006C35.767 55.9178 34.8712 52.2817 35.3319 52.2817L35.6006 52.4936L38.8386 55.0504L43.1061 56.6161H43.109L46.0511 57.6954L46.5673 57.8845V58.1277C46.5687 58.7107 46.5716 60.3048 46.5872 62.553Z" fill="#2F2E41"/>
<path d="M25.6098 44.8757C25.6098 44.8757 26.1352 43.9531 26.013 40.8709C25.8909 37.7887 30.5844 39.5319 34.5062 39.2379C38.4281 38.9439 37.5979 44.3837 37.5979 44.3837C37.5979 44.3837 37.8809 44.0603 38.4866 41.4349C39.0924 38.8095 37.717 36.1931 37.717 36.1931C37.3119 33.4343 35.1288 34.3185 35.1288 34.3185C36.1802 34.7278 35.9782 35.6029 35.9782 35.6029C35.0883 34.0426 32.9052 34.9268 32.9052 34.9268C29.9935 33.0997 27.0426 35.5058 27.0426 35.5058C23.5252 36.3041 25.588 39.1014 25.588 39.1014C22.0507 40.889 25.6098 44.8757 25.6098 44.8757Z" fill="#2F2E41"/>
<path d="M20.1674 62.5528H15.9056C15.9388 62.0276 15.9398 61.501 15.9085 60.9757C15.6539 59.9618 19.2346 58.591 19.3426 58.5498C19.3434 58.549 19.3444 58.5484 19.3455 58.5483H19.3469L20.0295 58.9152L20.1674 62.5528Z" fill="#2F2E41"/>
<path d="M47.3564 62.553H42.8799L42.321 57.0355L42.9481 56.5776C42.9481 56.5776 43.005 56.5904 43.106 56.616H43.1089C43.6108 56.7398 45.1636 57.1493 46.051 57.6953C46.2484 57.8061 46.4235 57.9527 46.5672 58.1276C46.6552 58.2332 46.699 58.3688 46.6895 58.5059C46.6667 58.7121 46.9284 60.2308 47.3564 62.553Z" fill="#2F2E41"/>
<path d="M159.41 61.8579H97.2674C97.0977 61.8577 96.935 61.7903 96.8151 61.6703C96.6951 61.5503 96.6276 61.3877 96.6274 61.218V0.639909C96.6276 0.470252 96.6951 0.307601 96.8151 0.187635C96.935 0.0676692 97.0977 0.000188671 97.2674 0H159.41C159.579 0.000185498 159.742 0.0676624 159.862 0.187629C159.982 0.307595 160.049 0.470251 160.05 0.639909V61.218C160.049 61.3877 159.982 61.5503 159.862 61.6703C159.742 61.7903 159.579 61.8578 159.41 61.8579Z" fill="#F0F0F0"/>
<path d="M152.655 5.5459H104.022C103.852 5.54615 103.69 5.61366 103.57 5.73361C103.45 5.85356 103.382 6.01617 103.382 6.18581V43.8694C103.382 44.039 103.45 44.2016 103.57 44.3216C103.69 44.4415 103.852 44.509 104.022 44.5093H152.655C152.825 44.509 152.987 44.4415 153.107 44.3216C153.227 44.2016 153.295 44.039 153.295 43.8694V6.18581C153.295 6.01617 153.227 5.85356 153.107 5.73361C152.987 5.61366 152.825 5.54615 152.655 5.5459Z" fill="white"/>
<path d="M149.882 51.9037H106.795C106.701 51.9036 106.61 51.8661 106.544 51.7995C106.477 51.7329 106.44 51.6425 106.439 51.5482V49.5574C106.44 49.4632 106.477 49.3728 106.544 49.3061C106.61 49.2395 106.701 49.202 106.795 49.2019H149.882C149.976 49.202 150.067 49.2395 150.133 49.3061C150.2 49.3728 150.238 49.4632 150.238 49.5574V51.5482C150.238 51.6425 150.2 51.7329 150.133 51.7995C150.067 51.8661 149.976 51.9036 149.882 51.9037Z" fill="white"/>
<path d="M134.951 56.7387H106.795C106.701 56.7386 106.61 56.7011 106.544 56.6345C106.477 56.5678 106.44 56.4775 106.439 56.3832V54.3924C106.44 54.2981 106.477 54.2078 106.544 54.1411C106.61 54.0745 106.701 54.037 106.795 54.0369H134.951C135.045 54.037 135.136 54.0745 135.202 54.1411C135.269 54.2078 135.306 54.2981 135.306 54.3924V56.3832C135.306 56.4775 135.269 56.5678 135.202 56.6345C135.136 56.7011 135.045 56.7386 134.951 56.7387Z" fill="white"/>
<path d="M140.309 44.5095C140.583 43.5212 140.797 42.6694 140.906 42.0665C140.94 41.8806 140.943 41.6904 140.916 41.5034C140.507 38.5896 133.109 36.1267 132.161 35.8224L131.932 33.2855L122.621 32.283L121.442 35.528L118.1 36.7808C117.979 36.8255 117.864 36.8847 117.757 36.9571C117.477 37.1464 117.261 37.417 117.14 37.7326C117.018 38.0481 116.996 38.3934 117.076 38.7219L118.5 44.5095L140.309 44.5095Z" fill="#4B4BFA"/>
<path d="M121.007 44.5093H113.781C114.04 42.8967 114.272 41.4704 114.423 40.5632C114.974 37.2613 117.38 36.9797 117.757 36.9569C117.787 36.9541 117.806 36.9541 117.807 36.9541H119.327L121.007 44.5093Z" fill="#4B4BFA"/>
<path d="M140.309 44.5094H142.061C141.906 43.086 141.414 42.1275 140.916 41.5033C140.584 41.0644 140.155 40.7078 139.664 40.4609L139.531 40.4041L137.991 44.5094H140.309Z" fill="#4B4BFA"/>
<path d="M126.912 30.677C130.615 30.677 133.617 27.6754 133.617 23.9727C133.617 20.27 130.615 17.2683 126.912 17.2683C123.21 17.2683 120.208 20.27 120.208 23.9727C120.208 27.6754 123.21 30.677 126.912 30.677Z" fill="#A0616A"/>
<path d="M122.412 20.7065C123.106 21.5279 124.281 21.7595 125.364 21.8537C127.565 22.0468 130.764 21.7337 132.914 21.2373C133.069 22.7247 132.65 24.3286 133.526 25.5524C133.936 24.071 134.175 22.5472 134.237 21.0112C134.264 20.3524 134.253 19.6709 133.986 19.0662C133.718 18.4615 133.134 17.9481 132.462 17.9428C132.962 17.564 133.547 17.314 134.166 17.2148L132.037 16.145L132.584 15.5838L128.73 15.3479L129.846 14.6389C128.165 14.4081 126.465 14.3546 124.773 14.4794C123.988 14.5372 123.166 14.6477 122.53 15.1028C121.894 15.558 121.526 16.4623 121.921 17.1303C121.427 17.2115 120.961 17.4177 120.568 17.7292C120.176 18.0407 119.869 18.4473 119.678 18.9105C119.394 19.6297 119.42 20.4285 119.508 21.195C119.653 22.4207 119.938 23.6258 120.356 24.7868" fill="#2F2E41"/>
<path d="M112.753 100H50.6111C50.4414 99.9998 50.2788 99.9324 50.1588 99.8124C50.0389 99.6924 49.9714 99.5298 49.9712 99.3601V38.782C49.9714 38.6123 50.0389 38.4497 50.1588 38.3297C50.2788 38.2098 50.4414 38.1423 50.6111 38.1421H112.753C112.923 38.1423 113.086 38.2098 113.206 38.3297C113.326 38.4497 113.393 38.6123 113.393 38.782V99.3601C113.393 99.5298 113.326 99.6924 113.206 99.8124C113.086 99.9324 112.923 99.9999 112.753 100Z" fill="#E4E4E4"/>
<path d="M105.999 43.688H57.3657C57.1961 43.6882 57.0335 43.7557 56.9135 43.8757C56.7936 43.9956 56.7261 44.1583 56.7258 44.3279V82.0115C56.7261 82.1811 56.7936 82.3437 56.9135 82.4637C57.0335 82.5836 57.1961 82.6511 57.3657 82.6514H105.999C106.169 82.6511 106.331 82.5836 106.451 82.4637C106.571 82.3437 106.639 82.1811 106.639 82.0115V44.3279C106.639 44.1583 106.571 43.9956 106.451 43.8757C106.331 43.7557 106.169 43.6882 105.999 43.688Z" fill="white"/>
<path d="M103.226 90.0458H60.1387C60.0445 90.0457 59.9541 90.0082 59.8874 89.9416C59.8208 89.8749 59.7833 89.7846 59.7832 89.6903V87.6995C59.7833 87.6053 59.8208 87.5149 59.8874 87.4482C59.9541 87.3816 60.0445 87.3441 60.1387 87.344H103.226C103.32 87.3441 103.411 87.3816 103.477 87.4482C103.544 87.5149 103.581 87.6053 103.581 87.6995V89.6903C103.581 89.7846 103.544 89.8749 103.477 89.9416C103.411 90.0082 103.32 90.0457 103.226 90.0458Z" fill="white"/>
<path d="M88.2947 94.8808H60.1387C60.0445 94.8807 59.9541 94.8432 59.8874 94.7765C59.8208 94.7099 59.7833 94.6195 59.7832 94.5253V92.5345C59.7833 92.4402 59.8208 92.3498 59.8874 92.2832C59.9541 92.2166 60.0445 92.1791 60.1387 92.179H88.2947C88.389 92.1791 88.4794 92.2166 88.546 92.2832C88.6126 92.3498 88.6501 92.4402 88.6502 92.5345V94.5253C88.6501 94.6195 88.6126 94.7099 88.546 94.7765C88.4794 94.8432 88.389 94.8807 88.2947 94.8808Z" fill="white"/>
<path d="M86.4674 82.6516H76.6797L77.2897 73.4966L80.8206 74.3114L84.2548 72.9903L84.3458 72.9562L84.3515 72.9534C84.3527 72.9561 84.3537 72.959 84.3543 72.9619C84.4084 73.1795 85.4863 77.4953 86.4674 82.6516Z" fill="#4B4BFA"/>
<path d="M92.3659 74.9911L91.4514 82.6514H83.2024L84.2546 72.9904L84.2646 72.8965L84.3457 72.9562L84.3541 72.9618L86.389 74.4465L92.3659 74.9911Z" fill="#2F2E41"/>
<path d="M78.1273 82.6516H70.7399L70.6333 76.6208L76.0697 74.8176L77.2898 73.4966C77.2898 73.4966 77.6752 77.4711 78.1273 82.6516Z" fill="#2F2E41"/>
<path d="M95.9224 82.6514H89.8005L90.1931 77.1638L92.3659 74.991C92.3659 74.991 94.0851 78.5972 95.9224 82.6514Z" fill="#2F2E41"/>
<path d="M72.4819 82.6514H69.2524C69.2667 80.8938 69.2752 79.6794 69.2752 79.3367C69.259 78.8069 69.3746 78.2814 69.6117 77.8073C69.8487 77.3333 70.1997 76.9255 70.6333 76.6206L72.2643 77.1638L72.4819 82.6514Z" fill="#2F2E41"/>
<path d="M71.978 64.0728C71.983 62.5837 72.3744 61.1213 73.114 59.8288C73.8537 58.5363 74.9161 57.4579 76.1975 56.6992C78.9198 55.0921 82.2042 55.1212 85.2085 56.7787C87.3489 57.9598 89.0903 60.9316 89.0903 63.4034V70.6157H71.978V64.0728Z" fill="#2F2E41"/>
<path d="M83.1599 69.6804C86.1552 68.0431 87.256 64.2876 85.6186 61.2923C83.9813 58.2971 80.2258 57.1963 77.2305 58.8336C74.2353 60.471 73.1345 64.2265 74.7718 67.2217C76.4092 70.217 80.1646 71.3178 83.1599 69.6804Z" fill="#FFB8B8"/>
<path d="M73.7497 64.3155C73.7029 64.2614 73.5932 64.1347 74.3556 58.2684L74.3798 58.1725H74.4487C78.3132 56.2714 82.234 56.2236 86.103 58.0297C86.2221 58.0862 86.3245 58.1727 86.4001 58.2807C86.4758 58.3887 86.5221 58.5145 86.5345 58.6457C86.986 64.1574 86.8769 64.2775 86.8303 64.3289C86.7594 64.4066 86.6732 64.4688 86.577 64.5113C86.4808 64.5539 86.3768 64.5759 86.2716 64.576H84.5573L84.5214 64.5112C84.227 63.9643 83.9041 63.4332 83.554 62.9202C83.3929 63.4309 83.261 63.9502 83.159 64.4758L83.1381 64.576H74.3203C74.212 64.576 74.1051 64.5528 74.0066 64.5078C73.9082 64.4629 73.8205 64.3973 73.7497 64.3155Z" fill="#2F2E41"/>
</g>
<defs>
<clipPath id="clip0_37_120">
<rect width="159.099" height="100" fill="white" transform="translate(0.950195)"/>
</clipPath>
</defs>
</svg>
