<svg width="225" height="190" viewBox="0 0 225 190" fill="none" xmlns="http://www.w3.org/2000/svg">
<path d="M1.16675 16.9111C1.16675 8.35073 8.10634 1.41113 16.6667 1.41113H208.667C217.227 1.41113 224.167 8.35072 224.167 16.9111V173.711C224.167 182.272 217.227 189.211 208.667 189.211H16.6668C8.10634 189.211 1.16675 182.272 1.16675 173.711V16.9111Z" fill="#FAFAFA"/>
<path d="M1.16675 16.9111C1.16675 8.35073 8.10634 1.41113 16.6667 1.41113H208.667C217.227 1.41113 224.167 8.35072 224.167 16.9111V173.711C224.167 182.272 217.227 189.211 208.667 189.211H16.6668C8.10634 189.211 1.16675 182.272 1.16675 173.711V16.9111Z" stroke="#F0F0F0"/>
<g clip-path="url(#clip0_51_444)">
<path d="M177.182 77.6323C177.337 78.2404 177.483 78.8515 177.619 79.4657H131.325V77.6323H177.182Z" fill="#E6E6E6"/>
<path d="M175.706 72.7995C174.961 70.6948 174.092 68.636 173.104 66.6338C172.8 66.0165 172.484 65.4054 172.156 64.8005C172.102 64.6966 172.045 64.5928 171.988 64.489V78.1329H175.988V73.6115L175.706 72.7995Z" fill="#E6E6E6"/>
<path d="M173.104 66.6339H171.988V64.8005H172.156C172.484 65.4049 172.8 66.016 173.104 66.6339Z" fill="#CCCCCC"/>
<path d="M175.706 72.7996H171.988V74.633H175.988V73.6115L175.706 72.7996Z" fill="#CCCCCC"/>
<path d="M169.821 62.301H165.822V78.1331H169.821V62.301Z" fill="#E6E6E6"/>
<path d="M169.821 64.8008H165.822V66.634H169.821V64.8008Z" fill="#CCCCCC"/>
<path d="M169.821 72.8003H165.822V74.6335H169.821V72.8003Z" fill="#CCCCCC"/>
<path d="M151.581 62.209H137.233C137.012 62.2093 136.8 62.2973 136.643 62.4537C136.487 62.6101 136.399 62.822 136.399 63.0432V77.3915C136.399 77.4731 136.411 77.5542 136.434 77.6325C136.486 77.8039 136.592 77.9541 136.736 78.0609C136.879 78.1677 137.054 78.2255 137.233 78.2257H151.581C151.76 78.2255 151.935 78.1677 152.079 78.0609C152.222 77.9541 152.328 77.8039 152.38 77.6325C152.403 77.5542 152.415 77.4731 152.415 77.3915V63.0432C152.415 62.822 152.327 62.6101 152.171 62.4537C152.014 62.2973 151.802 62.2093 151.581 62.209Z" fill="#E6E6E6"/>
<path d="M150.562 63.2285H138.252C138.031 63.2288 137.819 63.3168 137.663 63.4732C137.507 63.6296 137.419 63.8416 137.418 64.0627V76.3718C137.419 76.593 137.507 76.805 137.663 76.9613C137.819 77.1177 138.031 77.2057 138.252 77.206H150.562C150.783 77.2057 150.995 77.1177 151.151 76.9613C151.307 76.805 151.395 76.593 151.396 76.3718V64.0627C151.395 63.8416 151.307 63.6296 151.151 63.4732C150.995 63.3168 150.783 63.2288 150.562 63.2285Z" fill="white"/>
<path d="M148.415 65.3752H140.399C140.178 65.3756 139.966 65.4636 139.809 65.6199C139.653 65.7763 139.565 65.9883 139.565 66.2094V74.2252C139.565 74.4463 139.653 74.6583 139.809 74.8147C139.966 74.9711 140.178 75.0591 140.399 75.0594H148.415C148.636 75.0583 148.847 74.97 149.003 74.8138C149.16 74.6576 149.248 74.4461 149.249 74.2252V66.2094C149.249 65.9883 149.161 65.7763 149.004 65.6199C148.848 65.4636 148.636 65.3756 148.415 65.3752Z" fill="#CCCCCC"/>
<path d="M147.92 72.8114L146.227 69.8789C146.195 69.8225 146.148 69.7757 146.092 69.7432C146.035 69.7106 145.971 69.6935 145.906 69.6935C145.841 69.6935 145.777 69.7106 145.721 69.7432C145.664 69.7757 145.618 69.8225 145.585 69.8789L144.349 72.0202L142.728 69.2122C142.695 69.1559 142.648 69.1091 142.592 69.0765C142.535 69.044 142.472 69.0269 142.406 69.0269C142.341 69.0269 142.277 69.044 142.221 69.0765C142.165 69.1091 142.118 69.1559 142.085 69.2122L140.392 72.1447L138.378 75.6334H142.263L141.878 76.3H149.935L147.92 72.8114Z" fill="white"/>
<path d="M147.323 68.3007C147.967 68.3007 148.49 67.7784 148.49 67.1341C148.49 66.4898 147.967 65.9675 147.323 65.9675C146.679 65.9675 146.156 66.4898 146.156 67.1341C146.156 67.7784 146.679 68.3007 147.323 68.3007Z" fill="white"/>
<path d="M178.952 90.5867C178.939 89.8674 178.911 89.1518 178.867 88.44C178.848 88.0989 178.826 87.7597 178.798 87.4204H170.971C170.75 87.4207 170.538 87.5087 170.382 87.6651C170.226 87.8215 170.138 88.0335 170.137 88.2546V102.603C170.137 102.669 170.145 102.734 170.161 102.798C170.205 102.98 170.309 103.141 170.456 103.257C170.603 103.373 170.784 103.437 170.971 103.437H178.186C178.223 103.226 178.259 103.011 178.29 102.798C178.311 102.671 178.331 102.544 178.35 102.418C178.394 102.115 178.437 101.813 178.476 101.511C178.531 101.099 178.581 100.686 178.626 100.271C178.789 98.7823 178.894 97.2776 178.941 95.7569V95.755C178.958 95.1822 178.966 94.6069 178.967 94.0291V91.8046C178.967 91.3968 178.963 90.9908 178.952 90.5867Z" fill="#E6E6E6"/>
<path d="M178.952 90.5866C178.939 89.8674 178.911 89.1518 178.867 88.4399H171.991C171.77 88.4403 171.558 88.5283 171.402 88.6846C171.245 88.841 171.157 89.053 171.157 89.2741V101.583C171.157 101.804 171.245 102.016 171.402 102.173C171.558 102.329 171.77 102.417 171.991 102.417H178.35C178.394 102.115 178.437 101.813 178.476 101.511C178.531 101.099 178.581 100.686 178.626 100.271C178.789 98.7822 178.894 97.2775 178.941 95.7568V95.755C178.958 95.1821 178.966 94.6069 178.967 94.0291V91.8046C178.967 91.3967 178.963 90.9907 178.952 90.5866Z" fill="white"/>
<path d="M178.952 90.5867H174.138C173.917 90.587 173.705 90.675 173.548 90.8314C173.392 90.9877 173.304 91.1997 173.304 91.4209V99.4366C173.304 99.6578 173.392 99.8698 173.548 100.026C173.705 100.183 173.917 100.27 174.138 100.271H178.626C178.789 98.7823 178.894 97.2776 178.941 95.7569V95.755C178.958 95.1822 178.966 94.6069 178.967 94.0291V91.8046C178.967 91.3968 178.963 90.9908 178.952 90.5867Z" fill="#CCCCCC"/>
<path d="M178.941 95.757C178.895 97.2771 178.79 98.7817 178.626 100.271C178.581 100.686 178.531 101.1 178.476 101.511H175.617L176.003 100.846H172.117L173.304 98.7898L174.13 97.3568L175.825 94.4241C175.857 94.3675 175.904 94.3205 175.96 94.2878C176.016 94.255 176.08 94.2378 176.145 94.2378C176.211 94.2378 176.275 94.255 176.331 94.2878C176.387 94.3205 176.434 94.3675 176.466 94.4241L178.088 97.2326L178.941 95.757Z" fill="white"/>
<path d="M164.895 54.3026H131.325V52.4692H163.23C163.797 53.068 164.352 53.6791 164.895 54.3026Z" fill="#E6E6E6"/>
<path d="M149.156 41.5874C150.524 42.34 151.858 43.1464 153.157 44.0066V52.9678H149.156V41.5874Z" fill="#E6E6E6"/>
<path d="M153.156 47.6357H149.156V49.4689H153.156V47.6357Z" fill="#CCCCCC"/>
<path d="M159.322 48.7152V52.9677H155.322V45.5137C156.254 46.194 157.166 46.9015 158.056 47.6363C158.482 47.9885 158.904 48.3481 159.322 48.7152Z" fill="#E6E6E6"/>
<path d="M159.322 48.7151V49.4678H155.322V47.6362H158.056C158.482 47.9884 158.904 48.3481 159.322 48.7151Z" fill="#CCCCCC"/>
<path d="M145.072 39.5446C146.131 40.021 147.171 40.529 148.194 41.0684L147.371 42.7294L144.637 48.2555L143.823 49.898L142.549 52.4692L142.269 53.0346L141.129 52.4692L138.686 51.2587L140.238 48.1221H140.24L141.052 46.4796L143.788 40.9535L144.592 39.3296L144.601 39.311L145.072 39.5446Z" fill="#E6E6E6"/>
<path d="M148.185 41.0851L147.371 42.7294L143.788 40.9535L144.592 39.3296L144.601 39.311L145.072 39.5446L148.185 41.0851Z" fill="#CCCCCC"/>
<path d="M141.052 46.4802L140.238 48.123L143.823 49.8977L144.636 48.2548L141.052 46.4802Z" fill="#CCCCCC"/>
<path d="M178.29 102.798C178.259 103.011 178.224 103.226 178.186 103.437C178.122 103.838 178.051 104.234 177.975 104.631H131.325V102.798H178.29Z" fill="#E6E6E6"/>
<path d="M153.156 87.4658H149.156V103.298H153.156V87.4658Z" fill="#E6E6E6"/>
<path d="M153.156 89.9656H149.156V91.7988H153.156V89.9656Z" fill="#CCCCCC"/>
<path d="M153.156 97.9648H149.156V99.798H153.156V97.9648Z" fill="#CCCCCC"/>
<path d="M159.322 87.4658H155.322V103.298H159.322V87.4658Z" fill="#E6E6E6"/>
<path d="M159.322 89.9656H155.322V91.7988H159.322V89.9656Z" fill="#CCCCCC"/>
<path d="M159.322 97.9648H155.322V99.798H159.322V97.9648Z" fill="#CCCCCC"/>
<path d="M145.71 87.4002L138.686 101.589L142.27 103.363L149.295 89.1749L145.71 87.4002Z" fill="#E6E6E6"/>
<path d="M144.601 89.6406L143.787 91.2834L147.372 93.0581L148.185 91.4152L144.601 89.6406Z" fill="#CCCCCC"/>
<path d="M141.052 96.8093L140.238 98.4521L143.823 100.227L144.636 98.5839L141.052 96.8093Z" fill="#CCCCCC"/>
<path d="M100.645 109.863C100.812 109.959 100.971 110.068 101.121 110.189L117.625 105.053L118.556 100.958L124.919 101.555L123.976 108.964C123.9 109.563 123.631 110.12 123.211 110.554C122.791 110.987 122.242 111.272 121.646 111.366L102.223 114.441C101.94 115.128 101.454 115.712 100.831 116.116C100.207 116.52 99.4756 116.725 98.733 116.703C97.9903 116.681 97.272 116.433 96.6736 115.993C96.0751 115.553 95.6248 114.941 95.3827 114.238C95.1405 113.536 95.1179 112.776 95.3179 112.061C95.5179 111.345 95.931 110.708 96.5022 110.233C97.0735 109.758 97.7758 109.468 98.5158 109.402C99.2558 109.336 99.9984 109.496 100.645 109.863Z" fill="#FFB8B8"/>
<path d="M127.86 104.012L127.751 102.143V102.141L127.721 101.63L127.399 96.1276C127.495 94.9806 127.133 93.8421 126.392 92.9613C125.651 92.0805 124.591 91.5293 123.444 91.4283C123.115 91.3987 122.782 91.4074 122.455 91.4542C121.48 91.592 120.582 92.0547 119.904 92.7674C119.225 93.48 118.808 94.4009 118.719 95.3805L118.05 98.1649L116.88 103.035C116.797 103.376 116.832 103.734 116.978 104.053C117.124 104.372 117.373 104.632 117.685 104.792C117.865 104.887 118.062 104.945 118.265 104.963L120.215 105.137L122.093 105.304L124.26 105.497L124.416 105.51L124.816 105.547L126.156 105.665H126.16C126.384 105.683 126.609 105.654 126.821 105.578C127.032 105.503 127.225 105.383 127.387 105.228C127.505 105.113 127.605 104.98 127.682 104.835C127.817 104.583 127.879 104.297 127.86 104.012Z" fill="#4B4BFA"/>
<path d="M145.971 81.3534C145.971 87.698 140.104 86.7384 132.867 86.7384C125.63 86.7384 119.764 87.698 119.764 81.3534C119.764 75.0088 122.629 63.7625 132.867 63.7625C143.458 63.7625 145.971 75.0088 145.971 81.3534Z" fill="#2F2E41"/>
<path d="M139.058 84.1452C142.502 80.7018 142.502 75.119 139.058 71.6756C135.615 68.2322 130.032 68.2322 126.589 71.6756C123.145 75.119 123.145 80.7018 126.589 84.1452C130.032 87.5886 135.615 87.5886 139.058 84.1452Z" fill="#FFB8B8"/>
<path d="M145.236 90.4348C145.066 90.2712 144.886 90.1189 144.696 89.9787C143.497 89.0731 141.991 88.6743 140.501 88.8683L124.253 90.9242C122.764 91.1089 121.406 91.8661 120.467 93.0351C119.527 94.2041 119.08 95.693 119.22 97.1862C119.266 97.7053 119.318 98.2522 119.375 98.8213C119.45 99.535 119.533 100.284 119.629 101.059C119.789 102.362 119.983 103.738 120.215 105.137C120.417 106.342 120.647 107.564 120.91 108.771C120.986 109.119 121.065 109.466 121.148 109.812C121.147 109.813 121.148 109.814 121.148 109.815C121.148 109.816 121.149 109.817 121.149 109.818C121.159 109.861 121.168 109.903 121.179 109.944C121.179 109.947 121.179 109.95 121.181 109.953C121.296 110.435 121.416 110.912 121.543 111.383C121.591 111.557 121.637 111.729 121.685 111.9C121.815 112.363 121.952 112.817 122.093 113.264C123.152 116.588 124.551 119.419 126.399 120.924C126.423 120.946 126.448 120.965 126.474 120.985L126.548 121.043L126.655 121.009L127.111 120.874L127.501 120.755L132.573 119.23L133.835 118.85L137.891 117.628H137.893L141.602 116.512L142.055 116.375L145.241 115.416L145.343 114.226L145.48 112.647L145.562 111.698L146.207 104.212L146.583 99.8446L146.991 95.1026C147.067 94.2427 146.949 93.3768 146.645 92.5689C146.341 91.7609 145.859 91.0316 145.236 90.4348Z" fill="#2F2E41"/>
<path d="M154.321 126.656C154.278 126.532 154.237 126.407 154.195 126.285C152.289 120.724 149.479 116.517 145.343 114.226C145.341 114.226 145.341 114.224 145.339 114.224L145.269 114.185L141.665 115.433L141.22 115.587L140.757 115.748L140.751 115.75L137.377 116.918L137.372 116.92L134.725 117.835H134.723L132.274 118.683H132.272L131.703 118.881L127.422 120.362L126.926 120.535L126.481 120.688L126.412 120.712L126.399 120.924L126.093 126.285L126.073 126.656L125.691 133.346L113.009 151.311H121.685C124.592 151.312 127.495 151.09 130.368 150.649L138.508 141.877C138.576 141.806 138.662 141.756 138.757 141.731C138.852 141.705 138.952 141.707 139.047 141.734C139.141 141.762 139.226 141.814 139.292 141.887C139.359 141.959 139.404 142.048 139.424 142.144L140.62 148.076C146.51 145.993 152.021 142.961 156.933 139.1C156.362 134.493 155.528 130.295 154.321 126.656Z" fill="#2F2E41"/>
<path d="M122.636 77.0454H126.123L127.662 72.7374L127.969 77.0454H129.636L130.534 74.5324L130.713 77.0454H143.099C143.099 75.8196 142.857 74.6059 142.388 73.4734C141.919 72.341 141.232 71.312 140.365 70.4453C139.498 69.5785 138.469 68.891 137.337 68.4219C136.204 67.9529 134.99 67.7114 133.765 67.7114H131.97C129.494 67.7114 127.12 68.6948 125.37 70.4453C123.619 72.1957 122.636 74.5699 122.636 77.0454Z" fill="#2F2E41"/>
<path d="M101.185 123.761C100.615 124.001 100 124.112 99.3832 124.088C98.7661 124.064 98.1618 123.905 97.6129 123.622C97.0639 123.339 96.5837 122.939 96.206 122.45C95.8283 121.962 95.5623 121.396 95.4268 120.794L80.5103 119.104L85.5105 113.117L98.9089 115.639C99.9362 115.478 100.987 115.7 101.861 116.262C102.736 116.825 103.374 117.688 103.655 118.689C103.935 119.691 103.839 120.76 103.383 121.695C102.928 122.63 102.146 123.365 101.185 123.761Z" fill="#A0616A"/>
<path d="M93.1423 112.678L86.8376 111.551L86.3797 111.47C86.0138 111.404 85.6659 111.262 85.3588 111.053C85.0517 110.843 84.7924 110.571 84.5979 110.255C84.4034 109.938 84.2781 109.584 84.2302 109.215C84.1824 108.847 84.213 108.472 84.3202 108.116L87.416 97.8295L87.5087 97.5236C87.8952 96.2161 87.8264 94.8162 87.3134 93.5529C86.8005 92.2897 85.8739 91.238 84.6853 90.57C83.8808 90.1233 82.984 89.8681 82.0648 89.8244C81.1456 89.7807 80.2286 89.9496 79.3853 90.318C78.542 90.6864 77.795 91.2443 77.2025 91.9484C76.6099 92.6525 76.1878 93.4839 75.9689 94.3777L72.0203 110.493L71.8739 111.09C71.5981 112.214 71.568 113.385 71.7857 114.522C72.0034 115.659 72.4637 116.736 73.1353 117.679C73.8069 118.622 74.674 119.409 75.6774 119.987C76.6808 120.564 77.797 120.919 78.9498 121.026C78.9627 121.028 78.9738 121.028 78.9869 121.03L81.3504 121.239L84.4165 121.512L88.2724 121.854L91.8707 122.175C92.342 122.218 92.8121 122.082 93.1878 121.794C93.5634 121.506 93.8172 121.088 93.8987 120.622C93.9042 120.596 93.9079 120.57 93.9116 120.544L94.6754 114.842L94.6828 114.79C94.7487 114.307 94.6251 113.817 94.3379 113.424C94.0507 113.03 93.6222 112.763 93.1423 112.678Z" fill="#CCCCCC"/>
<path d="M83.4289 69.4725C80.9121 74.4208 78.9285 79.5245 73.3769 79.5245C70.711 79.5245 68.1542 78.4654 66.2691 76.5803C64.384 74.6952 63.325 72.1384 63.325 69.4725C63.325 63.9209 67.8258 59.49 73.3769 59.4205C79.0189 59.3499 88.1134 60.2622 83.4289 69.4725Z" fill="#2F2E41"/>
<path d="M89.7426 134.206L89.5145 131.93L89.3439 131.939L59.3701 133.383L59.448 135.687L59.5797 139.634C64.2177 143.167 69.3682 145.971 74.8529 147.948L75.0476 146.439C75.0646 146.316 75.1236 146.203 75.2146 146.119C75.3056 146.034 75.4229 145.984 75.5468 145.976C75.6707 145.968 75.7935 146.003 75.8944 146.075C75.9953 146.148 76.0681 146.253 76.1005 146.373L76.6919 148.577C81.4697 150.117 86.4314 151.016 91.4462 151.248L89.7426 134.206Z" fill="#2F2E41"/>
<path d="M80.1064 77.1377C83.5498 73.6943 83.5498 68.1114 80.1064 64.668C76.663 61.2246 71.0801 61.2246 67.6367 64.668C64.1933 68.1114 64.1933 73.6943 67.6367 77.1377C71.0801 80.5811 76.663 80.5811 80.1064 77.1377Z" fill="#A0616A"/>
<path d="M91.4647 132.084L89.7166 126.656L89.6869 126.563L89.5979 126.285L89.0993 124.739C88.938 124.237 88.7841 123.732 88.6413 123.226C88.5097 122.77 88.3868 122.313 88.2725 121.854C88.1094 121.217 87.9611 120.577 87.8276 119.934C87.3752 117.774 87.0735 115.586 86.9248 113.385C86.884 112.775 86.8549 112.163 86.8376 111.551C86.729 107.798 87.067 104.045 87.8443 100.371C88.5209 97.1942 88.1595 93.884 86.8132 90.9281C85.4669 87.9722 83.2069 85.5268 80.3661 83.952C78.502 82.9218 76.4388 82.3029 74.3154 82.1372C74.1689 82.126 74.0224 82.1168 73.8742 82.1075C71.6311 81.9658 69.3848 82.3296 67.3012 83.1722C65.2176 84.0148 63.3498 85.3145 61.8357 86.9755C61.0248 87.8589 60.3204 88.8345 59.7372 89.8823C58.1189 92.7979 57.5114 96.1673 58.0095 99.4645L60.0931 113.455L59.6186 119.344L59.0588 126.285L59.0291 126.656L58.4321 134.056C58.4038 134.401 58.4873 134.746 58.6703 135.04C58.8533 135.334 59.1259 135.561 59.448 135.687C59.6366 135.763 59.838 135.801 60.0412 135.8C60.0709 135.8 60.0987 135.8 60.1284 135.799L89.7426 134.206L90.0132 134.191C90.2602 134.179 90.501 134.109 90.7169 133.988C90.9328 133.868 91.1181 133.699 91.2584 133.495C91.3986 133.291 91.4902 133.058 91.526 132.813C91.5618 132.569 91.5408 132.319 91.4647 132.084Z" fill="#CCCCCC"/>
<path d="M83.2282 65.9197C81.2133 67.3084 78.8218 68.0475 76.3747 68.0377C77.2476 68.643 78.2414 69.0518 79.2875 69.2361C76.0339 69.934 72.6712 69.9529 69.41 69.2916C68.6851 69.1753 67.9856 68.9351 67.3422 68.5814C66.716 68.2013 66.1922 67.596 66.0659 66.8744C65.8492 65.6364 66.8139 64.5117 67.8164 63.7536C69.3513 62.6107 71.1211 61.8233 72.9977 61.4483C74.8742 61.0733 76.8107 61.1201 78.667 61.5854C79.879 61.8987 81.0933 62.4281 81.8805 63.4014C82.6678 64.3748 82.901 65.8755 82.1509 66.8778L83.2282 65.9197Z" fill="#2F2E41"/>
<path d="M83.679 121.927C83.1149 122.179 82.5026 122.303 81.8851 122.293C81.2677 122.282 80.66 122.136 80.1051 121.865C79.5502 121.594 79.0614 121.205 78.6732 120.724C78.285 120.244 78.0069 119.684 77.8583 119.085L62.9087 117.719L67.7781 111.624L81.228 113.856C82.2516 113.673 83.3066 113.872 84.1933 114.415C85.0799 114.958 85.7365 115.808 86.0386 116.803C86.3407 117.798 86.2674 118.869 85.8325 119.813C85.3976 120.758 84.6314 121.51 83.679 121.927Z" fill="#A0616A"/>
<path d="M75.3998 111.021L72.0204 110.493L68.6112 109.959C68.2441 109.901 67.8932 109.767 67.5817 109.564C67.2701 109.362 67.005 109.095 66.8037 108.783C66.6023 108.471 66.4693 108.119 66.4134 107.752C66.3576 107.385 66.38 107.01 66.4794 106.651L69.438 95.9922C69.796 94.6767 69.6968 93.2786 69.1566 92.0268C68.6165 90.775 67.6673 89.7437 66.4645 89.1017C65.652 88.6682 64.7497 88.43 63.8291 88.4058C62.9085 88.3817 61.995 88.5724 61.1609 88.9627C60.3242 89.3468 59.5882 89.92 59.0107 90.637C58.4333 91.3541 58.0302 92.1954 57.8333 93.0947L54.1017 109.892C53.8503 111.025 53.8467 112.199 54.091 113.333C54.3354 114.468 54.822 115.536 55.5175 116.466C56.213 117.395 57.101 118.163 58.1208 118.717C59.1406 119.271 60.268 119.598 61.426 119.676L74.3339 120.542C74.8059 120.574 75.2727 120.428 75.6421 120.132C76.0115 119.837 76.2564 119.413 76.3285 118.946C76.3341 118.92 76.3359 118.894 76.3396 118.868L76.9792 113.151L76.9847 113.099C77.0399 112.615 76.9057 112.128 76.6103 111.741C76.3149 111.354 75.8811 111.096 75.3998 111.021Z" fill="#CCCCCC"/>
<path d="M132.585 102.16L131.811 102.582L122.281 107.782L121.507 108.204C121.132 108.41 120.853 108.755 120.732 109.166C120.612 109.576 120.659 110.018 120.863 110.394L127.96 123.401C128.166 123.777 128.512 124.055 128.922 124.176C129.333 124.297 129.774 124.25 130.15 124.045L130.152 124.044L141.226 118.002L141.228 118.001C141.603 117.795 141.882 117.45 142.002 117.039C142.123 116.629 142.076 116.187 141.872 115.811L134.774 102.804C134.569 102.428 134.223 102.15 133.813 102.029C133.402 101.908 132.961 101.955 132.585 102.16Z" fill="#E6E6E6"/>
<path d="M132.807 102.568L131.891 103.068L122.646 108.112L121.729 108.612C121.462 108.758 121.264 109.004 121.178 109.297C121.092 109.589 121.125 109.904 121.271 110.171L128.368 123.179C128.514 123.446 128.761 123.644 129.053 123.73C129.345 123.816 129.66 123.783 129.928 123.637L129.93 123.636L141.003 117.594L141.005 117.593C141.273 117.447 141.471 117.2 141.557 116.908C141.643 116.616 141.609 116.301 141.464 116.034L134.366 103.026C134.22 102.759 133.974 102.56 133.682 102.474C133.389 102.389 133.075 102.422 132.807 102.568Z" fill="white"/>
<path d="M133.067 106.24C133.033 106.178 132.975 106.131 132.907 106.111C132.838 106.091 132.765 106.099 132.702 106.132L132.333 106.335L128.572 108.387C128.51 108.421 128.464 108.479 128.444 108.547C128.424 108.615 128.432 108.689 128.466 108.751C128.5 108.814 128.557 108.86 128.625 108.88C128.693 108.901 128.767 108.893 128.829 108.859L132.96 106.605C133.022 106.571 133.068 106.513 133.089 106.445C133.109 106.376 133.101 106.303 133.067 106.24Z" fill="#E6E6E6"/>
<path d="M134.474 106.505C134.458 106.474 134.435 106.447 134.407 106.425C134.38 106.403 134.348 106.386 134.315 106.376C134.281 106.366 134.245 106.363 134.211 106.367C134.176 106.371 134.142 106.382 134.111 106.399L129.007 109.184C128.977 109.201 128.949 109.223 128.927 109.251C128.905 109.278 128.889 109.31 128.879 109.344C128.869 109.378 128.866 109.413 128.869 109.448C128.873 109.483 128.884 109.517 128.901 109.548C128.918 109.579 128.941 109.606 128.968 109.628C128.996 109.65 129.027 109.667 129.061 109.677C129.095 109.687 129.13 109.69 129.165 109.686C129.2 109.682 129.234 109.671 129.265 109.655L129.502 109.525L130.987 108.715H130.989L134.367 106.87C134.398 106.853 134.426 106.831 134.448 106.803C134.47 106.776 134.487 106.744 134.497 106.71C134.507 106.676 134.51 106.64 134.506 106.605C134.502 106.57 134.492 106.536 134.474 106.505Z" fill="#E6E6E6"/>
<path d="M128.928 110.943L127.307 107.971C127.291 107.942 127.263 107.92 127.23 107.91C127.197 107.901 127.161 107.905 127.131 107.921L126.345 108.35L125.938 108.572L123.748 109.766L123.324 109.998C123.294 110.014 123.272 110.042 123.263 110.075C123.253 110.108 123.257 110.144 123.274 110.174L123.378 110.365L124.894 113.145C124.91 113.175 124.938 113.197 124.971 113.206C125.003 113.216 125.038 113.212 125.068 113.195L127.682 111.77L128.09 111.547L128.876 111.119C128.891 111.111 128.904 111.1 128.915 111.087C128.926 111.074 128.934 111.058 128.938 111.042C128.943 111.026 128.945 111.008 128.943 110.991C128.941 110.974 128.936 110.958 128.928 110.943Z" fill="#E6E6E6"/>
<path d="M135.116 110.01C135.082 109.948 135.024 109.902 134.956 109.882C134.888 109.861 134.815 109.869 134.752 109.903L129.15 112.96C129.101 112.987 129.061 113.029 129.037 113.08C129.012 113.131 129.005 113.188 129.015 113.243C129.019 113.272 129.028 113.3 129.043 113.325C129.057 113.351 129.075 113.374 129.096 113.394L129.098 113.395C129.14 113.433 129.192 113.456 129.247 113.463C129.303 113.47 129.359 113.459 129.408 113.433L135.01 110.376C135.041 110.359 135.068 110.336 135.09 110.308C135.112 110.281 135.129 110.249 135.139 110.215C135.148 110.181 135.151 110.146 135.148 110.11C135.144 110.075 135.133 110.041 135.116 110.01Z" fill="#E6E6E6"/>
<path d="M136.525 110.276C136.508 110.245 136.485 110.218 136.457 110.196C136.429 110.174 136.398 110.157 136.364 110.147C136.33 110.137 136.294 110.134 136.259 110.138C136.224 110.142 136.19 110.153 136.159 110.17L129.584 113.757C129.535 113.783 129.495 113.825 129.47 113.875C129.446 113.925 129.439 113.982 129.449 114.037V114.039C129.453 114.068 129.462 114.095 129.477 114.121C129.491 114.147 129.51 114.171 129.532 114.191C129.573 114.229 129.625 114.253 129.681 114.26C129.737 114.267 129.793 114.255 129.842 114.228L136.417 110.641C136.48 110.607 136.526 110.549 136.546 110.481C136.566 110.412 136.559 110.339 136.525 110.276Z" fill="#E6E6E6"/>
<path d="M127.274 115.936C127.904 115.936 128.414 115.425 128.414 114.795C128.414 114.166 127.904 113.655 127.274 113.655C126.644 113.655 126.134 114.166 126.134 114.795C126.134 115.425 126.644 115.936 127.274 115.936Z" fill="#E6E6E6"/>
<path d="M135.921 97.1545L135.148 97.5766L125.617 102.777L124.844 103.199C124.468 103.404 124.19 103.75 124.069 104.16C123.948 104.571 123.995 105.013 124.2 105.388L131.297 118.396C131.502 118.771 131.848 119.05 132.259 119.171C132.669 119.291 133.111 119.244 133.487 119.04L133.489 119.039L144.563 112.997L144.565 112.995C144.94 112.79 145.218 112.444 145.339 112.034C145.46 111.623 145.413 111.182 145.208 110.806L138.111 97.7982C137.906 97.4229 137.56 97.1443 137.149 97.0236C136.739 96.9029 136.297 96.95 135.921 97.1545Z" fill="#CCCCCC"/>
<path d="M136.144 97.5623L135.228 98.0622L125.983 103.107L125.066 103.607C124.799 103.753 124.601 103.999 124.515 104.291C124.429 104.584 124.462 104.898 124.608 105.166L131.705 118.173C131.851 118.441 132.098 118.639 132.39 118.725C132.682 118.811 132.997 118.777 133.264 118.632L133.266 118.631L144.34 112.589L144.342 112.588C144.61 112.441 144.808 112.195 144.894 111.903C144.98 111.61 144.946 111.296 144.801 111.028L137.703 98.0207C137.557 97.7534 137.311 97.555 137.019 97.4691C136.726 97.3831 136.412 97.4167 136.144 97.5623Z" fill="white"/>
<path d="M136.404 101.235C136.37 101.172 136.312 101.126 136.244 101.106C136.175 101.086 136.102 101.094 136.039 101.127L134.137 102.165L133.607 102.455L131.909 103.382C131.847 103.416 131.8 103.474 131.781 103.542C131.761 103.61 131.769 103.684 131.803 103.746C131.837 103.808 131.894 103.855 131.962 103.875C132.03 103.895 132.104 103.888 132.166 103.854L134.169 102.762L134.587 102.533L136.297 101.6C136.359 101.566 136.405 101.508 136.426 101.44C136.446 101.371 136.438 101.298 136.404 101.235Z" fill="#CCCCCC"/>
<path d="M137.811 101.5C137.794 101.469 137.771 101.442 137.744 101.42C137.717 101.397 137.685 101.381 137.651 101.371C137.618 101.361 137.582 101.358 137.547 101.362C137.512 101.366 137.478 101.377 137.448 101.394L134.795 102.842L134.387 103.064L132.344 104.179C132.313 104.195 132.286 104.218 132.264 104.246C132.242 104.273 132.225 104.305 132.215 104.339C132.205 104.372 132.202 104.408 132.206 104.443C132.21 104.478 132.221 104.512 132.238 104.543C132.254 104.574 132.277 104.601 132.305 104.623C132.332 104.645 132.364 104.662 132.398 104.672C132.431 104.681 132.467 104.685 132.502 104.681C132.537 104.677 132.571 104.666 132.602 104.649L134.645 103.535L135.053 103.313L137.703 101.865C137.735 101.848 137.762 101.826 137.785 101.798C137.807 101.771 137.824 101.739 137.834 101.705C137.844 101.671 137.847 101.635 137.843 101.6C137.839 101.565 137.828 101.531 137.811 101.5Z" fill="#CCCCCC"/>
<path d="M132.265 105.938L130.973 103.569L130.75 103.161L130.644 102.966C130.628 102.936 130.6 102.914 130.567 102.905C130.534 102.896 130.498 102.9 130.468 102.916L127.845 104.347L126.661 104.993C126.631 105.009 126.609 105.037 126.599 105.07C126.59 105.103 126.594 105.139 126.611 105.169L126.716 105.361L126.831 105.575L126.939 105.769V105.771L128.231 108.14C128.247 108.17 128.275 108.192 128.308 108.201C128.34 108.211 128.375 108.207 128.405 108.19L132.213 106.114C132.228 106.106 132.241 106.095 132.252 106.082C132.263 106.068 132.271 106.053 132.275 106.037C132.28 106.02 132.282 106.003 132.28 105.986C132.278 105.969 132.273 105.953 132.265 105.938Z" fill="#4B4BFA"/>
<path d="M138.453 105.005C138.419 104.943 138.361 104.897 138.293 104.877C138.225 104.856 138.152 104.864 138.089 104.898L136.415 105.812L136.007 106.034L134.391 106.915L132.487 107.955C132.456 107.972 132.429 107.995 132.406 108.022C132.384 108.05 132.368 108.081 132.358 108.115C132.348 108.149 132.344 108.185 132.348 108.22C132.352 108.255 132.363 108.289 132.38 108.32C132.396 108.351 132.419 108.378 132.447 108.401C132.474 108.423 132.506 108.439 132.54 108.449C132.574 108.459 132.609 108.463 132.644 108.459C132.68 108.455 132.714 108.444 132.745 108.427L136.265 106.507L136.673 106.284L138.347 105.371C138.378 105.354 138.405 105.331 138.427 105.303C138.449 105.275 138.466 105.244 138.476 105.21C138.485 105.176 138.488 105.14 138.484 105.105C138.48 105.07 138.47 105.036 138.453 105.005Z" fill="#CCCCCC"/>
<path d="M139.861 105.27C139.844 105.24 139.821 105.212 139.794 105.19C139.766 105.168 139.735 105.152 139.701 105.142C139.667 105.132 139.631 105.129 139.596 105.133C139.561 105.137 139.527 105.148 139.496 105.165L136.851 106.609L136.443 106.831L132.921 108.752C132.89 108.769 132.862 108.791 132.84 108.819C132.818 108.846 132.801 108.878 132.791 108.912C132.781 108.946 132.778 108.981 132.782 109.016C132.786 109.052 132.796 109.086 132.813 109.117C132.83 109.148 132.853 109.175 132.881 109.197C132.908 109.219 132.94 109.236 132.974 109.246C133.008 109.255 133.043 109.259 133.078 109.255C133.114 109.251 133.148 109.24 133.179 109.223L136.699 107.302L137.107 107.08L139.754 105.636C139.816 105.601 139.863 105.544 139.883 105.475C139.903 105.407 139.895 105.333 139.861 105.27Z" fill="#CCCCCC"/>
<path d="M130.611 110.93C131.24 110.93 131.751 110.42 131.751 109.79C131.751 109.16 131.24 108.65 130.611 108.65C129.981 108.65 129.47 109.16 129.47 109.79C129.47 110.42 129.981 110.93 130.611 110.93Z" fill="#CCCCCC"/>
<path d="M131.377 116.2C131.569 116.219 131.759 116.253 131.945 116.302L144.875 104.831L144.039 100.716L150.085 98.6428L152.273 105.784C152.45 106.361 152.434 106.979 152.23 107.547C152.025 108.114 151.642 108.6 151.137 108.931L134.699 119.724C134.723 120.467 134.521 121.199 134.119 121.824C133.717 122.448 133.134 122.936 132.448 123.221C131.762 123.507 131.005 123.576 130.279 123.421C129.552 123.266 128.89 122.894 128.38 122.353C127.871 121.813 127.538 121.13 127.426 120.395C127.314 119.661 127.428 118.91 127.753 118.242C128.078 117.574 128.599 117.021 129.247 116.656C129.894 116.291 130.637 116.132 131.377 116.2Z" fill="#FFB8B8"/>
<path d="M153.776 99.6702L150.113 92.6741C149.736 91.61 148.96 90.734 147.95 90.2311C146.939 89.7282 145.772 89.6377 144.696 89.9787C144.655 89.9898 144.616 90.0028 144.576 90.0176C143.485 90.3988 142.59 91.1971 142.088 92.2373C141.585 93.2776 141.516 94.4747 141.895 95.566L143.365 103.298C143.407 103.519 143.497 103.729 143.627 103.913C143.758 104.096 143.926 104.25 144.122 104.362C144.335 104.487 144.575 104.558 144.822 104.57C145.025 104.583 145.229 104.554 145.421 104.486L146.207 104.212L151.253 102.455L152.903 101.88C153.116 101.806 153.31 101.686 153.473 101.53C153.635 101.374 153.762 101.184 153.845 100.975C153.928 100.765 153.964 100.54 153.953 100.315C153.941 100.09 153.881 99.87 153.776 99.6702Z" fill="#4B4BFA"/>
<path d="M167.604 126.656H46.5518C46.5027 126.656 46.4555 126.636 46.4208 126.601C46.386 126.567 46.3665 126.519 46.3665 126.47C46.3665 126.421 46.386 126.374 46.4208 126.339C46.4555 126.304 46.5027 126.285 46.5518 126.285H167.604C167.653 126.285 167.7 126.304 167.735 126.339C167.77 126.374 167.789 126.421 167.789 126.47C167.789 126.519 167.77 126.567 167.735 126.601C167.7 126.636 167.653 126.656 167.604 126.656Z" fill="#3F3D56"/>
<path d="M67.4062 123.226V123.319C67.4069 123.947 67.5899 124.562 67.9331 125.089C68.2764 125.615 68.765 126.031 69.3398 126.285C69.7521 126.469 70.1988 126.564 70.6504 126.563H100.589V123.226H67.4062Z" fill="#3F3D56"/>
<path d="M121.492 101.235C121.017 100.254 120.286 99.42 119.375 98.8211C118.963 98.5479 118.517 98.3274 118.05 98.1649C117.413 97.9424 116.743 97.829 116.068 97.8293H87.3346C85.7373 97.8312 84.206 98.4665 83.0765 99.596C81.947 100.725 81.3117 102.257 81.3098 103.854V120.538C81.3093 120.772 81.3229 121.006 81.3506 121.239C81.3914 121.587 81.462 121.93 81.5619 122.266C81.661 122.597 81.7888 122.918 81.9438 123.226C82.4428 124.229 83.2118 125.072 84.1642 125.662C85.1166 126.251 86.2146 126.564 87.3346 126.563H116.068C116.86 126.563 117.643 126.408 118.374 126.105C119.105 125.802 119.77 125.359 120.329 124.799C120.889 124.24 121.332 123.575 121.635 122.844C121.938 122.113 122.093 121.329 122.093 120.538V103.854C122.094 102.947 121.889 102.051 121.492 101.235Z" fill="#3F3D56"/>
<path d="M103.277 113.679C104.096 113.679 104.76 113.015 104.76 112.196C104.76 111.377 104.096 110.713 103.277 110.713C102.458 110.713 101.794 111.377 101.794 112.196C101.794 113.015 102.458 113.679 103.277 113.679Z" fill="white"/>
</g>
<defs>
<clipPath id="clip0_51_444">
<rect width="132.6" height="112" fill="white" transform="translate(46.3665 39.311)"/>
</clipPath>
</defs>
</svg>
