<svg width="225" height="190" viewBox="0 0 225 190" fill="none" xmlns="http://www.w3.org/2000/svg">
<path d="M1.16675 16.9111C1.16675 8.35073 8.10634 1.41113 16.6667 1.41113H208.667C217.227 1.41113 224.167 8.35072 224.167 16.9111V173.711C224.167 182.272 217.227 189.211 208.667 189.211H16.6668C8.10634 189.211 1.16675 182.272 1.16675 173.711V16.9111Z" fill="#FAFAFA"/>
<path d="M1.16675 16.9111C1.16675 8.35073 8.10634 1.41113 16.6667 1.41113H208.667C217.227 1.41113 224.167 8.35072 224.167 16.9111V173.711C224.167 182.272 217.227 189.211 208.667 189.211H16.6668C8.10634 189.211 1.16675 182.272 1.16675 173.711V16.9111Z" stroke="#F0F0F0"/>
<g clip-path="url(#clip0_51_447)">
<path d="M162.586 147.144C164.026 149.942 167.172 151.192 167.172 151.192C167.172 151.192 167.984 147.906 166.544 145.108C165.105 142.31 161.959 141.06 161.959 141.06C161.959 141.06 161.147 144.346 162.586 147.144Z" fill="#F1F1F1"/>
<path d="M163.63 146.253C166.294 147.927 167.27 151.169 167.27 151.169C167.27 151.169 163.926 151.696 161.262 150.022C158.598 148.348 157.622 145.107 157.622 145.107C157.622 145.107 160.966 144.579 163.63 146.253Z" fill="#F1F1F1"/>
<path d="M126.191 149.255H124.323L123.434 142.049L126.191 142.049L126.191 149.255Z" fill="#FFB7B7"/>
<path d="M126.667 151.067L120.643 151.066V150.99C120.643 150.368 120.89 149.772 121.33 149.332C121.769 148.892 122.366 148.645 122.988 148.645L126.667 148.645L126.667 151.067Z" fill="#2F2E41"/>
<path d="M137.773 149.255H135.905L135.016 142.049L137.774 142.049L137.773 149.255Z" fill="#FFB7B7"/>
<path d="M138.25 151.067L132.225 151.066V150.99C132.225 150.368 132.472 149.772 132.912 149.332C133.352 148.892 133.948 148.645 134.57 148.645L138.25 148.645L138.25 151.067Z" fill="#2F2E41"/>
<path d="M132.348 108.662L128.672 101.265L129.619 95.1286L125.199 93.9094L124.742 102.139L130.473 109.928C130.432 110.22 130.476 110.517 130.601 110.784C130.725 111.051 130.924 111.276 131.174 111.433C131.424 111.589 131.714 111.669 132.008 111.664C132.303 111.659 132.59 111.568 132.834 111.403C133.078 111.239 133.269 111.007 133.384 110.735C133.499 110.464 133.533 110.165 133.481 109.875C133.43 109.585 133.295 109.316 133.094 109.101C132.893 108.886 132.634 108.733 132.348 108.662Z" fill="#FFB7B7"/>
<path d="M140.3 108.662L143.977 101.265L143.03 95.1286L147.449 93.9094L147.907 102.139L142.175 109.928C142.216 110.22 142.172 110.517 142.048 110.784C141.923 111.051 141.724 111.276 141.474 111.433C141.224 111.589 140.935 111.669 140.64 111.664C140.345 111.659 140.059 111.568 139.815 111.403C139.57 111.239 139.379 111.007 139.264 110.735C139.149 110.464 139.116 110.165 139.167 109.875C139.218 109.585 139.353 109.316 139.554 109.101C139.755 108.886 140.014 108.733 140.3 108.662Z" fill="#FFB7B7"/>
<path d="M137.847 83.3797C140.067 83.3797 141.868 81.5796 141.868 79.3589C141.868 77.1383 140.067 75.3381 137.847 75.3381C135.626 75.3381 133.826 77.1383 133.826 79.3589C133.826 81.5796 135.626 83.3797 137.847 83.3797Z" fill="#FFB9B9"/>
<path d="M133.856 79.3374C133.856 79.3374 133.42 78.683 133.588 77.9783C133.688 77.5782 133.728 77.1653 133.705 76.7534C133.893 76.1429 134.129 75.5482 134.41 74.9749C134.762 74.3373 134.595 74.0688 135.702 73.8675C136.809 73.6661 136.356 72.2232 139.276 73.7836C139.374 73.9211 139.511 74.0264 139.67 74.0861C139.828 74.1458 140 74.1573 140.165 74.1192C140.769 74.0017 140.987 74.8406 140.987 74.8406C140.987 74.8406 141.39 74.6057 141.541 74.9413C141.692 75.2769 142.769 74.7399 142.769 77.005C142.769 79.2702 141.544 81.2935 141.544 81.2935C141.544 81.2935 140.683 84.0084 138.686 83.6224C136.69 83.2365 136.4 83.47 135.029 80.8792C134.748 81.6891 134.317 78.6144 133.856 79.3374Z" fill="#2F2E41"/>
<path d="M129.009 105.339L128.543 107.167C128.543 107.167 126.347 108.228 125.468 117.757L124.285 132.044L122.478 147.016L126.233 147.308L128.837 137.822L134.463 117.876L135.53 132.965L134.343 146.64L138.305 146.792L141.049 131.552C141.049 131.552 145.251 109.23 142.54 108.58L142.268 106.254L129.009 105.339Z" fill="#2F2E41"/>
<path d="M128.14 88.1583L134.608 84.5938L140.098 84.8867L146.655 88.768L143.922 105.836C143.922 105.836 145.489 107.587 140.754 107.073C136.019 106.559 128.367 106.142 128.367 106.142C128.367 106.142 127.752 104.92 129.066 104.749C130.381 104.577 129.281 104.618 129.281 104.618C129.281 104.618 128.487 102.067 129.281 101.57L129.666 96.331L128.14 88.1583Z" fill="#3F3D56"/>
<path d="M129.923 88.4229L128.14 88.1582L124.361 94.8998L130.501 97.6069L129.923 88.4229Z" fill="#3F3D56"/>
<path d="M144.554 89.6421L146.655 88.7678L148.745 98.2527L143.073 99.3268L144.554 89.6421Z" fill="#3F3D56"/>
<path d="M96.0425 151.311H178.325C178.37 151.311 178.413 151.293 178.444 151.262C178.476 151.23 178.494 151.188 178.494 151.143C178.494 151.098 178.476 151.055 178.444 151.024C178.413 150.992 178.37 150.975 178.325 150.975H96.0425C95.9979 150.975 95.9551 150.992 95.9236 151.024C95.892 151.055 95.8743 151.098 95.8743 151.143C95.8743 151.188 95.892 151.23 95.9236 151.262C95.9551 151.293 95.9979 151.311 96.0425 151.311Z" fill="#CBCBCB"/>
<path d="M87.2242 106.215H65.8542V116.984H87.2242V106.215Z" fill="white"/>
<path d="M84.6995 108.972H68.3792V109.525H84.6995V108.972Z" fill="#4B4BFA"/>
<path d="M84.6995 111.323H68.3792V111.876H84.6995V111.323Z" fill="#4B4BFA"/>
<path d="M84.6995 113.675H68.3792V114.228H84.6995V113.675Z" fill="#4B4BFA"/>
<path d="M87.3923 117.153H65.6858V106.047H87.3923V117.153ZM66.0223 116.816H87.0558V106.384H66.0223V116.816Z" fill="#3F3D56"/>
<path d="M71.8677 92.8395C67.3435 92.8432 62.9081 91.584 59.0606 89.2037L58.9629 89.1431L59.0233 89.0454L71.8036 68.3616H96.2305V68.4766C96.2305 81.9104 85.3014 92.8395 71.8677 92.8395Z" fill="#4B4BFA"/>
<path d="M56.1958 84.0572L56.1173 84.0086C51.8053 81.3424 48.6967 77.1063 47.4468 72.1931C46.1968 67.2799 46.903 62.0733 49.4166 57.6706L49.4625 57.5906L66.5249 67.3405L56.1958 84.0572Z" fill="#F1F1F1"/>
<path d="M96.2306 65.0984H71.7246L77.0075 41.1653L77.1197 41.1899C82.5381 42.3875 87.3856 45.3985 90.8606 49.7249C94.3355 54.0513 96.23 59.4341 96.2306 64.9833V65.0984Z" fill="#4B4BFA"/>
<path d="M67.8213 61.3289L51.217 51.8407L51.2617 51.7628C53.2747 48.2464 56.358 45.4646 60.0623 43.8228C63.7666 42.1811 67.8984 41.7651 71.8557 42.6355L71.9433 42.6547L67.8213 61.3289Z" fill="#F1F1F1"/>
<path d="M129.965 39.4792H108.595V50.2484H129.965V39.4792Z" fill="white"/>
<path d="M127.44 42.2361H111.12V42.7893H127.44V42.2361Z" fill="#4B4BFA"/>
<path d="M127.44 44.5874H111.12V45.1406H127.44V44.5874Z" fill="#4B4BFA"/>
<path d="M127.44 46.9385H111.12V47.4917H127.44V46.9385Z" fill="#4B4BFA"/>
<path d="M130.133 50.4167H108.427V39.311H130.133V50.4167ZM108.763 50.0802H129.796V39.6476H108.763V50.0802Z" fill="#3F3D56"/>
<path d="M76.7533 78.3438H76.4167V106.047H76.7533V78.3438Z" fill="#3F3D56"/>
<path d="M108.512 44.8763L83.248 56.3032L83.3867 56.6099L108.651 45.1829L108.512 44.8763Z" fill="#3F3D56"/>
</g>
<defs>
<clipPath id="clip0_51_447">
<rect width="131.654" height="112" fill="white" transform="translate(46.8401 39.311)"/>
</clipPath>
</defs>
</svg>
