<svg width="135" height="100" viewBox="0 0 135 100" fill="none" xmlns="http://www.w3.org/2000/svg">
<g clip-path="url(#clip0_37_68)">
<path d="M122.617 89.1443L122.817 84.648C124.902 83.5337 127.227 82.9451 129.59 82.9333C126.337 85.593 126.744 90.72 124.538 94.2967C123.842 95.4069 122.904 96.3462 121.796 97.045C120.687 97.7437 119.435 98.184 118.133 98.3331L115.41 99.9999C115.037 97.9175 115.119 95.7787 115.652 93.7311C116.184 91.6835 117.155 89.7757 118.496 88.1392C119.257 87.2285 120.13 86.4174 121.094 85.7249C121.746 87.4441 122.617 89.1443 122.617 89.1443Z" fill="#F2F2F2"/>
<path d="M29.1547 49.1713C28.9748 49.0072 28.8331 48.8056 28.7396 48.5808C28.6461 48.3559 28.603 48.1133 28.6133 47.87C28.6237 47.6267 28.6873 47.3886 28.7996 47.1726C28.912 46.9565 29.0703 46.7677 29.2635 46.6194L27.3984 41.0015L30.3692 41.7996L31.6848 47.0122C31.9124 47.3532 32.0069 47.7659 31.9505 48.172C31.8941 48.5781 31.6907 48.9494 31.3788 49.2155C31.0669 49.4817 30.6683 49.6242 30.2584 49.616C29.8484 49.6079 29.4558 49.4497 29.1547 49.1713Z" fill="#A0616A"/>
<path d="M34.5389 18.6477C35.0318 18.9303 37.9483 18.2301 38.5178 18.4293C38.2034 20.3476 39.9111 19.6278 38.0567 22.1471C36.2023 24.6663 32.4673 32.2199 31.6189 35.043C30.7704 37.8661 31.6102 41.8446 31.4831 43.1825C31.4217 43.9578 31.4255 44.7368 31.4946 45.5113C30.4927 45.4987 29.5051 45.7066 28.4876 45.5738C27.4024 42.5032 26.6728 38.1325 26.1773 35.717C25.6819 33.3014 25.6638 34.323 25.891 33.1151C26.1182 31.9073 26.1733 32.785 25.9346 31.6295C25.6958 30.474 26.6612 29.0222 27.5532 28.1944C27.9378 27.0882 28.4348 26.0568 28.8155 24.9622C31.6056 22.5282 31.7891 21.1222 34.5389 18.6477Z" fill="#4B4BFA"/>
<path d="M115.602 96.8843H113.137L111.965 87.3762H115.603L115.602 96.8843Z" fill="#FFB6B6"/>
<path d="M116.231 99.2737L108.283 99.2735V99.1729C108.283 98.3524 108.609 97.5656 109.189 96.9854C109.769 96.4052 110.556 96.0793 111.376 96.0792L112.828 94.9778L115.537 96.0794L116.231 96.0794L116.231 99.2737Z" fill="#2F2E41"/>
<path d="M104.15 96.8843H101.685L100.513 87.3762H104.151L104.15 96.8843Z" fill="#FFB6B6"/>
<path d="M104.779 99.2737L96.8306 99.2735V99.1729C96.8306 98.3524 97.1566 97.5656 97.7368 96.9854C98.3169 96.4052 99.1038 96.0793 99.9243 96.0792L101.376 94.9778L104.085 96.0794L104.779 96.0794L104.779 99.2737Z" fill="#2F2E41"/>
<path d="M103.083 44.9031L119.117 45.3039C122.162 46.9579 122.209 50.5377 121.211 54.788C121.211 54.788 121.548 57.3142 120.874 57.9878C120.2 58.6615 119.863 58.6615 120.2 59.8404C120.537 61.0193 118.757 62.9448 118.974 63.1609C119.19 63.3771 119.695 64.556 119.695 64.556L118.011 74.1556C118.011 74.1556 116.832 90.8286 116.495 91.1655C116.158 91.5023 115.821 91.1655 116.158 92.0076C116.495 92.8496 116.832 92.5128 116.495 92.8496C116.197 93.1713 115.916 93.5086 115.653 93.8601H111.581C111.581 93.8601 111.274 92.176 111.274 92.0076C111.274 91.8391 110.937 90.8286 110.937 90.6602C110.937 90.4918 111.235 90.1941 111.235 90.1941C111.338 89.8518 111.408 89.5003 111.443 89.1445C111.443 88.8077 112.453 75.8398 112.453 75.8398L110.432 58.9983L105.548 75.5029C105.548 75.5029 105.548 89.9866 105.211 90.3234C104.875 90.6602 104.875 90.4918 105.043 91.1655C105.211 91.8391 105.885 91.6707 105.38 92.176C104.875 92.6812 104.706 91.8391 104.875 92.6812L105.043 93.5233L99.9905 93.5956C99.9905 93.5956 99.3169 92.176 99.6537 91.6707C99.9905 91.1655 99.9703 91.3034 99.5594 90.4766C99.1484 89.6497 98.98 89.4813 99.1485 89.3129C99.3169 89.1445 99.3169 88.2487 99.3169 88.2487L100.159 72.1346C100.159 72.1346 100.327 55.1248 100.327 54.6195C100.34 54.3596 100.292 54.1002 100.187 53.8619V53.1761L100.833 50.746L103.083 44.9031Z" fill="#2F2E41"/>
<path d="M112.715 11.5634C115.466 11.5634 117.697 9.333 117.697 6.58164C117.697 3.83028 115.466 1.59985 112.715 1.59985C109.964 1.59985 107.733 3.83028 107.733 6.58164C107.733 9.333 109.964 11.5634 112.715 11.5634Z" fill="#FFB6B6"/>
<path d="M110.224 14.8561C109.151 15.4942 108.509 16.6665 108.14 17.8595C107.458 20.0681 107.047 22.3516 106.917 24.6596L106.528 31.5692L101.707 46.2817C105.885 49.8172 121.591 47.0853 121.591 47.0853C121.591 47.0853 122.073 46.9246 121.591 46.4424C121.109 45.9603 120.639 46.3875 121.121 45.9053C121.603 45.4232 121.271 45.9603 121.11 45.4782C120.95 44.9961 121.11 45.3175 121.271 45.1568C121.432 44.9961 120.027 43.5498 120.027 43.5498L121.313 35.1047L122.92 18.0702C120.991 15.6596 117.113 14.2386 117.113 14.2386L116.111 12.4348L111.1 12.8357L110.224 14.8561Z" fill="#3F3D56"/>
<path d="M109.541 3.65793C109.734 3.65943 109.925 3.6846 110.112 3.73288C110.48 3.82133 110.854 3.88398 111.23 3.92039C112.384 4.02889 113.467 4.52073 114.308 5.31737C115.149 6.114 115.699 7.16946 115.87 8.31519C116.159 8.06281 116.818 7.59855 117.358 8.03002C117.366 8.03687 117.371 8.0404 117.39 8.03139C117.748 7.86131 118.385 5.76764 118.404 3.9242C118.414 2.94578 118.26 1.69637 117.469 1.30071L117.427 1.27986L117.416 1.23455C117.363 1.01446 116.773 0.638767 115.746 0.346355C113.88 -0.185039 111.154 -0.261861 109.588 1.26156C109.47 1.77515 109.029 1.91587 108.64 2.04045C108.209 2.17834 107.836 2.29734 107.777 2.82638C107.728 3.57925 107.732 4.33463 107.788 5.08701C107.934 4.62662 108.221 4.22366 108.608 3.93487C108.884 3.74954 109.209 3.65289 109.541 3.65793Z" fill="#2F2E41"/>
<path d="M100.268 31.1844L108.406 25.9727L104.307 20.5242L100.26 25.5027L87.6497 26.2761C87.318 25.9482 86.8981 25.7239 86.4412 25.6306C85.9842 25.5372 85.51 25.5789 85.0763 25.7504C84.6426 25.9219 84.2682 26.2159 83.9987 26.5965C83.7292 26.9772 83.5763 27.428 83.5586 27.894C83.5409 28.3601 83.6592 28.8212 83.899 29.2212C84.1389 29.6211 84.4899 29.9427 84.9093 30.1466C85.3288 30.3505 85.7985 30.428 86.2612 30.3696C86.7239 30.3112 87.1596 30.1194 87.5152 29.8177L100.268 31.1844Z" fill="#FFB6B6"/>
<path d="M115.959 18.6983C116.431 21.5566 107.512 27.0148 107.512 27.0148C107.512 26.344 102.189 31.4088 101.948 30.8524C101.265 29.271 100.785 25.5254 99.8309 24.9259C99.2852 24.583 103.118 21.3622 103.118 21.3622C103.118 21.3622 105.124 19.3412 107.756 16.792C108.487 16.0575 109.392 15.5198 110.387 15.2291C111.381 14.9384 112.433 14.904 113.445 15.1292C113.445 15.1292 115.487 15.8399 115.959 18.6983Z" fill="#3F3D56"/>
<path d="M106.891 51.5169C106.895 54.5758 106.382 57.6133 105.376 60.5019C105.33 60.6361 105.282 60.7684 105.234 60.9027C103.173 66.498 99.3413 71.2668 94.3207 74.4833C93.978 74.7038 93.6313 74.9142 93.2785 75.1187C89.2674 77.4439 84.7267 78.7013 80.0908 78.7704C79.9384 78.7724 79.7861 78.7744 79.6338 78.7744C79.4374 78.7744 79.243 78.7724 79.0486 78.7683C74.4064 78.676 69.8656 77.3938 65.8608 75.0445C65.508 74.8381 65.1606 74.6236 64.8186 74.4012C59.2445 70.7878 55.1803 65.2649 53.3881 58.8685C51.5959 52.472 52.1989 45.6415 55.0841 39.658C55.1482 39.5237 55.2143 39.3914 55.2825 39.2571C57.5548 34.7477 61.0346 30.9577 65.3342 28.3097C69.6338 25.6617 74.5842 24.2595 79.6338 24.2595C84.6834 24.2595 89.6338 25.6617 93.9334 28.3097C98.233 30.9577 101.713 34.7477 103.985 39.2571C104.053 39.3914 104.119 39.5237 104.184 39.658C105.972 43.3552 106.898 47.41 106.891 51.5169Z" fill="#F2F2F2"/>
<path d="M98.4575 60.502V60.9028H100.899V60.502H98.4575ZM93.5752 60.502V60.9028H96.0164V60.502H93.5752ZM88.6929 60.502V60.9028H91.1341V60.502H88.6929ZM83.8106 60.502V60.9028H86.2518V60.502H83.8106ZM78.9283 60.502V60.9028H81.3695V60.502H78.9283ZM74.0461 60.502V60.9028H76.4872V60.502H74.0461ZM69.1638 60.502V60.9028H71.6049V60.502H69.1638ZM64.2835 60.502V60.9028H66.7226V60.502H64.2835ZM59.4012 60.502V60.9028H61.8423V60.502H59.4012ZM54.5189 60.502V60.9028H56.9601V60.502H54.5189ZM105.376 60.502H103.34V60.9028H105.234L105.376 60.502Z" fill="#E6E6E6"/>
<path d="M103.34 57.696V58.0969H105.781V57.696H103.34ZM98.4576 57.696V58.0969H100.899V57.696H98.4576ZM93.5753 57.696V58.0969H96.0165V57.696H93.5753ZM88.693 57.696V58.0969H91.1342V57.696H88.693ZM83.8108 57.696V58.0969H86.2519V57.696H83.8108ZM78.9285 57.696V58.0969H81.3696V57.696H78.9285ZM74.0462 57.696V58.0969H76.4873V57.696H74.0462ZM69.1639 57.696V58.0969H71.605V57.696H69.1639ZM64.2836 57.696V58.0969H66.7228V57.696H64.2836ZM59.4013 57.696V58.0969H61.8425V57.696H59.4013ZM54.519 57.696V58.0969H56.9602V57.696H54.519Z" fill="#E6E6E6"/>
<path d="M103.34 51.8838V52.2846H105.781V51.8838H103.34ZM98.4576 51.8838V52.2846H100.899V51.8838H98.4576ZM93.5753 51.8838V52.2846H96.0165V51.8838H93.5753ZM88.693 51.8838V52.2846H91.1342V51.8838H88.693ZM83.8108 51.8838V52.2846H86.2519V51.8838H83.8108ZM78.9285 51.8838V52.2846H81.3696V51.8838H78.9285ZM74.0462 51.8838V52.2846H76.4873V51.8838H74.0462ZM69.1639 51.8838V52.2846H71.605V51.8838H69.1639ZM64.2836 51.8838V52.2846H66.7228V51.8838H64.2836ZM59.4013 51.8838V52.2846H61.8425V51.8838H59.4013ZM54.519 51.8838V52.2846H56.9602V51.8838H54.519Z" fill="#E6E6E6"/>
<path d="M103.34 47.8752V48.2761H105.781V47.8752H103.34ZM98.4576 47.8752V48.2761H100.899V47.8752H98.4576ZM93.5753 47.8752V48.2761H96.0165V47.8752H93.5753ZM88.693 47.8752V48.2761H91.1342V47.8752H88.693ZM83.8108 47.8752V48.2761H86.2519V47.8752H83.8108ZM78.9285 47.8752V48.2761H81.3696V47.8752H78.9285ZM74.0462 47.8752V48.2761H76.4873V47.8752H74.0462ZM69.1639 47.8752V48.2761H71.605V47.8752H69.1639ZM64.2836 47.8752V48.2761H66.7228V47.8752H64.2836ZM59.4013 47.8752V48.2761H61.8425V47.8752H59.4013ZM54.519 47.8752V48.2761H56.9602V47.8752H54.519Z" fill="#E6E6E6"/>
<path d="M103.985 39.2571H103.34V39.6579H104.184C104.119 39.5236 104.053 39.3914 103.985 39.2571ZM98.4575 39.2571V39.6579H100.899V39.2571H98.4575ZM93.5752 39.2571V39.6579H96.0163V39.2571H93.5752ZM88.6929 39.2571V39.6579H91.1341V39.2571H88.6929ZM83.8106 39.2571V39.6579H86.2518V39.2571H83.8106ZM78.9284 39.2571V39.6579H81.3695V39.2571H78.9284ZM74.0461 39.2571V39.6579H76.4872V39.2571H74.0461ZM69.1638 39.2571V39.6579H71.6049V39.2571H69.1638ZM64.2835 39.2571V39.6579H66.7226V39.2571H64.2835ZM59.4012 39.2571V39.6579H61.8424V39.2571H59.4012ZM55.2825 39.2571C55.2144 39.3914 55.1482 39.5236 55.0841 39.6579H56.9601V39.2571H55.2825Z" fill="#E6E6E6"/>
<path d="M94.3209 40.6082V74.4835C93.9782 74.704 93.6314 74.9144 93.2787 75.1189V40.6082H94.3209Z" fill="#3F3D56"/>
<path d="M80.0909 51.8315V78.7703C79.9386 78.7723 79.7863 78.7743 79.6339 78.7743C79.4375 78.7743 79.2431 78.7723 79.0487 78.7683V51.8315H80.0909Z" fill="#3F3D56"/>
<path d="M65.8609 40.6082V75.0447C65.5082 74.8383 65.1608 74.6238 64.8187 74.4014V40.6082H65.8609Z" fill="#3F3D56"/>
<path d="M14.7927 86.7148L14.3951 81.1855C11.791 79.8837 8.90838 79.2372 5.99768 79.3023C10.0926 82.4676 9.76464 88.7938 12.6006 93.1234C13.4955 94.4669 14.6812 95.5919 16.07 96.4149C17.4587 97.2379 19.0148 97.7379 20.6231 97.8777L24.031 99.8383C24.4209 97.2617 24.2475 94.6312 23.5228 92.128C22.7982 89.6248 21.5394 87.3085 19.8334 85.3386C18.8653 84.243 17.7631 83.2736 16.5529 82.4534C15.808 84.5922 14.7927 86.7148 14.7927 86.7148Z" fill="#F2F2F2"/>
<path d="M93.6635 43.2996C95.7666 43.2996 97.4715 41.5947 97.4715 39.4916C97.4715 37.3885 95.7666 35.6836 93.6635 35.6836C91.5604 35.6836 89.8555 37.3885 89.8555 39.4916C89.8555 41.5947 91.5604 43.2996 93.6635 43.2996Z" fill="#4B4BFA"/>
<path d="M95.6183 37.9047C95.561 37.8501 95.4849 37.8196 95.4057 37.8196C95.3265 37.8196 95.2504 37.8501 95.1931 37.9047C94.3851 38.5491 93.6593 39.2904 93.0322 40.1119C92.8782 39.814 92.7243 39.5161 92.5703 39.2182C92.3926 38.8743 91.8736 39.1781 92.0511 39.5217C92.2763 39.9574 92.5015 40.3932 92.7267 40.8289C92.7539 40.8734 92.792 40.9101 92.8375 40.9356C92.8829 40.9611 92.9342 40.9745 92.9863 40.9745C93.0384 40.9745 93.0897 40.9611 93.1351 40.9356C93.1806 40.9101 93.2187 40.8734 93.2459 40.8289C93.9142 39.8876 94.713 39.0462 95.6183 38.3299C95.6742 38.2733 95.7056 38.1969 95.7056 38.1173C95.7056 38.0377 95.6742 37.9613 95.6183 37.9047Z" fill="white"/>
<path d="M79.6338 54.5233C81.7369 54.5233 83.4419 52.8184 83.4419 50.7153C83.4419 48.6121 81.7369 46.9072 79.6338 46.9072C77.5307 46.9072 75.8258 48.6121 75.8258 50.7153C75.8258 52.8184 77.5307 54.5233 79.6338 54.5233Z" fill="#4B4BFA"/>
<path d="M81.5887 49.1283C81.5314 49.0737 81.4553 49.0432 81.3761 49.0432C81.297 49.0432 81.2208 49.0737 81.1636 49.1283C80.3555 49.7728 79.6298 50.5141 79.0026 51.3356C78.8487 51.0377 78.6947 50.7397 78.5408 50.4418C78.363 50.098 77.844 50.4017 78.0216 50.7453C78.2468 51.181 78.472 51.6168 78.6972 52.0525C78.7243 52.097 78.7625 52.1338 78.8079 52.1593C78.8534 52.1848 78.9046 52.1982 78.9568 52.1982C79.0089 52.1982 79.0601 52.1848 79.1056 52.1593C79.1511 52.1338 79.1892 52.097 79.2164 52.0525C79.8847 51.1113 80.6835 50.2698 81.5887 49.5535C81.6447 49.4969 81.676 49.4205 81.676 49.3409C81.676 49.2613 81.6447 49.185 81.5887 49.1283Z" fill="white"/>
<path d="M65.4038 44.1014C67.507 44.1014 69.2119 42.3965 69.2119 40.2934C69.2119 38.1903 67.507 36.4854 65.4038 36.4854C63.3007 36.4854 61.5958 38.1903 61.5958 40.2934C61.5958 42.3965 63.3007 44.1014 65.4038 44.1014Z" fill="#4B4BFA"/>
<path d="M67.3587 38.7062C67.3015 38.6516 67.2253 38.6211 67.1462 38.6211C67.067 38.6211 66.9909 38.6516 66.9336 38.7062C66.1256 39.3507 65.3998 40.092 64.7727 40.9134C64.6187 40.6155 64.4647 40.3176 64.3108 40.0197C64.1331 39.6759 63.614 39.9796 63.7916 40.3232C64.0168 40.7589 64.242 41.1947 64.4672 41.6304C64.4944 41.6749 64.5325 41.7117 64.578 41.7372C64.6234 41.7627 64.6747 41.7761 64.7268 41.7761C64.7789 41.7761 64.8302 41.7627 64.8756 41.7372C64.9211 41.7117 64.9592 41.6749 64.9864 41.6304C65.6547 40.6891 66.4535 39.8477 67.3587 39.1314C67.4147 39.0748 67.4461 38.9984 67.4461 38.9188C67.4461 38.8392 67.4147 38.7628 67.3587 38.7062Z" fill="white"/>
<path d="M120.014 37.5853L122.521 28.2525L115.822 26.9844L116.182 33.3903L107.38 42.4535C106.914 42.4345 106.453 42.5514 106.052 42.7901C105.652 43.0288 105.329 43.3789 105.124 43.7977C104.919 44.2166 104.84 44.6861 104.897 45.1489C104.954 45.6118 105.145 46.0481 105.445 46.4045C105.746 46.761 106.144 47.0223 106.591 47.1565C107.037 47.2907 107.513 47.292 107.961 47.1603C108.408 47.0287 108.808 46.7697 109.11 46.4149C109.413 46.0602 109.606 45.625 109.666 45.1624L120.014 37.5853Z" fill="#FFB6B6"/>
<path d="M123.207 17.7885C125.481 19.5837 122.562 29.625 122.562 29.625C122.11 29.1291 121.585 36.4582 121.033 36.2086C119.463 35.4994 116.586 33.0536 115.477 33.2529C114.842 33.3669 115.507 28.4051 115.507 28.4051C115.507 28.4051 115.629 25.56 115.859 21.9026C115.905 20.8674 116.212 19.8607 116.751 18.976C117.291 18.0913 118.045 17.3576 118.945 16.843C118.945 16.843 120.933 15.9934 123.207 17.7885Z" fill="#3F3D56"/>
<path d="M44.6668 38.7417L47.4228 51.0408L29.762 49.9423L34.5645 37.8633L44.6668 38.7417Z" fill="#A0616A"/>
<path d="M41.726 95.5071L43.7098 95.5069L44.6536 87.855H41.7256L41.726 95.5071Z" fill="#A0616A"/>
<path d="M41.054 94.5282L44.1901 94.3411V95.6847L47.1716 97.7439C47.3189 97.8455 47.4298 97.9916 47.4882 98.1608C47.5465 98.33 47.5493 98.5134 47.496 98.6843C47.4428 98.8551 47.3363 99.0045 47.1921 99.1105C47.048 99.2166 46.8737 99.2738 46.6947 99.2738H42.9611L42.3176 97.9447L42.0663 99.2738H40.6586L41.054 94.5282Z" fill="#2F2E41"/>
<path d="M22.9756 94.5199L24.9145 94.9404L27.459 87.6625L24.5976 87.0417L22.9756 94.5199Z" fill="#A0616A"/>
<path d="M22.5267 93.4211L25.6311 93.9031L25.3463 95.2162L27.8235 97.8606C27.9459 97.9912 28.0233 98.1575 28.0445 98.3352C28.0656 98.5129 28.0294 98.6927 27.9412 98.8484C27.8529 99.0041 27.7172 99.1275 27.5538 99.2006C27.3904 99.2737 27.208 99.2926 27.0331 99.2547L23.3843 98.4631L23.0372 97.0279L22.5099 98.2734L21.1342 97.975L22.5267 93.4211Z" fill="#2F2E41"/>
<path d="M47.8736 61.3256C46.4813 68.9774 46.1333 72.2811 46.1333 72.2811C46.1333 72.2811 47.1775 73.4984 46.4813 74.1945C45.7852 74.8907 46.4813 76.281 46.4813 76.281L44.916 93.1499L43.6559 92.9457L40.6205 92.4576L39.5257 92.2807L40.2219 76.456C40.2219 76.456 39.5257 75.0638 39.8738 74.7157C40.2219 74.3676 39.5257 72.2811 39.5257 72.2811L38.6565 55.7604L33.2643 73.8465C33.2643 73.8465 33.7874 74.5426 33.2643 75.0638C32.7432 75.5849 31.7009 78.1945 31.7009 78.1945L28.4944 89.4144L28.2221 90.3672L26.5498 90.0542L24.7297 89.7119L24.3953 89.6497L23.8002 89.5369L23.4172 89.465L23.2869 89.4417L22.6569 89.323L22.8474 88.4772L22.9466 88.0319L25.6592 75.9835L25.7215 75.7055L25.7876 75.4118C25.7876 75.4118 25.4395 74.5426 25.9606 74.0196C26.1131 73.8601 26.2245 73.666 26.2851 73.4539C26.3457 73.2418 26.3538 73.0182 26.3087 72.8023C26.2916 72.7841 26.276 72.7646 26.262 72.7439C26.2005 72.6594 26.158 72.5626 26.1376 72.46C26.0909 72.2422 26.1318 71.937 26.4837 71.585C26.5828 71.4797 26.666 71.3605 26.7307 71.2311C27.2596 70.2296 27.526 68.1082 27.526 68.1082C27.526 68.1082 27.9966 51.3054 29.5366 48.7386C29.6183 48.6045 31.2532 46.0286 31.3388 45.9761C33.0772 44.9339 46.6211 46.3735 46.6211 46.3735C46.6211 46.3735 47.4414 48.5772 47.4783 48.8067C47.6786 50.0959 49.0539 54.8347 47.8736 61.3256Z" fill="#2F2E41"/>
<path d="M43.7583 20.8525C43.7583 20.8525 44.0514 19.3312 41.2353 16.5152C39.7445 16.0182 37.1613 16.3079 36.2658 16.5152C32.1246 21.9816 32.8661 21.0171 31.7881 24.0714C31.5085 24.8634 31.3688 25.6244 31.493 26.2456C31.99 28.7303 32.7967 41.4851 32.6311 42.1477C32.4654 42.8103 31.3059 43.6386 32.4654 43.6386C33.625 43.6386 48.5784 43.3768 48.2471 42.8799C47.9158 42.3829 43.7583 20.8525 43.7583 20.8525Z" fill="#4B4BFA"/>
<path d="M61.5176 41.0641C61.2905 41.1521 61.0469 41.1892 60.804 41.1728C60.561 41.1564 60.3246 41.0869 60.1114 40.9692C59.8982 40.8516 59.7133 40.6886 59.5699 40.4918C59.4265 40.295 59.328 40.0691 59.2813 39.8301L53.4207 38.9977L55.4584 36.6934L60.7114 37.8372C61.1181 37.7853 61.5297 37.8845 61.8682 38.1159C62.2066 38.3473 62.4485 38.6948 62.5479 39.0925C62.6473 39.4903 62.5973 39.9107 62.4074 40.2741C62.2175 40.6375 61.9009 40.9186 61.5176 41.0641Z" fill="#A0616A"/>
<path d="M36.7227 19.8731C37.1952 19.5577 37.7319 19.4095 38.1639 18.9883C39.7415 20.1242 39.8575 18.2747 41.2872 21.0571C42.7168 23.8395 47.8161 30.5479 49.9658 32.565C52.1154 34.5821 56.0515 35.6022 57.1929 36.312C57.8596 36.7122 58.5588 37.0558 59.283 37.339C58.8254 38.2304 58.5717 39.2071 57.9996 40.059C54.7671 39.6629 50.5289 38.3695 48.1455 37.7371C45.7622 37.1048 46.6687 37.576 45.6885 36.8346C44.7083 36.0932 45.5186 36.4349 44.3777 36.1339C43.2369 35.833 42.367 34.322 42.0231 33.1547C41.2041 32.3176 40.502 31.4132 39.6915 30.5848C38.7551 27.0026 37.7133 23.4373 36.7227 19.8731Z" fill="#4B4BFA"/>
<path d="M40.4234 14.3951C43.0725 14.3951 45.22 12.2475 45.22 9.59842C45.22 6.9493 43.0725 4.80176 40.4234 4.80176C37.7742 4.80176 35.6267 6.9493 35.6267 9.59842C35.6267 12.2475 37.7742 14.3951 40.4234 14.3951Z" fill="#A0616A"/>
<path d="M43.6281 18.3664C43.4007 18.0417 41.7009 14.8222 41.1956 13.6048C41.1436 13.8684 41.1108 14.1355 41.0974 14.4039L41.0924 14.5039L40.9931 14.5167C40.8437 14.5358 37.3159 14.964 35.4799 12.8822C34.3921 11.649 34.1454 9.79934 34.7457 7.38344C34.6365 7.36201 34.5319 7.32172 34.4366 7.26437C34.2778 7.15449 34.1449 7.01129 34.0472 6.84478C33.9495 6.67826 33.8892 6.49242 33.8707 6.30024L33.769 6.32749C30.5027 4.73808 33.3167 0.0885122 36.3002 2.40018C36.5618 2.34171 36.8346 2.35739 37.0879 2.44545C37.3322 2.54483 37.545 2.70844 37.7038 2.91895C37.8626 3.12945 37.9615 3.37901 37.9901 3.64117C39.5315 2.83037 41.5716 2.96231 42.6268 3.57064C43.0685 3.82539 43.3222 4.14622 43.3673 4.50413C44.6135 4.57372 45.9539 5.7877 45.9539 7.50766V7.62743H45.8341C45.3328 7.6381 44.8437 7.78495 44.4194 8.05224C43.9951 8.31953 43.6514 8.6972 43.4253 9.14481C43.1188 9.69851 42.9671 10.3245 42.9862 10.9571C43.0052 11.5897 43.1943 12.2055 43.5336 12.7397C43.9028 13.3064 44.1549 13.9412 44.2751 14.6068C44.3952 15.2724 44.3809 15.9553 44.233 16.6153L43.783 18.5875L43.6281 18.3664Z" fill="#2F2E41"/>
<path d="M57.5461 99.3135C57.5462 99.3448 57.5401 99.3759 57.5281 99.4048C57.5161 99.4338 57.4986 99.4602 57.4764 99.4823C57.4542 99.5045 57.4279 99.522 57.3989 99.534C57.3699 99.546 57.3389 99.5521 57.3076 99.552H1.1312C1.06795 99.552 1.00728 99.5268 0.962556 99.4821C0.917828 99.4374 0.8927 99.3767 0.8927 99.3135C0.8927 99.2502 0.917828 99.1895 0.962556 99.1448C1.00728 99.1001 1.06795 99.075 1.1312 99.075H57.3076C57.3389 99.0749 57.37 99.081 57.3989 99.0929C57.4279 99.1049 57.4542 99.1224 57.4764 99.1446C57.4986 99.1668 57.5161 99.1931 57.5281 99.2221C57.5401 99.2511 57.5462 99.2821 57.5461 99.3135Z" fill="#CCCCCC"/>
<path d="M134.107 99.3135C134.107 99.3448 134.101 99.3759 134.089 99.4048C134.077 99.4338 134.06 99.4602 134.038 99.4823C134.016 99.5045 133.989 99.522 133.96 99.534C133.931 99.546 133.9 99.5521 133.869 99.552H77.6925C77.6292 99.552 77.5686 99.5268 77.5238 99.4821C77.4791 99.4374 77.454 99.3767 77.454 99.3135C77.454 99.2502 77.4791 99.1895 77.5238 99.1448C77.5686 99.1001 77.6292 99.075 77.6925 99.075H133.869C133.9 99.0749 133.931 99.081 133.96 99.0929C133.989 99.1049 134.016 99.1224 134.038 99.1446C134.06 99.1668 134.077 99.1931 134.089 99.2221C134.101 99.2511 134.107 99.2821 134.107 99.3135Z" fill="#CCCCCC"/>
<path d="M65.2855 82.1248C66.4578 82.1248 67.4081 81.1745 67.4081 80.0022C67.4081 78.83 66.4578 77.8796 65.2855 77.8796C64.1133 77.8796 63.163 78.83 63.163 80.0022C63.163 81.1745 64.1133 82.1248 65.2855 82.1248Z" fill="#E6E6E6"/>
<path d="M79.5155 84.3294C80.6878 84.3294 81.6381 83.3791 81.6381 82.2068C81.6381 81.0345 80.6878 80.0842 79.5155 80.0842C78.3433 80.0842 77.3929 81.0345 77.3929 82.2068C77.3929 83.3791 78.3433 84.3294 79.5155 84.3294Z" fill="#E6E6E6"/>
<path d="M93.7455 81.7239C94.9178 81.7239 95.8681 80.7736 95.8681 79.6013C95.8681 78.4291 94.9178 77.4788 93.7455 77.4788C92.5732 77.4788 91.6229 78.4291 91.6229 79.6013C91.6229 80.7736 92.5732 81.7239 93.7455 81.7239Z" fill="#E6E6E6"/>
</g>
<defs>
<clipPath id="clip0_37_68">
<rect width="133.215" height="100" fill="white" transform="translate(0.8927)"/>
</clipPath>
</defs>
</svg>
