<svg width="224" height="190" viewBox="0 0 224 190" fill="none" xmlns="http://www.w3.org/2000/svg">
<path d="M0.5 16.9111C0.5 8.35073 7.43959 1.41113 16 1.41113H208C216.56 1.41113 223.5 8.35072 223.5 16.9111V173.711C223.5 182.272 216.56 189.211 208 189.211H16C7.43959 189.211 0.5 182.272 0.5 173.711V16.9111Z" fill="#FAFAFA"/>
<path d="M0.5 16.9111C0.5 8.35073 7.43959 1.41113 16 1.41113H208C216.56 1.41113 223.5 8.35072 223.5 16.9111V173.711C223.5 182.272 216.56 189.211 208 189.211H16C7.43959 189.211 0.5 182.272 0.5 173.711V16.9111Z" stroke="#F0F0F0"/>
<g clip-path="url(#clip0_52_205)">
<path d="M87.7499 136.358C88.368 131.388 91.4481 126.491 96.1879 124.874C94.3187 129.99 94.3191 135.601 96.1891 140.717C96.9174 142.687 97.9326 144.802 97.2475 146.788C96.8213 148.023 95.7785 148.968 94.6129 149.559C93.4472 150.15 92.1535 150.432 90.876 150.708L90.6246 150.916C88.5966 146.337 87.1318 141.328 87.7499 136.358Z" fill="#F0F0F0"/>
<path d="M96.235 124.968C93.4748 128.061 91.7592 131.945 91.332 136.068C91.2242 136.954 91.2568 137.851 91.4286 138.727C91.6235 139.575 92.0418 140.355 92.6401 140.987C93.1862 141.587 93.8143 142.137 94.205 142.859C94.3995 143.232 94.513 143.642 94.5381 144.061C94.5633 144.481 94.4994 144.901 94.3507 145.294C94.0057 146.284 93.3258 147.09 92.6335 147.856C91.8649 148.706 91.053 149.577 90.7263 150.703C90.6867 150.84 90.4771 150.771 90.5167 150.634C91.0851 148.674 92.9883 147.56 93.8959 145.794C94.3195 144.97 94.4972 144.014 94.1002 143.144C93.753 142.383 93.1058 141.815 92.5477 141.212C91.9549 140.605 91.5199 139.861 91.2807 139.047C91.0649 138.183 90.9978 137.288 91.0822 136.401C91.2404 134.402 91.712 132.44 92.4797 130.586C93.3441 128.467 94.5648 126.51 96.089 124.802C96.1834 124.697 96.3288 124.863 96.235 124.968Z" fill="white"/>
<path d="M91.3913 134.732C90.7092 134.567 90.1082 134.164 89.6956 133.596C89.283 133.028 89.0857 132.332 89.1389 131.632C89.1501 131.491 89.3707 131.502 89.3594 131.643C89.3087 132.295 89.4925 132.943 89.8778 133.471C90.2631 133.999 90.8245 134.372 91.4605 134.523C91.5987 134.555 91.5287 134.765 91.3913 134.732Z" fill="white"/>
<path d="M92.3232 140.719C93.5551 139.983 94.4645 138.811 94.8701 137.434C94.9102 137.298 95.1197 137.367 95.0797 137.504C94.655 138.935 93.7061 140.154 92.4225 140.916C92.3001 140.989 92.2015 140.791 92.3232 140.719Z" fill="white"/>
<path d="M93.5489 128.676C93.7994 128.795 94.0756 128.85 94.3527 128.836C94.6297 128.822 94.8989 128.739 95.1362 128.595C95.2576 128.521 95.3561 128.719 95.2354 128.792C94.9726 128.95 94.6752 129.041 94.3691 129.057C94.063 129.073 93.7577 129.014 93.4796 128.885C93.4524 128.875 93.43 128.855 93.417 128.83C93.4039 128.804 93.4012 128.774 93.4094 128.746C93.4188 128.718 93.4386 128.695 93.4647 128.682C93.4908 128.669 93.5211 128.667 93.5489 128.676Z" fill="white"/>
<path d="M110.636 133.751C110.561 133.799 110.487 133.848 110.412 133.898C109.414 134.554 108.471 135.291 107.592 136.1C107.523 136.161 107.454 136.225 107.387 136.288C105.29 138.26 103.578 140.604 102.336 143.202C101.844 144.235 101.43 145.305 101.099 146.402C100.643 147.917 100.269 149.595 99.3651 150.834C99.2722 150.964 99.1714 151.089 99.0632 151.207H90.898C90.8794 151.197 90.8608 151.19 90.8421 151.18L90.5161 151.195C90.5292 151.138 90.544 151.078 90.5571 151.02C90.5646 150.987 90.5739 150.953 90.5813 150.92C90.5869 150.897 90.5925 150.875 90.5963 150.854C90.5981 150.847 90.6 150.84 90.6018 150.834C90.6055 150.813 90.6112 150.795 90.6149 150.776C90.6969 150.443 90.7813 150.109 90.8682 149.776C90.8682 149.774 90.8682 149.774 90.8701 149.772C91.5389 147.233 92.4256 144.727 93.6645 142.436C93.7017 142.367 93.739 142.296 93.78 142.227C94.3441 141.197 94.9915 140.216 95.7156 139.291C96.1137 138.786 96.5371 138.302 96.9843 137.84C98.1418 136.648 99.4796 135.646 100.949 134.87C103.877 133.324 107.268 132.732 110.397 133.676C110.477 133.701 110.556 133.725 110.636 133.751Z" fill="#F0F0F0"/>
<path d="M110.617 133.855C106.551 134.662 102.843 136.73 100.02 139.765C99.4001 140.408 98.8858 141.144 98.4956 141.947C98.1407 142.741 98.005 143.616 98.1026 144.48C98.1774 145.288 98.3474 146.106 98.2245 146.918C98.1555 147.332 97.9995 147.728 97.7669 148.078C97.5343 148.428 97.2303 148.725 96.8749 148.95C96.0037 149.532 94.9753 149.766 93.9616 149.961C92.8362 150.177 91.6637 150.383 90.7244 151.086C90.6105 151.171 90.485 150.99 90.5987 150.905C92.233 149.682 94.423 149.938 96.2109 149.075C97.0451 148.672 97.763 148.015 97.9697 147.082C98.1504 146.265 97.9757 145.422 97.893 144.605C97.7854 143.763 97.8856 142.907 98.1849 142.113C98.533 141.293 99.0181 140.538 99.6194 139.881C100.95 138.38 102.507 137.097 104.236 136.08C106.203 134.908 108.355 134.081 110.6 133.634C110.739 133.607 110.755 133.827 110.617 133.855Z" fill="white"/>
<path d="M100.871 138.734C100.426 138.192 100.189 137.508 100.201 136.806C100.214 136.105 100.475 135.43 100.939 134.903C101.033 134.797 101.203 134.939 101.109 135.045C100.676 135.535 100.432 136.163 100.422 136.817C100.412 137.47 100.635 138.106 101.053 138.609C101.143 138.718 100.961 138.843 100.871 138.734Z" fill="white"/>
<path d="M98.0106 144.076C99.4371 144.23 100.869 143.841 102.022 142.986C102.136 142.902 102.261 143.083 102.147 143.168C100.947 144.055 99.4553 144.457 97.9712 144.293C97.8298 144.277 97.87 144.06 98.0106 144.076Z" fill="white"/>
<path d="M106.24 135.198C106.369 135.444 106.556 135.654 106.786 135.81C107.015 135.965 107.28 136.061 107.556 136.089C107.698 136.103 107.657 136.32 107.517 136.306C107.212 136.274 106.92 136.168 106.666 135.996C106.411 135.825 106.203 135.594 106.059 135.324C106.043 135.299 106.037 135.27 106.042 135.241C106.048 135.213 106.063 135.187 106.087 135.17C106.111 135.154 106.14 135.147 106.169 135.152C106.198 135.158 106.223 135.174 106.24 135.198Z" fill="white"/>
<path d="M115.273 40.5461C114.927 40.5465 114.596 40.684 114.351 40.9285C114.107 41.173 113.969 41.5045 113.969 41.8502V96.993C113.969 97.3388 114.107 97.6702 114.351 97.9147C114.596 98.1591 114.927 98.2966 115.273 98.297H196.124C196.47 98.2966 196.802 98.1591 197.046 97.9147C197.29 97.6702 197.428 97.3388 197.428 96.993V41.8502C197.428 41.5045 197.291 41.173 197.046 40.9285C196.802 40.6841 196.47 40.5465 196.124 40.5461H115.273Z" fill="#E6E6E6"/>
<path d="M117.136 42.4089C116.79 42.4093 116.459 42.5468 116.214 42.7913C115.97 43.0358 115.832 43.3673 115.832 43.713V95.1299C115.832 95.4756 115.97 95.8071 116.214 96.0516C116.459 96.296 116.79 96.4335 117.136 96.4339H194.262C194.607 96.4335 194.939 96.296 195.183 96.0515C195.428 95.8071 195.565 95.4756 195.566 95.1299V43.713C195.565 43.3673 195.428 43.0358 195.183 42.7913C194.939 42.5469 194.607 42.4093 194.262 42.4089H117.136Z" fill="white"/>
<path opacity="0.1" d="M188.297 53.6526C186.524 52.9601 184.611 54.6968 184.196 56.5548C183.78 58.4129 184.312 60.3345 184.429 62.2349C184.546 64.1352 184.048 66.3419 182.353 67.2083C180.403 68.2045 178.116 66.9094 175.936 66.7121C174.847 66.6257 173.755 66.8167 172.76 67.2672C171.765 67.7178 170.901 68.4132 170.249 69.2885C168.45 71.7556 168.542 75.3379 166.414 77.5269C164.565 79.4289 161.552 79.6765 158.965 79.0884C156.379 78.5002 154.001 77.2225 151.458 76.4692C148.914 75.7159 145.971 75.5586 143.791 77.0705C141.516 78.6488 140.503 81.7426 138.005 82.938C136.239 83.7833 134.149 83.4608 132.259 82.949C130.369 82.4372 128.463 81.7467 126.512 81.9109C124.561 82.0752 122.526 83.4214 122.372 85.3734L189.337 85.1864C189.641 76.3475 189.946 67.5087 190.25 58.6698C190.316 56.7497 190.087 54.3513 188.297 53.6526Z" fill="#4B4BFA"/>
<path d="M88.0767 101.08C87.9601 100.772 87.9123 100.443 87.9366 100.116C87.9609 99.7879 88.0568 99.4695 88.2175 99.1828C88.3782 98.8961 88.5998 98.6482 88.8667 98.4564C89.1336 98.2646 89.4393 98.1337 89.7622 98.0729L90.9386 90.1714L94.0299 92.9422L92.4389 100.021C92.5051 100.57 92.3675 101.125 92.0522 101.579C91.7369 102.034 91.2658 102.357 90.7281 102.488C90.1904 102.618 89.6235 102.547 89.1349 102.288C88.6462 102.028 88.2697 101.598 88.0767 101.08Z" fill="#FFB6B6"/>
<path d="M66.5053 102.279C66.7061 102.019 66.8473 101.718 66.9191 101.397C66.991 101.077 66.9916 100.744 66.921 100.423C66.8504 100.102 66.7103 99.8005 66.5105 99.5395C66.3107 99.2786 66.0562 99.0646 65.7648 98.9127L66.9318 91.0098L63.1695 92.7644L62.6381 100C62.4153 100.507 62.386 101.077 62.5558 101.604C62.7256 102.13 63.0827 102.576 63.5594 102.857C64.0361 103.138 64.5993 103.235 65.1422 103.128C65.6852 103.021 66.1702 102.719 66.5053 102.279Z" fill="#FFB6B6"/>
<path d="M83.0423 147.718L86.5329 147.718L88.1935 134.254L83.0417 134.254L83.0423 147.718Z" fill="#FFB6B6"/>
<path d="M82.1519 146.578L89.0262 146.578H89.0265C90.1883 146.578 91.3026 147.04 92.1241 147.861C92.9457 148.683 93.4073 149.797 93.4074 150.959V151.101L82.1521 151.102L82.1519 146.578Z" fill="#2F2E41"/>
<path d="M64.4129 147.718L67.9035 147.718L69.5641 134.254L64.4124 134.254L64.4129 147.718Z" fill="#FFB6B6"/>
<path d="M63.5227 146.578L70.3971 146.578H70.3973C71.5592 146.578 72.6734 147.04 73.495 147.861C74.3165 148.683 74.7781 149.797 74.7782 150.959V151.101L63.5229 151.102L63.5227 146.578Z" fill="#2F2E41"/>
<path d="M80.8403 55.8136C84.3228 55.8136 87.1459 52.9905 87.1459 49.508C87.1459 46.0255 84.3228 43.2024 80.8403 43.2024C77.3578 43.2024 74.5347 46.0255 74.5347 49.508C74.5347 52.9905 77.3578 55.8136 80.8403 55.8136Z" fill="#FFB6B6"/>
<path d="M65.9137 94.9681C65.9137 94.9681 66.0065 123.185 65.5561 123.635C65.1057 124.086 63.5068 140.961 63.5068 140.961H69.0956C69.4682 140.961 78.9753 104.201 78.9753 104.201C78.9753 104.201 83.0289 124.019 82.3533 125.145C81.6777 126.271 82.2044 141.032 82.5785 142.26C82.5785 142.26 87.2746 143.763 87.725 142.637C88.1754 141.511 88.8427 126.243 88.8427 126.243L90.1468 100.907L90.1753 94.2925L65.9137 94.9681Z" fill="#2F2E41"/>
<path d="M91.8119 62.5391H94.3209C94.5053 62.539 94.6842 62.6016 94.8282 62.7167C94.9722 62.8318 95.0727 62.9926 95.1133 63.1724C95.5004 64.8868 96.4981 69.7466 96.3159 73.5739C96.0907 78.3031 95.6403 85.7348 95.6403 86.4104C95.6403 87.086 93.3883 97.4452 93.3883 97.4452C93.3883 97.4452 91.8401 94.9006 90.137 95.3847L90.4607 86.1852L90.9111 82.3568L90.2355 75.6007L91.8119 62.5391Z" fill="#E4E4E4"/>
<path d="M75.8225 58.4158C75.8225 58.4158 67.8278 61.0752 66.927 63.3272C66.0263 65.5792 70.3997 81.9053 70.3997 81.9053C70.3997 81.9053 68.723 89.357 66.4766 96.4317C65.4543 99.6513 75.2103 96.8949 79.7143 95.3184C82.5052 94.3505 87.6673 95.8369 90.5731 95.3057C90.5731 95.3057 91.0235 89.2253 90.5731 88.0993C90.1227 86.9733 88.9967 87.6489 89.6723 86.0725C90.3479 84.4961 90.1227 84.2709 89.8975 83.5953C89.6723 82.9197 90.348 82.0189 90.348 81.1181C90.348 80.2173 90.1228 78.1904 90.1228 78.1904C90.1228 78.1904 96.2032 64.0028 94.852 62.6516C93.5008 61.3004 86.6228 58.6968 86.6228 58.6968C86.6228 58.6968 86.7935 58.8049 75.8225 58.4158Z" fill="#E4E4E4"/>
<path d="M68.3909 62.5391L67.5911 62.939C67.2797 63.0946 67.0087 63.3202 66.7991 63.5981C66.5895 63.876 66.447 64.1986 66.3829 64.5407L63.2112 81.4559L62.5356 97.4452C62.5356 97.4452 66.3641 96.3192 67.4901 97.4452C67.4901 97.4452 66.3641 94.0672 67.0397 92.9412C67.7153 91.8152 67.7153 90.2388 67.7153 90.2388C67.7153 90.2388 67.2649 90.2388 68.3909 89.1128C69.5169 87.9868 69.7421 87.5364 69.5169 87.3112C69.2917 87.086 69.0665 85.0592 69.0665 84.834C69.0665 84.6088 71.3185 69.5203 71.3185 69.5203L68.3909 62.5391Z" fill="#E4E4E4"/>
<path d="M122.052 85.1559C121.953 85.1559 121.858 85.1167 121.788 85.0468C121.718 84.9769 121.679 84.8821 121.679 84.7833C121.679 84.6845 121.718 84.5897 121.788 84.5199C121.858 84.45 121.953 84.4107 122.052 84.4107C139.268 84.4107 155.687 80.9636 168.284 74.7042C180.096 68.8347 187.624 60.8754 188.936 52.8669C188.944 52.8186 188.961 52.7722 188.986 52.7305C189.012 52.6888 189.046 52.6526 189.086 52.624C189.125 52.5953 189.17 52.5747 189.218 52.5635C189.266 52.5522 189.315 52.5504 189.363 52.5583C189.412 52.5661 189.458 52.5834 189.5 52.6092C189.541 52.635 189.577 52.6687 189.606 52.7084C189.635 52.7482 189.655 52.7932 189.666 52.8409C189.678 52.8886 189.679 52.938 189.671 52.9863L189.671 52.9874C188.99 57.1474 186.777 61.2281 183.096 65.1163C179.465 68.951 174.593 72.4015 168.616 75.3715C155.917 81.6811 139.381 85.1559 122.052 85.1559Z" fill="#4B4BFA"/>
<path d="M192.771 85.231H121.607V50.0723H121.98V84.8585H192.771V85.231Z" fill="#E6E6E6"/>
<path d="M74.8968 51.6323C74.6086 50.9249 74.5623 50.1421 74.765 49.4056C75.28 50.7717 76.3034 50.3547 76.8248 49.7141C77.4788 48.9106 77.2905 47.0552 78.323 46.9722C79.3555 46.8892 80.3879 47.0846 81.4053 47.2791C81.2367 46.9904 81.0682 46.7018 80.8996 46.4131C81.6356 46.4588 82.3715 46.5045 83.1075 46.5502C82.8884 46.1896 82.6693 45.8291 82.4501 45.4685C83.4506 45.8201 84.3658 46.3786 85.136 47.1075C85.9063 47.8364 86.5143 48.7194 86.9205 49.699C87.3022 49.0811 87.54 48.3853 87.6163 47.663C87.6926 46.9407 87.6053 46.2105 87.3611 45.5265C87.1168 44.8425 86.7218 44.2223 86.2053 43.7117C85.6887 43.2011 85.0639 42.8132 84.3772 42.5769C84.6675 42.196 84.9578 41.8151 85.2481 41.4342L79.3387 40.8511C79.3239 40.5662 79.3789 40.2821 79.4987 40.0233C79.6185 39.7645 79.7996 39.5388 80.0263 39.3657C79.2525 39.191 78.4317 39.4531 77.7742 39.8968C77.1166 40.3406 76.5937 40.9525 76.0795 41.5566C75.3009 42.4712 74.5129 43.4001 74.0033 44.4877C73.4805 45.6455 73.2873 46.9251 73.445 48.1857C73.6026 49.4463 74.105 50.6389 74.8968 51.6323ZM74.9683 48.8574L74.9684 48.8571L74.9743 48.8561L74.9683 48.8574Z" fill="#2F2E41"/>
<path d="M147.38 151.311H26.7937C26.735 151.311 26.6787 151.287 26.6373 151.246C26.5958 151.204 26.5725 151.148 26.5725 151.089C26.5725 151.031 26.5958 150.974 26.6373 150.933C26.6787 150.891 26.735 150.868 26.7937 150.867H147.38C147.439 150.868 147.495 150.891 147.537 150.933C147.578 150.974 147.601 151.031 147.601 151.089C147.601 151.148 147.578 151.204 147.537 151.246C147.495 151.287 147.439 151.311 147.38 151.311Z" fill="#CACACA"/>
</g>
<defs>
<clipPath id="clip0_52_205">
<rect width="170.857" height="112" fill="white" transform="translate(26.5718 39.311)"/>
</clipPath>
</defs>
</svg>
