<svg width="224" height="190" viewBox="0 0 224 190" fill="none" xmlns="http://www.w3.org/2000/svg">
<path d="M0.5 16.9111C0.5 8.35073 7.43959 1.41113 16 1.41113H208C216.56 1.41113 223.5 8.35072 223.5 16.9111V173.711C223.5 182.272 216.56 189.211 208 189.211H16C7.43959 189.211 0.5 182.272 0.5 173.711V16.9111Z" fill="#FAFAFA"/>
<path d="M0.5 16.9111C0.5 8.35073 7.43959 1.41113 16 1.41113H208C216.56 1.41113 223.5 8.35072 223.5 16.9111V173.711C223.5 182.272 216.56 189.211 208 189.211H16C7.43959 189.211 0.5 182.272 0.5 173.711V16.9111Z" stroke="#F0F0F0"/>
<g clip-path="url(#clip0_51_435)">
<path d="M163.645 97.5976C163.662 111.456 158.305 124.782 148.701 134.773C148.122 135.38 147.527 135.971 146.917 136.548C145.987 137.433 145.026 138.283 144.034 139.099C134.752 146.746 123.164 151.043 111.14 151.297C110.739 151.307 110.337 151.311 109.933 151.311C100.344 151.311 88.2824 146.189 77.3369 139.099C76.4313 138.512 75.5338 137.912 74.6443 137.298C74.2286 137.014 73.8148 136.726 73.4031 136.433C69.1816 133.452 65.1745 130.179 61.4114 126.637C58.9475 124.324 56.6371 121.854 54.4948 119.241C46.0845 108.867 44.2295 99.5192 56.2198 97.5976C57.6394 97.3709 59.0172 97.1285 60.3531 96.8705C62.2882 96.4985 64.1402 96.0969 65.909 95.6655C68.2917 95.0865 70.5302 94.4586 72.6245 93.7818C73.329 93.555 74.0174 93.3237 74.6897 93.0879C84.6284 89.5971 91.2804 85.045 95.8083 80.1059C96.5763 79.2699 97.2843 78.4237 97.9324 77.5675C98.9239 76.2643 99.8246 74.8944 100.628 73.4675C101.737 71.4849 102.668 69.4081 103.411 67.2615L103.452 67.1436C107.055 56.7513 105.959 47.112 109.933 43.8857C126.923 30.0934 148.075 49.735 158.003 72.8975C158.503 74.0647 158.974 75.2388 159.415 76.4201C159.613 76.9477 159.804 77.4763 159.988 78.006C160.472 79.3863 160.911 80.7701 161.305 82.1574C161.456 82.6866 161.6 83.2152 161.737 83.7433C161.884 84.3133 162.024 84.8817 162.154 85.4502C163.12 89.6122 163.645 93.7168 163.645 97.5976Z" fill="#F2F2F2"/>
<path d="M111.14 151.297C110.739 151.306 110.337 151.311 109.933 151.311C100.344 151.311 88.2824 146.189 77.3368 139.098C76.4313 138.512 75.5337 137.912 74.6443 137.298L75.4244 132.551L99.0405 129.415L110.893 138.479L111.14 151.297Z" fill="#2F2E41"/>
<path d="M112.276 66.5312H108.911C108.807 66.5313 108.707 66.5727 108.633 66.6464C108.56 66.7201 108.518 66.8201 108.518 66.9243V70.2911C108.518 70.3427 108.528 70.3937 108.548 70.4412C108.568 70.4888 108.597 70.532 108.633 70.5684C108.67 70.6048 108.713 70.6336 108.761 70.6532C108.809 70.6728 108.86 70.6828 108.911 70.6827H112.276C112.38 70.6827 112.48 70.6415 112.554 70.5681C112.628 70.4947 112.669 70.3951 112.67 70.2911V66.9243C112.669 66.8201 112.628 66.7203 112.554 66.6467C112.48 66.5731 112.381 66.5315 112.276 66.5312Z" fill="white"/>
<path d="M112.276 72.2686H108.911C108.807 72.2686 108.707 72.31 108.633 72.3837C108.56 72.4574 108.518 72.5574 108.518 72.6616V76.0284C108.518 76.08 108.528 76.131 108.548 76.1786C108.568 76.2262 108.597 76.2694 108.633 76.3057C108.67 76.3421 108.713 76.3709 108.761 76.3905C108.809 76.4101 108.86 76.4202 108.911 76.42H112.276C112.38 76.42 112.48 76.3789 112.554 76.3055C112.628 76.2321 112.669 76.1324 112.67 76.0284V72.6616C112.669 72.5575 112.628 72.4577 112.554 72.384C112.48 72.3104 112.381 72.2689 112.276 72.2686Z" fill="#E6E6E6"/>
<path d="M112.276 78.0059H108.911C108.807 78.0059 108.707 78.0473 108.633 78.1211C108.56 78.1948 108.518 78.2947 108.518 78.3989V81.7643C108.518 81.8159 108.528 81.8671 108.548 81.9148C108.567 81.9625 108.596 82.0059 108.633 82.0424C108.669 82.0789 108.713 82.1079 108.761 82.1276C108.808 82.1473 108.859 82.1574 108.911 82.1573H112.276C112.381 82.1573 112.481 82.1158 112.554 82.0421C112.628 81.9684 112.669 81.8685 112.67 81.7643V78.3989C112.669 78.2948 112.628 78.195 112.554 78.1213C112.48 78.0477 112.381 78.0062 112.276 78.0059Z" fill="#E6E6E6"/>
<path d="M112.663 84.0667C112.647 83.9762 112.599 83.8943 112.528 83.8353C112.458 83.7762 112.369 83.7436 112.276 83.7432H108.911C108.807 83.7432 108.707 83.7847 108.633 83.8584C108.56 83.9321 108.518 84.032 108.518 84.1363V87.5016C108.518 87.5532 108.528 87.6044 108.548 87.6521C108.567 87.6998 108.596 87.7432 108.633 87.7797C108.669 87.8163 108.713 87.8452 108.761 87.8649C108.808 87.8846 108.859 87.8947 108.911 87.8946H112.276C112.381 87.8946 112.481 87.8532 112.554 87.7795C112.628 87.7057 112.669 87.6058 112.67 87.5016V84.1363C112.67 84.1129 112.668 84.0896 112.663 84.0667Z" fill="#E6E6E6"/>
<path d="M112.429 89.511C112.381 89.4909 112.329 89.4807 112.276 89.4807H108.911C108.859 89.4806 108.808 89.4907 108.761 89.5104C108.713 89.5301 108.669 89.5591 108.633 89.5956C108.596 89.6321 108.567 89.6755 108.548 89.7232C108.528 89.771 108.518 89.8221 108.518 89.8738V93.2391C108.518 93.2908 108.528 93.342 108.548 93.3898C108.567 93.4376 108.596 93.481 108.633 93.5176C108.669 93.5541 108.713 93.5831 108.76 93.6027C108.808 93.6224 108.859 93.6324 108.911 93.6322H112.276C112.381 93.6321 112.481 93.5907 112.554 93.517C112.628 93.4433 112.669 93.3433 112.67 93.2391V89.8738C112.669 89.7964 112.646 89.7208 112.604 89.6563C112.561 89.5918 112.5 89.5413 112.429 89.511Z" fill="#E6E6E6"/>
<path d="M119.346 66.5312H115.98C115.876 66.5313 115.776 66.5727 115.703 66.6464C115.629 66.7201 115.587 66.8201 115.587 66.9243V70.2911C115.587 70.3427 115.598 70.3937 115.617 70.4412C115.637 70.4888 115.666 70.532 115.703 70.5684C115.739 70.6048 115.783 70.6336 115.83 70.6532C115.878 70.6728 115.929 70.6828 115.98 70.6827H119.346C119.45 70.6827 119.55 70.6415 119.623 70.5681C119.697 70.4947 119.738 70.3951 119.739 70.2911V66.9243C119.739 66.8201 119.697 66.7203 119.623 66.6467C119.55 66.5731 119.45 66.5315 119.346 66.5312Z" fill="#E6E6E6"/>
<path d="M119.346 72.2686H115.98C115.876 72.2686 115.776 72.31 115.703 72.3837C115.629 72.4574 115.587 72.5574 115.587 72.6616V76.0284C115.587 76.08 115.598 76.131 115.617 76.1786C115.637 76.2262 115.666 76.2694 115.703 76.3057C115.739 76.3421 115.783 76.3709 115.83 76.3905C115.878 76.4101 115.929 76.4202 115.98 76.42H119.346C119.45 76.42 119.55 76.3789 119.623 76.3055C119.697 76.2321 119.738 76.1324 119.739 76.0284V72.6616C119.739 72.5575 119.697 72.4577 119.623 72.384C119.55 72.3104 119.45 72.2689 119.346 72.2686Z" fill="#4B4BFA"/>
<path d="M119.346 78.0059H115.98C115.876 78.0059 115.776 78.0473 115.703 78.1211C115.629 78.1948 115.587 78.2947 115.587 78.3989V81.7643C115.587 81.8159 115.597 81.8671 115.617 81.9148C115.637 81.9625 115.666 82.0059 115.702 82.0424C115.739 82.0789 115.782 82.1079 115.83 82.1276C115.878 82.1473 115.929 82.1574 115.98 82.1573H119.346C119.45 82.1573 119.55 82.1158 119.624 82.0421C119.697 81.9684 119.739 81.8685 119.739 81.7643V78.3989C119.739 78.2948 119.697 78.195 119.623 78.1213C119.55 78.0477 119.45 78.0062 119.346 78.0059Z" fill="#4B4BFA"/>
<path d="M119.346 83.7432H115.98C115.898 83.7432 115.818 83.7693 115.751 83.8176C115.684 83.8659 115.634 83.934 115.609 84.0123C115.595 84.0521 115.587 84.094 115.587 84.1362V87.5016C115.587 87.5532 115.597 87.6044 115.617 87.6521C115.637 87.6998 115.666 87.7432 115.702 87.7797C115.739 87.8162 115.782 87.8452 115.83 87.8649C115.878 87.8846 115.929 87.8947 115.98 87.8946H119.346C119.45 87.8946 119.55 87.8532 119.624 87.7794C119.697 87.7057 119.739 87.6058 119.739 87.5016V84.1362C119.739 84.0321 119.697 83.9323 119.623 83.8586C119.55 83.785 119.45 83.7435 119.346 83.7432Z" fill="#4B4BFA"/>
<path d="M119.346 89.4807H115.98C115.929 89.4806 115.878 89.4907 115.83 89.5104C115.782 89.5301 115.739 89.5591 115.702 89.5956C115.666 89.6321 115.637 89.6755 115.617 89.7232C115.597 89.771 115.587 89.8221 115.587 89.8738V93.2391C115.587 93.2907 115.597 93.3419 115.617 93.3896C115.637 93.4374 115.666 93.4807 115.702 93.5173C115.739 93.5538 115.782 93.5827 115.83 93.6025C115.878 93.6222 115.929 93.6323 115.98 93.6322H119.346C119.45 93.6321 119.55 93.5907 119.624 93.517C119.697 93.4433 119.739 93.3433 119.739 93.2391V89.8738C119.739 89.7696 119.697 89.6696 119.624 89.5959C119.55 89.5222 119.45 89.4808 119.346 89.4807Z" fill="#E6E6E6"/>
<path d="M126.415 66.5312H123.05C122.946 66.5313 122.846 66.5727 122.772 66.6464C122.698 66.7201 122.657 66.8201 122.657 66.9243V70.2911C122.657 70.3427 122.667 70.3937 122.687 70.4412C122.707 70.4888 122.736 70.532 122.772 70.5684C122.809 70.6048 122.852 70.6336 122.9 70.6532C122.947 70.6728 122.998 70.6828 123.05 70.6827H126.415C126.519 70.6827 126.619 70.6415 126.693 70.5681C126.766 70.4947 126.808 70.3951 126.808 70.2911V66.9243C126.808 66.8201 126.766 66.7203 126.693 66.6467C126.619 66.5731 126.519 66.5315 126.415 66.5312Z" fill="#4B4BFA"/>
<path d="M126.415 72.2686H123.05C122.946 72.2686 122.846 72.31 122.772 72.3837C122.698 72.4574 122.657 72.5574 122.657 72.6616V76.0284C122.657 76.08 122.667 76.131 122.687 76.1786C122.707 76.2262 122.736 76.2694 122.772 76.3057C122.809 76.3421 122.852 76.3709 122.9 76.3905C122.947 76.4101 122.998 76.4202 123.05 76.42H126.415C126.519 76.42 126.619 76.3789 126.693 76.3055C126.766 76.2321 126.808 76.1324 126.808 76.0284V72.6616C126.808 72.5575 126.766 72.4577 126.693 72.384C126.619 72.3104 126.519 72.2689 126.415 72.2686Z" fill="#4B4BFA"/>
<path d="M126.415 78.0059H123.05C122.946 78.0059 122.846 78.0473 122.772 78.1211C122.698 78.1948 122.657 78.2947 122.657 78.3989V81.7643C122.657 81.8159 122.667 81.8671 122.686 81.9148C122.706 81.9625 122.735 82.0059 122.772 82.0424C122.808 82.0789 122.852 82.1079 122.899 82.1276C122.947 82.1473 122.998 82.1574 123.05 82.1573H126.415C126.519 82.1573 126.619 82.1158 126.693 82.0421C126.767 81.9684 126.808 81.8685 126.808 81.7643V78.3989C126.808 78.2948 126.766 78.195 126.693 78.1213C126.619 78.0477 126.519 78.0062 126.415 78.0059Z" fill="#E6E6E6"/>
<path d="M126.415 83.7432H123.05C122.946 83.7432 122.846 83.7847 122.772 83.8584C122.698 83.9321 122.657 84.032 122.657 84.1363V87.5016C122.657 87.5532 122.667 87.6044 122.686 87.6521C122.706 87.6998 122.735 87.7432 122.772 87.7797C122.808 87.8163 122.852 87.8452 122.899 87.8649C122.947 87.8846 122.998 87.8947 123.05 87.8946H126.415C126.519 87.8946 126.619 87.8532 126.693 87.7795C126.767 87.7057 126.808 87.6058 126.808 87.5016V84.1363C126.808 84.0321 126.766 83.9323 126.693 83.8586C126.619 83.785 126.519 83.7435 126.415 83.7432Z" fill="#4B4BFA"/>
<path d="M126.415 89.4807H123.05C122.998 89.4806 122.947 89.4907 122.899 89.5104C122.852 89.5301 122.808 89.5591 122.772 89.5956C122.735 89.6321 122.706 89.6755 122.686 89.7232C122.667 89.771 122.657 89.8221 122.657 89.8738V93.2391C122.657 93.2907 122.667 93.3419 122.686 93.3896C122.706 93.4374 122.735 93.4807 122.772 93.5173C122.808 93.5538 122.852 93.5827 122.899 93.6025C122.947 93.6222 122.998 93.6323 123.05 93.6322H126.415C126.519 93.6321 126.619 93.5907 126.693 93.517C126.767 93.4433 126.808 93.3433 126.808 93.2391V89.8738C126.808 89.7696 126.767 89.6696 126.693 89.5959C126.619 89.5222 126.519 89.4808 126.415 89.4807Z" fill="#4B4BFA"/>
<path d="M133.484 66.5312H130.119C130.015 66.5313 129.915 66.5727 129.841 66.6464C129.768 66.7201 129.726 66.8201 129.726 66.9243V70.2911C129.726 70.3427 129.736 70.3937 129.756 70.4413C129.776 70.4888 129.805 70.532 129.841 70.5684C129.878 70.6048 129.921 70.6336 129.969 70.6532C130.017 70.6728 130.068 70.6828 130.119 70.6827H133.484C133.588 70.6827 133.688 70.6415 133.762 70.5681C133.836 70.4947 133.877 70.3951 133.878 70.2911V66.9243C133.877 66.8201 133.836 66.7203 133.762 66.6467C133.688 66.5731 133.589 66.5315 133.484 66.5312Z" fill="#4B4BFA"/>
<path d="M133.484 72.2686H130.119C130.015 72.2686 129.915 72.31 129.841 72.3837C129.768 72.4574 129.726 72.5574 129.726 72.6616V76.0284C129.726 76.08 129.736 76.131 129.756 76.1786C129.776 76.2262 129.805 76.2694 129.841 76.3057C129.878 76.3421 129.921 76.3709 129.969 76.3905C130.017 76.4101 130.068 76.4202 130.119 76.42H133.484C133.588 76.42 133.688 76.3789 133.762 76.3055C133.836 76.2321 133.877 76.1324 133.878 76.0284V72.6616C133.877 72.5575 133.836 72.4577 133.762 72.384C133.688 72.3104 133.589 72.2689 133.484 72.2686Z" fill="white"/>
<path d="M133.484 78.0059H130.119C130.015 78.0059 129.915 78.0473 129.841 78.121C129.768 78.1948 129.726 78.2947 129.726 78.3989V81.7643C129.726 81.8159 129.736 81.8671 129.756 81.9148C129.776 81.9625 129.804 82.0059 129.841 82.0424C129.877 82.0789 129.921 82.1079 129.969 82.1276C130.016 82.1473 130.067 82.1574 130.119 82.1573H133.484C133.589 82.1573 133.689 82.1158 133.762 82.0421C133.836 81.9684 133.877 81.8685 133.878 81.7643V78.3989C133.877 78.2948 133.836 78.195 133.762 78.1213C133.688 78.0477 133.589 78.0062 133.484 78.0059Z" fill="white"/>
<path d="M133.484 83.7432H130.119C130.015 83.7432 129.915 83.7847 129.841 83.8584C129.768 83.9321 129.726 84.032 129.726 84.1363V87.5016C129.726 87.5532 129.736 87.6044 129.756 87.6521C129.776 87.6998 129.804 87.7432 129.841 87.7797C129.877 87.8163 129.921 87.8452 129.969 87.8649C130.016 87.8846 130.067 87.8947 130.119 87.8946H133.484C133.589 87.8946 133.689 87.8532 133.762 87.7795C133.836 87.7057 133.877 87.6058 133.878 87.5016V84.1363C133.877 84.0321 133.836 83.9323 133.762 83.8586C133.688 83.785 133.589 83.7435 133.484 83.7432Z" fill="#E6E6E6"/>
<path d="M133.484 89.4807H130.119C130.067 89.4806 130.016 89.4907 129.969 89.5104C129.921 89.5301 129.877 89.5591 129.841 89.5956C129.804 89.6321 129.776 89.6755 129.756 89.7232C129.736 89.771 129.726 89.8221 129.726 89.8738V93.2391C129.726 93.2907 129.736 93.3419 129.756 93.3896C129.776 93.4374 129.804 93.4808 129.841 93.5173C129.877 93.5538 129.921 93.5827 129.969 93.6025C130.016 93.6222 130.067 93.6323 130.119 93.6322H133.484C133.589 93.6321 133.689 93.5907 133.762 93.517C133.836 93.4433 133.877 93.3433 133.878 93.2391V89.8738C133.877 89.7696 133.836 89.6696 133.762 89.5959C133.689 89.5222 133.589 89.4808 133.484 89.4807Z" fill="#4B4BFA"/>
<path d="M140.554 66.5312H137.187C137.083 66.5316 136.983 66.5732 136.91 66.6469C136.836 66.7205 136.795 66.8203 136.795 66.9243V70.2911C136.795 70.395 136.836 70.4945 136.91 70.568C136.983 70.6414 137.083 70.6827 137.187 70.6827H140.554C140.658 70.6827 140.757 70.6415 140.831 70.5681C140.905 70.4947 140.946 70.3951 140.947 70.2911V66.9243C140.946 66.8201 140.905 66.7203 140.831 66.6467C140.758 66.5731 140.658 66.5315 140.554 66.5312Z" fill="white"/>
<path d="M140.554 72.2686H137.187C137.083 72.2689 136.983 72.3105 136.91 72.3842C136.836 72.4579 136.795 72.5576 136.795 72.6616V76.0284C136.795 76.1323 136.836 76.2319 136.91 76.3053C136.983 76.3787 137.083 76.42 137.187 76.42H140.554C140.658 76.42 140.757 76.3789 140.831 76.3055C140.905 76.2321 140.946 76.1324 140.947 76.0284V72.6616C140.946 72.5575 140.905 72.4577 140.831 72.384C140.758 72.3104 140.658 72.2689 140.554 72.2686Z" fill="white"/>
<path d="M140.554 78.0059H137.187C137.083 78.0062 136.983 78.0478 136.91 78.1215C136.836 78.1952 136.795 78.2949 136.795 78.3989V81.7643C136.795 81.8158 136.805 81.8668 136.825 81.9145C136.844 81.9622 136.873 82.0055 136.909 82.042C136.946 82.0785 136.989 82.1075 137.037 82.1273C137.084 82.147 137.135 82.1573 137.187 82.1573H140.554C140.658 82.1573 140.758 82.1158 140.831 82.0421C140.905 81.9684 140.947 81.8685 140.947 81.7643V78.3989C140.946 78.2948 140.905 78.195 140.831 78.1213C140.758 78.0477 140.658 78.0062 140.554 78.0059Z" fill="white"/>
<path d="M140.554 83.7432H137.187C137.083 83.7435 136.983 83.7851 136.91 83.8588C136.836 83.9325 136.795 84.0323 136.795 84.1363V87.5016C136.795 87.5531 136.805 87.6042 136.825 87.6518C136.844 87.6995 136.873 87.7428 136.909 87.7793C136.946 87.8158 136.989 87.8448 137.037 87.8646C137.084 87.8844 137.135 87.8946 137.187 87.8946H140.554C140.658 87.8946 140.758 87.8532 140.831 87.7795C140.905 87.7057 140.947 87.6058 140.947 87.5016V84.1363C140.946 84.0321 140.905 83.9323 140.831 83.8586C140.758 83.785 140.658 83.7435 140.554 83.7432Z" fill="#4B4BFA"/>
<path d="M140.554 89.4807H137.187C137.135 89.4808 137.084 89.491 137.037 89.5108C136.989 89.5306 136.946 89.5595 136.909 89.5961C136.873 89.6326 136.844 89.6759 136.825 89.7235C136.805 89.7712 136.795 89.8223 136.795 89.8738V93.2391C136.795 93.2906 136.805 93.3417 136.825 93.3893C136.844 93.437 136.873 93.4803 136.909 93.5168C136.946 93.5533 136.989 93.5823 137.037 93.6021C137.084 93.6219 137.135 93.6321 137.187 93.6322H140.554C140.658 93.6321 140.758 93.5907 140.831 93.517C140.905 93.4433 140.947 93.3433 140.947 93.2391V89.8738C140.947 89.7696 140.905 89.6696 140.831 89.5959C140.758 89.5222 140.658 89.4808 140.554 89.4807Z" fill="#E6E6E6"/>
<path d="M147.623 66.5312H144.256C144.152 66.5316 144.052 66.5732 143.979 66.6469C143.906 66.7205 143.864 66.8203 143.865 66.9243V70.2911C143.865 70.395 143.906 70.4945 143.979 70.568C144.053 70.6414 144.152 70.6827 144.256 70.6827H147.623C147.727 70.6827 147.827 70.6415 147.9 70.5681C147.974 70.4947 148.016 70.3951 148.016 70.2911V66.9243C148.016 66.8201 147.974 66.7203 147.9 66.6467C147.827 66.5731 147.727 66.5316 147.623 66.5312Z" fill="white"/>
<path d="M147.623 72.2686H144.256C144.152 72.2689 144.052 72.3105 143.979 72.3842C143.906 72.4579 143.864 72.5576 143.865 72.6616V76.0284C143.865 76.1323 143.906 76.2319 143.979 76.3053C144.053 76.3787 144.152 76.42 144.256 76.42H147.623C147.727 76.42 147.827 76.3789 147.9 76.3055C147.974 76.2321 148.016 76.1324 148.016 76.0284V72.6616C148.016 72.5575 147.974 72.4577 147.9 72.384C147.827 72.3104 147.727 72.2689 147.623 72.2686Z" fill="white"/>
<path d="M147.623 78.0059H144.256C144.152 78.0062 144.052 78.0478 143.979 78.1215C143.906 78.1952 143.864 78.2949 143.865 78.3989V81.7643C143.864 81.8158 143.874 81.8668 143.894 81.9145C143.914 81.9622 143.942 82.0055 143.979 82.042C144.015 82.0785 144.058 82.1075 144.106 82.1273C144.154 82.147 144.205 82.1573 144.256 82.1573H147.623C147.727 82.1573 147.827 82.1158 147.901 82.0421C147.974 81.9684 148.016 81.8685 148.016 81.7643V78.3989C148.016 78.2948 147.974 78.195 147.9 78.1213C147.827 78.0477 147.727 78.0062 147.623 78.0059Z" fill="#4B4BFA"/>
<path d="M147.623 83.7432H144.256C144.152 83.7435 144.052 83.7851 143.979 83.8588C143.906 83.9325 143.864 84.0323 143.865 84.1363V87.5016C143.864 87.5531 143.874 87.6042 143.894 87.6518C143.914 87.6995 143.942 87.7428 143.979 87.7793C144.015 87.8158 144.058 87.8448 144.106 87.8646C144.154 87.8844 144.205 87.8946 144.256 87.8946H147.623C147.727 87.8946 147.827 87.8532 147.901 87.7794C147.974 87.7057 148.016 87.6058 148.016 87.5016V84.1363C148.016 84.0321 147.974 83.9323 147.9 83.8586C147.827 83.785 147.727 83.7435 147.623 83.7432Z" fill="#E6E6E6"/>
<path d="M147.623 89.4807H144.256C144.205 89.4808 144.154 89.491 144.106 89.5108C144.058 89.5306 144.015 89.5595 143.979 89.5961C143.942 89.6326 143.914 89.6759 143.894 89.7235C143.874 89.7712 143.864 89.8223 143.865 89.8738V93.2391C143.864 93.2906 143.874 93.3417 143.894 93.3893C143.914 93.437 143.942 93.4803 143.979 93.5168C144.015 93.5533 144.058 93.5823 144.106 93.6021C144.154 93.6219 144.205 93.6321 144.256 93.6322H147.623C147.727 93.6321 147.827 93.5907 147.901 93.517C147.974 93.4433 148.016 93.3433 148.016 93.2391V89.8738C148.016 89.7696 147.974 89.6696 147.901 89.5959C147.827 89.5222 147.727 89.4808 147.623 89.4807Z" fill="white"/>
<path d="M154.692 66.5312H151.325C151.221 66.5316 151.122 66.5732 151.048 66.6469C150.975 66.7205 150.934 66.8203 150.934 66.9243V70.2911C150.934 70.395 150.975 70.4945 151.049 70.568C151.122 70.6414 151.222 70.6827 151.325 70.6827H154.692C154.796 70.6827 154.896 70.6415 154.97 70.5681C155.043 70.4947 155.085 70.3951 155.085 70.2911V66.9243C155.085 66.8201 155.043 66.7203 154.97 66.6467C154.896 66.5731 154.796 66.5316 154.692 66.5312Z" fill="#4B4BFA"/>
<path d="M154.692 72.2686H151.325C151.221 72.2689 151.122 72.3105 151.048 72.3842C150.975 72.4579 150.934 72.5576 150.934 72.6616V76.0284C150.934 76.1323 150.975 76.2319 151.049 76.3053C151.122 76.3787 151.222 76.42 151.325 76.42H154.692C154.796 76.42 154.896 76.3789 154.97 76.3055C155.043 76.2321 155.085 76.1324 155.085 76.0284V72.6616C155.085 72.5575 155.043 72.4577 154.97 72.384C154.896 72.3104 154.796 72.2689 154.692 72.2686Z" fill="#4B4BFA"/>
<path d="M154.692 78.0059H151.325C151.221 78.0062 151.122 78.0478 151.048 78.1215C150.975 78.1952 150.934 78.2949 150.934 78.3989V81.7643C150.934 81.8158 150.944 81.8668 150.963 81.9145C150.983 81.9622 151.012 82.0055 151.048 82.042C151.084 82.0785 151.128 82.1075 151.175 82.1273C151.223 82.147 151.274 82.1573 151.325 82.1573H154.692C154.796 82.1573 154.896 82.1158 154.97 82.0421C155.044 81.9684 155.085 81.8685 155.085 81.7643V78.3989C155.085 78.2948 155.043 78.195 154.97 78.1213C154.896 78.0477 154.796 78.0062 154.692 78.0059Z" fill="#E6E6E6"/>
<path d="M154.692 83.7432H151.325C151.221 83.7435 151.122 83.7851 151.048 83.8588C150.975 83.9325 150.934 84.0323 150.934 84.1363V87.5016C150.934 87.5531 150.944 87.6042 150.963 87.6518C150.983 87.6995 151.012 87.7428 151.048 87.7793C151.084 87.8158 151.128 87.8448 151.175 87.8646C151.223 87.8844 151.274 87.8946 151.325 87.8946H154.692C154.796 87.8946 154.896 87.8532 154.97 87.7794C155.044 87.7057 155.085 87.6058 155.085 87.5016V84.1363C155.085 84.0321 155.043 83.9323 154.97 83.8586C154.896 83.785 154.796 83.7435 154.692 83.7432Z" fill="white"/>
<path d="M154.692 89.4807H151.325C151.274 89.4808 151.223 89.491 151.175 89.5108C151.128 89.5306 151.084 89.5595 151.048 89.5961C151.012 89.6326 150.983 89.6759 150.963 89.7235C150.944 89.7712 150.934 89.8223 150.934 89.8738V93.2391C150.934 93.2906 150.944 93.3417 150.963 93.3893C150.983 93.437 151.012 93.4803 151.048 93.5168C151.084 93.5533 151.128 93.5823 151.175 93.6021C151.223 93.6219 151.274 93.6321 151.325 93.6322H154.692C154.796 93.6321 154.896 93.5907 154.97 93.517C155.044 93.4433 155.085 93.3433 155.085 93.2391V89.8738C155.085 89.7696 155.044 89.6696 154.97 89.5959C154.896 89.5222 154.796 89.4808 154.692 89.4807Z" fill="#4B4BFA"/>
<path d="M161.761 66.5312H158.394C158.29 66.5316 158.191 66.5732 158.117 66.6469C158.044 66.7205 158.003 66.8203 158.003 66.9243V70.2911C158.003 70.395 158.044 70.4945 158.118 70.568C158.191 70.6414 158.291 70.6827 158.394 70.6827H161.761C161.865 70.6827 161.965 70.6415 162.039 70.5681C162.112 70.4947 162.154 70.3951 162.154 70.2911V66.9243C162.154 66.8201 162.113 66.7203 162.039 66.6467C161.965 66.5731 161.865 66.5316 161.761 66.5312Z" fill="#4B4BFA"/>
<path d="M161.761 72.2686H158.394C158.29 72.2689 158.191 72.3105 158.117 72.3842C158.044 72.4579 158.003 72.5576 158.003 72.6616V76.0284C158.003 76.1323 158.044 76.2319 158.118 76.3053C158.191 76.3787 158.291 76.42 158.394 76.42H161.761C161.865 76.42 161.965 76.3789 162.039 76.3055C162.112 76.2321 162.154 76.1324 162.154 76.0284V72.6616C162.154 72.5575 162.113 72.4577 162.039 72.384C161.965 72.3104 161.865 72.2689 161.761 72.2686Z" fill="#4B4BFA"/>
<path d="M161.761 78.0059H158.394C158.29 78.0062 158.191 78.0478 158.117 78.1215C158.044 78.1952 158.003 78.2949 158.003 78.3989V81.7643C158.003 81.8158 158.013 81.8668 158.032 81.9145C158.052 81.9622 158.081 82.0055 158.117 82.042C158.154 82.0785 158.197 82.1075 158.244 82.1273C158.292 82.147 158.343 82.1573 158.394 82.1573H161.761C161.866 82.1573 161.965 82.1158 162.039 82.0421C162.113 81.9684 162.154 81.8685 162.154 81.7643V78.3989C162.154 78.2948 162.113 78.195 162.039 78.1213C161.965 78.0477 161.865 78.0062 161.761 78.0059Z" fill="#E6E6E6"/>
<path d="M161.761 83.7432H158.394C158.29 83.7435 158.191 83.7851 158.117 83.8588C158.044 83.9325 158.003 84.0323 158.003 84.1363V87.5016C158.003 87.5531 158.013 87.6042 158.032 87.6518C158.052 87.6995 158.081 87.7428 158.117 87.7793C158.154 87.8158 158.197 87.8448 158.244 87.8646C158.292 87.8844 158.343 87.8946 158.394 87.8946H161.761C161.866 87.8946 161.965 87.8532 162.039 87.7794C162.113 87.7057 162.154 87.6058 162.154 87.5016V84.1363C162.154 84.0321 162.113 83.9323 162.039 83.8586C161.965 83.785 161.865 83.7435 161.761 83.7432Z" fill="#4B4BFA"/>
<path d="M161.761 89.4807H158.394C158.343 89.4808 158.292 89.491 158.244 89.5108C158.197 89.5306 158.154 89.5595 158.117 89.5961C158.081 89.6326 158.052 89.6759 158.032 89.7235C158.013 89.7712 158.003 89.8223 158.003 89.8738V93.2391C158.003 93.2906 158.013 93.3417 158.032 93.3893C158.052 93.437 158.081 93.4803 158.117 93.5168C158.154 93.5533 158.197 93.5823 158.244 93.6021C158.292 93.6219 158.343 93.6321 158.394 93.6322H161.761C161.866 93.6321 161.965 93.5907 162.039 93.517C162.113 93.4433 162.154 93.3433 162.154 93.2391V89.8738C162.154 89.7696 162.113 89.6696 162.039 89.5959C161.965 89.5222 161.866 89.4808 161.761 89.4807Z" fill="#4B4BFA"/>
<path d="M168.831 66.5312H165.464C165.36 66.5316 165.26 66.5732 165.187 66.6469C165.113 66.7205 165.072 66.8203 165.072 66.9243V70.2911C165.072 70.395 165.114 70.4945 165.187 70.568C165.26 70.6414 165.36 70.6827 165.464 70.6827H168.831C168.935 70.6827 169.034 70.6415 169.108 70.5681C169.182 70.4947 169.223 70.3951 169.224 70.2911V66.9243C169.223 66.8201 169.182 66.7203 169.108 66.6467C169.035 66.5731 168.935 66.5316 168.831 66.5312Z" fill="#E6E6E6"/>
<path d="M168.831 72.2686H165.464C165.36 72.2689 165.26 72.3105 165.187 72.3842C165.113 72.4579 165.072 72.5576 165.072 72.6616V76.0284C165.072 76.1323 165.114 76.2319 165.187 76.3053C165.26 76.3787 165.36 76.42 165.464 76.42H168.831C168.935 76.42 169.034 76.3789 169.108 76.3055C169.182 76.2321 169.223 76.1324 169.224 76.0284V72.6616C169.223 72.5575 169.182 72.4577 169.108 72.384C169.035 72.3104 168.935 72.2689 168.831 72.2686Z" fill="#4B4BFA"/>
<path d="M168.831 78.0059H165.464C165.36 78.0062 165.26 78.0478 165.187 78.1215C165.113 78.1952 165.072 78.2949 165.072 78.3989V81.7643C165.072 81.8158 165.082 81.8668 165.102 81.9145C165.121 81.9622 165.15 82.0055 165.187 82.042C165.223 82.0785 165.266 82.1075 165.314 82.1273C165.361 82.147 165.412 82.1573 165.464 82.1573H168.831C168.935 82.1573 169.035 82.1158 169.109 82.0421C169.182 81.9684 169.224 81.8685 169.224 81.7643V78.3989C169.223 78.2948 169.182 78.195 169.108 78.1213C169.035 78.0477 168.935 78.0062 168.831 78.0059Z" fill="#4B4BFA"/>
<path d="M168.831 83.7432H165.464C165.36 83.7435 165.26 83.7851 165.187 83.8588C165.113 83.9325 165.072 84.0323 165.072 84.1363V87.5016C165.072 87.5531 165.082 87.6042 165.102 87.6518C165.121 87.6995 165.15 87.7428 165.187 87.7793C165.223 87.8158 165.266 87.8448 165.314 87.8646C165.361 87.8844 165.412 87.8946 165.464 87.8946H168.831C168.935 87.8946 169.035 87.8532 169.109 87.7794C169.182 87.7057 169.224 87.6058 169.224 87.5016V84.1363C169.223 84.0321 169.182 83.9323 169.108 83.8586C169.035 83.785 168.935 83.7435 168.831 83.7432Z" fill="#4B4BFA"/>
<path d="M168.831 89.4807H165.464C165.412 89.4808 165.361 89.491 165.314 89.5108C165.266 89.5306 165.223 89.5595 165.187 89.5961C165.15 89.6326 165.121 89.6759 165.102 89.7235C165.082 89.7712 165.072 89.8223 165.072 89.8738V93.2391C165.072 93.2906 165.082 93.3417 165.102 93.3893C165.121 93.437 165.15 93.4803 165.187 93.5168C165.223 93.5533 165.266 93.5823 165.314 93.6021C165.361 93.6219 165.412 93.6321 165.464 93.6322H168.831C168.935 93.6321 169.035 93.5907 169.109 93.517C169.182 93.4433 169.224 93.3433 169.224 93.2391V89.8738C169.224 89.7696 169.182 89.6696 169.109 89.5959C169.035 89.5222 168.935 89.4808 168.831 89.4807Z" fill="#E6E6E6"/>
<path d="M175.9 66.5312H172.533C172.429 66.5316 172.329 66.5732 172.256 66.6469C172.183 66.7205 172.141 66.8203 172.141 66.9243V70.2911C172.141 70.395 172.183 70.4945 172.256 70.568C172.33 70.6414 172.429 70.6827 172.533 70.6827H175.9C176.004 70.6827 176.104 70.6415 176.177 70.5681C176.251 70.4947 176.292 70.3951 176.293 70.2911V66.9243C176.293 66.8201 176.251 66.7203 176.177 66.6467C176.104 66.5731 176.004 66.5316 175.9 66.5312Z" fill="#E6E6E6"/>
<path d="M175.9 72.2686H172.533C172.429 72.2689 172.329 72.3105 172.256 72.3842C172.183 72.4579 172.141 72.5576 172.141 72.6616V76.0284C172.141 76.1323 172.183 76.2319 172.256 76.3053C172.33 76.3787 172.429 76.42 172.533 76.42H175.9C176.004 76.42 176.104 76.3789 176.177 76.3055C176.251 76.2321 176.292 76.1324 176.293 76.0284V72.6616C176.293 72.5575 176.251 72.4577 176.177 72.384C176.104 72.3104 176.004 72.2689 175.9 72.2686Z" fill="#E6E6E6"/>
<path d="M175.9 78.0059H172.533C172.429 78.0062 172.329 78.0478 172.256 78.1215C172.183 78.1952 172.141 78.2949 172.141 78.3989V81.7643C172.141 81.8158 172.151 81.8668 172.171 81.9145C172.19 81.9622 172.219 82.0055 172.256 82.042C172.292 82.0785 172.335 82.1075 172.383 82.1273C172.43 82.147 172.481 82.1573 172.533 82.1573H175.9C176.004 82.1573 176.104 82.1158 176.178 82.0421C176.251 81.9684 176.293 81.8685 176.293 81.7643V78.3989C176.293 78.2948 176.251 78.195 176.177 78.1213C176.104 78.0477 176.004 78.0062 175.9 78.0059Z" fill="#4B4BFA"/>
<path d="M175.9 83.7432H172.533C172.429 83.7435 172.329 83.7851 172.256 83.8588C172.183 83.9325 172.141 84.0323 172.141 84.1363V87.5016C172.141 87.5531 172.151 87.6042 172.171 87.6518C172.19 87.6995 172.219 87.7428 172.256 87.7793C172.292 87.8158 172.335 87.8448 172.383 87.8646C172.43 87.8844 172.481 87.8946 172.533 87.8946H175.9C176.004 87.8946 176.104 87.8532 176.178 87.7794C176.251 87.7057 176.293 87.6058 176.293 87.5016V84.1363C176.293 84.0321 176.251 83.9323 176.177 83.8586C176.104 83.785 176.004 83.7435 175.9 83.7432Z" fill="#E6E6E6"/>
<path d="M175.9 89.4807H172.533C172.481 89.4808 172.43 89.491 172.383 89.5108C172.335 89.5306 172.292 89.5595 172.256 89.5961C172.219 89.6326 172.19 89.6759 172.171 89.7235C172.151 89.7712 172.141 89.8223 172.141 89.8738V93.2391C172.141 93.2906 172.151 93.3417 172.171 93.3893C172.19 93.437 172.219 93.4803 172.256 93.5168C172.292 93.5533 172.335 93.5823 172.383 93.6021C172.43 93.6219 172.481 93.6321 172.533 93.6322H175.9C176.004 93.6321 176.104 93.5907 176.178 93.517C176.251 93.4433 176.293 93.3433 176.293 93.2391V89.8738C176.293 89.7696 176.251 89.6696 176.178 89.5959C176.104 89.5222 176.004 89.4808 175.9 89.4807Z" fill="#E6E6E6"/>
<path d="M98.5186 139.099H98.4248L98.505 139.088L98.5186 139.099Z" fill="#2F2E41"/>
<path d="M90.4633 76.3587C96.1679 76.3587 100.792 71.7343 100.792 66.0297C100.792 60.3251 96.1679 55.7007 90.4633 55.7007C84.7587 55.7007 80.1343 60.3251 80.1343 66.0297C80.1343 71.7343 84.7587 76.3587 90.4633 76.3587Z" fill="#FFB6B6"/>
<path d="M99.5091 58.4569C99.5091 58.4569 102.211 53.2924 96.2672 52.8229C96.2672 52.8229 91.2003 48.2266 86.0358 51.9826C86.0358 51.9826 83.2188 51.9826 81.6784 55.1704C81.6784 55.1704 79.4628 54.3301 78.9759 56.5789C78.9759 56.5789 77.3547 61.2739 78.9759 65.4994C80.5971 69.7249 81.1356 70.1944 81.1356 70.1944C81.1356 70.1944 78.4716 61.3354 84.9559 60.8659C91.4403 60.3964 98.6964 56.3441 99.2368 61.5086C99.7771 66.6731 100.59 67.9456 100.59 67.9456C100.59 67.9456 105.723 60.5696 99.5091 58.4569Z" fill="#2F2E41"/>
<path d="M117.182 91.4855L117.149 91.6608L116.776 93.6322L114.195 107.269L114.042 108.072L113.722 109.769L113.283 112.085L112.311 117.218L112.033 118.689L111.929 119.241L111.893 119.434L111.604 120.957L111.516 121.416L110.812 126.637L110.196 131.186L112.255 133.245L111.028 134.473L110.222 139.088L110.223 139.099H77.3369C76.0065 138.237 74.6952 137.348 73.4032 136.433L73.6738 134.408C73.6738 134.408 74.605 130.79 74.2135 130.357C73.8234 129.925 72.9677 129.152 72.9677 129.152L74.0457 126.637L74.1953 126.288L73.9444 121.082L73.9383 120.957L73.8552 119.241L73.8446 119.02L73.828 118.689L73.509 112.085L73.5029 111.977L73.4062 109.975L73.3155 108.072L73.2762 107.269L72.8876 99.2365L72.6246 93.7819L72.3948 89.0333L73.3185 88.7203L83.1982 85.3626L87.2907 80.0425L95.8083 80.106L99.9779 80.1377L106.935 86.5902L108.518 87.3461L108.53 87.3521L109.666 87.8949L112.544 89.2691L115.587 90.7235L117.149 91.4688L117.182 91.4855Z" fill="#CACACA"/>
<path d="M88.3914 123.603C87.7673 123.845 87.0977 123.947 86.4298 123.902C85.762 123.857 85.1121 123.666 84.526 123.342C83.9398 123.019 83.4317 122.571 83.0374 122.03C82.6431 121.489 82.3722 120.869 82.2438 120.212L66.134 117.926L71.7342 111.591L86.1738 114.733C87.2917 114.59 88.4231 114.863 89.3536 115.499C90.284 116.134 90.949 117.089 91.2223 118.183C91.4957 119.276 91.3585 120.432 90.8367 121.431C90.315 122.43 89.4449 123.202 88.3914 123.603Z" fill="#FFB6B6"/>
<path d="M81.2088 112.085C80.9103 111.707 80.4879 111.446 80.016 111.349L73.4063 109.975L72.7275 109.834C72.333 109.752 71.9603 109.587 71.6339 109.351C71.3074 109.115 71.0346 108.812 70.8332 108.463C70.6242 108.097 70.4978 107.689 70.4628 107.269C70.4313 106.887 70.477 106.502 70.5973 106.138L72.8877 99.2365L74.3738 94.7585C74.5539 94.2184 74.6602 93.6564 74.6898 93.0879C74.7726 91.5145 74.2858 89.964 73.3186 88.7203C72.4682 87.6271 71.2888 86.8364 69.9546 86.4651C68.6203 86.0938 67.202 86.1614 65.9092 86.6581C65.8714 86.6718 65.832 86.6869 65.7943 86.702C64.8671 87.0722 64.0387 87.653 63.3747 88.3984C62.7106 89.1438 62.2289 90.0335 61.9678 90.9971L60.3532 96.8705L57.0227 108.979C56.6893 110.192 56.6219 111.463 56.8252 112.704C57.0285 113.946 57.4977 115.129 58.2006 116.172C58.9035 117.216 59.8235 118.095 60.8978 118.75C61.972 119.405 63.175 119.82 64.4245 119.967L73.9445 121.082L78.3499 121.599C78.8593 121.661 79.3731 121.528 79.7889 121.227C80.2047 120.926 80.4919 120.48 80.5934 119.977C80.6006 119.95 80.6061 119.922 80.6101 119.894L80.7159 119.241L81.6124 113.741L81.6215 113.685C81.6682 113.404 81.6556 113.117 81.5845 112.841C81.5134 112.566 81.3854 112.308 81.2088 112.085Z" fill="#CACACA"/>
<path d="M98.6526 123.779C99.3047 123.93 99.9819 123.937 100.637 123.798C101.292 123.659 101.908 123.379 102.443 122.976C102.977 122.573 103.417 122.058 103.731 121.467C104.045 120.876 104.226 120.223 104.261 119.555L119.887 115.02L113.45 109.539L99.5973 114.685C98.4705 114.701 97.3888 115.131 96.5573 115.891C95.7257 116.652 95.2021 117.691 95.0857 118.812C94.9692 119.933 95.268 121.058 95.9254 121.973C96.5828 122.889 97.5532 123.531 98.6526 123.779Z" fill="#FFB6B6"/>
<path d="M127.646 104.877L120.214 87.7723C119.606 86.368 118.52 85.2245 117.149 84.5446C116.725 84.336 116.28 84.1738 115.822 84.0608C115.751 84.0427 115.68 84.026 115.609 84.0124C114.636 83.8002 113.627 83.8189 112.664 84.0668C111.782 84.2932 110.959 84.7028 110.247 85.2688C109.534 85.8349 108.95 86.5447 108.53 87.352C108.526 87.3587 108.522 87.3658 108.518 87.3732C108.05 88.2795 107.801 89.2831 107.791 90.3032C107.781 91.3234 108.011 92.3316 108.462 93.2466L108.554 93.4311L113.806 103.979C113.986 104.34 114.087 104.734 114.103 105.137C114.119 105.539 114.05 105.941 113.9 106.314C113.75 106.688 113.523 107.026 113.233 107.306C112.943 107.586 112.598 107.802 112.219 107.938L111.85 108.072L105.216 110.468C104.719 110.645 104.309 111.009 104.074 111.483C103.839 111.956 103.797 112.502 103.957 113.006L103.974 113.059L105.833 119.01C105.842 119.037 105.851 119.064 105.862 119.091C105.878 119.142 105.898 119.193 105.922 119.241C106.12 119.684 106.469 120.042 106.907 120.251C107.346 120.46 107.844 120.505 108.312 120.379L111.892 119.434L112.623 119.241L121.867 116.799C123.084 116.478 124.216 115.897 125.188 115.097C126.159 114.298 126.946 113.297 127.495 112.165C128.043 111.033 128.341 109.796 128.367 108.538C128.393 107.28 128.147 106.031 127.646 104.877Z" fill="#CACACA"/>
<path d="M54.4946 119.241C56.6369 121.854 58.9474 124.324 61.4112 126.637H129.741C130.399 126.638 131.03 126.9 131.496 127.365C131.961 127.831 132.223 128.462 132.223 129.12L132.322 146.435C136.525 144.504 140.462 142.038 144.034 139.098C145.025 138.284 145.986 137.433 146.917 136.548C147.526 135.971 148.121 135.379 148.701 134.773C153.049 130.243 156.57 124.986 159.105 119.241H54.4946Z" fill="#3F3D56"/>
<path d="M148.701 134.773C148.122 135.379 147.527 135.971 146.917 136.548H132.372V134.773H148.701Z" fill="white"/>
<path d="M117.046 78.006C116.974 77.8734 116.868 77.7627 116.738 77.6855C116.609 77.6083 116.461 77.5676 116.31 77.5676H66.7465C66.5243 77.5682 66.3113 77.6568 66.1544 77.8141C65.9974 77.9714 65.9091 78.1845 65.9089 78.4067V108.072H117.149V78.4067C117.15 78.2665 117.114 78.1285 117.046 78.006Z" fill="#3F3D56"/>
<path d="M65.864 107.268V110.929C65.864 111.081 65.8939 111.231 65.952 111.371C66.0101 111.511 66.0952 111.639 66.2025 111.746C66.3098 111.853 66.4372 111.939 66.5774 111.997C66.7176 112.055 66.8679 112.085 67.0196 112.085H85.932V119.309H85.6807C85.661 119.309 85.6415 119.313 85.6233 119.321C85.6051 119.328 85.5885 119.339 85.5746 119.353C85.5606 119.367 85.5496 119.384 85.542 119.402C85.5345 119.42 85.5306 119.439 85.5306 119.459V119.962C85.5306 119.981 85.5345 120.001 85.542 120.019C85.5496 120.037 85.5606 120.054 85.5746 120.068C85.5885 120.082 85.6051 120.093 85.6233 120.1C85.6415 120.108 85.661 120.112 85.6807 120.112H97.4213C97.441 120.112 97.4605 120.108 97.4787 120.1C97.497 120.093 97.5135 120.082 97.5274 120.068C97.5414 120.054 97.5524 120.037 97.56 120.019C97.5675 120.001 97.5714 119.981 97.5714 119.962V119.459C97.5714 119.439 97.5675 119.42 97.56 119.402C97.5524 119.384 97.5414 119.367 97.5274 119.353C97.5135 119.339 97.4969 119.328 97.4787 119.321C97.4605 119.313 97.441 119.309 97.4213 119.309H97.17V112.085H116.082C116.234 112.085 116.384 112.055 116.525 111.997C116.665 111.939 116.792 111.853 116.9 111.746C117.007 111.639 117.092 111.511 117.15 111.371C117.208 111.231 117.238 111.081 117.238 110.929V107.268H65.864Z" fill="#3F3D56"/>
<path d="M90.9305 96.7618C93.5444 96.7618 95.6634 94.6428 95.6634 92.0289C95.6634 89.4149 93.5444 87.2959 90.9305 87.2959C88.3165 87.2959 86.1975 89.4149 86.1975 92.0289C86.1975 94.6428 88.3165 96.7618 90.9305 96.7618Z" fill="#4B4BFA"/>
<path d="M102.989 65.4655H102.233C102.233 59.7508 96.5777 56.006 90.8721 56.003C90.0422 56.0006 89.2141 56.0811 88.4003 56.2434C87.4841 56.4263 86.5332 56.6455 85.5989 56.9313C81.9146 58.0606 78.4979 60.2437 78.4979 65.4655C78.4971 66.4796 78.6261 67.4896 78.8819 68.471L78.1501 68.6615C77.8787 67.6178 77.7416 66.5438 77.7419 65.4655C77.7419 60.9028 79.6151 57.7688 82.8504 55.9002C84.5512 54.9175 86.6269 54.2841 89.005 53.9757C89.9946 53.844 90.9951 53.8136 91.9908 53.885C98.5521 54.3566 102.989 59.388 102.989 65.4655Z" fill="#4B4BFA"/>
<path d="M104.249 65.8842L103.951 63.683C103.878 63.1271 103.61 62.6151 103.195 62.2377C102.929 61.9916 102.61 61.8093 102.263 61.7046C101.916 61.5998 101.55 61.5753 101.192 61.633L100.719 61.698C100.589 61.715 100.464 61.7576 100.352 61.8233C100.239 61.8889 100.14 61.9763 100.061 62.0805C99.9816 62.1842 99.9234 62.3027 99.8899 62.4291C99.8565 62.5555 99.8483 62.6872 99.8661 62.8167L100.554 67.8874C100.582 68.094 100.675 68.2866 100.819 68.4377C100.963 68.5888 101.15 68.6909 101.355 68.7294C101.416 68.7416 101.478 68.7477 101.54 68.7476C101.584 68.7476 101.629 68.7445 101.673 68.7385L102.202 68.6675C102.524 68.6246 102.835 68.5163 103.114 68.3492C103.393 68.182 103.635 67.9595 103.826 67.6954C103.866 67.6379 103.906 67.5789 103.942 67.5185C104.225 67.0238 104.333 66.448 104.249 65.8842Z" fill="#4B4BFA"/>
<path d="M100.413 61.7903C100.275 61.8577 100.154 61.9572 100.061 62.0806C99.9816 62.1843 99.9234 62.3028 99.8899 62.4292C99.8565 62.5555 99.8483 62.6873 99.8661 62.8168L100.554 67.8874C100.582 68.0941 100.675 68.2866 100.819 68.4378C100.963 68.5889 101.15 68.691 101.355 68.7295L100.413 61.7903Z" fill="white"/>
<path d="M104.249 65.8843L103.951 63.6831C103.877 63.1272 103.61 62.6152 103.195 62.2378L103.88 67.2827C103.89 67.3637 103.911 67.443 103.942 67.5186C104.225 67.0239 104.333 66.4481 104.249 65.8843Z" fill="#3F3D56"/>
<path d="M101.895 67.4704C102.102 67.4423 102.206 66.95 102.127 66.3709C102.049 65.7917 101.817 65.345 101.61 65.373C101.404 65.4011 101.3 65.8933 101.378 66.4725C101.457 67.0517 101.688 67.4984 101.895 67.4704Z" fill="#3F3D56"/>
<path d="M101.441 64.7489C101.648 64.7209 101.752 64.2286 101.674 63.6494C101.595 63.0703 101.364 62.6235 101.157 62.6516C100.95 62.6796 100.846 63.1719 100.924 63.7511C101.003 64.3302 101.234 64.777 101.441 64.7489Z" fill="#3F3D56"/>
<path d="M104.314 65.8073C104.521 65.7792 104.625 65.287 104.546 64.7078C104.468 64.1286 104.236 63.6819 104.029 63.7099C103.822 63.738 103.718 64.2302 103.797 64.8094C103.876 65.3886 104.107 65.8353 104.314 65.8073Z" fill="#3F3D56"/>
<path d="M90.8721 56.003C90.0422 56.0006 89.2141 56.0811 88.4002 56.2434C87.4841 56.4263 86.5331 56.6455 85.5988 56.9313C84.1399 56.8602 83.0665 56.4823 82.8503 55.9002C84.5511 54.9175 86.6269 54.2841 89.005 53.9757C89.9946 53.844 90.995 53.8136 91.9908 53.885C92.0962 53.9467 92.1874 54.0302 92.2582 54.1297C92.3291 54.2292 92.3781 54.3426 92.402 54.4625C92.4731 54.9886 91.8729 55.548 90.8721 56.003Z" fill="#3F3D56"/>
<path d="M81.2208 70.7114L80.0567 65.8721C80.0151 65.6975 79.923 65.5391 79.7917 65.4167C79.6605 65.2943 79.496 65.2134 79.3189 65.1842C79.2689 65.1764 79.2183 65.1724 79.1677 65.1721C79.0964 65.1724 79.0254 65.181 78.956 65.1978L78.5055 65.3067C77.9255 65.447 77.4248 65.8116 77.1133 66.3207C76.8018 66.8297 76.705 67.4415 76.844 68.0219L77.3656 70.1929C77.4847 70.704 77.7683 71.1618 78.1729 71.4961C78.2385 71.549 78.3072 71.598 78.3785 71.6427C78.632 71.8015 78.9146 71.908 79.2099 71.9558C79.5051 72.0035 79.8069 71.9917 80.0975 71.9209L80.5465 71.812C80.6652 71.7843 80.7769 71.7323 80.8745 71.6593C81.0197 71.5535 81.1302 71.4068 81.1918 71.238C81.2535 71.0693 81.2635 70.8859 81.2208 70.7114Z" fill="#4B4BFA"/>
<path d="M78.7801 69.8112C78.9831 69.7623 79.0368 69.2621 78.9 68.6938C78.7633 68.1256 78.4879 67.7045 78.2849 67.7534C78.082 67.8022 78.0283 68.3025 78.1651 68.8707C78.3018 69.4389 78.5772 69.86 78.7801 69.8112Z" fill="#3F3D56"/>
<path d="M77.2684 70.2645C77.4714 70.2157 77.525 69.7155 77.3883 69.1472C77.2515 68.579 76.9762 68.1579 76.7732 68.2067C76.5703 68.2556 76.5166 68.7558 76.6534 69.3241C76.7901 69.8923 77.0655 70.3134 77.2684 70.2645Z" fill="#3F3D56"/>
<path d="M81.2947 70.6933L80.1306 65.8539C80.0852 65.665 79.9851 65.4937 79.8429 65.3614C79.7006 65.2291 79.5225 65.1417 79.3308 65.1101L80.9197 71.7198C81.0767 71.6049 81.196 71.446 81.2627 71.2633C81.3295 71.0806 81.3406 70.8823 81.2947 70.6933Z" fill="white"/>
<path d="M77.1071 67.0635C77.075 66.9289 77.0147 66.8027 76.9302 66.6931C76.7666 67.1169 76.7365 67.5806 76.844 68.022L77.3656 70.193C77.4847 70.7041 77.7683 71.1619 78.1729 71.4962L77.1071 67.0635Z" fill="#3F3D56"/>
</g>
<defs>
<clipPath id="clip0_51_435">
<rect width="128.586" height="112" fill="white" transform="translate(47.707 39.311)"/>
</clipPath>
</defs>
</svg>
