<svg width="95" height="40" viewBox="0 0 95 40" fill="none" xmlns="http://www.w3.org/2000/svg">
<g clip-path="url(#clip0_44_698)">
<path d="M40.6146 21.3752C40.6146 25.8112 37.1443 29.08 32.8854 29.08C28.6266 29.08 25.1562 25.8112 25.1562 21.3752C25.1562 16.9079 28.6266 13.6703 32.8854 13.6703C37.1443 13.6703 40.6146 16.9079 40.6146 21.3752ZM37.2311 21.3752C37.2311 18.6031 35.2198 16.7064 32.8854 16.7064C30.551 16.7064 28.5397 18.6031 28.5397 21.3752C28.5397 24.1194 30.551 26.0439 32.8854 26.0439C35.2198 26.0439 37.2311 24.116 37.2311 21.3752Z" fill="#676773"/>
<path d="M57.2889 21.3752C57.2889 25.8112 53.8186 29.08 49.5598 29.08C45.3009 29.08 41.8306 25.8112 41.8306 21.3752C41.8306 16.9113 45.3009 13.6703 49.5598 13.6703C53.8186 13.6703 57.2889 16.9079 57.2889 21.3752ZM53.9055 21.3752C53.9055 18.6031 51.8941 16.7064 49.5598 16.7064C47.2254 16.7064 45.214 18.6031 45.214 21.3752C45.214 24.1194 47.2254 26.0439 49.5598 26.0439C51.8941 26.0439 53.9055 24.116 53.9055 21.3752Z" fill="#676773"/>
<path d="M73.2686 14.1358V27.9684C73.2686 33.6585 69.9129 35.9824 65.9459 35.9824C62.2115 35.9824 59.964 33.4848 59.1164 31.4422L62.0622 30.2159C62.5867 31.47 63.872 32.9498 65.9424 32.9498C68.4817 32.9498 70.0553 31.3831 70.0553 28.4339V27.3258H69.9372C69.18 28.2602 67.721 29.0765 65.8799 29.0765C62.0274 29.0765 58.498 25.7209 58.498 21.4029C58.498 17.0538 62.0274 13.6703 65.8799 13.6703C67.7175 13.6703 69.1765 14.4866 69.9372 15.3933H70.0553V14.1392H73.2686V14.1358ZM70.295 21.4029C70.295 18.6899 68.4852 16.7064 66.1821 16.7064C63.8477 16.7064 61.8919 18.6899 61.8919 21.4029C61.8919 24.0882 63.8477 26.0439 66.1821 26.0439C68.4852 26.0439 70.295 24.0882 70.295 21.4029Z" fill="#676773"/>
<path d="M78.5657 6.02808V28.6077H75.2656V6.02808H78.5657Z" fill="#676773"/>
<path d="M91.426 23.9111L94.0522 25.6619C93.2046 26.9159 91.162 29.0766 87.6326 29.0766C83.2557 29.0766 79.9868 25.6931 79.9868 21.3717C79.9868 16.7898 83.2834 13.6669 87.254 13.6669C91.2523 13.6669 93.208 16.8489 93.8472 18.5684L94.1981 19.4438L83.8983 23.7096C84.6869 25.2554 85.9131 26.044 87.6326 26.044C89.3556 26.044 90.5506 25.1964 91.426 23.9111ZM83.3425 21.139L90.2275 18.2801C89.8489 17.3178 88.7095 16.6474 87.3686 16.6474C85.6491 16.6474 83.2557 18.1654 83.3425 21.139Z" fill="#676773"/>
<path d="M12.6645 19.3706V16.1018H23.6798C23.7875 16.6715 23.8431 17.3454 23.8431 18.0749C23.8431 20.5274 23.1727 23.56 21.012 25.7207C18.9103 27.9092 16.2251 29.0764 12.6679 29.0764C6.07469 29.0764 0.530518 23.7059 0.530518 17.1127C0.530518 10.5194 6.07469 5.14893 12.6679 5.14893C16.3154 5.14893 18.9138 6.58013 20.8661 8.44555L18.5595 10.7521C17.1595 9.43906 15.2629 8.41776 12.6645 8.41776C7.84979 8.41776 4.0842 12.298 4.0842 17.1127C4.0842 21.9273 7.84979 25.8076 12.6645 25.8076C15.7874 25.8076 17.566 24.5535 18.7054 23.4141C19.6294 22.4901 20.2373 21.17 20.477 19.3671L12.6645 19.3706Z" fill="#676773"/>
</g>
<defs>
<clipPath id="clip0_44_698">
<rect width="94.1667" height="40" fill="white" transform="translate(0.416748)"/>
</clipPath>
</defs>
</svg>
