<svg width="138" height="40" viewBox="0 0 138 40" fill="none" xmlns="http://www.w3.org/2000/svg">
<g clip-path="url(#clip0_44_632)">
<path d="M137.465 18.195V15.7936H134.483V12.0603L134.382 12.0912L131.581 12.9482L131.526 12.965V15.7937H127.105V14.2179C127.105 13.4841 127.269 12.9226 127.593 12.5481C127.914 12.1781 128.373 11.99 128.959 11.99C129.38 11.99 129.816 12.0892 130.255 12.2848L130.365 12.334V9.80497L130.313 9.78595C129.904 9.6388 129.347 9.5647 128.657 9.5647C127.787 9.5647 126.997 9.75398 126.307 10.1291C125.618 10.5048 125.075 11.0411 124.695 11.7229C124.317 12.404 124.124 13.1906 124.124 14.0611V15.7936H122.048V18.195H124.124V28.3117H127.105V18.195H131.526V24.624C131.526 27.2717 132.775 28.6135 135.238 28.6135C135.643 28.6135 136.069 28.5661 136.504 28.4732C136.947 28.3778 137.248 28.2826 137.426 28.1809L137.465 28.1576V25.734L137.344 25.8142C137.182 25.922 136.98 26.0101 136.744 26.0756C136.507 26.1423 136.309 26.1758 136.155 26.1758C135.578 26.1758 135.152 26.0203 134.887 25.7134C134.619 25.4038 134.483 24.8624 134.483 24.105V18.195H137.465ZM115.391 26.1761C114.309 26.1761 113.456 25.8174 112.855 25.1107C112.25 24.4005 111.944 23.3878 111.944 22.1013C111.944 20.7739 112.25 19.735 112.855 19.0122C113.457 18.2942 114.302 17.9297 115.367 17.9297C116.4 17.9297 117.223 18.2778 117.813 18.9648C118.405 19.6554 118.706 20.6859 118.706 22.0288C118.706 23.3881 118.423 24.4323 117.865 25.1308C117.312 25.824 116.479 26.1761 115.391 26.1761ZM115.524 15.492C113.459 15.492 111.82 16.0968 110.651 17.2898C109.483 18.4828 108.89 20.1338 108.89 22.1973C108.89 24.1573 109.469 25.7338 110.609 26.8823C111.75 28.0312 113.302 28.6132 115.222 28.6132C117.223 28.6132 118.83 27.9999 119.998 26.7905C121.166 25.5824 121.758 23.947 121.758 21.9317C121.758 19.9411 121.203 18.3528 120.107 17.212C119.01 16.0706 117.468 15.492 115.524 15.492ZM104.084 15.492C102.68 15.492 101.519 15.8512 100.631 16.5593C99.7388 17.2717 99.286 18.2059 99.286 19.3365C99.286 19.9242 99.3837 20.4462 99.576 20.889C99.7696 21.3332 100.069 21.7243 100.467 22.0525C100.862 22.3781 101.471 22.7192 102.279 23.0662C102.958 23.3456 103.464 23.5819 103.786 23.7681C104.1 23.9507 104.323 24.1342 104.449 24.3129C104.572 24.4878 104.634 24.7271 104.634 25.0225C104.634 25.8635 104.004 26.2727 102.708 26.2727C102.227 26.2727 101.679 26.1723 101.078 25.9744C100.482 25.7796 99.9191 25.4942 99.4095 25.1283L99.2857 25.0395V27.9094L99.3312 27.9306C99.7529 28.1253 100.285 28.2895 100.911 28.4186C101.537 28.548 102.105 28.6137 102.599 28.6137C104.123 28.6137 105.35 28.2529 106.245 27.5405C107.146 26.8233 107.603 25.8669 107.603 24.6973C107.603 23.8535 107.357 23.1299 106.872 22.5463C106.391 21.9675 105.556 21.4361 104.391 20.9664C103.463 20.5939 102.869 20.2846 102.623 20.0473C102.387 19.818 102.267 19.4937 102.267 19.083C102.267 18.719 102.415 18.4273 102.719 18.1911C103.026 17.9538 103.452 17.833 103.988 17.833C104.484 17.833 104.993 17.9115 105.498 18.0653C106.003 18.219 106.446 18.4249 106.817 18.6768L106.938 18.7601V16.0377L106.892 16.0176C106.55 15.8711 106.1 15.7457 105.553 15.644C105.008 15.543 104.514 15.492 104.084 15.492ZM91.515 26.1761C90.4333 26.1761 89.58 25.8174 88.979 25.1107C88.374 24.4005 88.0681 23.3881 88.0681 22.1013C88.0681 20.7739 88.3744 19.735 88.9796 19.0122C89.5806 18.2942 90.4253 17.9297 91.4911 17.9297C92.5243 17.9297 93.3471 18.2778 93.9366 18.9648C94.529 19.6554 94.8295 20.6859 94.8295 22.0288C94.8295 23.3881 94.5467 24.4323 93.9893 25.1308C93.4357 25.824 92.6037 26.1761 91.515 26.1761ZM91.6478 15.492C89.5831 15.492 87.9435 16.0968 86.7752 17.2898C85.6069 18.4828 85.0143 20.1338 85.0143 22.1973C85.0143 24.1581 85.5928 25.7338 86.7333 26.8823C87.8738 28.0312 89.4257 28.6132 91.3459 28.6132C93.3465 28.6132 94.9538 27.9999 96.1223 26.7905C97.2903 25.5824 97.8825 23.947 97.8825 21.9317C97.8825 19.9411 97.3269 18.3528 96.2307 17.212C95.134 16.0706 93.592 15.492 91.6478 15.492ZM80.4894 17.9614V15.7936H77.5448V28.3114H80.4894V21.908C80.4894 20.8192 80.7362 19.9247 81.2234 19.2491C81.7043 18.5815 82.3452 18.2432 83.1277 18.2432C83.393 18.2432 83.6907 18.2869 84.0131 18.3734C84.3323 18.4594 84.5634 18.5528 84.6998 18.6511L84.8235 18.7408V15.7722L84.7758 15.7517C84.5016 15.6352 84.1137 15.5764 83.6228 15.5764C82.8828 15.5764 82.2207 15.8142 81.6535 16.2823C81.1556 16.6938 80.7958 17.2579 80.5207 17.9614H80.4894ZM72.2716 15.492C70.9207 15.492 69.7158 15.7817 68.6909 16.3527C67.6639 16.925 66.8697 17.7422 66.3293 18.7812C65.7913 19.8177 65.5181 21.0284 65.5181 22.3787C65.5181 23.5614 65.783 24.6468 66.3064 25.6034C66.8302 26.5616 67.5715 27.3112 68.5098 27.8311C69.4469 28.3504 70.5299 28.6136 71.729 28.6136C73.1284 28.6136 74.3231 28.3338 75.281 27.7821L75.3197 27.7599V25.0622L75.196 25.1526C74.7621 25.4687 74.2772 25.721 73.7554 25.9027C73.235 26.0843 72.7605 26.1761 72.3444 26.1761C71.189 26.1761 70.2615 25.8146 69.5882 25.1019C68.9135 24.3882 68.5714 23.386 68.5714 22.1249C68.5714 20.8559 68.9282 19.828 69.6313 19.0695C70.3323 18.3133 71.2615 17.9297 72.393 17.9297C73.3608 17.9297 74.304 18.2574 75.1962 18.9047L75.3197 18.9944V16.1519L75.2799 16.1295C74.9441 15.9415 74.4861 15.7863 73.9176 15.6686C73.3515 15.5512 72.7977 15.492 72.2716 15.492ZM63.4901 15.7937H60.5456V28.3114H63.4901V15.7937ZM62.048 10.4611C61.5633 10.4611 61.1406 10.626 60.7934 10.953C60.4446 11.2808 60.2678 11.6936 60.2678 12.1808C60.2678 12.6602 60.4425 13.0655 60.7879 13.3846C61.1311 13.7028 61.5551 13.8641 62.0481 13.8641C62.5409 13.8641 62.9665 13.7028 63.3138 13.3852C63.6633 13.0655 63.8406 12.6604 63.8406 12.1808C63.8406 11.7106 63.6681 11.3021 63.3282 10.9662C62.9886 10.6309 62.5577 10.4611 62.048 10.4611ZM54.7011 14.8701V28.3114H57.7061V10.8443H53.547L48.2605 23.8183L43.1302 10.8443H38.8018V28.3113H41.6257V14.8688H41.7227L47.1401 28.3114H49.2712L54.6041 14.8701H54.7011Z" fill="#676773"/>
<path d="M14.7687 18.8594H0.916626V5.00732H14.7687V18.8594Z" fill="#676773"/>
<path d="M30.0631 18.8594H16.2113V5.00732H30.0631V18.8594Z" fill="#676773"/>
<path d="M14.7683 34.1592H0.916626V20.3073H14.7683V34.1592Z" fill="#676773"/>
<path d="M30.0631 34.1592H16.2113V20.3073H30.0631V34.1592Z" fill="#676773"/>
</g>
<defs>
<clipPath id="clip0_44_632">
<rect width="136.667" height="40" fill="white" transform="translate(0.916748)"/>
</clipPath>
</defs>
</svg>
