<svg width="149" height="40" viewBox="0 0 149 40" fill="none" xmlns="http://www.w3.org/2000/svg">
<g clip-path="url(#clip0_44_686)">
<path d="M5.45669 18.3612C5.40286 18.2908 5.33177 18.2354 5.25029 18.2005C5.16881 18.1656 5.07969 18.1523 4.99156 18.1618C4.90342 18.1714 4.81925 18.2036 4.74717 18.2552C4.67509 18.3068 4.61755 18.3761 4.5801 18.4565L0.138313 27.3373C0.0978492 27.4182 0.0787442 27.5082 0.0828122 27.5986C0.0868802 27.689 0.113986 27.7768 0.161557 27.8538C0.209127 27.9308 0.275583 27.9943 0.354615 28.0384C0.433646 28.0824 0.522631 28.1056 0.613119 28.1056H6.79808C6.89714 28.1079 6.99474 28.0814 7.07903 28.0293C7.16331 27.9772 7.23066 27.9017 7.27289 27.8121C8.60707 25.0552 7.79851 20.8633 5.45669 18.3612Z" fill="#676773"/>
<path d="M8.7141 10.2838C7.60733 11.9868 6.96235 13.9482 6.84245 15.9757C6.72256 18.0032 7.13187 20.027 8.03021 21.8485L11.012 27.8122C11.0561 27.9004 11.1239 27.9745 11.2078 28.0264C11.2916 28.0782 11.3883 28.1057 11.4869 28.1057H17.6707C17.7612 28.1057 17.8502 28.0825 17.9292 28.0384C18.0082 27.9944 18.0747 27.9308 18.1223 27.8539C18.1698 27.7769 18.1969 27.689 18.201 27.5986C18.2051 27.5082 18.186 27.4183 18.1455 27.3374C18.1455 27.3374 9.82614 10.6967 9.61706 10.2805C9.57572 10.1957 9.51134 10.1244 9.4313 10.0746C9.35126 10.0248 9.2588 9.99856 9.16453 9.9989C9.07027 9.99925 8.978 10.0262 8.89833 10.0766C8.81866 10.1269 8.75481 10.1988 8.7141 10.2838Z" fill="#676773"/>
<path d="M81.2482 17.4044C81.2482 19.6035 82.2683 21.3495 86.2587 22.1203C88.6393 22.6201 89.138 23.0044 89.138 23.7979C89.138 24.5687 88.6382 25.0677 86.9614 25.0677C84.9348 25.0312 82.9487 24.4938 81.1802 23.5033V27.0852C82.3819 27.6747 83.9688 28.3322 86.9162 28.3322C91.0878 28.3322 92.7429 26.4718 92.7429 23.7071L81.2482 17.4044ZM92.7429 23.7071C92.7429 21.0999 91.3599 19.8754 87.4604 19.0368C85.3065 18.5606 84.7851 18.0847 84.7851 17.4044C84.7851 16.5437 85.5559 16.1802 86.9842 16.1802C88.7074 16.1802 90.4078 16.7017 92.0174 17.4272V14.0036C90.474 13.3011 88.793 12.9525 87.0975 12.9835C83.2432 12.9835 81.2482 14.6611 81.2482 17.4044" fill="#676773"/>
<path d="M134.842 13.2101V28.1056H138.016V16.747L139.354 19.7621L143.843 28.1056H147.833V13.2101H144.659V22.8231L143.457 20.0342L139.852 13.2101H134.842Z" fill="#676773"/>
<path d="M114.654 13.2101H111.186V28.1056H114.654V13.2101Z" fill="#676773"/>
<path d="M107.183 23.707C107.183 21.0997 105.8 19.8752 101.901 19.0367C99.7467 18.5605 99.2253 18.0846 99.2253 17.4043C99.2253 16.5435 99.9961 16.1801 101.424 16.1801C103.148 16.1801 104.848 16.7015 106.458 17.4271V14.0035C104.914 13.301 103.233 12.9524 101.538 12.9833C97.6834 12.9833 95.6884 14.661 95.6884 17.4043C95.6884 19.6034 96.7085 21.3494 100.699 22.1201C103.08 22.6199 103.578 23.0042 103.578 23.7978C103.578 24.5686 103.078 25.0676 101.402 25.0676C99.375 25.0311 97.3888 24.4937 95.6204 23.5032V27.0851C96.8221 27.6745 98.4089 28.332 101.356 28.332C105.528 28.332 107.183 26.4717 107.183 23.707Z" fill="#676773"/>
<path d="M54.3003 13.2101V28.1056H61.4301L62.5527 24.8861H57.7916V13.2101H54.3003Z" fill="#676773"/>
<path d="M40.2146 13.2101V16.4293H44.0689V28.1056H47.5602V16.4293H51.6866V13.2101H40.2146Z" fill="#676773"/>
<path d="M35.1517 13.2101H30.5761L25.3818 28.1056H29.3485L30.0849 25.597C31.8985 26.1295 33.8269 26.1295 35.6404 25.597L36.3768 28.1056H40.3443L35.1517 13.2101ZM32.8638 22.9108C32.2176 22.9108 31.5748 22.8183 30.9548 22.6362L32.8638 16.1358L34.7727 22.6384C34.1526 22.8198 33.5098 22.9115 32.8638 22.9108Z" fill="#676773"/>
<path d="M73.7225 13.2101H69.1471L63.9529 28.1056H67.9204L68.6568 25.597C70.4703 26.1295 72.3987 26.1295 74.2123 25.597L74.9487 28.1056H78.9162L73.7225 13.2101ZM71.4348 22.9108C70.7887 22.9108 70.1458 22.8183 69.5259 22.6362L71.4348 16.1358L73.3438 22.6384C72.7237 22.8198 72.0809 22.9115 71.4348 22.9108Z" fill="#676773"/>
<path d="M127.154 13.2101H122.579L117.385 28.1056H121.352L122.088 25.597C123.902 26.1295 125.83 26.1295 127.644 25.597L128.38 28.1056H132.348L127.154 13.2101ZM124.865 22.9108C124.219 22.9108 123.576 22.8183 122.956 22.6362L124.865 16.1358L126.774 22.6384C126.154 22.8198 125.511 22.9115 124.865 22.9108Z" fill="#676773"/>
</g>
<defs>
<clipPath id="clip0_44_686">
<rect width="148.333" height="40" fill="white" transform="translate(0.0834961)"/>
</clipPath>
</defs>
</svg>
