<svg width="93" height="40" viewBox="0 0 93 40" fill="none" xmlns="http://www.w3.org/2000/svg">
<g clip-path="url(#clip0_44_630)">
<path d="M13.1366 31.7219C11.745 31.9663 10.329 32.0396 8.86418 32.2347L4.3963 19.1489V32.7963C3.00475 32.9428 1.73525 33.1381 0.41687 33.3334V8.33337H4.12791L9.20592 22.5182V8.33337H13.1366V31.7219ZM20.827 17.4887C22.3408 17.4887 24.6601 17.4154 26.0517 17.4154V21.3216C24.3182 21.3216 22.2919 21.3216 20.827 21.3948V27.2055C23.122 27.059 25.417 26.8635 27.7362 26.7903V30.5498L16.9207 31.4045V8.33337H27.7362V12.2396H20.827V17.4887ZM42.2625 12.2397H38.2098V30.2084C36.8915 30.2084 35.5731 30.2084 34.3038 30.2571V12.2397H30.2511V8.33337H42.2627L42.2625 12.2397ZM48.6101 17.2202H53.9569V21.1263H48.6101V29.9887H44.7769V8.33337H55.6903V12.2396H48.6101V17.2202ZM62.0379 26.5707C64.2596 26.6194 66.5056 26.7905 68.6786 26.9124V30.7699C65.1874 30.55 61.6961 30.3306 58.1317 30.2571V8.33337H62.0379V26.5707ZM71.9744 31.0385C73.2195 31.1118 74.5379 31.1851 75.8074 31.3313V8.33337H71.9744V31.0385ZM92.9218 8.33337L87.9657 20.2231L92.9218 33.3334C91.4568 33.1381 89.992 32.8695 88.5271 32.6253L85.7196 25.3989L82.8634 32.0396C81.4471 31.7952 80.08 31.7219 78.6642 31.5266L83.6934 20.0764L79.1523 8.33337H83.3513L85.9148 14.9008L88.6493 8.33337H92.9218V8.33337Z" fill="#676773"/>
</g>
<defs>
<clipPath id="clip0_44_630">
<rect width="92.5" height="40" fill="white" transform="translate(0.416748)"/>
</clipPath>
</defs>
</svg>
