<svg width="93" height="40" viewBox="0 0 93 40" fill="none" xmlns="http://www.w3.org/2000/svg">
<g clip-path="url(#clip0_44_650)">
<path fill-rule="evenodd" clip-rule="evenodd" d="M57.0293 31.5058C51.7263 35.4145 44.04 37.4999 37.4222 37.4999C28.143 37.4999 19.7893 34.0679 13.4694 28.3597C12.9729 27.9109 13.4178 27.2991 14.0136 27.6487C20.834 31.617 29.2671 34.0043 37.9783 34.0043C43.8533 34.0043 50.3161 32.7888 56.2586 30.2664C57.1564 29.8851 57.9071 30.8543 57.0293 31.5058Z" fill="#676773"/>
<path fill-rule="evenodd" clip-rule="evenodd" d="M59.2339 28.9834C58.5586 28.1174 54.7532 28.5743 53.0452 28.7768C52.5248 28.8404 52.4454 28.3876 52.9141 28.0618C55.9449 25.9287 60.9182 26.5444 61.4981 27.2594C62.0781 27.9784 61.3472 32.9636 58.4991 35.343C58.0621 35.7084 57.645 35.5138 57.8397 35.0292C58.4792 33.4323 59.9132 29.8533 59.2339 28.9834Z" fill="#676773"/>
<path fill-rule="evenodd" clip-rule="evenodd" d="M53.1645 13.003V10.9295C53.1645 10.6157 53.4028 10.4052 53.6888 10.4052H62.972C63.2699 10.4052 63.5083 10.6197 63.5083 10.9295V12.7051C63.5043 13.003 63.254 13.3923 62.8091 14.008L57.9987 20.8761C59.7863 20.8324 61.6731 21.0985 63.2938 22.0121C63.6592 22.2187 63.7585 22.5206 63.7863 22.8185V25.031C63.7863 25.3329 63.4527 25.6865 63.1031 25.5037C60.247 24.0062 56.4535 23.8433 53.2956 25.5196C52.9738 25.6944 52.6362 25.3449 52.6362 25.043V22.9416C52.6362 22.604 52.6402 22.028 52.9778 21.5156L58.5509 13.5234H53.7007C53.4028 13.5234 53.1645 13.3129 53.1645 13.003Z" fill="#676773"/>
<path fill-rule="evenodd" clip-rule="evenodd" d="M19.3009 25.9407H16.4766C16.2065 25.9209 15.992 25.7183 15.9722 25.4601V10.9653C15.9722 10.6753 16.2145 10.4449 16.5164 10.4449H19.15C19.4241 10.4568 19.6425 10.6674 19.6624 10.9295V12.8243H19.714C20.4012 10.9931 21.6922 10.1391 23.4321 10.1391C25.1997 10.1391 26.304 10.9931 27.0985 12.8243C27.7817 10.9931 29.3349 10.1391 30.9992 10.1391C32.183 10.1391 33.4779 10.6276 34.2684 11.724C35.1622 12.9435 34.9794 14.7151 34.9794 16.2683L34.9755 25.4164C34.9755 25.7064 34.7332 25.9407 34.4313 25.9407H31.611C31.3289 25.9209 31.1025 25.6944 31.1025 25.4164V17.734C31.1025 17.1223 31.1581 15.5969 31.0231 15.017C30.8125 14.0438 30.181 13.7697 29.3627 13.7697C28.6794 13.7697 27.9644 14.2265 27.6745 14.9574C27.3845 15.6883 27.4123 16.9118 27.4123 17.734V25.4164C27.4123 25.7064 27.17 25.9407 26.8681 25.9407H24.0478C23.7618 25.9209 23.5393 25.6944 23.5393 25.4164L23.5354 17.734C23.5354 16.1173 23.8015 13.7379 21.7955 13.7379C19.7657 13.7379 19.8451 16.0577 19.8451 17.734V25.4164C19.8451 25.7064 19.6028 25.9407 19.3009 25.9407Z" fill="#676773"/>
<path fill-rule="evenodd" clip-rule="evenodd" d="M71.5004 10.1391C75.6911 10.1391 77.9593 13.7379 77.9593 18.314C77.9593 22.7351 75.4528 26.2426 71.5004 26.2426C67.3851 26.2426 65.1447 22.6437 65.1447 18.1591C65.1447 13.6466 67.4129 10.1391 71.5004 10.1391ZM71.5242 13.0984C69.4427 13.0984 69.3116 15.9346 69.3116 17.7022C69.3116 19.4739 69.2838 23.2555 71.5004 23.2555C73.6891 23.2555 73.7924 20.2048 73.7924 18.3457C73.7924 17.1223 73.7407 15.6605 73.3713 14.5006C73.0535 13.4916 72.4219 13.0984 71.5242 13.0984Z" fill="#676773"/>
<path fill-rule="evenodd" clip-rule="evenodd" d="M83.3934 25.9407H80.5811C80.299 25.9209 80.0726 25.6944 80.0726 25.4164L80.0686 10.9176C80.0925 10.6515 80.3268 10.4449 80.6128 10.4449H83.2306C83.4768 10.4568 83.6794 10.6237 83.735 10.8501V13.0666H83.7867C84.5771 11.0845 85.6854 10.1391 87.6358 10.1391C88.9029 10.1391 90.1383 10.5959 90.9328 11.8471C91.6716 13.007 91.6716 14.9574 91.6716 16.3596V25.4839C91.6398 25.7381 91.4055 25.9407 91.1274 25.9407H88.2952C88.037 25.9209 87.8225 25.7302 87.7947 25.4839V17.6109C87.7947 16.026 87.9774 13.7061 86.027 13.7061C85.3398 13.7061 84.7082 14.1669 84.3944 14.866C83.9972 15.7519 83.9456 16.6337 83.9456 17.6109V25.4164C83.9416 25.7064 83.6953 25.9407 83.3934 25.9407Z" fill="#676773"/>
<path fill-rule="evenodd" clip-rule="evenodd" d="M45.7642 19.017C45.7642 20.1174 45.792 21.0349 45.2359 22.0121C44.787 22.8066 44.072 23.2952 43.2815 23.2952C42.1971 23.2952 41.5615 22.4689 41.5615 21.2495C41.5615 18.8423 43.7185 18.4053 45.7642 18.4053V19.017ZM48.6123 25.901C48.4256 26.0678 48.1555 26.0797 47.945 25.9685C47.0075 25.1899 46.8367 24.8285 46.3243 24.0857C44.7751 25.6666 43.6748 26.1393 41.6688 26.1393C39.2894 26.1393 37.4423 24.6735 37.4423 21.738C37.4423 19.446 38.6816 17.8849 40.4533 17.1223C41.9866 16.447 44.1276 16.3278 45.7642 16.1411V15.7757C45.7642 15.1044 45.8158 14.3099 45.4186 13.73C45.077 13.2096 44.4176 12.9951 43.8337 12.9951C42.7572 12.9951 41.7999 13.5472 41.5655 14.6912C41.5178 14.9455 41.3311 15.1957 41.0729 15.2076L38.3361 14.9137C38.1057 14.8621 37.8475 14.6754 37.915 14.3218C38.5426 11.001 41.5456 10 44.2309 10C45.6053 10 47.4008 10.3654 48.4852 11.4062C49.8596 12.6892 49.7285 14.4013 49.7285 16.2643V20.6655C49.7285 21.9883 50.2767 22.5682 50.7931 23.2833C50.9718 23.5375 51.0115 23.8433 50.7811 24.034C50.2052 24.5147 49.1803 25.4084 48.6163 25.9089L48.6123 25.901Z" fill="#676773"/>
<path fill-rule="evenodd" clip-rule="evenodd" d="M8.73864 19.017C8.73864 20.1173 8.76644 21.0349 8.21032 22.0121C7.76146 22.8066 7.05042 23.2952 6.25597 23.2952C5.17154 23.2952 4.53996 22.4689 4.53996 21.2494C4.53996 18.8423 6.69689 18.4053 8.73864 18.4053V19.017ZM11.5867 25.901C11.4001 26.0678 11.1299 26.0797 10.9194 25.9685C9.98195 25.1899 9.81512 24.8285 9.29872 24.0856C7.74954 25.6666 6.6532 26.1393 4.64323 26.1393C2.26782 26.1393 0.416748 24.6735 0.416748 21.738C0.416748 19.446 1.66007 17.8849 3.42772 17.1223C4.96101 16.447 7.10206 16.3278 8.73864 16.1411V15.7757C8.73864 15.1044 8.79028 14.3099 8.39702 13.73C8.05143 13.2096 7.39204 12.9951 6.81209 12.9951C5.73561 12.9951 4.77432 13.5472 4.53996 14.6912C4.49229 14.9455 4.30559 15.1957 4.05137 15.2076L1.31051 14.9137C1.08012 14.8621 0.82589 14.6754 0.889446 14.3218C1.52104 11.001 4.52009 10 7.20534 10C8.57974 10 10.3752 10.3654 11.4596 11.4062C12.834 12.6892 12.7029 14.4013 12.7029 16.2643V20.6655C12.7029 21.9883 13.2511 22.5682 13.7675 23.2832C13.9502 23.5375 13.99 23.8433 13.7596 24.034C13.1836 24.5146 12.1588 25.4084 11.5947 25.9089L11.5867 25.901Z" fill="#676773"/>
</g>
<defs>
<clipPath id="clip0_44_650">
<rect width="91.6667" height="40" fill="white" transform="translate(0.416748)"/>
</clipPath>
</defs>
</svg>
