<svg width="111" height="40" viewBox="0 0 111 40" fill="none" xmlns="http://www.w3.org/2000/svg">
<g clip-path="url(#clip0_44_638)">
<path d="M18.8293 31.6439L11.6597 31.5127C9.33827 31.4671 7.01115 31.5583 4.73537 31.0849C1.27321 30.3777 1.02795 26.9098 0.771286 24.0009C0.417656 19.9113 0.554545 15.7476 1.22188 11.6923C1.59833 9.41649 3.08129 8.059 5.37419 7.9107C13.1141 7.37455 20.9054 7.4373 28.6282 7.68826C29.4439 7.71107 30.2652 7.83656 31.0694 7.97915C35.0392 8.675 35.1362 12.6049 35.3929 15.913C35.6495 19.2554 35.5412 22.6149 35.0506 25.9345C34.6571 28.6837 33.9042 30.988 30.7272 31.2104C26.746 31.5013 22.8561 31.7352 18.8635 31.661C18.8635 31.6439 18.8407 31.6439 18.8293 31.6439ZM14.6142 24.6854C17.6144 22.9628 20.5575 21.2688 23.5405 19.5577C20.5347 17.8352 17.5973 16.1412 14.6142 14.4301V24.6854Z" fill="#676773"/>
<path d="M93.086 28.518C92.9491 29.077 92.8294 29.5162 92.7096 29.9839H89.9034V8.33826H93.1773V16.3235C93.3484 16.1067 93.434 16.0155 93.5081 15.9185C94.0671 15.1485 94.7914 14.6466 95.7269 14.4526C97.2155 14.1618 98.4874 14.8177 98.938 16.2493C99.2289 17.1391 99.4172 18.0916 99.44 19.0213C99.4856 21.4112 99.4514 23.7953 99.3658 26.1852C99.3316 26.9153 99.1092 27.6625 98.8297 28.3469C97.9114 30.6056 94.9112 30.9478 93.4225 28.9914C93.3313 28.8716 93.2457 28.7405 93.086 28.518ZM93.2457 26.5217C93.2457 27.1662 93.588 27.5598 94.2325 27.7081C94.8656 27.8564 95.3789 27.6111 95.6356 27.0236C95.744 26.7784 95.8523 26.5217 95.858 26.265C95.9208 23.8467 95.9778 21.4283 95.9949 19.0042C95.9949 18.5536 95.8866 18.0859 95.7497 17.6467C95.493 16.8539 94.7857 16.6201 94.0899 17.0821C93.5651 17.4357 93.2457 17.9376 93.2457 18.605V26.5217ZM84.3479 14.7606H87.7759V29.9953H85.1008C85.0039 29.4192 84.9069 28.826 84.7928 28.1302C84.6103 28.3982 84.5019 28.5694 84.3879 28.7405C83.4981 30.0238 82.2376 30.463 80.7489 30.2291C79.477 30.0238 78.7127 29.0428 78.5415 27.4343C78.4902 26.9552 78.4674 26.4704 78.4674 25.9913C78.456 22.4264 78.4674 18.8502 78.4674 15.2854V14.7492H81.9353V15.3709C81.9353 18.816 81.9238 22.2553 81.9467 25.7004C81.9467 26.1909 81.998 26.6985 82.0835 27.1891C82.1805 27.691 82.5456 27.8735 83.0361 27.8393C83.8289 27.7765 84.3764 27.1891 84.3764 26.4019V15.4337C84.3479 15.2112 84.3479 15.0059 84.3479 14.7606ZM60.7459 14.7492H64.191V15.3938C64.191 18.8217 64.1796 22.2439 64.2024 25.6605C64.2024 26.151 64.248 26.6586 64.3507 27.1377C64.4819 27.7024 64.8127 27.8849 65.3774 27.8108C66.1588 27.7024 66.6322 27.1605 66.6379 26.3677V14.7721H70.0658V29.9953H67.4022C67.3052 29.4306 67.2082 28.8488 67.0828 28.1131C66.9117 28.3697 66.8147 28.518 66.7177 28.672C65.8279 29.9782 64.5788 30.4573 63.0559 30.2234C61.8353 30.0409 61.0882 29.1397 60.86 27.6625C60.7973 27.2005 60.7516 26.7442 60.7516 26.2822C60.7402 22.5804 60.7402 18.8616 60.7402 15.1599L60.7459 14.7492ZM58.9778 22.8827C58.9664 23.3961 58.9321 23.9094 58.9036 24.4227C58.7724 25.9628 58.7097 28.1473 57.4663 29.2709C56.6735 29.9782 55.6696 30.2348 54.6315 30.2691C54.1695 30.2805 53.7018 30.2805 53.2398 30.2177C51.0553 29.8869 50.04 28.923 49.675 26.5217C49.2586 23.7497 49.2244 20.9321 49.7206 18.1601C50.234 15.2911 52.0021 14.2758 54.7513 14.4641C57.318 14.6466 58.4644 16.3292 58.7667 18.7247C58.9321 20.0993 59.012 21.491 58.9778 22.8827ZM55.4871 22.358C55.4871 21.3827 55.5099 20.4016 55.4757 19.4263C55.4529 18.8616 55.3787 18.2912 55.2589 17.7323C55.1221 17.0878 54.7114 16.7798 54.1981 16.7912C53.6961 16.8026 53.3425 17.1106 53.16 17.7095C53.0972 17.9319 53.0288 18.1601 53.0288 18.3825C53.0288 19.9111 53.0174 21.4454 53.006 22.974C52.9946 24.3999 52.8121 25.8943 53.2626 27.2575C53.3995 27.6739 53.7532 27.902 54.2152 27.902C54.6658 27.902 54.9624 27.6796 55.1278 27.2803C55.2589 26.9723 55.373 26.6358 55.373 26.305C55.4129 24.9931 55.4871 23.6756 55.4871 22.358ZM44.6443 19.489C44.9466 18.0118 45.2318 16.5687 45.5455 15.12C45.9391 13.2777 46.3783 11.4354 46.7661 9.58737C46.8631 9.13678 47.0456 9.02841 47.4734 9.03981C48.3917 9.07404 49.3271 9.05122 50.3081 9.05122C49.9887 10.2262 49.675 11.3441 49.367 12.4449C48.3917 15.9014 47.4163 19.3693 46.4524 22.8371C46.3783 23.1052 46.344 23.3961 46.344 23.6813C46.3326 25.5749 46.344 27.4628 46.344 29.3565V29.9725H42.9959C42.9845 29.8014 42.9617 29.6302 42.9617 29.4591C42.9617 28.3868 42.8762 27.3088 42.9731 26.2479C43.2184 23.6984 42.4085 21.3541 41.7525 18.9814C40.8856 15.8444 40.0072 12.6959 39.1402 9.55885C39.0946 9.41056 39.0775 9.25085 39.0319 9.06833H42.4484C43.1671 12.5305 43.8914 15.9926 44.6443 19.489ZM110.152 23.4645H104.379C104.442 24.6224 104.465 25.7232 104.585 26.8126C104.67 27.5712 105.087 27.8963 105.743 27.902C106.427 27.9134 106.826 27.5712 106.986 26.8183C107.037 26.573 107.072 26.3278 107.094 26.0768C107.117 25.8544 107.129 25.6148 107.146 25.2954C108.121 25.3467 109.074 25.4038 110.015 25.4437C110.562 27.0693 109.575 29.1568 107.916 29.8014C106.61 30.3147 105.269 30.3147 103.935 29.9211C102.948 29.6302 102.212 29.0028 101.881 28.0389C101.573 27.1377 101.282 26.1966 101.22 25.2555C101.048 22.9341 100.986 20.5898 101.339 18.2627C101.402 17.8749 101.51 17.5041 101.63 17.1277C102.109 15.5763 103.153 14.6238 104.767 14.4641C105.646 14.3785 106.553 14.4127 107.419 14.561C108.823 14.8063 109.57 15.8158 109.895 17.1391C110.043 17.7608 110.152 18.3996 110.174 19.0327C110.18 20.4872 110.152 21.9302 110.152 23.4645ZM106.872 21.4625C106.872 20.3161 106.883 19.2381 106.861 18.1544C106.861 17.8977 106.764 17.6296 106.667 17.3844C106.473 16.9052 106.068 16.7741 105.583 16.7741C105.098 16.7741 104.79 17.0193 104.67 17.4585C104.305 18.7761 104.425 20.1221 104.436 21.4739C105.309 21.4625 106.102 21.4625 106.872 21.4625Z" fill="#676773"/>
<path d="M72.7122 11.846H69.3185V9.09682H79.4483V11.8289H76.0774V29.9724H72.7179L72.7122 11.846Z" fill="#676773"/>
</g>
<defs>
<clipPath id="clip0_44_638">
<rect width="110" height="40" fill="white" transform="translate(0.583374)"/>
</clipPath>
</defs>
</svg>
