<svg width="112" height="40" viewBox="0 0 112 40" fill="none" xmlns="http://www.w3.org/2000/svg">
<g clip-path="url(#clip0_44_641)">
<path d="M12.7793 5H0.583496V34.1667L12.7793 5Z" fill="#676773"/>
<path d="M21.3601 5H33.54V34.1667L21.3601 5Z" fill="#676773"/>
<path d="M17.0697 15.7499L24.8321 34.1667H19.7393L17.4193 28.3032H11.7385L17.0697 15.7499Z" fill="#676773"/>
<path d="M53.4364 23.5482L54.8745 27.6717C54.9221 27.775 54.9936 27.8227 55.1208 27.8227H57.8857C58.0366 27.8227 58.0605 27.7512 58.0366 27.6002L52.3241 11.7337C52.3002 11.6066 52.2764 11.5828 52.1493 11.5828H48.717C48.6216 11.5828 48.566 11.6543 48.566 11.7576C48.5183 12.5918 48.4468 12.846 48.3435 13.0923L43.2507 27.5764C43.2269 27.7512 43.2825 27.8227 43.4255 27.8227H45.8964C46.0474 27.8227 46.1189 27.775 46.1745 27.624L47.5331 23.5482H53.4364ZM48.3197 20.8548C49.0666 18.5983 50.0518 15.7063 50.449 14.0537H50.4729C50.9655 15.7858 52.1254 19.2181 52.6498 20.8548H48.3197Z" fill="#676773"/>
<path d="M65.3807 28.0689C66.8665 28.0689 68.4476 27.7988 70.0525 27.1076C70.1796 27.0599 70.2035 27.0043 70.2035 26.8851C70.1558 26.4402 70.1002 25.7966 70.1002 25.304V10.3671C70.1002 10.2718 70.1002 10.2241 69.981 10.2241H67.2876C67.1843 10.2241 67.1366 10.2718 67.1366 10.3989V15.46C66.7155 15.4123 66.4216 15.3885 66.072 15.3885C61.726 15.3885 59.0564 18.2567 59.0564 21.8399C59.0564 25.9953 61.7975 28.0689 65.3807 28.0689ZM67.1366 25.304C66.6917 25.447 66.1991 25.5027 65.6986 25.5027C63.7282 25.5027 62.1153 24.3903 62.1153 21.689C62.1153 19.2975 63.7758 17.8833 65.9766 17.8833C66.4216 17.8833 66.8109 17.9309 67.1366 18.058V25.304Z" fill="#676773"/>
<path d="M78.7958 15.3884C75.0855 15.3884 72.7893 18.2328 72.7893 21.7446C72.7893 24.8829 74.6167 28.0689 78.7402 28.0689C82.2281 28.0689 84.6753 25.5026 84.6753 21.6651C84.6753 18.2805 82.6016 15.3884 78.7958 15.3884ZM78.6449 17.8832C80.7424 17.8832 81.6323 19.6868 81.6323 21.7446C81.6323 24.287 80.3213 25.5503 78.7958 25.5503C76.9128 25.5503 75.8005 23.9692 75.8005 21.6889C75.8005 19.3451 76.9843 17.8832 78.6449 17.8832Z" fill="#676773"/>
<path d="M87.4599 10.2241C87.3567 10.2241 87.2852 10.2718 87.2852 10.3989V27.3062C87.2852 27.3777 87.3567 27.5048 87.4599 27.5287C88.6438 27.8941 89.8832 28.0689 91.1624 28.0689C94.8251 28.0689 98.3845 25.7966 98.3845 21.2202C98.3845 17.9071 96.1122 15.3885 92.5528 15.3885C91.7344 15.3885 90.9717 15.5156 90.3043 15.7381L90.2725 10.4227C90.2725 10.248 90.2249 10.2241 90.0501 10.2241H87.4599ZM95.3415 21.5221C95.3415 24.2632 93.4665 25.5503 91.4405 25.5503C91.0194 25.5503 90.646 25.5265 90.3043 25.4232V18.209C90.6936 18.058 91.1624 17.9309 92.0284 17.9309C93.9829 17.9309 95.3415 19.1704 95.3415 21.5221Z" fill="#676773"/>
<path d="M108.436 22.4119C109.644 22.4119 110.637 22.3881 110.979 22.3087C111.106 22.2848 111.153 22.2372 111.177 22.1339C111.249 21.8637 111.28 21.2996 111.28 20.6084C111.28 18.2566 109.866 15.3884 106.211 15.3884C102.477 15.3884 100.404 18.4314 100.404 21.8637C100.404 24.9067 102.008 28.0689 106.505 28.0689C108.19 28.0689 109.278 27.7988 110.216 27.3538C110.311 27.3062 110.359 27.2267 110.359 27.0837V25.0259C110.359 24.9067 110.287 24.8829 110.216 24.9306C109.278 25.3278 108.261 25.5264 107.149 25.5264C104.63 25.5264 103.486 24.136 103.415 22.4119H108.436ZM103.415 20.2826C103.613 19.075 104.376 17.764 106.084 17.764C107.967 17.764 108.46 19.3451 108.46 20.0602C108.46 20.084 108.46 20.1873 108.46 20.2588C108.357 20.2826 108.039 20.2826 107.101 20.2826H103.415Z" fill="#676773"/>
</g>
<defs>
<clipPath id="clip0_44_641">
<rect width="110.833" height="40" fill="white" transform="translate(0.583496)"/>
</clipPath>
</defs>
</svg>
