<svg width="1280" height="646" viewBox="0 0 1280 646" fill="none" xmlns="http://www.w3.org/2000/svg">
<g clip-path="url(#clip0_274_2573)">
<rect width="1280" height="645.214" fill="#FCF2F0"/>
<circle cx="1024.5" cy="621.5" r="31.5" fill="#EC9685"/>
<circle cx="939.5" cy="636.5" r="14.5" fill="#EC9685"/>
<circle cx="866.5" cy="644.5" r="27.5" fill="#EC9685"/>
<circle cx="782" cy="637" r="19" fill="#EC9685"/>
<circle cx="738.5" cy="624.5" r="12.5" fill="#EC9685"/>
<circle cx="694.5" cy="609.5" r="12.5" fill="#EC9685"/>
<circle cx="644" cy="580" r="17" fill="#EC9685"/>
<circle cx="475" cy="445" r="17" fill="#EC9685"/>
<circle cx="14" cy="14" r="14" transform="matrix(1 0 0 -1 415 413)" fill="#EC9685"/>
<circle cx="28" cy="28" r="28" transform="matrix(1 0 0 -1 349 351)" fill="#EC9685"/>
<circle cx="586.5" cy="540.5" r="22.5" fill="#EC9685"/>
<circle cx="533" cy="491" r="24" fill="#EC9685"/>
<circle cx="321" cy="66" r="14" fill="#EC9685"/>
<circle cx="307" cy="125" r="21" fill="#EC9685"/>
<circle cx="342" cy="212" r="35" fill="#EC9685"/>
<circle cx="357.5" cy="2.5" r="29.5" fill="#EC9685"/>
<circle cx="1296.5" cy="585.5" r="59.5" fill="#EC9685"/>
<circle cx="1181" cy="590" r="34" fill="#EC9685"/>
<circle cx="1104.5" cy="603.5" r="20.5" fill="#EC9685"/>
</g>
<defs>
<clipPath id="clip0_274_2573">
<rect width="1280" height="645.214" fill="white"/>
</clipPath>
</defs>
</svg>
