<svg width="1280" height="675" viewBox="0 0 1280 675" fill="none" xmlns="http://www.w3.org/2000/svg">
<g clip-path="url(#clip0_229_1732)">
<rect width="1280" height="674.911" fill="#F0F7FC"/>
<circle cx="317.5" cy="368.5" r="34.5" fill="#579FD3"/>
<circle cx="418.5" cy="394.5" r="34.5" fill="#579FD3"/>
<circle cx="508.5" cy="401.5" r="18.5" fill="#579FD3"/>
<circle cx="642.5" cy="374.5" r="11.5" fill="#579FD3"/>
<circle cx="582" cy="388" r="17" fill="#579FD3"/>
<circle cx="5" cy="5" r="5" transform="matrix(-1 0 0 1 717 366)" fill="#579FD3"/>
<circle cx="14" cy="14" r="14" transform="matrix(-1 0 0 1 858 361)" fill="#579FD3"/>
<circle cx="2" cy="162" r="65" fill="#579FD3"/>
<circle cx="91.5" cy="262.5" r="24.5" fill="#579FD3"/>
<circle cx="161.5" cy="310.5" r="34.5" fill="#579FD3"/>
<circle cx="239.5" cy="348.5" r="18.5" fill="#579FD3"/>
<circle cx="1042.5" cy="394.5" r="29.5" fill="#579FD3"/>
<circle cx="939.5" cy="375.5" r="38.5" fill="#579FD3"/>
<circle cx="773.5" cy="370.5" r="19.5" fill="#579FD3"/>
<circle cx="1131.5" cy="419.5" r="24.5" fill="#579FD3"/>
<circle cx="1350" cy="573" r="149" fill="#579FD3"/>
</g>
<defs>
<clipPath id="clip0_229_1732">
<rect width="1280" height="674.911" fill="white"/>
</clipPath>
</defs>
</svg>
