<svg width="101" height="19" viewBox="0 0 101 19" fill="none" xmlns="http://www.w3.org/2000/svg">
<path d="M0.8 15V0.4H4.68L8.34 9.12H8.7L12.34 0.4H16.28V15H13.46V2.54L13.82 2.58L9.88 12.02H6.98L3.02 2.58L3.4 2.54V15H0.8ZM24.172 15.38C23.2387 15.38 22.4187 15.22 21.712 14.9C21.0187 14.58 20.4387 14.1533 19.972 13.62C19.5187 13.0733 19.172 12.4667 18.932 11.8C18.7054 11.1333 18.592 10.4533 18.592 9.76V9.38C18.592 8.66 18.7054 7.96667 18.932 7.3C19.172 6.62 19.5187 6.02 19.972 5.5C20.4387 4.96667 21.012 4.54667 21.692 4.24C22.372 3.92 23.1587 3.76 24.052 3.76C25.2254 3.76 26.2054 4.02 26.992 4.54C27.792 5.04667 28.392 5.72 28.792 6.56C29.192 7.38667 29.392 8.28 29.392 9.24V10.24H19.772V8.54H27.652L26.792 9.38C26.792 8.68667 26.692 8.09333 26.492 7.6C26.292 7.10667 25.9854 6.72667 25.572 6.46C25.172 6.19333 24.6654 6.06 24.052 6.06C23.4387 6.06 22.9187 6.2 22.492 6.48C22.0654 6.76 21.7387 7.16667 21.512 7.7C21.2987 8.22 21.192 8.84667 21.192 9.58C21.192 10.26 21.2987 10.8667 21.512 11.4C21.7254 11.92 22.052 12.3333 22.492 12.64C22.932 12.9333 23.492 13.08 24.172 13.08C24.852 13.08 25.4054 12.9467 25.832 12.68C26.2587 12.4 26.532 12.06 26.652 11.66H29.212C29.052 12.4067 28.7454 13.06 28.292 13.62C27.8387 14.18 27.2587 14.6133 26.552 14.92C25.8587 15.2267 25.0654 15.38 24.172 15.38ZM31.3644 15V4.14H33.5644V8.8H33.3644C33.3644 7.69333 33.511 6.77333 33.8044 6.04C34.0977 5.29333 34.531 4.73333 35.1044 4.36C35.691 3.98667 36.4177 3.8 37.2844 3.8H37.4044C38.6977 3.8 39.6777 4.22 40.3444 5.06C41.011 5.88667 41.3444 7.12667 41.3444 8.78V15H38.5644V8.54C38.5644 7.87333 38.371 7.33333 37.9844 6.92C37.611 6.50667 37.091 6.3 36.4244 6.3C35.7444 6.3 35.191 6.51333 34.7644 6.94C34.351 7.35333 34.1444 7.91333 34.1444 8.62V15H31.3644ZM48.7031 15.14C47.7031 15.14 46.8765 15.0133 46.2231 14.76C45.5831 14.4933 45.1031 14.0533 44.7831 13.44C44.4631 12.8133 44.3031 11.9733 44.3031 10.92L44.3231 1.08H46.9231L46.9031 11.1C46.9031 11.6333 47.0431 12.0467 47.3231 12.34C47.6165 12.62 48.0298 12.76 48.5631 12.76H50.2631V15.14H48.7031ZM42.5831 6.18V4.14H50.2631V6.18H42.5831ZM57.4078 15.38C56.4478 15.38 55.6011 15.2267 54.8678 14.92C54.1345 14.6133 53.5145 14.2 53.0078 13.68C52.5011 13.1467 52.1145 12.5467 51.8478 11.88C51.5945 11.2133 51.4678 10.52 51.4678 9.8V9.38C51.4678 8.63333 51.6011 7.92667 51.8678 7.26C52.1478 6.58 52.5411 5.98 53.0478 5.46C53.5678 4.92667 54.1945 4.51333 54.9278 4.22C55.6611 3.91333 56.4878 3.76 57.4078 3.76C58.3278 3.76 59.1545 3.91333 59.8878 4.22C60.6211 4.51333 61.2411 4.92667 61.7478 5.46C62.2678 5.98 62.6611 6.58 62.9278 7.26C63.1945 7.92667 63.3278 8.63333 63.3278 9.38V9.8C63.3278 10.52 63.1945 11.2133 62.9278 11.88C62.6745 12.5467 62.2945 13.1467 61.7878 13.68C61.2811 14.2 60.6611 14.6133 59.9278 14.92C59.1945 15.2267 58.3545 15.38 57.4078 15.38ZM57.4078 13C58.0878 13 58.6611 12.8533 59.1278 12.56C59.5945 12.2533 59.9478 11.8467 60.1878 11.34C60.4278 10.82 60.5478 10.2333 60.5478 9.58C60.5478 8.91333 60.4211 8.32667 60.1678 7.82C59.9278 7.3 59.5678 6.89333 59.0878 6.6C58.6211 6.29333 58.0611 6.14 57.4078 6.14C56.7545 6.14 56.1878 6.29333 55.7078 6.6C55.2411 6.89333 54.8811 7.3 54.6278 7.82C54.3745 8.32667 54.2478 8.91333 54.2478 9.58C54.2478 10.2333 54.3678 10.82 54.6078 11.34C54.8611 11.8467 55.2211 12.2533 55.6878 12.56C56.1545 12.8533 56.7278 13 57.4078 13ZM65.412 15V4.14H67.612V8.74H67.552C67.552 7.18 67.8854 6 68.552 5.2C69.2187 4.4 70.1987 4 71.492 4H71.892V6.42H71.132C70.1987 6.42 69.472 6.67333 68.952 7.18C68.4454 7.67333 68.192 8.39333 68.192 9.34V15H65.412Z" fill="#14141A"/>
<path d="M79.6419 15.38C78.2819 15.38 77.1352 15.12 76.2019 14.6C75.2685 14.08 74.5552 13.3533 74.0619 12.42C73.5819 11.4733 73.3419 10.3667 73.3419 9.1V0.4H76.1819V9.26C76.1819 9.95333 76.3152 10.5667 76.5819 11.1C76.8485 11.62 77.2352 12.0267 77.7419 12.32C78.2619 12.6 78.8952 12.74 79.6419 12.74C80.3752 12.74 80.9952 12.6 81.5019 12.32C82.0219 12.0267 82.4085 11.62 82.6619 11.1C82.9285 10.58 83.0619 9.96667 83.0619 9.26V0.4H85.9019V9.1C85.9019 10.3667 85.6619 11.4733 85.1819 12.42C84.7152 13.3533 84.0152 14.08 83.0819 14.6C82.1485 15.12 81.0019 15.38 79.6419 15.38ZM88.6573 19V4.14H90.8573V8.82L90.5173 8.8C90.5707 7.69333 90.7973 6.76667 91.1973 6.02C91.6107 5.27333 92.1573 4.72 92.8373 4.36C93.5173 3.98667 94.2773 3.8 95.1173 3.8C95.8907 3.8 96.584 3.94 97.1973 4.22C97.824 4.5 98.3573 4.89333 98.7973 5.4C99.2507 5.90667 99.5973 6.5 99.8373 7.18C100.077 7.84667 100.197 8.56667 100.197 9.34V9.76C100.197 10.5467 100.077 11.28 99.8373 11.96C99.6107 12.6267 99.2707 13.22 98.8173 13.74C98.3773 14.2467 97.844 14.6467 97.2173 14.94C96.5907 15.22 95.8907 15.36 95.1173 15.36C94.304 15.36 93.5573 15.1933 92.8773 14.86C92.2107 14.5133 91.6707 13.9867 91.2573 13.28C90.844 12.56 90.6107 11.6333 90.5573 10.5L91.4373 11.84V19H88.6573ZM94.4173 13.02C95.0173 13.02 95.5373 12.8733 95.9773 12.58C96.4307 12.2867 96.784 11.88 97.0373 11.36C97.2907 10.8267 97.4173 10.2267 97.4173 9.56C97.4173 8.86667 97.2907 8.26667 97.0373 7.76C96.784 7.25333 96.4307 6.86 95.9773 6.58C95.5373 6.28667 95.0173 6.14 94.4173 6.14C93.8707 6.14 93.364 6.26 92.8973 6.5C92.444 6.74 92.0707 7.09333 91.7773 7.56C91.4973 8.02667 91.3573 8.58667 91.3573 9.24V10.04C91.3573 10.6667 91.504 11.2 91.7973 11.64C92.0907 12.08 92.4707 12.42 92.9373 12.66C93.404 12.9 93.8973 13.02 94.4173 13.02Z" fill="#4B4BFA"/>
</svg>
