<svg width="1280" height="857" viewBox="0 0 1280 857" fill="none" xmlns="http://www.w3.org/2000/svg">
<g clip-path="url(#clip0_294_2677)">
<rect width="1280" height="857" fill="#E9E3FC"/>
<circle cx="25.5" cy="450.5" r="71.5" transform="rotate(180 25.5 450.5)" fill="#AD9DDD"/>
<circle cx="106" cy="314" r="42" transform="rotate(180 106 314)" fill="#AD9DDD"/>
<circle cx="197" cy="242" r="29" transform="rotate(180 197 242)" fill="#AD9DDD"/>
<circle cx="295.5" cy="193.5" r="38.5" transform="rotate(180 295.5 193.5)" fill="#AD9DDD"/>
<circle cx="401.5" cy="142.5" r="29.5" transform="rotate(180 401.5 142.5)" fill="#AD9DDD"/>
<circle cx="511.5" cy="111.5" r="42.5" transform="rotate(180 511.5 111.5)" fill="#AD9DDD"/>
<circle cx="698.5" cy="95.5" r="37.5" transform="rotate(180 698.5 95.5)" fill="#AD9DDD"/>
<circle cx="792.5" cy="88.5" r="23.5" transform="rotate(180 792.5 88.5)" fill="#AD9DDD"/>
<circle cx="881.5" cy="100.5" r="32.5" transform="rotate(180 881.5 100.5)" fill="#AD9DDD"/>
<circle cx="993.5" cy="138.5" r="33.5" transform="rotate(180 993.5 138.5)" fill="#AD9DDD"/>
<circle cx="24.5" cy="24.5" r="24.5" transform="matrix(-1 0 0 1 1101 155)" fill="#AD9DDD"/>
<circle cx="15" cy="15" r="15" transform="matrix(-1 0 0 1 1139 204)" fill="#AD9DDD"/>
<circle cx="23" cy="23" r="23" transform="matrix(-1 0 0 1 1179 246)" fill="#AD9DDD"/>
<circle cx="29.5" cy="29.5" r="29.5" transform="matrix(-1 0 0 1 1209 316)" fill="#AD9DDD"/>
<circle cx="15.5" cy="15.5" r="15.5" transform="matrix(-1 0 0 1 1198 399)" fill="#AD9DDD"/>
<circle cx="19" cy="19" r="19" transform="matrix(-1 0 0 1 1190 456)" fill="#AD9DDD"/>
<circle cx="8" cy="8" r="8" transform="matrix(-1 0 0 1 1164 513)" fill="#AD9DDD"/>
<circle cx="14" cy="14" r="14" transform="matrix(-1 0 0 1 628 82)" fill="#AD9DDD"/>
<circle cx="12" cy="12" r="12" transform="matrix(-1 0 0 1 1150 544)" fill="#AD9DDD"/>
<circle cx="17.5" cy="17.5" r="17.5" transform="matrix(-1 0 0 1 1126 583)" fill="#AD9DDD"/>
<circle cx="30" cy="30" r="30" transform="matrix(-1 0 0 1 1087 626)" fill="#AD9DDD"/>
<circle cx="19" cy="19" r="19" transform="matrix(-1 0 0 1 1004 678)" fill="#AD9DDD"/>
</g>
<defs>
<clipPath id="clip0_294_2677">
<rect width="1280" height="857" fill="white"/>
</clipPath>
</defs>
</svg>
