<svg width="1280" height="857" viewBox="0 0 1280 857" fill="none" xmlns="http://www.w3.org/2000/svg">
<g clip-path="url(#clip0_294_2828)">
<rect width="1280" height="857" fill="#E3FBFC"/>
<circle cx="1333" cy="319" r="149" fill="#54C4C8"/>
<circle cx="1175" cy="533" r="42" fill="#54C4C8"/>
<circle cx="1084" cy="605" r="29" fill="#54C4C8"/>
<circle cx="977" cy="662" r="47" fill="#54C4C8"/>
<circle cx="844" cy="710" r="26" fill="#54C4C8"/>
<circle cx="735.5" cy="735.5" r="43.5" fill="#54C4C8"/>
<circle cx="287.5" cy="708.5" r="33.5" fill="#54C4C8"/>
<circle cx="24.5" cy="24.5" r="24.5" transform="matrix(1 0 0 -1 180 692)" fill="#54C4C8"/>
<circle cx="15" cy="15" r="15" transform="matrix(1 0 0 -1 142 643)" fill="#54C4C8"/>
<circle cx="23" cy="23" r="23" transform="matrix(1 0 0 -1 102 601)" fill="#54C4C8"/>
<circle cx="23" cy="23" r="23" transform="matrix(1 0 0 -1 598 788)" fill="#54C4C8"/>
<circle cx="29.5" cy="29.5" r="29.5" transform="matrix(1 0 0 -1 72 531)" fill="#54C4C8"/>
<circle cx="29.5" cy="29.5" r="29.5" transform="matrix(1 0 0 -1 393 789)" fill="#54C4C8"/>
<circle cx="15.5" cy="15.5" r="15.5" transform="matrix(1 0 0 -1 83 448)" fill="#54C4C8"/>
<circle cx="15.5" cy="15.5" r="15.5" transform="matrix(1 0 0 -1 485 789)" fill="#54C4C8"/>
<circle cx="19" cy="19" r="19" transform="matrix(1 0 0 -1 91 391)" fill="#54C4C8"/>
<circle cx="8" cy="8" r="8" transform="matrix(1 0 0 -1 117 334)" fill="#54C4C8"/>
<circle cx="8" cy="8" r="8" transform="matrix(1 0 0 -1 549 787)" fill="#54C4C8"/>
<circle cx="12" cy="12" r="12" transform="matrix(1 0 0 -1 131 303)" fill="#54C4C8"/>
<circle cx="12" cy="12" r="12" transform="matrix(1 0 0 -1 345 754)" fill="#54C4C8"/>
<circle cx="17.5" cy="17.5" r="17.5" transform="matrix(1 0 0 -1 155 264)" fill="#54C4C8"/>
<circle cx="30" cy="30" r="30" transform="matrix(1 0 0 -1 194 221)" fill="#54C4C8"/>
<circle cx="19" cy="19" r="19" transform="matrix(1 0 0 -1 277 169)" fill="#54C4C8"/>
</g>
<defs>
<clipPath id="clip0_294_2828">
<rect width="1280" height="857" fill="white"/>
</clipPath>
</defs>
</svg>
